<?xml version="1.0" encoding="UTF-8" standalone="no"?>
<!DOCTYPE svg PUBLIC "-//W3C//DTD SVG 1.1//EN" "http://www.w3.org/Graphics/SVG/1.1/DTD/svg11.dtd" >
<svg xmlns="http://www.w3.org/2000/svg">
<metadata>
This is a SVG font generated by e-font.
</metadata>
<defs>
<font id="CircularSpotifyTextMediumItalic" horiz-adv-x="567" >
<font-face units-per-em="1000" ascent="1033" descent="-378" />
<missing-glyph horiz-adv-x="567" />
<glyph unicode="&#x20;" horiz-adv-x="239" />
<glyph unicode="&#x21;" horiz-adv-x="262" d="M71 210L155 210L289 709L146 709ZM13 58C13 22 40 -7 80 -7C121 -7 160 29 160 75C160 111 134 140 93 140C48 140 13 102 13 58Z"/>
<glyph unicode="&#x22;" horiz-adv-x="399" d="M119 444L160 444L243 623C248 634 252 648 252 660C252 695 227 720 188 720C144 720 114 687 114 645C114 637 115 619 115 618ZM300 444L341 444L424 623C429 634 434 648 434 660C434 695 408 720 370 720C325 720 296 687 296 645L296 618Z"/>
<glyph unicode="&#x23;" horiz-adv-x="714" d="M365 0L459 0L496 182L649 182L649 269L515 269L550 438L702 438L702 525L568 525L607 709L513 709L474 525L332 525L371 709L277 709L238 525L91 525L91 438L221 438L185 269L39 269L39 182L166 182L129 0L222 0L260 182L402 182ZM314 438L456 438L421 269L279 269Z"/>
<glyph unicode="&#x24;" horiz-adv-x="563" d="M106 499C106 420 147 359 232 323L321 286C371 265 387 234 387 198C387 139 338 101 265 101C171 101 126 161 126 234C126 244 127 256 129 265L23 245C21 235 20 225 20 211C20 129 70 40 180 11L154 -115L250 -115L274 0L280 0C418 6 505 100 505 207C505 287 462 346 366 389L283 425C245 442 220 467 220 511C220 565 271 608 335 608C441 608 459 531 459 494L566 513C565 579 529 668 422 698L447 819L352 819L329 708L321 708C207 700 106 621 106 499Z"/>
<glyph unicode="&#x25;" horiz-adv-x="860" d="M94 0L201 0L793 709L686 709ZM266 719C171 719 89 641 89 542C89 461 150 398 234 398C323 398 413 472 413 574C413 655 350 719 266 719ZM242 484C204 485 181 511 181 548C181 598 218 632 258 632C297 632 321 606 321 569C321 517 282 484 242 484ZM652 311C557 311 474 233 474 134C474 53 535 -10 620 -10C709 -10 798 64 798 166C798 247 736 311 652 311ZM628 76C590 77 566 103 566 140C566 190 604 224 643 224C682 224 706 198 706 161C706 109 668 76 628 76Z"/>
<glyph unicode="&#x26;" horiz-adv-x="685" d="M611 0L504 152L626 256L659 413L448 233L354 368L382 384C449 421 521 472 521 565C521 652 454 724 343 724C245 724 141 663 141 539C141 485 168 441 191 409L202 394L187 386C95 337 23 277 23 171C23 76 97 -8 219 -8C295 -8 350 21 409 71L420 80L476 0ZM141 178C141 233 166 264 222 295L257 314L364 161L356 155C318 123 275 96 232 96C178 96 141 134 141 178ZM299 446L279 475C266 493 254 517 254 543C254 603 300 626 335 626C379 626 408 600 408 561C408 527 390 494 333 464Z"/>
<glyph unicode="&#x27;" horiz-adv-x="218" d="M119 444L160 444L243 623C248 634 252 648 252 660C252 695 227 720 188 720C144 720 114 687 114 645C114 637 115 619 115 618Z"/>
<glyph unicode="&#x28;" horiz-adv-x="329" d="M41 204C41 60 93 -65 155 -157L234 -108C176 -15 140 93 140 210C140 452 258 621 410 732L357 804C150 663 41 453 41 204Z"/>
<glyph unicode="&#x29;" horiz-adv-x="327" d="M300 436C300 578 252 702 187 799L108 750C166 658 201 550 201 435C201 191 81 24 -70 -90L-17 -161C186 -16 300 190 300 436Z"/>
<glyph unicode="&#x2a;" horiz-adv-x="459" d="M360 709L261 709L240 579L128 619L87 536L200 497L100 392L166 338L265 444L326 338L405 391L345 491L473 531L461 619L335 579Z"/>
<glyph unicode="&#x2b;" horiz-adv-x="562" d="M56 396L56 301L244 301L244 104L342 104L342 301L531 301L531 396L342 396L342 591L244 591L244 396Z"/>
<glyph unicode="&#x2c;" horiz-adv-x="276" d="M6 63C6 23 35 -5 75 -5C84 -5 94 -3 98 -1C87 -54 31 -96 -20 -104L-33 -165C88 -158 181 -59 181 58C181 113 146 149 96 149C46 149 6 113 6 63Z"/>
<glyph unicode="&#x2d;" horiz-adv-x="409" d="M334 241L355 344L74 344L52 241Z"/>
<glyph unicode="&#x2e;" horiz-adv-x="262" d="M81 -6C130 -6 171 34 171 84C171 123 143 156 97 156C47 156 6 115 6 67C6 28 36 -6 81 -6Z"/>
<glyph unicode="&#x2f;" horiz-adv-x="524" d="M590 724L476 724L-40 -15L73 -15Z"/>
<glyph unicode="&#x30;" horiz-adv-x="668" d="M304 -15C532 -15 639 242 639 450C639 591 573 724 391 724C156 724 56 459 56 262C56 119 127 -15 304 -15ZM174 262C174 394 228 616 383 616C484 616 521 550 521 452C521 320 466 93 311 93C214 93 174 162 174 262Z"/>
<glyph unicode="&#x31;" horiz-adv-x="366" d="M234 0L383 709L278 709C247 636 174 587 84 582L68 504L222 504L115 0Z"/>
<glyph unicode="&#x32;" horiz-adv-x="606" d="M218 310C77 245 6 138 -10 6L-11 0L501 0L524 108L150 108C171 159 217 193 256 211L411 283C522 335 594 412 594 529C594 635 521 724 365 724C199 724 101 606 101 464L101 458L215 447L215 455C215 557 271 620 359 620C441 620 474 570 474 516C474 453 429 410 349 373Z"/>
<glyph unicode="&#x33;" horiz-adv-x="608" d="M257 337C266 340 281 342 294 342C352 342 416 311 416 231C416 145 352 89 266 89C180 89 136 153 136 222C136 230 136 239 138 248L22 235C20 225 20 216 20 207C20 95 106 -15 267 -15C433 -15 539 107 539 237C539 347 460 417 371 425L600 579L626 709L143 709L121 603L456 603L214 440Z"/>
<glyph unicode="&#x34;" horiz-adv-x="646" d="M2 157L344 157L314 0L431 0L462 157L590 157L612 264L484 264L581 709L429 709L30 293ZM367 264L135 264L436 581Z"/>
<glyph unicode="&#x35;" horiz-adv-x="590" d="M17 211C17 81 113 -15 260 -15C422 -15 533 107 533 255C533 385 445 461 315 461C274 461 238 453 207 435L286 602L584 602L607 709L223 709L72 385L177 324C205 347 239 362 287 362C361 362 411 316 411 242C411 142 339 88 263 88C171 88 131 156 131 224C131 229 131 235 132 241L18 219C17 217 17 212 17 211Z"/>
<glyph unicode="&#x36;" horiz-adv-x="632" d="M646 685C604 712 538 724 472 724C209 724 51 498 51 250C51 80 165 -15 296 -15C445 -15 578 91 578 262C578 386 495 469 358 469C288 469 229 442 195 405C233 537 335 619 473 619C520 619 563 610 601 592ZM326 369C406 369 456 320 456 245C456 144 380 88 304 88C229 88 173 142 173 217C173 305 239 369 326 369Z"/>
<glyph unicode="&#x37;" horiz-adv-x="559" d="M631 709L110 709L87 603L472 603C457 593 168 407 62 0L187 0C297 371 535 551 608 600Z"/>
<glyph unicode="&#x38;" horiz-adv-x="614" d="M543 205C543 272 506 335 441 358C540 384 598 457 598 544C598 643 519 724 371 724C230 724 114 639 114 507C114 445 157 386 204 367C94 343 28 268 28 177C28 68 115 -15 269 -15C421 -15 543 69 543 205ZM342 408C269 408 230 454 230 504C230 573 281 625 370 625C440 625 478 580 478 529C478 458 420 408 342 408ZM148 188C148 263 211 315 299 315C384 315 426 267 426 209C426 135 361 83 278 83C200 83 148 123 148 188Z"/>
<glyph unicode="&#x39;" horiz-adv-x="635" d="M205 468C205 566 279 620 354 620C425 620 480 571 480 494C480 406 419 344 332 344C255 344 205 394 205 468ZM11 42C60 3 138 -15 208 -15C462 -15 607 185 607 459C607 636 500 724 362 724C216 724 83 623 83 458C83 327 182 244 303 244C382 244 437 276 466 318C449 184 349 92 209 92C158 92 106 104 60 134Z"/>
<glyph unicode="&#x3a;" horiz-adv-x="290" d="M91 -6C140 -6 180 34 180 83C180 122 153 154 107 154C58 154 17 114 17 66C17 28 47 -6 91 -6ZM164 332C213 332 253 372 253 421C253 460 226 492 180 492C131 492 90 452 90 404C90 366 120 332 164 332Z"/>
<glyph unicode="&#x3b;" horiz-adv-x="297" d="M15 61C15 23 42 -4 81 -4C89 -4 99 -2 103 0C92 -51 39 -91 -10 -98L-23 -157C93 -150 182 -55 182 56C182 109 149 144 101 144C53 144 15 109 15 61ZM168 334C217 334 257 374 257 423C257 462 230 494 184 494C135 494 94 454 94 406C94 368 124 334 168 334Z"/>
<glyph unicode="&#x3c;" horiz-adv-x="554" d="M53 301L475 90L475 201L173 349L475 496L475 607L53 394Z"/>
<glyph unicode="&#x3d;" horiz-adv-x="655" d="M570 400L570 494L95 494L95 400ZM570 203L570 298L95 298L95 203Z"/>
<glyph unicode="&#x3e;" horiz-adv-x="554" d="M525 395L103 607L103 496L406 348L103 200L103 90L525 301Z"/>
<glyph unicode="&#x3f;" horiz-adv-x="519" d="M276 209C280 253 302 289 346 315L396 343C475 388 535 451 535 551C535 640 465 724 327 724C180 724 82 625 79 491L190 477C190 551 231 619 318 619C384 619 414 577 414 534C414 492 391 456 346 430L292 399C211 352 182 280 179 209ZM139 58C139 22 166 -7 206 -7C247 -7 286 29 286 75C286 111 260 140 219 140C174 140 139 102 139 58Z"/>
<glyph unicode="&#x40;" horiz-adv-x="833" d="M463 -47C545 -47 646 -15 701 37L657 98C599 54 530 34 463 34C269 34 155 162 155 332C155 518 283 642 454 642C615 642 725 539 725 396C725 297 674 217 622 217C598 217 588 234 588 252C588 260 589 267 590 276L643 524L555 524L547 479C531 518 484 537 445 537C339 537 247 440 247 308C247 206 311 136 399 136C443 136 491 158 518 198C529 162 564 138 613 138C718 139 812 246 812 397C812 584 658 724 453 724C240 724 62 565 62 332C62 105 229 -47 463 -47ZM525 368C522 281 479 219 418 219C361 219 341 262 341 318C341 388 384 453 450 453C498 453 525 421 525 368Z"/>
<glyph unicode="&#x41;" horiz-adv-x="696" d="M499 0L622 0L504 709L369 709L-50 0L85 0L187 178L472 178ZM412 574L455 289L250 289Z"/>
<glyph unicode="&#x42;" horiz-adv-x="612" d="M176 709L26 0L304 0C447 0 548 92 548 217C548 289 502 342 449 359C531 382 588 460 588 544C588 638 526 709 402 709ZM231 409L273 607L368 607C434 607 467 575 467 525C467 457 414 409 333 409ZM166 102L210 308L324 308C396 308 427 272 427 222C427 151 368 102 287 102Z"/>
<glyph unicode="&#x43;" horiz-adv-x="729" d="M441 724C251 724 58 575 58 304C58 118 184 -15 365 -15C533 -15 639 83 688 200L582 243C544 158 477 98 376 98C255 98 181 182 181 311C181 479 284 611 432 611C546 611 604 539 620 462L735 497C713 612 625 724 441 724Z"/>
<glyph unicode="&#x44;" horiz-adv-x="712" d="M169 111L273 600L364 600C485 600 560 531 560 414C560 211 424 111 305 111ZM303 0C494 0 682 145 682 419C682 593 566 709 379 709L176 709L27 0Z"/>
<glyph unicode="&#x45;" horiz-adv-x="574" d="M461 0L484 112L169 112L210 300L494 300L518 409L233 409L273 597L587 597L611 709L176 709L26 0Z"/>
<glyph unicode="&#x46;" horiz-adv-x="568" d="M146 0L207 286L491 286L514 397L230 397L272 596L589 596L613 709L176 709L26 0Z"/>
<glyph unicode="&#x47;" horiz-adv-x="763" d="M433 612C547 612 605 542 621 466L737 500C715 615 624 724 443 724C250 724 58 575 58 304C58 110 189 -14 360 -14C448 -14 515 20 561 76L556 0L648 0L724 359L380 359L358 254L589 254C563 157 477 95 376 95C254 95 180 181 180 311C180 483 287 612 433 612Z"/>
<glyph unicode="&#x48;" horiz-adv-x="723" d="M573 0L723 709L602 709L540 416L234 416L296 709L176 709L26 0L146 0L210 303L516 303L452 0Z"/>
<glyph unicode="&#x49;" horiz-adv-x="298" d="M148 0L298 709L176 709L26 0Z"/>
<glyph unicode="&#x4a;" horiz-adv-x="541" d="M427 709L320 206C306 139 270 96 211 96C149 96 119 138 119 194C119 206 122 221 124 233L135 287L16 269L11 245C7 225 4 199 4 178C4 68 76 -14 206 -14C330 -14 412 70 439 197L548 709Z"/>
<glyph unicode="&#x4b;" horiz-adv-x="669" d="M468 0L607 0L397 394L753 709L587 709L228 390L296 709L176 709L26 0L146 0L190 210L304 311Z"/>
<glyph unicode="&#x4c;" horiz-adv-x="537" d="M462 0L486 114L170 114L296 709L176 709L26 0Z"/>
<glyph unicode="&#x4d;" horiz-adv-x="942" d="M792 0L943 709L776 709L445 173L321 709L176 709L26 0L142 0L251 512L369 0L462 0L783 516L674 0Z"/>
<glyph unicode="&#x4e;" horiz-adv-x="749" d="M599 0L750 709L629 709L521 200L316 709L176 709L26 0L146 0L259 534L477 0Z"/>
<glyph unicode="&#x4f;" horiz-adv-x="777" d="M57 299C57 112 181 -15 368 -15C556 -15 746 135 746 410C746 598 624 724 436 724C248 724 57 574 57 299ZM624 401C622 234 522 98 374 98C259 98 180 176 180 308C181 476 282 611 430 611C545 611 624 533 624 401Z"/>
<glyph unicode="&#x50;" horiz-adv-x="594" d="M176 709L26 0L146 0L205 280L343 280C496 280 611 372 611 520C611 630 530 709 404 709ZM380 604C452 604 488 567 488 512C487 429 426 385 342 385L227 385L275 604Z"/>
<glyph unicode="&#x51;" horiz-adv-x="777" d="M57 299C57 112 181 -15 368 -15C422 -15 477 -2 527 22L600 -79L690 -20L615 83C693 155 746 265 746 410C746 598 624 724 436 724C248 724 57 574 57 299ZM354 262L460 115C433 104 405 98 374 98C259 98 180 176 180 308C181 476 282 611 430 611C545 611 624 533 624 401C623 313 594 234 546 178L444 321Z"/>
<glyph unicode="&#x52;" horiz-adv-x="631" d="M416 0L544 0L431 296C538 324 615 408 615 528C615 631 543 709 415 709L176 709L26 0L146 0L206 283L314 283ZM228 388L274 604L391 604C459 604 492 568 492 515C492 437 434 388 349 388Z"/>
<glyph unicode="&#x53;" horiz-adv-x="594" d="M282 91C178 91 136 164 136 236C136 243 136 250 137 257L21 237C21 231 20 225 20 219C20 116 92 -15 283 -15C433 -15 528 89 528 200C528 281 485 347 384 392L295 432C259 448 235 476 235 518C235 573 279 618 353 618C468 618 483 532 483 500L596 520C596 597 540 724 359 724C222 724 113 631 113 505C113 415 162 356 247 318L336 278C387 255 403 223 403 188C403 131 356 91 282 91Z"/>
<glyph unicode="&#x54;" horiz-adv-x="587" d="M635 597L659 709L105 709L81 597L302 597L176 0L296 0L423 597Z"/>
<glyph unicode="&#x55;" horiz-adv-x="682" d="M568 709L469 237C450 148 397 100 318 100C229 100 189 146 189 217C189 233 191 249 195 267L286 709L168 709L77 276C72 251 69 229 69 204C69 68 165 -15 310 -15C448 -15 554 68 586 220L689 709Z"/>
<glyph unicode="&#x56;" horiz-adv-x="663" d="M225 709L103 709L209 0L330 0L737 709L606 709L299 157Z"/>
<glyph unicode="&#x57;" horiz-adv-x="995" d="M514 709L256 191L223 709L105 709L155 0L280 0L547 536L606 0L725 0L1058 709L933 709L697 187L638 709Z"/>
<glyph unicode="&#x58;" horiz-adv-x="631" d="M311 250L422 0L558 0L397 349L710 709L560 709L346 456L233 709L98 709L260 357L-51 0L99 0Z"/>
<glyph unicode="&#x59;" horiz-adv-x="625" d="M257 302L193 0L314 0L376 298L690 709L546 709L335 417L225 709L98 709Z"/>
<glyph unicode="&#x5a;" horiz-adv-x="621" d="M516 0L540 113L157 113L638 597L662 709L139 709L115 597L479 597L4 116L-21 0Z"/>
<glyph unicode="&#x5b;" horiz-adv-x="308" d="M188 -157L207 -67L88 -67L253 710L371 710L390 799L177 799L-26 -157Z"/>
<glyph unicode="&#x5c;" horiz-adv-x="517" d="M329 -15L430 -15L217 724L115 724Z"/>
<glyph unicode="&#x5d;" horiz-adv-x="308" d="M144 -157L347 799L133 799L114 710L233 710L68 -67L-50 -67L-69 -157Z"/>
<glyph unicode="&#x5e;" horiz-adv-x="564" d="M254 710L58 352L172 352L302 596L431 352L544 352L348 710Z"/>
<glyph unicode="&#x5f;" horiz-adv-x="541" d="M-57 -96L454 -96L454 0L-57 0Z"/>
<glyph unicode="&#x60;" horiz-adv-x="275" d="M90 548L180 548L123 696L-9 696Z"/>
<glyph unicode="&#x61;" horiz-adv-x="583" d="M290 398C357 398 392 351 392 285C392 169 328 90 250 90C183 90 146 138 146 209C146 297 196 398 290 398ZM440 487L427 429C411 460 368 500 281 500C136 500 30 368 30 206C30 84 100 -9 224 -9C285 -9 330 24 358 60C356 38 356 32 356 20C356 14 356 9 357 0L465 0C464 11 464 19 464 24C464 56 468 86 474 116L553 487Z"/>
<glyph unicode="&#x62;" horiz-adv-x="593" d="M121 0L137 73C157 26 213 -13 287 -13C437 -13 544 118 544 291C544 406 481 499 355 499C298 499 247 480 217 447L275 724L161 724L9 0ZM314 398C384 398 427 355 427 276C427 156 349 90 278 90C212 90 169 140 169 213C169 323 235 398 314 398Z"/>
<glyph unicode="&#x63;" horiz-adv-x="539" d="M508 343C492 417 434 502 301 502C155 502 30 386 30 212C30 82 119 -15 258 -15C373 -15 446 56 482 131L386 170C365 130 329 89 264 89C193 89 145 137 145 214C145 336 220 397 293 397C359 397 393 355 403 310Z"/>
<glyph unicode="&#x64;" horiz-adv-x="583" d="M603 724L488 724L426 431C408 463 364 500 281 500C136 500 30 368 30 206C30 84 100 -9 224 -9C285 -9 330 24 358 60C357 51 356 39 356 25C356 19 356 9 357 0L464 0C463 7 463 21 463 24C463 46 466 76 474 116ZM290 398C357 398 392 351 392 285C392 169 328 90 250 90C183 90 146 138 146 209C146 297 196 398 290 398Z"/>
<glyph unicode="&#x65;" horiz-adv-x="545" d="M155 297C172 354 218 405 291 405C365 405 390 354 390 312C390 307 389 299 389 297ZM489 212C496 234 503 268 503 301C503 418 428 502 294 502C161 502 30 391 30 208C30 67 132 -15 253 -15C361 -15 436 42 469 106L380 155C361 118 320 84 256 84C189 84 141 132 141 201C141 205 141 207 142 212Z"/>
<glyph unicode="&#x66;" horiz-adv-x="355" d="M355 387L376 487L269 487L284 555C295 607 325 627 365 627C391 627 407 618 407 619L428 715C421 719 393 730 355 730C281 730 198 701 172 576L153 487L70 487L49 387L131 387L49 0L166 0L248 387Z"/>
<glyph unicode="&#x67;" horiz-adv-x="584" d="M395 290C395 186 337 122 258 122C187 122 150 171 150 237C150 335 210 396 289 396C360 396 395 344 395 290ZM-25 -23C-25 -112 44 -205 189 -205C360 -205 436 -84 463 44L555 487L440 487L428 427C405 467 354 497 281 497C137 497 34 379 34 229C34 114 108 26 232 26C290 26 333 51 353 79L345 43C324 -50 275 -105 189 -105C132 -105 80 -72 80 0Z"/>
<glyph unicode="&#x68;" horiz-adv-x="559" d="M432 0L497 301C500 313 502 334 502 352C502 441 446 501 351 501C299 501 251 485 218 447L277 724L161 724L8 0L123 0L184 283C197 342 235 398 301 398C354 398 383 368 383 319C383 310 381 299 379 288L317 0Z"/>
<glyph unicode="&#x69;" horiz-adv-x="255" d="M129 653C129 616 157 586 197 586C239 586 280 621 280 669C280 706 252 735 212 735C169 735 129 699 129 653ZM123 0L227 487L112 487L8 0Z"/>
<glyph unicode="&#x6a;" horiz-adv-x="254" d="M-2 -43C-11 -87 -29 -103 -67 -103C-86 -103 -103 -98 -109 -96L-128 -186C-123 -190 -94 -205 -48 -205C30 -205 89 -158 108 -70L226 487L112 487ZM129 653C129 616 157 586 197 586C238 586 280 621 280 669C280 706 252 735 212 735C169 735 129 699 129 653Z"/>
<glyph unicode="&#x6b;" horiz-adv-x="537" d="M337 0L465 0L325 285L566 487L402 487L186 303L276 724L161 724L8 0L122 0L151 139L237 211Z"/>
<glyph unicode="&#x6c;" horiz-adv-x="255" d="M123 0L277 724L162 724L8 0Z"/>
<glyph unicode="&#x6d;" horiz-adv-x="843" d="M421 0L483 290C496 352 532 399 591 399C644 399 668 367 668 323C668 314 667 305 665 295L602 0L717 0L782 306C785 320 787 335 787 353C787 444 722 501 640 501C581 501 520 483 475 425C454 470 410 501 350 501C293 501 247 480 213 438C216 457 217 480 217 487L105 487C105 483 104 449 94 403L9 0L123 0L185 290C199 354 235 399 294 399C347 399 371 368 371 325C371 316 370 305 368 295L306 0Z"/>
<glyph unicode="&#x6e;" horiz-adv-x="560" d="M433 0L497 296C501 313 503 334 503 350C503 439 447 501 356 501C302 501 247 483 212 436C216 455 217 481 217 487L105 487C105 483 104 449 94 403L9 0L124 0L185 283C198 342 236 398 302 398C355 398 384 368 384 319C384 310 382 299 380 288L318 0Z"/>
<glyph unicode="&#x6f;" horiz-adv-x="569" d="M292 398C361 397 403 350 403 273C403 152 329 89 257 89C191 89 146 138 146 215C146 326 214 398 292 398ZM520 277C520 402 440 502 300 502C150 502 30 381 30 211C30 86 114 -15 251 -15C407 -15 520 116 520 277Z"/>
<glyph unicode="&#x70;" horiz-adv-x="594" d="M317 396C384 396 428 354 428 276C428 156 351 90 281 90C215 90 171 134 171 213C171 323 238 396 317 396ZM213 434C216 453 217 481 217 487L105 487C105 483 104 449 94 403L-32 -190L82 -190L136 66C162 20 220 -13 290 -13C439 -13 545 118 545 291C545 407 484 499 358 499C300 499 244 474 213 434Z"/>
<glyph unicode="&#x71;" horiz-adv-x="583" d="M555 487L442 487L430 430C412 461 367 499 282 499C136 499 30 368 30 206C30 88 102 -9 224 -9C275 -9 316 11 345 40L296 -190L411 -190ZM290 397C360 397 395 351 395 281C395 168 333 90 254 90C184 90 145 139 145 209C145 298 196 397 290 397Z"/>
<glyph unicode="&#x72;" horiz-adv-x="371" d="M368 369L393 489C383 491 371 492 358 492C311 492 248 476 211 420C216 439 218 473 218 487L106 487C106 483 105 449 95 403L10 0L124 0L173 228C197 338 259 374 327 374C340 374 354 372 368 369Z"/>
<glyph unicode="&#x73;" horiz-adv-x="450" d="M4 151C4 93 40 -15 192 -15C320 -15 376 72 376 142C376 200 342 250 271 281L207 309C186 318 173 333 173 357C173 387 198 412 239 412C303 412 320 366 322 336L423 357C420 410 383 502 245 502C134 502 63 426 63 342C63 285 93 240 159 211L221 184C250 171 262 152 262 132C262 104 240 76 193 76C134 76 104 119 104 170Z"/>
<glyph unicode="&#x74;" horiz-adv-x="354" d="M71 110C71 38 120 -6 199 -6C228 -6 248 0 257 4L276 97C264 95 254 94 242 94C202 94 189 112 189 135C189 141 190 149 192 157L240 384L336 384L358 487L261 487L294 636L189 636L174 566C163 517 133 487 77 487L59 487L37 384L125 384L79 169C73 143 71 122 71 110Z"/>
<glyph unicode="&#x75;" horiz-adv-x="555" d="M106 487L45 202C41 183 39 165 39 148C39 55 96 -11 198 -11C243 -11 295 10 323 53C322 44 322 36 322 29C322 16 323 6 324 0L436 0C435 11 435 16 435 22C435 53 440 81 446 111L524 487L410 487L350 203C337 142 299 89 237 89C180 89 157 122 157 168C157 180 159 193 162 207L222 487Z"/>
<glyph unicode="&#x76;" horiz-adv-x="520" d="M542 487L413 487L224 139L176 487L57 487L143 0L257 0Z"/>
<glyph unicode="&#x77;" horiz-adv-x="804" d="M376 487L202 153L174 487L63 487L111 0L231 0L412 348L456 0L572 0L826 487L704 487L539 152L498 487Z"/>
<glyph unicode="&#x78;" horiz-adv-x="519" d="M238 161L320 0L446 0C416 54 344 189 315 244C366 297 493 433 544 487L400 487L263 332C243 369 204 449 185 487L59 487L186 249L-48 0L95 0Z"/>
<glyph unicode="&#x79;" horiz-adv-x="512" d="M101 -190L539 487L407 487L232 199L157 487L34 487L147 80L-28 -190Z"/>
<glyph unicode="&#x7a;" horiz-adv-x="484" d="M380 0L401 102L148 102L455 387L477 487L92 487L70 386L305 386L2 102L-20 0Z"/>
<glyph unicode="&#x7b;" horiz-adv-x="355" d="M10 272C56 272 98 256 98 204C98 196 97 187 95 177L66 42C61 21 59 1 59 -16C59 -105 112 -153 214 -153L236 -153L255 -65L235 -65C184 -65 157 -44 157 4C157 14 158 26 161 40L192 190C194 201 196 212 196 223C196 274 166 309 120 322C190 333 233 381 247 447L283 613C298 683 330 710 396 710L418 710L437 799L404 799C281 799 215 751 186 610L157 468C143 398 87 373 31 373Z"/>
<glyph unicode="&#x7c;" horiz-adv-x="236" d="M73 -153L275 799L177 799L-25 -153Z"/>
<glyph unicode="&#x7d;" horiz-adv-x="354" d="M358 372C309 372 270 391 270 441C270 449 271 458 273 468L305 612C309 632 311 651 311 668C311 757 255 799 161 799L133 799L114 710L138 710C190 710 213 692 213 650C213 639 212 626 209 612L175 449C173 439 172 429 172 420C172 373 200 337 250 325C182 311 135 267 122 204L87 38C73 -27 35 -65 -29 -65L-50 -65L-69 -153L-44 -153C79 -153 153 -95 181 36L211 177C227 251 285 271 337 271Z"/>
<glyph unicode="&#x7e;" horiz-adv-x="623" d="M503 360C479 322 447 307 410 307C394 307 375 313 358 322L312 347C277 366 244 374 211 374C146 374 89 338 52 274L118 221C143 255 175 275 210 275C227 275 244 271 262 261L309 236C344 217 376 208 411 208C475 208 532 242 569 307Z"/>
<glyph unicode="&#xa0;" horiz-adv-x="239" />
<glyph unicode="&#xa1;" horiz-adv-x="250" d="M166 285L83 285L-52 -214L91 -214ZM225 437C225 474 197 502 157 502C116 502 78 466 78 421C78 385 104 356 144 356C189 356 225 393 225 437Z"/>
<glyph unicode="&#xa2;" horiz-adv-x="555" d="M326 511C395 511 431 469 440 424L543 455C531 522 484 588 397 609L418 709L330 709L310 616C177 604 58 492 58 327C58 223 117 141 205 111L182 0L270 0L290 98C393 98 473 163 513 250L420 288C397 241 353 205 294 205C218 205 172 255 172 329C172 444 250 511 326 511Z"/>
<glyph unicode="&#xa3;" horiz-adv-x="644" d="M82 389L64 298L163 298C163 221 108 127 17 100L-5 0L371 0C491 0 569 73 589 186L490 206C478 144 435 102 366 102L160 102C233 139 274 220 274 298L441 298L460 389L268 389C263 426 255 460 255 494C255 574 302 622 371 622C438 622 478 580 478 522C478 516 478 507 477 499L580 511C581 515 582 528 582 538C582 625 516 721 373 721C238 721 145 628 145 500C145 463 152 426 158 389Z"/>
<glyph unicode="&#xa4;" horiz-adv-x="652" d="M126 349C126 307 137 270 157 237L85 163L155 93L229 168C261 147 299 136 341 136C380 136 417 147 449 165L520 93L591 163L522 234C543 266 556 306 556 349C556 393 543 432 520 466L591 538L520 608L447 534C415 553 379 563 341 563C301 563 263 551 231 532L156 608L85 538L159 463C138 430 126 391 126 349ZM224 349C224 418 275 466 341 466C406 466 456 418 456 349C456 280 406 232 341 232C275 232 224 280 224 349Z"/>
<glyph unicode="&#xa5;" horiz-adv-x="651" d="M537 158L556 242L370 242L384 312L569 312L587 396L456 396L703 709L571 709L346 411L242 709L117 709L234 396L109 396L93 312L269 312L253 242L78 242L60 158L236 158L202 0L319 0L352 158Z"/>
<glyph unicode="&#xa6;" horiz-adv-x="247" d="M196 400L280 799L182 799L98 400ZM78 -154L163 245L65 245L-20 -154Z"/>
<glyph unicode="&#xa7;" horiz-adv-x="524" d="M-7 1C-10 -13 -10 -27 -10 -39C-10 -131 56 -205 180 -205C291 -205 402 -131 402 -8C402 36 383 79 347 113C397 132 456 179 456 261C456 330 407 373 351 413L262 476C238 493 225 514 225 540C225 592 271 627 320 627C377 627 409 595 409 544C409 534 408 522 405 510L517 519C520 532 521 545 521 558C521 648 455 723 328 723C220 723 108 649 108 528C108 480 126 439 164 405C113 386 54 342 54 261C54 192 102 146 159 106L249 43C271 27 284 4 284 -21C284 -77 238 -109 190 -109C132 -109 100 -76 100 -25C100 -11 102 0 104 9ZM308 299C334 280 345 260 345 236C345 198 319 171 290 157L201 220C175 239 165 259 165 283C165 321 190 348 220 362Z"/>
<glyph unicode="&#xa8;" horiz-adv-x="383" d="M-26 618C-26 586 -2 560 31 560C68 560 105 590 105 631C105 662 81 690 46 690C6 690 -26 656 -26 618ZM177 618C177 586 201 560 235 560C271 560 308 590 308 631C308 662 284 690 249 690C210 690 177 656 177 618Z"/>
<glyph unicode="&#xa9;" horiz-adv-x="838" d="M65 355C65 151 228 -15 431 -15C635 -15 800 151 800 355C800 558 635 724 431 724C228 724 65 558 65 355ZM147 355C147 520 272 648 431 648C591 648 716 520 716 355C716 189 591 61 431 61C272 61 147 189 147 355ZM617 433C605 492 559 558 455 558C340 558 242 467 242 330C242 223 319 152 417 152C505 152 563 197 597 266L523 297C506 265 477 233 426 233C370 233 331 271 331 332C331 429 391 478 449 478C501 478 528 443 536 407Z"/>
<glyph unicode="&#xaa;" horiz-adv-x="441" d="M373 709L364 669C355 688 327 717 264 717C163 717 88 627 88 511C88 427 138 359 222 359C268 359 299 383 315 407C314 400 314 393 314 387C314 383 314 375 315 365L397 365C397 399 398 412 404 442L460 709ZM271 637C314 637 338 608 338 562C338 484 296 436 246 436C203 436 177 466 177 515C177 572 210 637 271 637Z"/>
<glyph unicode="&#xab;" horiz-adv-x="537" d="M243 100L149 287L329 487L210 487L36 296L135 100ZM451 100L357 287L537 487L418 487L244 296L343 100Z"/>
<glyph unicode="&#xac;" horiz-adv-x="622" d="M549 199L549 491L72 491L72 394L448 394L448 199Z"/>
<glyph unicode="&#xad;" horiz-adv-x="411" d="M334 241L356 343L75 343L53 241Z"/>
<glyph unicode="&#xae;" horiz-adv-x="838" d="M65 355C65 151 228 -15 431 -15C635 -15 800 151 800 355C800 558 635 724 431 724C228 724 65 558 65 355ZM147 355C147 520 272 648 431 648C591 648 716 520 716 355C716 189 591 61 431 61C272 61 147 189 147 355ZM475 157L562 157L504 306C569 322 615 375 615 443C615 503 569 556 499 556L359 556L274 156L359 156L389 299L424 299ZM403 369L429 485L474 485C511 485 530 468 530 439C530 393 496 369 450 369Z"/>
<glyph unicode="&#xaf;" horiz-adv-x="328" d="M243 577L262 667L-15 667L-34 577Z"/>
<glyph unicode="&#xb0;" horiz-adv-x="395" d="M269 724C174 724 92 646 92 547C92 466 152 403 237 403C326 403 415 476 415 578C415 660 353 724 269 724ZM245 489C207 490 183 516 183 553C183 603 221 637 261 637C300 637 324 611 324 574C324 522 285 489 245 489Z"/>
<glyph unicode="&#xb1;" horiz-adv-x="611" d="M79 462L79 368L256 368L256 240L355 240L355 368L533 368L533 462L355 462L355 591L256 591L256 462ZM79 199L79 104L533 104L533 199Z"/>
<glyph unicode="&#xb2;" horiz-adv-x="352" d="M173 514C97 481 56 423 51 343L329 343L345 419L174 419C175 422 182 437 202 446L278 479C340 506 380 546 380 606C380 665 335 716 247 716C160 716 100 662 100 577L184 574C184 619 207 643 244 643C275 643 289 620 289 601C289 576 273 558 237 542Z"/>
<glyph unicode="&#xb3;" horiz-adv-x="357" d="M192 509C199 512 207 514 217 514C244 514 268 497 268 468C268 431 243 411 205 411C170 411 147 438 147 467C147 469 147 472 148 477L66 471C65 467 64 460 64 455C64 385 123 336 205 336C297 336 358 398 358 466C358 517 324 555 276 565L384 624L401 709L129 709L113 635L276 635L165 573Z"/>
<glyph unicode="&#xb4;" horiz-adv-x="276" d="M220 696L75 696L-42 548L58 548Z"/>
<glyph unicode="&#xb5;" horiz-adv-x="606" d="M72 -190L188 -190L188 0C208 -9 231 -14 257 -14C310 -14 369 8 395 55C395 36 397 10 399 0L510 0C509 8 505 44 505 89L505 487L389 487L389 199C389 135 354 90 287 90C217 90 189 141 189 201L189 487L72 487Z"/>
<glyph unicode="&#xb6;" horiz-adv-x="668" d="M411 616L505 616L334 -190L429 -190L600 616L698 616L717 709L351 709C215 709 73 628 73 475C73 381 145 310 242 310L251 310L144 -190L239 -190Z"/>
<glyph unicode="&#xb7;" horiz-adv-x="266" d="M54 290C54 252 83 220 126 220C172 220 212 257 212 307C212 344 184 376 141 376C93 376 54 335 54 290Z"/>
<glyph unicode="&#xb8;" horiz-adv-x="286" d="M90 13L18 -53L41 -99C48 -98 56 -98 58 -98C80 -98 98 -109 98 -129C98 -150 78 -160 55 -160C10 -160 -10 -128 -17 -114L-71 -154C-60 -176 -17 -223 57 -223C135 -223 178 -176 178 -127C178 -90 152 -58 105 -52L179 13Z"/>
<glyph unicode="&#xb9;" horiz-adv-x="242" d="M207 343L286 709L206 709C191 674 151 642 96 640L84 581L169 581L116 343Z"/>
<glyph unicode="&#xba;" horiz-adv-x="422" d="M178 519C178 587 219 638 273 638C317 638 345 608 345 557C345 477 295 437 250 437C207 437 178 468 178 519ZM279 720C174 720 87 636 87 515C87 426 148 355 244 355C356 355 436 449 436 560C436 649 377 720 279 720Z"/>
<glyph unicode="&#xbb;" horiz-adv-x="543" d="M86 487L181 300L0 100L119 100L293 291L194 487ZM302 487L397 300L216 100L335 100L509 291L410 487Z"/>
<glyph unicode="&#xbc;" horiz-adv-x="806" d="M145 0L737 709L632 709L41 0ZM403 74L575 74L560 0L649 0L665 74L727 74L743 147L680 147L726 366L626 366L422 170ZM590 147L491 147L617 269ZM94 581L179 581L127 343L217 343L296 709L216 709C202 673 161 642 106 640Z"/>
<glyph unicode="&#xbd;" horiz-adv-x="846" d="M163 0L755 709L650 709L59 0ZM93 581L178 581L126 343L216 343L295 709L215 709C201 673 160 642 105 640ZM600 231C600 276 623 300 660 300C690 300 705 279 705 259C705 232 689 215 654 199L589 171C513 138 472 80 467 0L745 0L761 76L589 76C594 85 603 96 618 103L694 136C757 163 796 204 796 263C796 322 751 374 663 374C580 374 516 322 516 234Z"/>
<glyph unicode="&#xbe;" horiz-adv-x="901" d="M231 0L823 709L719 709L127 0ZM498 74L671 74L655 0L744 0L760 74L822 74L838 147L775 147L821 366L721 366L517 170ZM685 147L586 147L713 269ZM199 509C207 512 214 514 222 514C251 514 275 496 275 464C275 430 246 411 210 411C176 411 154 437 154 467C154 470 154 471 155 477L73 471C72 467 71 460 71 455C71 388 126 336 204 336C298 336 365 394 365 462C365 515 332 555 283 565L391 624L408 709L136 709L120 635L283 635L172 573Z"/>
<glyph unicode="&#xbf;" horiz-adv-x="513" d="M219 286C215 242 195 207 149 181L99 152C20 107 -38 45 -38 -56C-38 -144 32 -229 170 -229C317 -229 415 -129 418 5L307 18C307 -55 266 -124 179 -124C111 -124 83 -82 83 -38C83 4 104 40 149 65L203 96C288 145 313 215 316 286ZM356 437C356 474 329 502 289 502C248 502 209 466 209 421C209 385 235 356 276 356C321 356 356 393 356 437Z"/>
<glyph unicode="&#xc0;" horiz-adv-x="696" d="M499 0L622 0L504 709L369 709L-50 0L85 0L187 178L472 178ZM412 574L455 289L250 289ZM393 759L494 759L419 883L281 883Z"/>
<glyph unicode="&#xc1;" horiz-adv-x="696" d="M499 0L622 0L504 709L369 709L-50 0L85 0L187 178L472 178ZM412 574L455 289L250 289ZM653 883L500 883L377 759L491 759Z"/>
<glyph unicode="&#xc2;" horiz-adv-x="696" d="M499 0L622 0L504 709L369 709L-50 0L85 0L187 178L472 178ZM412 574L455 289L250 289ZM364 759L454 823L518 759L618 759L526 883L397 883L256 759Z"/>
<glyph unicode="&#xc3;" horiz-adv-x="696" d="M499 0L622 0L504 709L369 709L-50 0L85 0L187 178L472 178ZM412 574L455 289L250 289ZM624 886L546 886C540 855 527 842 508 842C493 842 481 850 467 859L459 865C441 877 417 888 388 888C330 888 277 853 267 757L345 757C350 788 364 800 383 800C398 800 411 792 425 783L433 778C452 766 476 754 505 754C563 754 608 788 624 886Z"/>
<glyph unicode="&#xc4;" horiz-adv-x="696" d="M228 814C228 780 253 755 288 755C326 755 361 785 361 829C361 861 337 888 302 888C260 888 228 854 228 814ZM536 814C536 780 561 755 596 755C634 755 669 785 669 829C669 861 645 888 610 888C568 888 536 854 536 814ZM499 0L622 0L504 709L369 709L-50 0L85 0L187 178L472 178ZM412 574L455 289L250 289Z"/>
<glyph unicode="&#xc5;" horiz-adv-x="696" d="M412 574L455 289L250 289ZM446 802C472 802 490 785 490 760C490 729 465 709 438 709C412 709 394 725 394 751C394 781 420 802 446 802ZM320 743C320 715 331 692 348 673L-50 0L85 0L187 178L472 178L499 0L622 0L511 663C544 687 566 724 566 766C566 827 517 874 453 874C384 874 320 818 320 743Z"/>
<glyph unicode="&#xc6;" horiz-adv-x="1032" d="M627 112L667 300L952 300L975 409L690 409L730 597L1044 597L1068 709L556 709L-62 0L92 0L243 177L521 177L483 0L918 0L942 112ZM331 280L613 610L543 280Z"/>
<glyph unicode="&#xc7;" horiz-adv-x="729" d="M392 -14C544 -4 641 89 688 200L582 243C544 158 477 98 376 98C255 98 181 182 181 311C181 479 284 611 432 611C546 611 604 539 620 462L735 497C713 612 625 724 441 724C251 724 58 575 58 304C58 138 159 14 309 -10L262 -53L285 -99L291 -99C296 -98 300 -98 302 -98C324 -98 342 -109 342 -129C342 -150 322 -160 299 -160C254 -160 234 -128 227 -114L173 -154C184 -176 227 -223 301 -223C379 -223 422 -176 422 -127C422 -90 396 -58 349 -52Z"/>
<glyph unicode="&#xc8;" horiz-adv-x="574" d="M373 759L474 759L399 883L261 883ZM461 0L484 112L169 112L210 300L494 300L518 409L233 409L273 597L587 597L611 709L176 709L26 0Z"/>
<glyph unicode="&#xc9;" horiz-adv-x="574" d="M598 883L445 883L322 759L436 759ZM461 0L484 112L169 112L210 300L494 300L518 409L233 409L273 597L587 597L611 709L176 709L26 0Z"/>
<glyph unicode="&#xca;" horiz-adv-x="574" d="M328 759L418 823L482 759L582 759L490 883L361 883L220 759ZM461 0L484 112L169 112L210 300L494 300L518 409L233 409L273 597L587 597L611 709L176 709L26 0Z"/>
<glyph unicode="&#xcb;" horiz-adv-x="574" d="M233 814C233 780 258 756 293 756C331 756 365 786 365 829C365 861 342 887 307 887C266 887 233 854 233 814ZM455 814C455 780 480 756 515 756C553 756 587 786 587 829C587 861 563 887 528 887C488 887 455 854 455 814ZM461 0L484 112L169 112L210 300L494 300L518 409L233 409L273 597L587 597L611 709L176 709L26 0Z"/>
<glyph unicode="&#xcc;" horiz-adv-x="298" d="M148 0L298 709L176 709L26 0ZM206 759L307 759L232 883L94 883Z"/>
<glyph unicode="&#xcd;" horiz-adv-x="298" d="M148 0L298 709L176 709L26 0ZM466 883L313 883L190 759L304 759Z"/>
<glyph unicode="&#xce;" horiz-adv-x="298" d="M148 0L298 709L176 709L26 0ZM172 759L262 823L326 759L426 759L334 883L205 883L64 759Z"/>
<glyph unicode="&#xcf;" horiz-adv-x="298" d="M106 814C106 783 130 760 162 760C198 760 230 788 230 829C230 858 208 883 175 883C137 883 106 852 106 814ZM278 814C278 783 301 760 333 760C370 760 402 788 402 829C402 858 379 883 347 883C308 883 278 852 278 814ZM148 0L298 709L176 709L26 0Z"/>
<glyph unicode="&#xd0;" horiz-adv-x="716" d="M22 316L98 316L32 0L308 0C499 0 687 145 687 419C687 593 571 709 384 709L181 709L118 409L41 409ZM174 111L217 316L368 316L387 409L237 409L278 600L369 600C490 600 565 531 565 414C565 211 429 111 310 111Z"/>
<glyph unicode="&#xd1;" horiz-adv-x="749" d="M664 886L586 886C580 855 567 842 548 842C533 842 521 850 507 859L499 865C481 877 457 888 428 888C370 888 317 853 307 757L385 757C390 788 404 800 423 800C438 800 451 792 465 783L473 778C492 766 516 754 545 754C603 754 648 788 664 886ZM599 0L750 709L629 709L521 200L316 709L176 709L26 0L146 0L259 534L477 0Z"/>
<glyph unicode="&#xd2;" horiz-adv-x="777" d="M426 759L527 759L452 883L314 883ZM57 299C57 112 181 -15 368 -15C556 -15 746 135 746 410C746 598 624 724 436 724C248 724 57 574 57 299ZM624 401C622 234 522 98 374 98C259 98 180 176 180 308C181 476 282 611 430 611C545 611 624 533 624 401Z"/>
<glyph unicode="&#xd3;" horiz-adv-x="777" d="M678 883L525 883L402 759L516 759ZM57 299C57 112 181 -15 368 -15C556 -15 746 135 746 410C746 598 624 724 436 724C248 724 57 574 57 299ZM624 401C622 234 522 98 374 98C259 98 180 176 180 308C181 476 282 611 430 611C545 611 624 533 624 401Z"/>
<glyph unicode="&#xd4;" horiz-adv-x="777" d="M389 759L479 823L543 759L643 759L551 883L422 883L281 759ZM57 299C57 112 181 -15 368 -15C556 -15 746 135 746 410C746 598 624 724 436 724C248 724 57 574 57 299ZM624 401C622 234 522 98 374 98C259 98 180 176 180 308C181 476 282 611 430 611C545 611 624 533 624 401Z"/>
<glyph unicode="&#xd5;" horiz-adv-x="777" d="M660 886L582 886C576 855 563 842 544 842C529 842 517 850 503 859L495 865C477 877 453 888 424 888C366 888 313 853 303 757L381 757C386 788 400 800 419 800C434 800 447 792 461 783L469 778C488 766 512 754 541 754C599 754 644 788 660 886ZM57 299C57 112 181 -15 368 -15C556 -15 746 135 746 410C746 598 624 724 436 724C248 724 57 574 57 299ZM624 401C622 234 522 98 374 98C259 98 180 176 180 308C181 476 282 611 430 611C545 611 624 533 624 401Z"/>
<glyph unicode="&#xd6;" horiz-adv-x="777" d="M239 814C239 780 264 755 299 755C337 755 372 785 372 829C372 861 348 888 313 888C271 888 239 854 239 814ZM575 814C575 780 600 755 635 755C673 755 708 785 708 829C708 861 684 888 649 888C607 888 575 854 575 814ZM57 299C57 112 181 -15 368 -15C556 -15 746 135 746 410C746 598 624 724 436 724C248 724 57 574 57 299ZM624 401C622 234 522 98 374 98C259 98 180 176 180 308C181 476 282 611 430 611C545 611 624 533 624 401Z"/>
<glyph unicode="&#xd7;" horiz-adv-x="609" d="M484 108L552 177L384 349L552 520L483 589L317 419L151 589L82 520L248 349L81 177L150 108L317 280Z"/>
<glyph unicode="&#xd8;" horiz-adv-x="777" d="M57 299C57 225 76 161 111 110L35 28L106 -36L178 41C228 5 293 -15 368 -15C556 -15 746 135 746 410C746 482 728 545 695 596L775 682L704 746L629 665C581 702 512 724 436 724C248 724 57 574 57 299ZM180 308C181 476 282 611 430 611C475 611 514 599 546 576L200 205C187 234 180 268 180 308ZM624 401C622 234 522 98 374 98C330 98 292 109 261 130L606 500C618 471 624 438 624 401Z"/>
<glyph unicode="&#xd9;" horiz-adv-x="682" d="M403 759L504 759L429 883L291 883ZM568 709L469 237C450 148 397 100 318 100C229 100 189 146 189 217C189 233 191 249 195 267L286 709L168 709L77 276C72 251 69 229 69 204C69 68 165 -15 310 -15C448 -15 554 68 586 220L689 709Z"/>
<glyph unicode="&#xda;" horiz-adv-x="682" d="M629 883L476 883L353 759L467 759ZM568 709L469 237C450 148 397 100 318 100C229 100 189 146 189 217C189 233 191 249 195 267L286 709L168 709L77 276C72 251 69 229 69 204C69 68 165 -15 310 -15C448 -15 554 68 586 220L689 709Z"/>
<glyph unicode="&#xdb;" horiz-adv-x="682" d="M360 759L450 823L514 759L614 759L522 883L393 883L252 759ZM568 709L469 237C450 148 397 100 318 100C229 100 189 146 189 217C189 233 191 249 195 267L286 709L168 709L77 276C72 251 69 229 69 204C69 68 165 -15 310 -15C448 -15 554 68 586 220L689 709Z"/>
<glyph unicode="&#xdc;" horiz-adv-x="682" d="M262 814C262 780 287 755 322 755C360 755 395 785 395 829C395 861 371 888 336 888C294 888 262 854 262 814ZM488 814C488 780 513 755 548 755C586 755 621 785 621 829C621 861 597 888 562 888C520 888 488 854 488 814ZM568 709L469 237C450 148 397 100 318 100C229 100 189 146 189 217C189 233 191 249 195 267L286 709L168 709L77 276C72 251 69 229 69 204C69 68 165 -15 310 -15C448 -15 554 68 586 220L689 709Z"/>
<glyph unicode="&#xdd;" horiz-adv-x="625" d="M257 302L193 0L314 0L376 298L690 709L546 709L335 417L225 709L98 709ZM596 883L443 883L320 759L434 759Z"/>
<glyph unicode="&#xde;" horiz-adv-x="599" d="M356 470C428 470 464 433 464 378C463 296 402 252 318 252L200 252L247 470ZM146 0L178 147L319 147C472 147 587 239 587 387C587 497 505 576 380 576L268 576L297 709L176 709L26 0Z"/>
<glyph unicode="&#xdf;" horiz-adv-x="586" d="M389 330C389 352 404 363 423 372L449 384C505 410 570 458 570 556C570 643 497 724 363 724C252 724 148 662 117 514L9 0L124 0L228 495C248 591 304 623 357 623C424 623 455 582 455 547C455 505 427 482 385 461L357 447C316 426 273 387 273 318C273 270 309 232 348 203L373 184C397 166 410 154 410 129C410 106 393 75 350 75C301 75 288 111 288 139C288 145 288 151 290 156L191 145C189 137 189 129 189 121C189 45 250 -16 346 -16C472 -16 521 79 521 144C521 196 488 238 446 271L420 291C402 304 389 313 389 330Z"/>
<glyph unicode="&#xe0;" horiz-adv-x="583" d="M290 398C357 398 392 351 392 285C392 169 328 90 250 90C183 90 146 138 146 209C146 297 196 398 290 398ZM440 487L427 429C411 460 368 500 281 500C136 500 30 368 30 206C30 84 100 -9 224 -9C285 -9 330 24 358 60C356 38 356 32 356 20C356 14 356 9 357 0L465 0C464 11 464 19 464 24C464 56 468 86 474 116L553 487ZM277 548L367 548L310 696L178 696Z"/>
<glyph unicode="&#xe1;" horiz-adv-x="583" d="M290 398C357 398 392 351 392 285C392 169 328 90 250 90C183 90 146 138 146 209C146 297 196 398 290 398ZM440 487L427 429C411 460 368 500 281 500C136 500 30 368 30 206C30 84 100 -9 224 -9C285 -9 330 24 358 60C356 38 356 32 356 20C356 14 356 9 357 0L465 0C464 11 464 19 464 24C464 56 468 86 474 116L553 487ZM525 696L380 696L263 548L363 548Z"/>
<glyph unicode="&#xe2;" horiz-adv-x="583" d="M254 549L340 626L393 549L488 549L412 692L289 692L151 549ZM290 398C357 398 392 351 392 285C392 169 328 90 250 90C183 90 146 138 146 209C146 297 196 398 290 398ZM440 487L427 429C411 460 368 500 281 500C136 500 30 368 30 206C30 84 100 -9 224 -9C285 -9 330 24 358 60C356 38 356 32 356 20C356 14 356 9 357 0L465 0C464 11 464 19 464 24C464 56 468 86 474 116L553 487Z"/>
<glyph unicode="&#xe3;" horiz-adv-x="583" d="M290 398C357 398 392 351 392 285C392 169 328 90 250 90C183 90 146 138 146 209C146 297 196 398 290 398ZM440 487L427 429C411 460 368 500 281 500C136 500 30 368 30 206C30 84 100 -9 224 -9C285 -9 330 24 358 60C356 38 356 32 356 20C356 14 356 9 357 0L465 0C464 11 464 19 464 24C464 56 468 86 474 116L553 487ZM239 555C245 586 260 599 279 599C296 599 307 591 322 582L330 577C348 565 371 553 400 553C458 553 506 589 521 688L443 688C437 659 424 644 403 644C387 644 374 653 361 662L355 666C338 677 314 690 284 690C225 690 171 653 160 555Z"/>
<glyph unicode="&#xe4;" horiz-adv-x="583" d="M173 618C173 586 197 560 230 560C267 560 304 590 304 631C304 662 280 690 245 690C205 690 173 656 173 618ZM376 618C376 586 400 560 434 560C470 560 507 590 507 631C507 662 483 690 448 690C409 690 376 656 376 618ZM290 398C357 398 392 351 392 285C392 169 328 90 250 90C183 90 146 138 146 209C146 297 196 398 290 398ZM440 487L427 429C411 460 368 500 281 500C136 500 30 368 30 206C30 84 100 -9 224 -9C285 -9 330 24 358 60C356 38 356 32 356 20C356 14 356 9 357 0L465 0C464 11 464 19 464 24C464 56 468 86 474 116L553 487Z"/>
<glyph unicode="&#xe5;" horiz-adv-x="583" d="M290 398C357 398 392 351 392 285C392 169 328 90 250 90C183 90 146 138 146 209C146 297 196 398 290 398ZM440 487L427 429C411 460 368 500 281 500C136 500 30 368 30 206C30 84 100 -9 224 -9C285 -9 330 24 358 60C356 38 356 32 356 20C356 14 356 9 357 0L465 0C464 11 464 19 464 24C464 56 468 86 474 116L553 487ZM348 758C287 758 225 709 225 637C225 581 272 538 331 538C395 538 453 593 453 658C453 715 407 758 348 758ZM294 644C294 672 318 691 342 691C366 691 382 674 382 652C382 624 360 605 334 605C310 605 294 620 294 644Z"/>
<glyph unicode="&#xe6;" horiz-adv-x="850" d="M181 285C83 282 8 219 8 127C8 50 71 -14 187 -14C281 -14 340 34 375 83C412 19 480 -15 559 -15C667 -15 741 42 774 106L687 155C667 118 626 84 563 84C488 84 448 137 448 212L794 212C801 234 808 268 808 301C808 418 734 502 600 502C539 502 480 479 434 436C405 474 352 502 274 502C167 502 84 441 60 363L157 331C170 376 211 408 267 408C336 408 361 371 361 336C361 308 345 290 315 289ZM124 135C124 183 162 205 201 207L337 213C324 112 251 75 198 75C157 75 124 96 124 135ZM597 405C671 405 696 354 696 312C696 307 695 299 695 297L461 297C478 354 523 405 597 405Z"/>
<glyph unicode="&#xe7;" horiz-adv-x="539" d="M146 -53L169 -100C174 -99 179 -98 186 -98C208 -98 226 -109 226 -129C226 -150 206 -160 183 -160C138 -160 118 -128 111 -114L57 -154C68 -176 111 -223 185 -223C263 -223 306 -176 306 -127C306 -90 280 -58 233 -52L276 -14C381 -7 448 60 482 131L386 170C365 130 329 89 264 89C193 89 145 137 145 214C145 336 220 397 293 397C359 397 393 355 403 310L508 343C492 417 434 502 301 502C155 502 30 386 30 212C30 103 93 17 195 -8Z"/>
<glyph unicode="&#xe8;" horiz-adv-x="545" d="M155 297C172 354 218 405 291 405C365 405 390 354 390 312C390 307 389 299 389 297ZM489 212C496 234 503 268 503 301C503 418 428 502 294 502C161 502 30 391 30 208C30 67 132 -15 253 -15C361 -15 436 42 469 106L380 155C361 118 320 84 256 84C189 84 141 132 141 201C141 205 141 207 142 212ZM289 548L379 548L322 696L190 696Z"/>
<glyph unicode="&#xe9;" horiz-adv-x="545" d="M513 696L368 696L251 548L351 548ZM155 297C172 354 218 405 291 405C365 405 390 354 390 312C390 307 389 299 389 297ZM489 212C496 234 503 268 503 301C503 418 428 502 294 502C161 502 30 391 30 208C30 67 132 -15 253 -15C361 -15 436 42 469 106L380 155C361 118 320 84 256 84C189 84 141 132 141 201C141 205 141 207 142 212Z"/>
<glyph unicode="&#xea;" horiz-adv-x="545" d="M253 549L339 626L392 549L487 549L411 692L288 692L150 549ZM155 297C172 354 218 405 291 405C365 405 390 354 390 312C390 307 389 299 389 297ZM489 212C496 234 503 268 503 301C503 418 428 502 294 502C161 502 30 391 30 208C30 67 132 -15 253 -15C361 -15 436 42 469 106L380 155C361 118 320 84 256 84C189 84 141 132 141 201C141 205 141 207 142 212Z"/>
<glyph unicode="&#xeb;" horiz-adv-x="545" d="M164 618C164 586 188 560 221 560C258 560 295 590 295 631C295 662 271 690 236 690C196 690 164 656 164 618ZM367 618C367 586 391 560 425 560C461 560 498 590 498 631C498 662 474 690 439 690C400 690 367 656 367 618ZM155 297C172 354 218 405 291 405C365 405 390 354 390 312C390 307 389 299 389 297ZM489 212C496 234 503 268 503 301C503 418 428 502 294 502C161 502 30 391 30 208C30 67 132 -15 253 -15C361 -15 436 42 469 106L380 155C361 118 320 84 256 84C189 84 141 132 141 201C141 205 141 207 142 212Z"/>
<glyph unicode="&#xec;" horiz-adv-x="256" d="M124 0L228 487L112 487L8 0ZM136 548L226 548L169 696L37 696Z"/>
<glyph unicode="&#xed;" horiz-adv-x="256" d="M388 696L243 696L126 548L226 548ZM124 0L228 487L112 487L8 0Z"/>
<glyph unicode="&#xee;" horiz-adv-x="256" d="M113 549L199 626L252 549L347 549L271 692L148 692L10 549ZM124 0L228 487L112 487L8 0Z"/>
<glyph unicode="&#xef;" horiz-adv-x="256" d="M56 618C56 588 77 565 111 565C145 565 179 592 179 631C179 662 156 686 123 686C85 686 56 654 56 618ZM212 618C212 588 233 565 267 565C301 565 335 592 335 631C335 662 312 686 279 686C241 686 212 654 212 618ZM124 0L228 487L112 487L8 0Z"/>
<glyph unicode="&#xf0;" horiz-adv-x="573" d="M551 617L521 690L404 642C346 692 279 720 225 728L187 637C224 630 260 616 292 596L200 558L229 486L358 539C390 501 412 453 419 397C395 434 342 461 276 461C130 461 27 344 27 202C27 84 108 -15 249 -15C417 -15 529 134 529 349C529 446 501 522 459 580ZM398 250C398 142 324 86 254 86C182 86 143 142 143 203C143 309 211 365 283 365C350 365 398 322 398 250Z"/>
<glyph unicode="&#xf1;" horiz-adv-x="560" d="M236 555C242 586 257 599 276 599C293 599 304 591 319 582L327 577C345 565 368 553 397 553C455 553 503 589 518 688L440 688C434 659 421 644 400 644C384 644 371 653 358 662L352 666C335 677 311 690 281 690C222 690 168 653 157 555ZM433 0L497 296C501 313 503 334 503 350C503 439 447 501 356 501C302 501 247 483 212 436C216 455 217 481 217 487L105 487C105 483 104 449 94 403L9 0L124 0L185 283C198 342 236 398 302 398C355 398 384 368 384 319C384 310 382 299 380 288L318 0Z"/>
<glyph unicode="&#xf2;" horiz-adv-x="569" d="M285 548L375 548L318 696L186 696ZM292 398C361 397 403 350 403 273C403 152 329 89 257 89C191 89 146 138 146 215C146 326 214 398 292 398ZM520 277C520 402 440 502 300 502C150 502 30 381 30 211C30 86 114 -15 251 -15C407 -15 520 116 520 277Z"/>
<glyph unicode="&#xf3;" horiz-adv-x="569" d="M525 696L380 696L263 548L363 548ZM292 398C361 397 403 350 403 273C403 152 329 89 257 89C191 89 146 138 146 215C146 326 214 398 292 398ZM520 277C520 402 440 502 300 502C150 502 30 381 30 211C30 86 114 -15 251 -15C407 -15 520 116 520 277Z"/>
<glyph unicode="&#xf4;" horiz-adv-x="569" d="M259 549L345 626L398 549L493 549L417 692L294 692L156 549ZM292 398C361 397 403 350 403 273C403 152 329 89 257 89C191 89 146 138 146 215C146 326 214 398 292 398ZM520 277C520 402 440 502 300 502C150 502 30 381 30 211C30 86 114 -15 251 -15C407 -15 520 116 520 277Z"/>
<glyph unicode="&#xf5;" horiz-adv-x="569" d="M292 398C361 397 403 350 403 273C403 152 329 89 257 89C191 89 146 138 146 215C146 326 214 398 292 398ZM520 277C520 402 440 502 300 502C150 502 30 381 30 211C30 86 114 -15 251 -15C407 -15 520 116 520 277ZM224 555C230 586 245 599 264 599C281 599 292 591 307 582L315 577C333 565 356 553 385 553C443 553 491 589 506 688L428 688C422 659 409 644 388 644C372 644 359 653 346 662L340 666C323 677 299 690 269 690C210 690 156 653 145 555Z"/>
<glyph unicode="&#xf6;" horiz-adv-x="569" d="M171 618C171 586 195 560 228 560C265 560 302 590 302 631C302 662 278 690 243 690C203 690 171 656 171 618ZM374 618C374 586 398 560 432 560C468 560 505 590 505 631C505 662 481 690 446 690C407 690 374 656 374 618ZM292 398C361 397 403 350 403 273C403 152 329 89 257 89C191 89 146 138 146 215C146 326 214 398 292 398ZM520 277C520 402 440 502 300 502C150 502 30 381 30 211C30 86 114 -15 251 -15C407 -15 520 116 520 277Z"/>
<glyph unicode="&#xf7;" horiz-adv-x="572" d="M224 168C224 129 257 96 296 96C335 96 368 129 368 168C368 207 335 239 296 239C257 239 224 207 224 168ZM224 530C224 491 257 457 296 457C335 457 368 491 368 530C368 569 335 601 296 601C257 601 224 569 224 530ZM61 300L535 300L535 398L61 398Z"/>
<glyph unicode="&#xf8;" horiz-adv-x="570" d="M43 -31L109 32C146 3 194 -15 251 -15C407 -15 520 116 520 277C520 321 510 362 490 397L560 464L506 519L441 456C405 485 357 502 300 502C150 502 30 381 30 211C30 167 41 123 60 92L-11 24ZM403 273C403 152 329 89 257 89C231 89 208 96 190 110L399 310C402 297 403 286 403 273ZM292 398C318 397 341 390 358 377L150 178C147 189 146 201 146 215C146 326 214 398 292 398Z"/>
<glyph unicode="&#xf9;" horiz-adv-x="555" d="M106 487L45 202C41 183 39 165 39 148C39 55 96 -11 198 -11C243 -11 295 10 323 53C322 44 322 36 322 29C322 16 323 6 324 0L436 0C435 11 435 16 435 22C435 53 440 81 446 111L524 487L410 487L350 203C337 142 299 89 237 89C180 89 157 122 157 168C157 180 159 193 162 207L222 487ZM284 548L374 548L317 696L185 696Z"/>
<glyph unicode="&#xfa;" horiz-adv-x="555" d="M516 696L371 696L254 548L354 548ZM106 487L45 202C41 183 39 165 39 148C39 55 96 -11 198 -11C243 -11 295 10 323 53C322 44 322 36 322 29C322 16 323 6 324 0L436 0C435 11 435 16 435 22C435 53 440 81 446 111L524 487L410 487L350 203C337 142 299 89 237 89C180 89 157 122 157 168C157 180 159 193 162 207L222 487Z"/>
<glyph unicode="&#xfb;" horiz-adv-x="555" d="M258 549L344 626L397 549L492 549L416 692L293 692L155 549ZM106 487L45 202C41 183 39 165 39 148C39 55 96 -11 198 -11C243 -11 295 10 323 53C322 44 322 36 322 29C322 16 323 6 324 0L436 0C435 11 435 16 435 22C435 53 440 81 446 111L524 487L410 487L350 203C337 142 299 89 237 89C180 89 157 122 157 168C157 180 159 193 162 207L222 487Z"/>
<glyph unicode="&#xfc;" horiz-adv-x="555" d="M176 618C176 586 200 560 233 560C270 560 307 590 307 631C307 662 283 690 248 690C208 690 176 656 176 618ZM379 618C379 586 403 560 437 560C473 560 510 590 510 631C510 662 486 690 451 690C412 690 379 656 379 618ZM106 487L45 202C41 183 39 165 39 148C39 55 96 -11 198 -11C243 -11 295 10 323 53C322 44 322 36 322 29C322 16 323 6 324 0L436 0C435 11 435 16 435 22C435 53 440 81 446 111L524 487L410 487L350 203C337 142 299 89 237 89C180 89 157 122 157 168C157 180 159 193 162 207L222 487Z"/>
<glyph unicode="&#xfd;" horiz-adv-x="512" d="M101 -190L539 487L407 487L232 199L157 487L34 487L147 80L-28 -190ZM477 696L332 696L215 548L315 548Z"/>
<glyph unicode="&#xfe;" horiz-adv-x="594" d="M-32 -190L82 -190L136 65C161 20 220 -13 290 -13C439 -13 545 118 545 291C545 407 484 499 357 499C303 499 250 477 217 440L277 724L162 724ZM316 396C385 396 427 354 427 276C427 156 352 90 280 90C215 90 171 134 171 213C171 323 238 396 316 396Z"/>
<glyph unicode="&#xff;" horiz-adv-x="512" d="M132 618C132 586 156 560 189 560C226 560 263 590 263 631C263 662 239 690 204 690C164 690 132 656 132 618ZM335 618C335 586 359 560 393 560C429 560 466 590 466 631C466 662 442 690 407 690C368 690 335 656 335 618ZM101 -190L539 487L407 487L232 199L157 487L34 487L147 80L-28 -190Z"/>
<glyph unicode="&#x100;" horiz-adv-x="696" d="M499 0L622 0L504 709L369 709L-50 0L85 0L187 178L472 178ZM412 574L455 289L250 289ZM593 776L613 869L314 869L294 776Z"/>
<glyph unicode="&#x101;" horiz-adv-x="583" d="M290 398C357 398 392 351 392 285C392 169 328 90 250 90C183 90 146 138 146 209C146 297 196 398 290 398ZM440 487L427 429C411 460 368 500 281 500C136 500 30 368 30 206C30 84 100 -9 224 -9C285 -9 330 24 358 60C356 38 356 32 356 20C356 14 356 9 357 0L465 0C464 11 464 19 464 24C464 56 468 86 474 116L553 487ZM473 577L492 667L215 667L196 577Z"/>
<glyph unicode="&#x102;" horiz-adv-x="696" d="M499 0L622 0L504 709L369 709L-50 0L85 0L187 178L472 178ZM412 574L455 289L250 289ZM450 754C552 754 611 822 629 887L536 887C530 861 505 834 456 834C413 834 397 856 397 879C397 881 397 883 398 887L311 887C310 883 309 875 309 868C309 801 364 754 450 754Z"/>
<glyph unicode="&#x103;" horiz-adv-x="583" d="M290 398C357 398 392 351 392 285C392 169 328 90 250 90C183 90 146 138 146 209C146 297 196 398 290 398ZM440 487L427 429C411 460 368 500 281 500C136 500 30 368 30 206C30 84 100 -9 224 -9C285 -9 330 24 358 60C356 38 356 32 356 20C356 14 356 9 357 0L465 0C464 11 464 19 464 24C464 56 468 86 474 116L553 487ZM333 547C439 547 496 620 513 695L425 695C416 668 392 633 342 633C297 633 283 661 283 687C283 689 283 691 284 695L205 695C203 688 202 677 202 668C202 605 247 547 333 547Z"/>
<glyph unicode="&#x104;" horiz-adv-x="696" d="M499 0L513 0C470 -24 428 -65 428 -128C428 -185 472 -220 530 -220C552 -220 564 -217 577 -213L592 -141C590 -141 579 -143 564 -143C539 -142 519 -130 519 -104C519 -53 578 -18 622 0L504 709L369 709L-50 0L85 0L187 178L472 178ZM412 574L455 289L250 289Z"/>
<glyph unicode="&#x105;" horiz-adv-x="583" d="M373 -220C393 -220 408 -217 420 -213L435 -141C420 -143 415 -143 408 -143C383 -143 362 -130 362 -104C362 -53 421 -18 465 0C465 1 464 6 464 27C464 59 468 86 474 116L553 487L440 487L427 429C411 460 368 500 281 500C136 500 30 368 30 206C30 84 100 -9 224 -9C285 -9 330 24 358 60C357 51 356 39 356 27C356 18 356 14 357 1C314 -23 271 -64 271 -128C271 -185 315 -220 373 -220ZM290 398C357 398 392 351 392 285C392 169 328 90 250 90C183 90 146 138 146 209C146 297 196 398 290 398Z"/>
<glyph unicode="&#x106;" horiz-adv-x="729" d="M441 724C251 724 58 575 58 304C58 118 184 -15 365 -15C533 -15 639 83 688 200L582 243C544 158 477 98 376 98C255 98 181 182 181 311C181 479 284 611 432 611C546 611 604 539 620 462L735 497C713 612 625 724 441 724ZM687 883L534 883L411 759L525 759Z"/>
<glyph unicode="&#x107;" horiz-adv-x="539" d="M513 696L368 696L251 548L351 548ZM508 343C492 417 434 502 301 502C155 502 30 386 30 212C30 82 119 -15 258 -15C373 -15 446 56 482 131L386 170C365 130 329 89 264 89C193 89 145 137 145 214C145 336 220 397 293 397C359 397 393 355 403 310Z"/>
<glyph unicode="&#x108;" horiz-adv-x="729" d="M393 759L483 823L547 759L647 759L555 883L426 883L285 759ZM441 724C251 724 58 575 58 304C58 118 184 -15 365 -15C533 -15 639 83 688 200L582 243C544 158 477 98 376 98C255 98 181 182 181 311C181 479 284 611 432 611C546 611 604 539 620 462L735 497C713 612 625 724 441 724Z"/>
<glyph unicode="&#x109;" horiz-adv-x="539" d="M248 549L334 626L387 549L482 549L406 692L283 692L145 549ZM508 343C492 417 434 502 301 502C155 502 30 386 30 212C30 82 119 -15 258 -15C373 -15 446 56 482 131L386 170C365 130 329 89 264 89C193 89 145 137 145 214C145 336 220 397 293 397C359 397 393 355 403 310Z"/>
<glyph unicode="&#x10a;" horiz-adv-x="729" d="M441 724C251 724 58 575 58 304C58 118 184 -15 365 -15C533 -15 639 83 688 200L582 243C544 158 477 98 376 98C255 98 181 182 181 311C181 479 284 611 432 611C546 611 604 539 620 462L735 497C713 612 625 724 441 724ZM402 824C402 787 429 757 468 757C511 757 549 794 549 839C549 874 521 903 482 903C438 903 402 866 402 824Z"/>
<glyph unicode="&#x10b;" horiz-adv-x="539" d="M508 343C492 417 434 502 301 502C155 502 30 386 30 212C30 82 119 -15 258 -15C373 -15 446 56 482 131L386 170C365 130 329 89 264 89C193 89 145 137 145 214C145 336 220 397 293 397C359 397 393 355 403 310ZM255 615C255 579 282 550 321 550C364 550 401 586 401 632C401 667 374 696 335 696C290 696 255 656 255 615Z"/>
<glyph unicode="&#x10c;" horiz-adv-x="729" d="M558 883L467 818L407 883L307 883L396 759L525 759L670 883ZM441 724C251 724 58 575 58 304C58 118 184 -15 365 -15C533 -15 639 83 688 200L582 243C544 158 477 98 376 98C255 98 181 182 181 311C181 479 284 611 432 611C546 611 604 539 620 462L735 497C713 612 625 724 441 724Z"/>
<glyph unicode="&#x10d;" horiz-adv-x="539" d="M422 694L337 617L284 694L190 694L264 549L389 549L526 694ZM508 343C492 417 434 502 301 502C155 502 30 386 30 212C30 82 119 -15 258 -15C373 -15 446 56 482 131L386 170C365 130 329 89 264 89C193 89 145 137 145 214C145 336 220 397 293 397C359 397 393 355 403 310Z"/>
<glyph unicode="&#x10e;" horiz-adv-x="712" d="M522 883L431 818L371 883L271 883L360 759L489 759L634 883ZM169 111L273 600L364 600C485 600 560 531 560 414C560 211 424 111 305 111ZM303 0C494 0 682 145 682 419C682 593 566 709 379 709L176 709L27 0Z"/>
<glyph unicode="&#x10f;" horiz-adv-x="583" d="M804 724L681 724L613 535L696 535ZM603 724L488 724L426 431C408 463 364 500 281 500C136 500 30 368 30 206C30 84 100 -9 224 -9C285 -9 330 24 358 60C357 51 356 39 356 25C356 19 356 9 357 0L464 0C463 7 463 21 463 24C463 46 466 76 474 116ZM290 398C357 398 392 351 392 285C392 169 328 90 250 90C183 90 146 138 146 209C146 297 196 398 290 398Z"/>
<glyph unicode="&#x110;" horiz-adv-x="716" d="M22 316L98 316L32 0L308 0C499 0 687 145 687 419C687 593 571 709 384 709L181 709L118 409L41 409ZM174 111L217 316L368 316L387 409L237 409L278 600L369 600C490 600 565 531 565 414C565 211 429 111 310 111Z"/>
<glyph unicode="&#x111;" horiz-adv-x="582" d="M603 724L488 724L470 639L349 639L330 553L452 553L426 431C408 463 364 500 281 500C136 500 30 368 30 206C30 84 100 -9 224 -9C285 -9 330 24 358 60C357 51 356 39 356 25C356 19 356 9 357 0L464 0C463 7 463 21 463 24C463 46 466 76 474 116L566 553L640 553L659 639L585 639ZM290 398C357 398 392 351 392 285C392 169 328 90 250 90C183 90 146 138 146 209C146 297 196 398 290 398Z"/>
<glyph unicode="&#x112;" horiz-adv-x="574" d="M461 0L484 112L169 112L210 300L494 300L518 409L233 409L273 597L587 597L611 709L176 709L26 0ZM552 776L572 869L273 869L253 776Z"/>
<glyph unicode="&#x113;" horiz-adv-x="545" d="M462 577L481 667L204 667L185 577ZM155 297C172 354 218 405 291 405C365 405 390 354 390 312C390 307 389 299 389 297ZM489 212C496 234 503 268 503 301C503 418 428 502 294 502C161 502 30 391 30 208C30 67 132 -15 253 -15C361 -15 436 42 469 106L380 155C361 118 320 84 256 84C189 84 141 132 141 201C141 205 141 207 142 212Z"/>
<glyph unicode="&#x114;" horiz-adv-x="574" d="M461 0L484 112L169 112L210 300L494 300L518 409L233 409L273 597L587 597L611 709L176 709L26 0ZM397 754C499 754 558 822 576 887L483 887C477 861 452 834 403 834C360 834 344 856 344 879C344 881 344 883 345 887L258 887C257 883 256 875 256 868C256 801 311 754 397 754Z"/>
<glyph unicode="&#x115;" horiz-adv-x="545" d="M155 297C172 354 218 405 291 405C365 405 390 354 390 312C390 307 389 299 389 297ZM489 212C496 234 503 268 503 301C503 418 428 502 294 502C161 502 30 391 30 208C30 67 132 -15 253 -15C361 -15 436 42 469 106L380 155C361 118 320 84 256 84C189 84 141 132 141 201C141 205 141 207 142 212ZM325 547C431 547 488 620 505 695L417 695C408 668 384 633 334 633C289 633 275 661 275 687C275 689 275 691 276 695L197 695C195 688 194 677 194 668C194 605 239 547 325 547Z"/>
<glyph unicode="&#x116;" horiz-adv-x="574" d="M338 821C338 784 365 754 404 754C447 754 485 791 485 836C485 871 457 900 418 900C374 900 338 863 338 821ZM461 0L484 112L169 112L210 300L494 300L518 409L233 409L273 597L587 597L611 709L176 709L26 0Z"/>
<glyph unicode="&#x117;" horiz-adv-x="545" d="M155 297C172 354 218 405 291 405C365 405 390 354 390 312C390 307 389 299 389 297ZM489 212C496 234 503 268 503 301C503 418 428 502 294 502C161 502 30 391 30 208C30 67 132 -15 253 -15C361 -15 436 42 469 106L380 155C361 118 320 84 256 84C189 84 141 132 141 201C141 205 141 207 142 212ZM251 614C251 578 278 549 317 549C360 549 397 585 397 631C397 666 370 695 331 695C286 695 251 655 251 614Z"/>
<glyph unicode="&#x118;" horiz-adv-x="574" d="M461 0L484 112L169 112L210 300L494 300L518 409L233 409L273 597L587 597L611 709L176 709L26 0L352 0C309 -24 267 -65 267 -128C267 -185 311 -220 369 -220C391 -220 403 -217 416 -213L431 -141C429 -141 418 -143 403 -143C378 -142 358 -130 358 -104C358 -53 417 -18 461 0Z"/>
<glyph unicode="&#x119;" horiz-adv-x="545" d="M489 212C496 234 503 268 503 301C503 418 428 502 294 502C161 502 30 391 30 208C30 82 111 4 214 -12C178 -37 148 -74 148 -128C148 -185 192 -220 250 -220C272 -220 284 -217 297 -213L312 -141C310 -141 299 -143 284 -143C259 -142 239 -130 239 -104C239 -55 293 -22 336 -3C400 16 445 60 469 106L380 155C361 118 320 84 256 84C189 84 141 132 141 201C141 205 141 207 142 212ZM155 297C172 354 218 405 291 405C365 405 390 354 390 312C390 307 389 299 389 297Z"/>
<glyph unicode="&#x11a;" horiz-adv-x="574" d="M498 883L407 818L347 883L247 883L336 759L465 759L610 883ZM461 0L484 112L169 112L210 300L494 300L518 409L233 409L273 597L587 597L611 709L176 709L26 0Z"/>
<glyph unicode="&#x11b;" horiz-adv-x="545" d="M401 694L316 617L263 694L169 694L243 549L368 549L505 694ZM155 297C172 354 218 405 291 405C365 405 390 354 390 312C390 307 389 299 389 297ZM489 212C496 234 503 268 503 301C503 418 428 502 294 502C161 502 30 391 30 208C30 67 132 -15 253 -15C361 -15 436 42 469 106L380 155C361 118 320 84 256 84C189 84 141 132 141 201C141 205 141 207 142 212Z"/>
<glyph unicode="&#x11c;" horiz-adv-x="763" d="M389 759L479 823L543 759L643 759L551 883L422 883L281 759ZM433 612C547 612 605 542 621 466L737 500C715 615 624 724 443 724C250 724 58 575 58 304C58 110 189 -14 360 -14C448 -14 515 20 561 76L556 0L648 0L724 359L380 359L358 254L589 254C563 157 477 95 376 95C254 95 180 181 180 311C180 483 287 612 433 612Z"/>
<glyph unicode="&#x11d;" horiz-adv-x="584" d="M278 549L364 626L417 549L512 549L436 692L313 692L175 549ZM395 290C395 186 337 122 258 122C187 122 150 171 150 237C150 335 210 396 289 396C360 396 395 344 395 290ZM-25 -23C-25 -112 44 -205 189 -205C360 -205 436 -84 463 44L555 487L440 487L428 427C405 467 354 497 281 497C137 497 34 379 34 229C34 114 108 26 232 26C290 26 333 51 353 79L345 43C324 -50 275 -105 189 -105C132 -105 80 -72 80 0Z"/>
<glyph unicode="&#x11e;" horiz-adv-x="763" d="M473 754C575 754 634 822 652 887L559 887C553 861 528 834 479 834C436 834 420 856 420 879C420 881 420 883 421 887L334 887C333 883 332 875 332 868C332 801 387 754 473 754ZM433 612C547 612 605 542 621 466L737 500C715 615 624 724 443 724C250 724 58 575 58 304C58 110 189 -14 360 -14C448 -14 515 20 561 76L556 0L648 0L724 359L380 359L358 254L589 254C563 157 477 95 376 95C254 95 180 181 180 311C180 483 287 612 433 612Z"/>
<glyph unicode="&#x11f;" horiz-adv-x="584" d="M395 290C395 186 337 122 258 122C187 122 150 171 150 237C150 335 210 396 289 396C360 396 395 344 395 290ZM-25 -23C-25 -112 44 -205 189 -205C360 -205 436 -84 463 44L555 487L440 487L428 427C405 467 354 497 281 497C137 497 34 379 34 229C34 114 108 26 232 26C290 26 333 51 353 79L345 43C324 -50 275 -105 189 -105C132 -105 80 -72 80 0ZM339 547C445 547 502 620 519 695L431 695C422 668 398 633 348 633C303 633 289 661 289 687C289 689 289 691 290 695L211 695C209 688 208 677 208 668C208 605 253 547 339 547Z"/>
<glyph unicode="&#x120;" horiz-adv-x="763" d="M407 823C407 786 434 756 473 756C516 756 554 793 554 838C554 873 526 902 487 902C443 902 407 865 407 823ZM433 612C547 612 605 542 621 466L737 500C715 615 624 724 443 724C250 724 58 575 58 304C58 110 189 -14 360 -14C448 -14 515 20 561 76L556 0L648 0L724 359L380 359L358 254L589 254C563 157 477 95 376 95C254 95 180 181 180 311C180 483 287 612 433 612Z"/>
<glyph unicode="&#x121;" horiz-adv-x="584" d="M273 614C273 578 300 549 339 549C382 549 419 585 419 631C419 666 392 695 353 695C308 695 273 655 273 614ZM395 290C395 186 337 122 258 122C187 122 150 171 150 237C150 335 210 396 289 396C360 396 395 344 395 290ZM-25 -23C-25 -112 44 -205 189 -205C360 -205 436 -84 463 44L555 487L440 487L428 427C405 467 354 497 281 497C137 497 34 379 34 229C34 114 108 26 232 26C290 26 333 51 353 79L345 43C324 -50 275 -105 189 -105C132 -105 80 -72 80 0Z"/>
<glyph unicode="&#x122;" horiz-adv-x="763" d="M260 -103C260 -131 281 -154 316 -154C326 -154 334 -151 336 -150C324 -181 296 -189 268 -189C267 -189 258 -189 254 -188L244 -233C250 -234 260 -235 266 -235C328 -235 399 -196 399 -109C399 -66 369 -40 331 -40C291 -40 260 -67 260 -103ZM433 612C547 612 605 542 621 466L737 500C715 615 624 724 443 724C250 724 58 575 58 304C58 110 189 -14 360 -14C448 -14 515 20 561 76L556 0L648 0L724 359L380 359L358 254L589 254C563 157 477 95 376 95C254 95 180 181 180 311C180 483 287 612 433 612Z"/>
<glyph unicode="&#x123;" horiz-adv-x="584" d="M402 606C402 632 384 656 348 656C338 656 332 654 327 652C333 675 365 692 399 692C400 692 404 692 410 691L419 736C411 737 406 737 402 737C341 737 265 698 265 609C265 575 292 540 333 540C372 540 402 570 402 606ZM395 290C395 186 337 122 258 122C187 122 150 171 150 237C150 335 210 396 289 396C360 396 395 344 395 290ZM-25 -23C-25 -112 44 -205 189 -205C360 -205 436 -84 463 44L555 487L440 487L428 427C405 467 354 497 281 497C137 497 34 379 34 229C34 114 108 26 232 26C290 26 333 51 353 79L345 43C324 -50 275 -105 189 -105C132 -105 80 -72 80 0Z"/>
<glyph unicode="&#x124;" horiz-adv-x="723" d="M383 759L473 823L537 759L637 759L545 883L416 883L275 759ZM573 0L723 709L602 709L540 416L234 416L296 709L176 709L26 0L146 0L210 303L516 303L452 0Z"/>
<glyph unicode="&#x125;" horiz-adv-x="559" d="M432 0L497 301C500 313 502 334 502 352C502 441 446 501 351 501C299 501 251 485 218 447L277 724L161 724L8 0L123 0L184 283C197 342 235 398 301 398C354 398 383 368 383 319C383 310 381 299 379 288L317 0ZM301 769L391 833L455 769L555 769L463 893L334 893L193 769Z"/>
<glyph unicode="&#x126;" horiz-adv-x="735" d="M63 515L141 515L32 0L152 0L216 303L522 303L458 0L579 0L688 515L768 515L785 597L705 597L729 709L608 709L584 597L278 597L302 709L182 709L158 597L80 597ZM240 416L261 515L567 515L546 416Z"/>
<glyph unicode="&#x127;" horiz-adv-x="559" d="M432 0L497 301C500 313 502 334 502 352C502 441 446 501 351 501C299 501 251 485 218 447L241 554L360 554L379 641L259 641L277 724L161 724L143 641L65 641L46 554L125 554L8 0L123 0L184 283C197 342 235 398 301 398C354 398 383 368 383 319C383 310 381 299 379 288L317 0Z"/>
<glyph unicode="&#x128;" horiz-adv-x="298" d="M148 0L298 709L176 709L26 0ZM435 886L357 886C351 855 338 842 319 842C304 842 292 850 278 859L270 865C252 877 228 888 199 888C141 888 88 853 78 757L156 757C161 788 175 800 194 800C209 800 222 792 236 783L244 778C263 766 287 754 316 754C374 754 419 788 435 886Z"/>
<glyph unicode="&#x129;" horiz-adv-x="256" d="M124 0L228 487L112 487L8 0ZM92 555C98 586 113 599 132 599C149 599 160 591 175 582L183 577C201 565 224 553 253 553C311 553 359 589 374 688L296 688C290 659 277 644 256 644C240 644 227 653 214 662L208 666C191 677 167 690 137 690C78 690 24 653 13 555Z"/>
<glyph unicode="&#x12a;" horiz-adv-x="298" d="M148 0L298 709L176 709L26 0ZM396 776L416 869L117 869L97 776Z"/>
<glyph unicode="&#x12b;" horiz-adv-x="256" d="M124 0L228 487L112 487L8 0ZM322 577L341 667L64 667L45 577Z"/>
<glyph unicode="&#x12c;" horiz-adv-x="298" d="M148 0L298 709L176 709L26 0ZM254 754C356 754 415 822 433 887L340 887C334 861 309 834 260 834C217 834 201 856 201 879C201 881 201 883 202 887L115 887C114 883 113 875 113 868C113 801 168 754 254 754Z"/>
<glyph unicode="&#x12d;" horiz-adv-x="256" d="M124 0L228 487L112 487L8 0ZM176 547C282 547 339 620 356 695L268 695C259 668 235 633 185 633C140 633 126 661 126 687C126 689 126 691 127 695L48 695C46 688 45 677 45 668C45 605 90 547 176 547Z"/>
<glyph unicode="&#x12e;" horiz-adv-x="298" d="M56 -220C78 -220 90 -217 103 -213L118 -141C116 -141 105 -143 90 -143C65 -142 45 -130 45 -104C45 -53 104 -18 148 0L298 709L176 709L26 0L39 0C-3 -24 -46 -65 -46 -128C-46 -185 -2 -220 56 -220Z"/>
<glyph unicode="&#x12f;" horiz-adv-x="255" d="M31 -220C53 -220 65 -217 78 -213L93 -141C91 -141 80 -143 65 -143C40 -142 20 -130 20 -104C20 -53 79 -18 123 0L227 487L112 487L8 0L15 0C-27 -22 -71 -65 -71 -128C-71 -185 -27 -220 31 -220ZM129 653C129 616 157 586 197 586C239 586 280 621 280 669C280 706 252 735 212 735C169 735 129 699 129 653Z"/>
<glyph unicode="&#x130;" horiz-adv-x="298" d="M148 0L298 709L176 709L26 0ZM187 821C187 784 214 754 253 754C296 754 334 791 334 836C334 871 306 900 267 900C223 900 187 863 187 821Z"/>
<glyph unicode="&#x131;" horiz-adv-x="256" d="M124 0L228 487L112 487L8 0Z"/>
<glyph unicode="&#x132;" horiz-adv-x="600" d="M207 339L288 709L171 709L88 332ZM486 709L379 206C365 139 329 96 270 96C209 96 178 138 178 193C178 206 180 219 183 233L192 271L72 254L67 224C64 208 63 193 63 178C63 68 135 -14 265 -14C389 -14 471 70 498 197L608 709Z"/>
<glyph unicode="&#x133;" horiz-adv-x="509" d="M129 653C129 616 157 586 197 586C239 586 280 621 280 669C280 706 252 735 212 735C169 735 129 699 129 653ZM123 0L227 487L112 487L8 0ZM253 -43C244 -87 226 -103 188 -103C169 -103 152 -98 146 -96L127 -186C132 -190 161 -205 207 -205C285 -205 344 -158 363 -70L481 487L367 487ZM384 653C384 616 412 586 452 586C493 586 535 621 535 669C535 706 507 735 467 735C424 735 384 699 384 653Z"/>
<glyph unicode="&#x134;" horiz-adv-x="541" d="M422 759L512 823L576 759L676 759L584 883L455 883L314 759ZM427 709L320 206C306 139 270 96 211 96C149 96 119 138 119 194C119 206 122 221 124 233L135 287L16 269L11 245C7 225 4 199 4 178C4 68 76 -14 206 -14C330 -14 412 70 439 197L548 709Z"/>
<glyph unicode="&#x135;" horiz-adv-x="255" d="M114 549L200 626L253 549L348 549L272 692L149 692L11 549ZM-2 -43C-11 -87 -30 -103 -68 -103C-90 -103 -107 -96 -109 -96L-128 -186C-123 -190 -94 -205 -48 -205C30 -205 89 -158 108 -70L226 487L112 487Z"/>
<glyph unicode="&#x136;" horiz-adv-x="669" d="M468 0L607 0L397 394L753 709L587 709L228 390L296 709L176 709L26 0L146 0L190 210L304 311ZM222 -102C222 -130 243 -153 278 -153C288 -153 296 -150 298 -149C286 -180 258 -188 230 -188C229 -188 220 -188 216 -187L206 -232C212 -233 222 -234 228 -234C290 -234 361 -195 361 -108C361 -65 331 -39 293 -39C253 -39 222 -66 222 -102Z"/>
<glyph unicode="&#x137;" horiz-adv-x="537" d="M337 0L465 0L325 285L566 487L402 487L186 303L276 724L161 724L8 0L122 0L151 139L237 211ZM142 -102C142 -130 163 -153 198 -153C208 -153 216 -150 218 -149C206 -180 178 -188 150 -188C149 -188 140 -188 136 -187L126 -232C132 -233 142 -234 148 -234C210 -234 281 -195 281 -108C281 -65 251 -39 213 -39C173 -39 142 -66 142 -102Z"/>
<glyph unicode="&#x138;" horiz-adv-x="537" d="M337 0L465 0L325 285L566 487L402 487L186 303L226 487L111 487L8 0L122 0L151 139L237 211Z"/>
<glyph unicode="&#x139;" horiz-adv-x="537" d="M465 883L312 883L189 759L303 759ZM462 0L486 114L170 114L296 709L176 709L26 0Z"/>
<glyph unicode="&#x13a;" horiz-adv-x="255" d="M444 893L291 893L168 769L282 769ZM123 0L277 724L162 724L8 0Z"/>
<glyph unicode="&#x13b;" horiz-adv-x="537" d="M170 -102C170 -130 191 -153 226 -153C236 -153 244 -150 246 -149C234 -180 206 -188 178 -188C177 -188 168 -188 164 -187L154 -232C160 -233 170 -234 176 -234C238 -234 309 -195 309 -108C309 -65 279 -39 241 -39C201 -39 170 -66 170 -102ZM462 0L486 114L170 114L296 709L176 709L26 0Z"/>
<glyph unicode="&#x13c;" horiz-adv-x="255" d="M-27 -102C-27 -130 -6 -153 29 -153C39 -153 47 -150 49 -149C37 -180 9 -188 -19 -188C-20 -188 -29 -188 -33 -187L-43 -232C-37 -233 -27 -234 -21 -234C41 -234 112 -195 112 -108C112 -65 82 -39 44 -39C4 -39 -27 -66 -27 -102ZM123 0L277 724L162 724L8 0Z"/>
<glyph unicode="&#x13d;" horiz-adv-x="537" d="M538 760L407 760L338 560L426 560ZM462 0L486 114L170 114L296 709L176 709L26 0Z"/>
<glyph unicode="&#x13e;" horiz-adv-x="255" d="M475 724L352 724L284 535L367 535ZM123 0L277 724L162 724L8 0Z"/>
<glyph unicode="&#x13f;" horiz-adv-x="537" d="M317 362C317 326 344 298 381 298C423 298 460 333 460 378C460 412 433 440 395 440C351 440 317 401 317 362ZM462 0L486 114L170 114L296 709L176 709L26 0Z"/>
<glyph unicode="&#x140;" horiz-adv-x="369" d="M123 0L277 724L162 724L8 0ZM243 313C243 277 270 248 309 248C352 248 389 284 389 330C389 365 362 394 323 394C278 394 243 354 243 313Z"/>
<glyph unicode="&#x141;" horiz-adv-x="554" d="M479 0L503 114L187 114L235 342L400 410L421 510L257 443L313 709L193 709L125 389L26 349L5 248L104 288L43 0Z"/>
<glyph unicode="&#x142;" horiz-adv-x="353" d="M173 0L247 348L349 390L371 490L268 448L327 724L212 724L142 397L47 358L25 258L121 297L58 0Z"/>
<glyph unicode="&#x143;" horiz-adv-x="749" d="M678 883L525 883L402 759L516 759ZM599 0L750 709L629 709L521 200L316 709L176 709L26 0L146 0L259 534L477 0Z"/>
<glyph unicode="&#x144;" horiz-adv-x="560" d="M518 696L373 696L256 548L356 548ZM433 0L497 296C501 313 503 334 503 350C503 439 447 501 356 501C302 501 247 483 212 436C216 455 217 481 217 487L105 487C105 483 104 449 94 403L9 0L124 0L185 283C198 342 236 398 302 398C355 398 384 368 384 319C384 310 382 299 380 288L318 0Z"/>
<glyph unicode="&#x145;" horiz-adv-x="749" d="M257 -102C257 -130 278 -153 313 -153C323 -153 331 -150 333 -149C321 -180 293 -188 265 -188C264 -188 255 -188 251 -187L241 -232C247 -233 257 -234 263 -234C325 -234 396 -195 396 -108C396 -65 366 -39 328 -39C288 -39 257 -66 257 -102ZM599 0L750 709L629 709L521 200L316 709L176 709L26 0L146 0L259 534L477 0Z"/>
<glyph unicode="&#x146;" horiz-adv-x="560" d="M144 -102C144 -130 165 -153 200 -153C210 -153 218 -150 220 -149C208 -180 180 -188 152 -188C151 -188 142 -188 138 -187L128 -232C134 -233 144 -234 150 -234C212 -234 283 -195 283 -108C283 -65 253 -39 215 -39C175 -39 144 -66 144 -102ZM433 0L497 296C501 313 503 334 503 350C503 439 447 501 356 501C302 501 247 483 212 436C216 455 217 481 217 487L105 487C105 483 104 449 94 403L9 0L124 0L185 283C198 342 236 398 302 398C355 398 384 368 384 319C384 310 382 299 380 288L318 0Z"/>
<glyph unicode="&#x147;" horiz-adv-x="749" d="M560 883L469 818L409 883L309 883L398 759L527 759L672 883ZM599 0L750 709L629 709L521 200L316 709L176 709L26 0L146 0L259 534L477 0Z"/>
<glyph unicode="&#x148;" horiz-adv-x="560" d="M414 694L329 617L276 694L182 694L256 549L381 549L518 694ZM433 0L497 296C501 313 503 334 503 350C503 439 447 501 356 501C302 501 247 483 212 436C216 455 217 481 217 487L105 487C105 483 104 449 94 403L9 0L124 0L185 283C198 342 236 398 302 398C355 398 384 368 384 319C384 310 382 299 380 288L318 0Z"/>
<glyph unicode="&#x149;" horiz-adv-x="560" d="M119 533C125 532 132 532 138 532C210 532 273 582 273 659C273 703 243 727 205 727C167 727 136 701 136 664C136 636 155 613 190 613C198 613 207 615 211 617C197 586 165 578 137 578L128 578ZM433 0L497 296C501 313 503 334 503 350C503 439 447 501 356 501C302 501 247 483 212 436C216 455 217 481 217 487L105 487C105 483 104 449 94 403L9 0L124 0L185 283C198 342 236 398 302 398C355 398 384 368 384 319C384 310 382 299 380 288L318 0Z"/>
<glyph unicode="&#x14a;" horiz-adv-x="749" d="M473 -43C465 -80 446 -100 410 -101C384 -101 364 -93 362 -92L342 -186C344 -188 374 -204 425 -204C505 -204 567 -154 585 -69L750 709L629 709L521 200L316 709L176 709L26 0L146 0L259 534L481 -7Z"/>
<glyph unicode="&#x14b;" horiz-adv-x="560" d="M261 -212C339 -212 398 -166 417 -78L498 301C500 309 503 328 503 350C503 439 447 501 356 501C302 501 247 483 212 436C216 456 217 482 217 487L105 487C105 483 104 449 94 403L9 0L124 0L185 283C198 342 236 398 302 398C355 398 383 368 383 319C383 310 382 299 380 288L307 -52C299 -91 280 -111 245 -111C225 -111 208 -105 201 -103L181 -194C186 -197 215 -212 261 -212Z"/>
<glyph unicode="&#x14c;" horiz-adv-x="777" d="M614 776L634 869L335 869L315 776ZM57 299C57 112 181 -15 368 -15C556 -15 746 135 746 410C746 598 624 724 436 724C248 724 57 574 57 299ZM624 401C622 234 522 98 374 98C259 98 180 176 180 308C181 476 282 611 430 611C545 611 624 533 624 401Z"/>
<glyph unicode="&#x14d;" horiz-adv-x="569" d="M462 577L481 667L204 667L185 577ZM292 398C361 397 403 350 403 273C403 152 329 89 257 89C191 89 146 138 146 215C146 326 214 398 292 398ZM520 277C520 402 440 502 300 502C150 502 30 381 30 211C30 86 114 -15 251 -15C407 -15 520 116 520 277Z"/>
<glyph unicode="&#x14e;" horiz-adv-x="777" d="M482 754C584 754 643 822 661 887L568 887C562 861 537 834 488 834C445 834 429 856 429 879C429 881 429 883 430 887L343 887C342 883 341 875 341 868C341 801 396 754 482 754ZM57 299C57 112 181 -15 368 -15C556 -15 746 135 746 410C746 598 624 724 436 724C248 724 57 574 57 299ZM624 401C622 234 522 98 374 98C259 98 180 176 180 308C181 476 282 611 430 611C545 611 624 533 624 401Z"/>
<glyph unicode="&#x14f;" horiz-adv-x="569" d="M292 398C361 397 403 350 403 273C403 152 329 89 257 89C191 89 146 138 146 215C146 326 214 398 292 398ZM520 277C520 402 440 502 300 502C150 502 30 381 30 211C30 86 114 -15 251 -15C407 -15 520 116 520 277ZM317 547C423 547 480 620 497 695L409 695C400 668 376 633 326 633C281 633 267 661 267 687C267 689 267 691 268 695L189 695C187 688 186 677 186 668C186 605 231 547 317 547Z"/>
<glyph unicode="&#x150;" horiz-adv-x="777" d="M533 883L411 883L332 759L413 759ZM696 883L574 883L482 759L565 759ZM57 299C57 112 181 -15 368 -15C556 -15 746 135 746 410C746 598 624 724 436 724C248 724 57 574 57 299ZM624 401C622 234 522 98 374 98C259 98 180 176 180 308C181 476 282 611 430 611C545 611 624 533 624 401Z"/>
<glyph unicode="&#x151;" horiz-adv-x="569" d="M401 696L279 696L195 548L275 548ZM558 696L435 696L339 548L419 548ZM292 398C361 397 403 350 403 273C403 152 329 89 257 89C191 89 146 138 146 215C146 326 214 398 292 398ZM520 277C520 402 440 502 300 502C150 502 30 381 30 211C30 86 114 -15 251 -15C407 -15 520 116 520 277Z"/>
<glyph unicode="&#x152;" horiz-adv-x="1095" d="M624 401C622 234 522 98 374 98C259 98 180 176 180 308C181 476 282 611 430 611C545 611 624 533 624 401ZM982 0L1005 112L690 112L731 300L1015 300L1039 409L754 409L794 597L1108 597L1132 709L697 709L674 599C632 678 551 724 436 724C248 724 57 574 57 299C57 113 180 -15 362 -15C435 -15 505 11 559 58L547 0Z"/>
<glyph unicode="&#x153;" horiz-adv-x="915" d="M623 -15C731 -15 806 42 839 106L751 155C731 118 690 84 626 84C559 84 511 132 511 201C511 205 511 208 512 212L859 212C866 234 873 268 873 301C873 418 798 502 664 502C595 502 525 471 475 415C441 468 382 502 300 502C150 502 30 381 30 211C30 86 114 -15 251 -15C329 -15 395 19 442 72C482 16 548 -15 623 -15ZM525 297C542 354 588 405 661 405C735 405 760 354 760 312C760 307 759 299 759 297ZM403 273C403 152 329 89 257 89C191 89 146 138 146 215C146 326 214 398 292 398C361 398 403 349 403 273Z"/>
<glyph unicode="&#x154;" horiz-adv-x="631" d="M587 883L434 883L311 759L425 759ZM416 0L544 0L431 296C538 324 615 408 615 528C615 631 543 709 415 709L176 709L26 0L146 0L206 283L314 283ZM228 388L274 604L391 604C459 604 492 568 492 515C492 437 434 388 349 388Z"/>
<glyph unicode="&#x155;" horiz-adv-x="371" d="M446 696L301 696L184 548L284 548ZM367 369L392 489C382 491 370 492 357 492C310 492 247 476 210 420C215 439 217 473 217 487L105 487C105 483 104 449 94 403L9 0L123 0L172 228C196 338 258 374 326 374C339 374 353 372 367 369Z"/>
<glyph unicode="&#x156;" horiz-adv-x="631" d="M416 0L544 0L431 296C538 324 615 408 615 528C615 631 543 709 415 709L176 709L26 0L146 0L206 283L314 283ZM228 388L274 604L391 604C459 604 492 568 492 515C492 437 434 388 349 388ZM195 -102C195 -130 216 -153 251 -153C261 -153 269 -150 271 -149C259 -180 231 -188 203 -188C202 -188 193 -188 189 -187L179 -232C185 -233 195 -234 201 -234C263 -234 334 -195 334 -108C334 -65 304 -39 266 -39C226 -39 195 -66 195 -102Z"/>
<glyph unicode="&#x157;" horiz-adv-x="371" d="M367 369L392 489C382 491 370 492 357 492C310 492 247 476 210 420C215 439 217 473 217 487L105 487C105 483 104 449 94 403L9 0L123 0L172 228C196 338 258 374 326 374C339 374 353 372 367 369ZM-23 -102C-23 -130 -2 -153 33 -153C43 -153 51 -150 53 -149C41 -180 13 -188 -15 -188C-16 -188 -25 -188 -29 -187L-39 -232C-33 -233 -23 -234 -17 -234C45 -234 116 -195 116 -108C116 -65 86 -39 48 -39C8 -39 -23 -66 -23 -102Z"/>
<glyph unicode="&#x158;" horiz-adv-x="631" d="M488 883L397 818L337 883L237 883L326 759L455 759L600 883ZM416 0L544 0L431 296C538 324 615 408 615 528C615 631 543 709 415 709L176 709L26 0L146 0L206 283L314 283ZM228 388L274 604L391 604C459 604 492 568 492 515C492 437 434 388 349 388Z"/>
<glyph unicode="&#x159;" horiz-adv-x="371" d="M345 694L260 617L207 694L113 694L187 549L312 549L449 694ZM367 369L392 489C382 491 370 492 357 492C310 492 247 476 210 420C215 439 217 473 217 487L105 487C105 483 104 449 94 403L9 0L123 0L172 228C196 338 258 374 326 374C339 374 353 372 367 369Z"/>
<glyph unicode="&#x15a;" horiz-adv-x="594" d="M282 91C178 91 136 164 136 236C136 243 136 250 137 257L21 237C21 231 20 225 20 219C20 116 92 -15 283 -15C433 -15 528 89 528 200C528 281 485 347 384 392L295 432C259 448 235 476 235 518C235 573 279 618 353 618C468 618 483 532 483 500L596 520C596 597 540 724 359 724C222 724 113 631 113 505C113 415 162 356 247 318L336 278C387 255 403 223 403 188C403 131 356 91 282 91ZM597 883L444 883L321 759L435 759Z"/>
<glyph unicode="&#x15b;" horiz-adv-x="450" d="M478 696L333 696L216 548L316 548ZM4 151C4 93 40 -15 192 -15C320 -15 376 72 376 142C376 200 342 250 271 281L207 309C186 318 173 333 173 357C173 387 198 412 239 412C303 412 320 366 322 336L423 357C420 410 383 502 245 502C134 502 63 426 63 342C63 285 93 240 159 211L221 184C250 171 262 152 262 132C262 104 240 76 193 76C134 76 104 119 104 170Z"/>
<glyph unicode="&#x15c;" horiz-adv-x="594" d="M318 759L408 823L472 759L572 759L480 883L351 883L210 759ZM282 91C178 91 136 164 136 236C136 243 136 250 137 257L21 237C21 231 20 225 20 219C20 116 92 -15 283 -15C433 -15 528 89 528 200C528 281 485 347 384 392L295 432C259 448 235 476 235 518C235 573 279 618 353 618C468 618 483 532 483 500L596 520C596 597 540 724 359 724C222 724 113 631 113 505C113 415 162 356 247 318L336 278C387 255 403 223 403 188C403 131 356 91 282 91Z"/>
<glyph unicode="&#x15d;" horiz-adv-x="450" d="M210 549L296 626L349 549L444 549L368 692L245 692L107 549ZM4 151C4 93 40 -15 192 -15C320 -15 376 72 376 142C376 200 342 250 271 281L207 309C186 318 173 333 173 357C173 387 198 412 239 412C303 412 320 366 322 336L423 357C420 410 383 502 245 502C134 502 63 426 63 342C63 285 93 240 159 211L221 184C250 171 262 152 262 132C262 104 240 76 193 76C134 76 104 119 104 170Z"/>
<glyph unicode="&#x15e;" horiz-adv-x="594" d="M290 -15C436 -12 528 91 528 200C528 281 485 347 384 392L295 432C259 448 235 476 235 518C235 573 279 618 353 618C468 618 483 532 483 500L596 520C596 597 540 724 359 724C222 724 113 631 113 505C113 415 162 356 247 318L336 278C387 255 403 223 403 188C403 131 356 91 282 91C178 91 136 164 136 236C136 243 136 250 137 257L21 237C21 231 20 225 20 219C20 130 74 20 210 -8L161 -53L184 -99C192 -98 196 -98 201 -98C223 -98 241 -109 241 -129C241 -150 221 -160 198 -160C153 -160 133 -128 126 -114L72 -154C83 -176 126 -223 200 -223C278 -223 321 -176 321 -127C321 -90 295 -58 248 -52Z"/>
<glyph unicode="&#x15f;" horiz-adv-x="450" d="M212 -14C325 -6 376 76 376 142C376 200 342 250 271 281L207 309C186 318 173 333 173 357C173 387 198 412 239 412C303 412 320 366 322 336L423 357C420 410 383 502 245 502C134 502 63 426 63 342C63 285 93 240 159 211L221 184C250 171 262 152 262 132C262 104 240 76 193 76C139 76 104 115 104 163L104 170L4 151C4 101 30 16 131 -8L82 -53L105 -99L111 -99C116 -98 120 -98 122 -98C144 -98 162 -109 162 -129C162 -150 142 -160 119 -160C74 -160 54 -128 47 -114L-7 -154C4 -176 47 -223 121 -223C199 -223 242 -176 242 -127C242 -90 216 -58 169 -52Z"/>
<glyph unicode="&#x160;" horiz-adv-x="594" d="M488 883L397 818L337 883L237 883L326 759L455 759L600 883ZM282 91C178 91 136 164 136 236C136 243 136 250 137 257L21 237C21 231 20 225 20 219C20 116 92 -15 283 -15C433 -15 528 89 528 200C528 281 485 347 384 392L295 432C259 448 235 476 235 518C235 573 279 618 353 618C468 618 483 532 483 500L596 520C596 597 540 724 359 724C222 724 113 631 113 505C113 415 162 356 247 318L336 278C387 255 403 223 403 188C403 131 356 91 282 91Z"/>
<glyph unicode="&#x161;" horiz-adv-x="450" d="M373 694L288 617L235 694L141 694L215 549L340 549L477 694ZM4 151C4 93 40 -15 192 -15C320 -15 376 72 376 142C376 200 342 250 271 281L207 309C186 318 173 333 173 357C173 387 198 412 239 412C303 412 320 366 322 336L423 357C420 410 383 502 245 502C134 502 63 426 63 342C63 285 93 240 159 211L221 184C250 171 262 152 262 132C262 104 240 76 193 76C134 76 104 119 104 170Z"/>
<glyph unicode="&#x162;" horiz-adv-x="587" d="M635 597L659 709L105 709L81 597L302 597L176 0L193 0L135 -53L158 -99C165 -98 173 -98 175 -98C197 -98 215 -109 215 -129C215 -150 195 -160 172 -160C127 -160 107 -128 100 -114L46 -154C57 -176 100 -223 174 -223C252 -223 295 -176 295 -127C295 -90 269 -58 222 -52L281 0L296 0L423 597Z"/>
<glyph unicode="&#x163;" horiz-adv-x="354" d="M58 -102C58 -130 79 -153 114 -153C124 -153 132 -150 134 -149C122 -180 94 -188 66 -188C65 -188 56 -188 52 -187L42 -232C48 -233 58 -234 64 -234C126 -234 197 -195 197 -108C197 -65 167 -39 129 -39C89 -39 58 -66 58 -102ZM71 110C71 38 120 -6 199 -6C228 -6 248 0 257 4L276 97C264 95 254 94 242 94C202 94 189 112 189 135C189 141 190 149 192 157L240 384L336 384L358 487L261 487L294 636L189 636L174 566C163 517 133 487 77 487L59 487L37 384L125 384L79 169C73 143 71 122 71 110Z"/>
<glyph unicode="&#x164;" horiz-adv-x="587" d="M490 883L399 818L339 883L239 883L328 759L457 759L602 883ZM635 597L659 709L105 709L81 597L302 597L176 0L296 0L423 597Z"/>
<glyph unicode="&#x165;" horiz-adv-x="354" d="M523 750L400 750L332 561L415 561ZM71 110C71 38 120 -6 199 -6C228 -6 248 0 257 4L276 97C264 95 254 94 242 94C202 94 189 112 189 135C189 141 190 149 192 157L240 384L336 384L358 487L261 487L294 636L189 636L174 566C163 517 133 487 77 487L59 487L37 384L125 384L79 169C73 143 71 122 71 110Z"/>
<glyph unicode="&#x166;" horiz-adv-x="599" d="M640 597L664 709L110 709L86 597L307 597L259 372L138 372L118 279L240 279L181 0L301 0L360 279L482 279L502 372L380 372L428 597Z"/>
<glyph unicode="&#x167;" horiz-adv-x="359" d="M76 110C76 38 125 -6 204 -6C233 -6 253 0 262 4L281 97C272 95 259 94 247 94C207 94 194 112 194 135C194 141 195 149 197 157L206 203L307 203L325 290L225 290L245 384L341 384L363 487L266 487L299 636L194 636L179 566C168 517 138 487 82 487L64 487L42 384L130 384L110 290L24 290L6 203L91 203L81 154C77 136 76 122 76 110Z"/>
<glyph unicode="&#x168;" horiz-adv-x="682" d="M568 709L469 237C450 148 397 100 318 100C229 100 189 146 189 217C189 233 191 249 195 267L286 709L168 709L77 276C72 251 69 229 69 204C69 68 165 -15 310 -15C448 -15 554 68 586 220L689 709ZM628 886L550 886C544 855 531 842 512 842C497 842 485 850 471 859L463 865C445 877 421 888 392 888C334 888 281 853 271 757L349 757C354 788 368 800 387 800C402 800 415 792 429 783L437 778C456 766 480 754 509 754C567 754 612 788 628 886Z"/>
<glyph unicode="&#x169;" horiz-adv-x="555" d="M106 487L45 202C41 183 39 165 39 148C39 55 96 -11 198 -11C243 -11 295 10 323 53C322 44 322 36 322 29C322 16 323 6 324 0L436 0C435 11 435 16 435 22C435 53 440 81 446 111L524 487L410 487L350 203C337 142 299 89 237 89C180 89 157 122 157 168C157 180 159 193 162 207L222 487ZM238 555C244 586 259 599 278 599C295 599 306 591 321 582L329 577C347 565 370 553 399 553C457 553 505 589 520 688L442 688C436 659 423 644 402 644C386 644 373 653 360 662L354 666C337 677 313 690 283 690C224 690 170 653 159 555Z"/>
<glyph unicode="&#x16a;" horiz-adv-x="682" d="M568 709L469 237C450 148 397 100 318 100C229 100 189 146 189 217C189 233 191 249 195 267L286 709L168 709L77 276C72 251 69 229 69 204C69 68 165 -15 310 -15C448 -15 554 68 586 220L689 709ZM586 776L606 869L307 869L287 776Z"/>
<glyph unicode="&#x16b;" horiz-adv-x="555" d="M106 487L45 202C41 183 39 165 39 148C39 55 96 -11 198 -11C243 -11 295 10 323 53C322 44 322 36 322 29C322 16 323 6 324 0L436 0C435 11 435 16 435 22C435 53 440 81 446 111L524 487L410 487L350 203C337 142 299 89 237 89C180 89 157 122 157 168C157 180 159 193 162 207L222 487ZM465 577L484 667L207 667L188 577Z"/>
<glyph unicode="&#x16c;" horiz-adv-x="682" d="M568 709L469 237C450 148 397 100 318 100C229 100 189 146 189 217C189 233 191 249 195 267L286 709L168 709L77 276C72 251 69 229 69 204C69 68 165 -15 310 -15C448 -15 554 68 586 220L689 709ZM437 754C539 754 598 822 616 887L523 887C517 861 492 834 443 834C400 834 384 856 384 879C384 881 384 883 385 887L298 887C297 883 296 875 296 868C296 801 351 754 437 754Z"/>
<glyph unicode="&#x16d;" horiz-adv-x="555" d="M106 487L45 202C41 183 39 165 39 148C39 55 96 -11 198 -11C243 -11 295 10 323 53C322 44 322 36 322 29C322 16 323 6 324 0L436 0C435 11 435 16 435 22C435 53 440 81 446 111L524 487L410 487L350 203C337 142 299 89 237 89C180 89 157 122 157 168C157 180 159 193 162 207L222 487ZM324 547C430 547 487 620 504 695L416 695C407 668 383 633 333 633C288 633 274 661 274 687C274 689 274 691 275 695L196 695C194 688 193 677 193 668C193 605 238 547 324 547Z"/>
<glyph unicode="&#x16e;" horiz-adv-x="682" d="M568 709L469 237C450 148 397 100 318 100C229 100 189 146 189 217C189 233 191 249 195 267L286 709L168 709L77 276C72 251 69 229 69 204C69 68 165 -15 310 -15C448 -15 554 68 586 220L689 709ZM447 900C473 900 491 883 491 858C491 827 466 807 439 807C413 807 395 823 395 849C395 879 421 900 447 900ZM321 841C321 781 371 734 435 734C504 734 567 793 567 864C567 925 518 972 454 972C385 972 321 916 321 841Z"/>
<glyph unicode="&#x16f;" horiz-adv-x="555" d="M345 755C284 755 222 706 222 634C222 578 269 535 328 535C392 535 450 590 450 655C450 712 404 755 345 755ZM291 641C291 669 315 688 339 688C363 688 379 671 379 649C379 621 357 602 331 602C307 602 291 617 291 641ZM106 487L45 202C41 183 39 165 39 148C39 55 96 -11 198 -11C243 -11 295 10 323 53C322 44 322 36 322 29C322 16 323 6 324 0L436 0C435 11 435 16 435 22C435 53 440 81 446 111L524 487L410 487L350 203C337 142 299 89 237 89C180 89 157 122 157 168C157 180 159 193 162 207L222 487Z"/>
<glyph unicode="&#x170;" horiz-adv-x="682" d="M507 883L385 883L306 759L387 759ZM670 883L548 883L456 759L539 759ZM568 709L469 237C450 148 397 100 318 100C229 100 189 146 189 217C189 233 191 249 195 267L286 709L168 709L77 276C72 251 69 229 69 204C69 68 165 -15 310 -15C448 -15 554 68 586 220L689 709Z"/>
<glyph unicode="&#x171;" horiz-adv-x="555" d="M106 487L45 202C41 183 39 165 39 148C39 55 96 -11 198 -11C243 -11 295 10 323 53C322 44 322 36 322 29C322 16 323 6 324 0L436 0C435 11 435 16 435 22C435 53 440 81 446 111L524 487L410 487L350 203C337 142 299 89 237 89C180 89 157 122 157 168C157 180 159 193 162 207L222 487ZM406 696L284 696L200 548L280 548ZM563 696L440 696L344 548L424 548Z"/>
<glyph unicode="&#x172;" horiz-adv-x="682" d="M568 709L469 237C450 148 397 100 318 100C229 100 189 146 189 217C189 233 191 249 195 267L286 709L168 709L77 276C72 251 69 229 69 204C69 79 151 -2 277 -14C242 -39 212 -75 212 -128C212 -185 256 -220 314 -220C336 -220 348 -217 361 -213L376 -141C374 -141 363 -143 348 -143C323 -142 303 -130 303 -104C303 -53 361 -16 405 0C495 34 562 105 586 220L689 709Z"/>
<glyph unicode="&#x173;" horiz-adv-x="555" d="M106 487L45 202C41 183 39 165 39 148C39 55 96 -11 198 -11C243 -11 295 10 323 53C322 44 322 39 322 32C322 16 323 7 324 0C283 -24 242 -65 242 -128C242 -185 286 -220 344 -220C366 -220 378 -217 391 -213L406 -141C398 -142 393 -143 378 -143C352 -143 333 -129 333 -102C333 -52 389 -18 436 0C436 1 435 8 435 22C435 53 440 81 446 111L524 487L410 487L350 203C337 142 299 89 237 89C180 89 157 122 157 168C157 180 159 193 162 207L222 487Z"/>
<glyph unicode="&#x174;" horiz-adv-x="995" d="M515 759L605 823L669 759L769 759L677 883L548 883L407 759ZM514 709L256 191L223 709L105 709L155 0L280 0L547 536L606 0L725 0L1058 709L933 709L697 187L638 709Z"/>
<glyph unicode="&#x175;" horiz-adv-x="809" d="M373 549L459 626L512 549L607 549L531 692L408 692L270 549ZM376 487L202 153L174 487L63 487L111 0L231 0L412 348L456 0L572 0L826 487L704 487L539 152L498 487Z"/>
<glyph unicode="&#x176;" horiz-adv-x="625" d="M257 302L193 0L314 0L376 298L690 709L546 709L335 417L225 709L98 709ZM318 759L408 823L472 759L572 759L480 883L351 883L210 759Z"/>
<glyph unicode="&#x177;" horiz-adv-x="512" d="M219 549L305 626L358 549L453 549L377 692L254 692L116 549ZM101 -190L539 487L407 487L232 199L157 487L34 487L147 80L-28 -190Z"/>
<glyph unicode="&#x178;" horiz-adv-x="625" d="M227 814C227 780 252 755 287 755C325 755 360 785 360 829C360 861 336 888 301 888C259 888 227 854 227 814ZM433 814C433 780 458 755 493 755C531 755 566 785 566 829C566 861 542 888 507 888C465 888 433 854 433 814ZM257 302L193 0L314 0L376 298L690 709L546 709L335 417L225 709L98 709Z"/>
<glyph unicode="&#x179;" horiz-adv-x="621" d="M594 883L441 883L318 759L432 759ZM516 0L540 113L157 113L638 597L662 709L139 709L115 597L479 597L4 116L-21 0Z"/>
<glyph unicode="&#x17a;" horiz-adv-x="484" d="M483 696L338 696L221 548L321 548ZM380 0L401 102L148 102L455 387L477 487L92 487L70 386L305 386L2 102L-20 0Z"/>
<glyph unicode="&#x17b;" horiz-adv-x="621" d="M516 0L540 113L157 113L638 597L662 709L139 709L115 597L479 597L4 116L-21 0ZM339 821C339 784 366 754 405 754C448 754 486 791 486 836C486 871 458 900 419 900C375 900 339 863 339 821Z"/>
<glyph unicode="&#x17c;" horiz-adv-x="484" d="M380 0L401 102L148 102L455 387L477 487L92 487L70 386L305 386L2 102L-20 0ZM230 614C230 578 257 549 296 549C339 549 376 585 376 631C376 666 349 695 310 695C265 695 230 655 230 614Z"/>
<glyph unicode="&#x17d;" horiz-adv-x="621" d="M504 883L413 818L353 883L253 883L342 759L471 759L616 883ZM516 0L540 113L157 113L638 597L662 709L139 709L115 597L479 597L4 116L-21 0Z"/>
<glyph unicode="&#x17e;" horiz-adv-x="484" d="M381 694L296 617L243 694L149 694L223 549L348 549L485 694ZM380 0L401 102L148 102L455 387L477 487L92 487L70 386L305 386L2 102L-20 0Z"/>
<glyph unicode="&#x18f;" horiz-adv-x="777" d="M421 724C270 724 144 639 91 529L189 478C225 551 309 611 411 611C530 611 625 539 625 402C625 394 625 386 624 378L51 378C49 370 43 337 43 295C43 104 187 -16 358 -16C547 -16 747 136 747 408C747 597 609 724 421 724ZM368 93C251 93 166 165 164 275L606 275C565 152 464 93 368 93Z"/>
<glyph unicode="&#x192;" horiz-adv-x="5120" d="M2128 382C2006 412 1984 431 1984 474C1984 515 2022 542 2079 542C2134 542 2188 521 2245 478C2246 477 2248 476 2250 476C2253 476 2256 478 2257 480L2316 564C2317 566 2318 567 2318 569C2318 571 2317 573 2315 575C2250 628 2172 656 2081 656C1949 656 1857 577 1857 464C1857 344 1937 300 2073 268C2190 240 2210 218 2210 178C2210 133 2170 105 2106 105C2035 105 1977 129 1912 186C1911 187 1909 188 1906 188C1904 188 1902 186 1901 185L1834 105C1833 104 1832 101 1832 99C1832 97 1833 96 1835 94C1911 26 2003 -9 2103 -9C2244 -9 2336 69 2336 188C2336 289 2276 346 2128 382ZM2657 502C2595 502 2545 477 2504 428L2504 484C2504 489 2500 492 2495 492L2387 492C2382 492 2378 489 2378 484L2378 -135C2378 -140 2382 -144 2387 -144L2495 -144C2500 -144 2504 -140 2504 -135L2504 60C2545 13 2595 -9 2657 -9C2771 -9 2886 78 2886 246C2886 414 2771 502 2657 502ZM2760 246C2760 160 2707 101 2632 101C2557 101 2501 163 2501 246C2501 329 2557 391 2632 391C2706 391 2760 330 2760 246ZM3183 502C3036 502 2921 388 2921 244C2921 101 3035 -10 3181 -10C3328 -10 3444 102 3444 246C3444 389 3329 502 3183 502ZM3183 100C3104 100 3045 163 3045 246C3045 330 3102 390 3181 390C3259 390 3318 328 3318 244C3318 161 3261 100 3183 100ZM3637 492L3637 615C3637 619 3633 622 3629 622L3520 622C3516 622 3512 619 3512 615L3512 492L3459 492C3456 492 3452 489 3452 484L3452 390C3452 386 3456 382 3459 382L3512 382L3512 140C3512 42 3560 -8 3657 -8C3702 -8 3731 2 3757 17C3763 20 3763 24 3763 26L3763 113C3763 119 3759 122 3755 122C3752 122 3747 119 3742 117C3736 114 3715 105 3688 105C3653 105 3637 121 3637 157L3637 382L3757 382C3762 382 3765 386 3765 390L3765 484C3765 489 3762 492 3757 492ZM4294 559C4299 559 4302 564 4302 567L4302 659C4302 663 4299 666 4296 667C4271 675 4242 679 4206 679C4105 679 4051 622 4051 516L4051 492L3999 492C3995 492 3992 489 3992 485L3992 390C3992 386 3995 382 3999 382L4051 382L4051 9C4051 4 4055 0 4060 0L4168 0C4173 0 4177 4 4177 9L4177 382L4279 382L4434 9C4416 -31 4399 -39 4375 -39C4356 -39 4339 -33 4315 -21C4314 -21 4312 -20 4311 -20C4308 -20 4305 -22 4304 -25L4268 -107C4267 -109 4267 -110 4267 -112C4267 -114 4269 -117 4271 -118C4311 -138 4344 -147 4387 -147C4468 -147 4512 -109 4551 -8L4739 477C4740 479 4741 483 4741 484C4741 489 4736 492 4733 492L4619 492C4616 492 4613 490 4612 487L4496 154L4369 488C4368 490 4364 492 4361 492L4175 492L4175 506C4175 551 4192 571 4230 571C4246 571 4256 569 4273 565C4286 562 4291 559 4294 559ZM3823 492C3820 492 3816 489 3816 484L3816 9C3816 4 3820 0 3823 0L3933 0C3937 0 3940 4 3940 9L3940 484C3940 489 3937 492 3933 492ZM3878 708C3835 708 3801 674 3801 631C3801 587 3835 552 3878 552C3921 552 3957 587 3957 631C3957 674 3921 708 3878 708ZM4833 338C4876 338 4910 373 4910 416C4910 458 4876 492 4833 492C4790 492 4757 457 4757 415C4757 373 4790 338 4833 338ZM4833 484C4873 484 4903 453 4903 416C4903 377 4873 345 4833 345C4794 345 4765 376 4765 415C4765 453 4794 484 4833 484ZM4851 407C4861 411 4870 418 4870 431C4870 448 4857 458 4838 458L4803 458L4803 377L4818 377L4818 404L4834 404L4854 377L4873 377ZM4838 444C4847 444 4854 439 4854 430C4854 423 4847 418 4838 418L4818 418L4818 444ZM1200 -6C1192 -6 1184 -3 1177 1C1070 66 946 100 804 100C754 100 676 95 589 77C579 75 557 69 548 69C522 69 505 90 505 113C505 133 519 150 539 155C631 176 719 187 802 187C983 187 1118 141 1223 76C1236 68 1244 54 1244 39C1244 14 1223 -6 1200 -6ZM1277 181C1267 181 1257 184 1248 189C1124 266 957 307 794 307C741 307 664 302 587 283C549 274 550 270 527 270C495 270 475 295 475 324C475 348 490 370 514 377C603 404 699 417 796 417C978 417 1164 371 1306 284C1323 274 1332 256 1332 237C1332 206 1306 181 1277 181ZM1332 408C1191 492 993 528 812 528C700 528 595 514 512 489C506 487 499 486 493 486C455 486 428 519 428 553C428 581 446 607 475 616C568 644 684 660 806 660C1023 660 1234 617 1399 521C1420 509 1432 487 1432 465C1432 428 1402 399 1365 399C1354 399 1342 402 1332 408ZM210 327C210 -63 527 -378 916 -378C1305 -378 1621 -63 1621 327C1621 717 1305 1033 916 1033C527 1033 210 717 210 327Z"/>
<glyph unicode="&#x1b5;" horiz-adv-x="633" d="M521 0L545 113L162 113L364 317L577 317L598 418L465 418L643 597L667 709L144 709L120 597L484 597L307 418L105 418L83 317L207 317L9 116L-16 0Z"/>
<glyph unicode="&#x1b6;" horiz-adv-x="491" d="M41 206L124 206L4 93L-16 0L383 0L405 100L150 100L262 206L418 206L437 292L354 292L460 392L480 487L96 487L74 387L316 387L215 292L60 292Z"/>
<glyph unicode="&#x1fa;" horiz-adv-x="696" d="M672 1032L519 1032L396 908L510 908ZM412 574L455 289L250 289ZM446 802C472 802 490 785 490 760C490 729 465 709 438 709C412 709 394 725 394 751C394 781 420 802 446 802ZM320 743C320 715 331 692 348 673L-50 0L85 0L187 178L472 178L499 0L622 0L511 663C544 687 566 724 566 766C566 827 517 874 453 874C384 874 320 818 320 743Z"/>
<glyph unicode="&#x1fb;" horiz-adv-x="583" d="M290 398C357 398 392 351 392 285C392 169 328 90 250 90C183 90 146 138 146 209C146 297 196 398 290 398ZM440 487L427 429C411 460 368 500 281 500C136 500 30 368 30 206C30 84 100 -9 224 -9C285 -9 330 24 358 60C356 38 356 32 356 20C356 14 356 9 357 0L465 0C464 11 464 19 464 24C464 56 468 86 474 116L553 487ZM588 939L443 939L326 791L426 791ZM359 754C298 754 236 705 236 633C236 577 283 534 342 534C406 534 464 589 464 654C464 711 418 754 359 754ZM305 640C305 668 329 687 353 687C377 687 393 670 393 648C393 620 371 601 345 601C321 601 305 616 305 640Z"/>
<glyph unicode="&#x1fc;" horiz-adv-x="1032" d="M868 883L715 883L592 759L706 759ZM627 112L667 300L952 300L975 409L690 409L730 597L1044 597L1068 709L556 709L-62 0L92 0L243 177L521 177L483 0L918 0L942 112ZM331 280L613 610L543 280Z"/>
<glyph unicode="&#x1fd;" horiz-adv-x="850" d="M648 696L503 696L386 548L486 548ZM181 285C83 282 8 219 8 127C8 50 71 -14 187 -14C281 -14 340 34 375 83C412 19 480 -15 559 -15C667 -15 741 42 774 106L687 155C667 118 626 84 563 84C488 84 448 137 448 212L794 212C801 234 808 268 808 301C808 418 734 502 600 502C539 502 480 479 434 436C405 474 352 502 274 502C167 502 84 441 60 363L157 331C170 376 211 408 267 408C336 408 361 371 361 336C361 308 345 290 315 289ZM124 135C124 183 162 205 201 207L337 213C324 112 251 75 198 75C157 75 124 96 124 135ZM597 405C671 405 696 354 696 312C696 307 695 299 695 297L461 297C478 354 523 405 597 405Z"/>
<glyph unicode="&#x1fe;" horiz-adv-x="777" d="M680 883L527 883L404 759L518 759ZM57 299C57 225 76 161 111 110L35 28L106 -36L178 41C228 5 293 -15 368 -15C556 -15 746 135 746 410C746 482 728 545 695 596L775 682L704 746L629 665C581 702 512 724 436 724C248 724 57 574 57 299ZM180 308C181 476 282 611 430 611C475 611 514 599 546 576L200 205C187 234 180 268 180 308ZM624 401C622 234 522 98 374 98C330 98 292 109 261 130L606 500C618 471 624 438 624 401Z"/>
<glyph unicode="&#x1ff;" horiz-adv-x="570" d="M526 696L381 696L264 548L364 548ZM43 -31L109 32C146 3 194 -15 251 -15C407 -15 520 116 520 277C520 321 510 362 490 397L560 464L506 519L441 456C405 485 357 502 300 502C150 502 30 381 30 211C30 167 41 123 60 92L-11 24ZM403 273C403 152 329 89 257 89C231 89 208 96 190 110L399 310C402 297 403 286 403 273ZM292 398C318 397 341 390 358 377L150 178C147 189 146 201 146 215C146 326 214 398 292 398Z"/>
</font>
</defs>
</svg>
