<?xml version="1.0" encoding="UTF-8" standalone="no"?>
<!DOCTYPE svg PUBLIC "-//W3C//DTD SVG 1.1//EN" "http://www.w3.org/Graphics/SVG/1.1/DTD/svg11.dtd" >
<svg xmlns="http://www.w3.org/2000/svg">
<metadata>
This is a SVG font generated by e-font.
</metadata>
<defs>
<font id="CircularSpotifyTextLight" horiz-adv-x="548" >
<font-face units-per-em="1000" ascent="1033" descent="-378" />
<missing-glyph horiz-adv-x="548" />
<glyph unicode="&#x20;" horiz-adv-x="259" />
<glyph unicode="&#x21;" horiz-adv-x="227" d="M152 709L76 709L94 189L135 189ZM112 -4C140 -4 162 18 162 45C162 73 140 95 112 95C84 95 62 73 62 45C62 18 84 -4 112 -4Z"/>
<glyph unicode="&#x22;" horiz-adv-x="319" d="M50 673C50 665 52 649 54 640L81 488L104 488L132 640C134 650 136 665 136 673C136 700 117 717 93 717C69 717 50 700 50 673ZM183 673C183 665 185 649 187 640L215 488L237 488L266 640C268 650 269 665 269 673C269 700 251 717 226 717C202 717 183 700 183 673Z"/>
<glyph unicode="&#x23;" horiz-adv-x="724" d="M425 257L252 257L290 449L464 449ZM375 0L430 0L471 207L634 207L634 257L480 257L518 449L684 449L684 498L527 498L569 709L514 709L472 498L299 498L341 709L286 709L244 498L89 498L89 449L235 449L197 257L40 257L40 207L188 207L147 0L202 0L243 207L416 207Z"/>
<glyph unicode="&#x24;" horiz-adv-x="555" d="M228 400C159 417 122 459 122 523C122 592 181 644 258 653L258 393ZM329 316C406 298 450 254 450 187C450 121 400 62 308 53L308 321ZM308 -113L308 1C431 10 510 91 510 191C510 289 445 351 340 375L308 382L308 652C391 642 434 583 448 521L502 539C483 623 423 697 308 707L308 823L258 823L258 708C150 699 63 622 63 518C63 422 126 363 216 343L258 333L258 53C156 64 99 142 91 223L37 206C47 105 123 11 258 1L258 -113Z"/>
<glyph unicode="&#x25;" horiz-adv-x="799" d="M192 0L665 709L606 709L133 0ZM344 564C344 649 274 717 190 717C105 717 36 649 36 564C36 478 105 410 190 410C274 410 344 478 344 564ZM89 564C89 622 133 667 190 667C246 667 290 622 290 564C290 505 246 460 190 460C133 460 89 505 89 564ZM455 146C455 60 524 -8 609 -8C694 -8 763 60 763 146C763 231 694 299 609 299C524 299 455 231 455 146ZM709 146C709 87 666 42 609 42C553 42 509 87 509 146C509 204 553 249 609 249C666 249 709 204 709 146Z"/>
<glyph unicode="&#x26;" horiz-adv-x="663" d="M558 0L642 0L491 156L598 286L598 372L452 196L284 369L337 408C386 445 434 494 434 560C434 655 362 722 262 722C170 722 91 653 91 555C91 493 130 442 166 406L197 375L177 360C105 306 54 252 54 165C54 75 123 -11 247 -11C328 -11 390 34 453 110ZM209 447C177 479 152 516 152 559C152 622 200 668 263 668C327 668 372 621 372 562C372 519 348 486 305 453L246 407ZM249 47C166 47 118 105 118 170C118 231 156 271 202 308L235 334L413 151C364 93 313 47 249 47Z"/>
<glyph unicode="&#x27;" horiz-adv-x="186" d="M50 673C50 665 52 649 54 640L81 488L104 488L132 640C134 650 136 665 136 673C136 700 117 717 93 717C69 717 50 700 50 673Z"/>
<glyph unicode="&#x28;" horiz-adv-x="285" d="M49 317C49 103 128 -46 233 -155L270 -123C168 -9 102 129 102 317C102 505 168 643 270 757L233 789C128 677 49 531 49 317Z"/>
<glyph unicode="&#x29;" horiz-adv-x="285" d="M236 317C236 531 157 677 52 789L15 757C117 643 183 505 183 317C183 129 117 -9 15 -123L52 -155C157 -46 236 103 236 317Z"/>
<glyph unicode="&#x2a;" horiz-adv-x="447" d="M248 709L197 709L197 561L60 610L44 563L183 516L95 394L134 364L222 489L314 363L353 393L262 516L402 564L387 610L248 562Z"/>
<glyph unicode="&#x2b;" horiz-adv-x="537" d="M294 580L241 580L241 373L47 373L47 323L241 323L241 113L294 113L294 323L489 323L489 373L294 373Z"/>
<glyph unicode="&#x2c;" horiz-adv-x="239" d="M63 48C63 17 85 -4 113 -4C122 -4 129 -2 132 1C131 -45 102 -96 57 -110L57 -147C116 -133 176 -73 176 27C176 74 148 98 117 98C86 98 63 75 63 48Z"/>
<glyph unicode="&#x2d;" horiz-adv-x="401" d="M332 260L332 314L69 314L69 260Z"/>
<glyph unicode="&#x2e;" horiz-adv-x="229" d="M62 48C62 19 85 -4 114 -4C144 -4 167 19 167 48C167 77 144 101 114 101C85 101 62 77 62 48Z"/>
<glyph unicode="&#x2f;" horiz-adv-x="465" d="M434 709L375 709L32 0L92 0Z"/>
<glyph unicode="&#x30;" horiz-adv-x="650" d="M119 354C119 532 181 667 325 667C468 667 531 531 531 354C531 177 468 42 325 42C181 42 119 176 119 354ZM58 354C58 176 124 -13 325 -13C525 -13 592 176 592 354C592 532 525 722 325 722C124 722 58 532 58 354Z"/>
<glyph unicode="&#x31;" horiz-adv-x="345" d="M266 709L209 709C192 634 123 571 28 563L28 511C96 512 174 552 205 594L205 0L266 0Z"/>
<glyph unicode="&#x32;" horiz-adv-x="578" d="M524 0L524 58L130 58C140 122 182 168 229 200C352 283 515 357 515 514C515 627 435 722 292 722C157 722 58 625 58 500C58 492 59 477 60 468L122 459C120 471 120 482 120 493C120 597 188 667 292 667C395 667 452 596 452 513C452 443 405 386 337 340L232 269C115 190 57 110 55 0Z"/>
<glyph unicode="&#x33;" horiz-adv-x="605" d="M335 418C326 418 313 417 301 415L535 651L535 709L66 709L66 651L454 651L216 410L246 358C269 364 290 367 313 367C408 367 488 311 488 207C488 112 409 42 303 42C203 42 113 106 108 216L48 202C55 79 156 -13 302 -13C442 -13 550 78 550 209C550 348 445 418 335 418Z"/>
<glyph unicode="&#x34;" horiz-adv-x="605" d="M31 175L387 175L387 0L447 0L447 175L573 175L573 231L447 231L447 709L357 709L31 248ZM387 231L89 231L387 653Z"/>
<glyph unicode="&#x35;" horiz-adv-x="587" d="M38 195C49 81 147 -13 288 -13C437 -13 537 92 537 221C537 360 438 455 300 455C239 455 175 434 132 387L199 652L510 652L510 709L158 709L67 353L129 328C170 373 227 400 289 400C393 400 474 329 474 219C474 117 395 42 288 42C184 42 105 115 98 213Z"/>
<glyph unicode="&#x36;" horiz-adv-x="622" d="M136 224C136 329 222 408 324 408C425 408 508 338 508 224C508 114 424 41 322 41C224 41 136 114 136 224ZM333 463C233 463 152 413 115 327C119 504 210 665 398 665C459 665 504 649 533 630L553 683C519 705 466 722 401 722C216 722 56 586 56 317C56 101 171 -13 321 -13C454 -13 571 79 571 223C571 371 469 463 333 463Z"/>
<glyph unicode="&#x37;" horiz-adv-x="543" d="M531 709L26 709L26 652L465 652C370 561 181 358 145 0L209 0C245 330 397 522 531 646Z"/>
<glyph unicode="&#x38;" horiz-adv-x="606" d="M303 -13C458 -13 548 74 548 183C548 272 483 340 396 363C473 384 532 450 532 532C532 641 437 722 303 722C168 722 74 641 74 532C74 449 133 384 209 363C122 340 57 272 57 183C57 74 148 -13 303 -13ZM303 389C204 389 135 448 135 530C135 610 199 670 303 670C406 670 470 610 470 530C470 448 401 389 303 389ZM303 42C188 42 120 106 120 188C120 271 186 336 303 336C419 336 485 271 485 188C485 106 417 42 303 42Z"/>
<glyph unicode="&#x39;" horiz-adv-x="621" d="M501 385L501 370C500 159 411 43 235 43C185 43 126 60 90 83L67 30C108 3 178 -13 234 -13C448 -13 563 125 563 392C563 607 452 722 299 722C168 722 51 625 51 484C51 338 167 248 289 248C392 248 479 306 501 385ZM483 485C483 375 396 304 298 304C199 304 114 374 114 485C114 594 202 666 298 666C395 666 483 594 483 485Z"/>
<glyph unicode="&#x3a;" horiz-adv-x="243" d="M69 428C69 399 92 376 121 376C151 376 174 399 174 428C174 457 151 481 121 481C92 481 69 457 69 428ZM69 48C69 19 92 -4 121 -4C151 -4 174 19 174 48C174 77 151 101 121 101C92 101 69 77 69 48Z"/>
<glyph unicode="&#x3b;" horiz-adv-x="262" d="M77 47C77 17 98 -4 126 -4C135 -4 142 -2 145 1C144 -44 115 -94 71 -108L71 -144C129 -131 188 -72 188 27C188 73 160 96 130 96C99 96 77 74 77 47ZM75 428C75 399 98 376 127 376C157 376 180 399 180 428C180 457 157 481 127 481C98 481 75 457 75 428Z"/>
<glyph unicode="&#x3c;" horiz-adv-x="524" d="M100 348L443 522L443 582L41 375L41 320L443 113L443 174Z"/>
<glyph unicode="&#x3d;" horiz-adv-x="591" d="M519 420L519 470L72 470L72 420ZM519 226L519 277L72 277L72 226Z"/>
<glyph unicode="&#x3e;" horiz-adv-x="524" d="M81 174L81 113L483 320L483 375L81 582L81 522L425 348Z"/>
<glyph unicode="&#x3f;" horiz-adv-x="489" d="M261 189C260 198 259 209 259 221C259 259 269 300 306 327L351 360C410 404 451 459 451 532C451 629 376 722 247 722C104 722 38 619 38 525C38 507 40 491 46 474L107 465C102 483 99 502 99 519C99 594 146 666 247 666C339 666 388 602 388 531C388 482 361 440 319 408L275 374C224 335 203 289 203 227C203 212 203 199 206 189ZM234 -4C262 -4 284 18 284 45C284 73 262 95 234 95C206 95 184 73 184 45C184 18 206 -4 234 -4Z"/>
<glyph unicode="&#x40;" horiz-adv-x="825" d="M601 145C694 145 785 250 785 398C785 568 645 722 432 722C225 722 53 557 53 334C53 113 211 -44 441 -44C537 -44 640 -5 703 60L676 94C612 35 529 3 441 3C234 3 106 146 106 333C106 531 249 675 433 675C623 675 734 541 734 397C734 280 668 190 604 190C563 190 549 215 549 246C549 255 550 264 552 274L602 524L551 524L539 455C528 507 479 536 428 536C319 536 236 431 236 311C236 211 299 144 382 144C432 144 480 174 507 223C511 177 545 145 601 145ZM521 383C519 287 476 192 388 192C320 192 289 251 289 318C289 409 350 488 425 488C487 488 521 445 521 383Z"/>
<glyph unicode="&#x41;" horiz-adv-x="694" d="M604 0L672 0L385 709L309 709L22 0L90 0L177 219L516 219ZM346 646L493 277L200 277Z"/>
<glyph unicode="&#x42;" horiz-adv-x="603" d="M101 709L101 0L325 0C455 0 543 79 543 191C543 273 490 345 412 364C475 386 520 444 520 520C520 632 441 709 305 709ZM164 386L164 653L299 653C398 653 456 600 456 516C456 440 399 386 321 386ZM164 56L164 331L332 331C419 331 479 276 479 195C479 110 416 56 319 56Z"/>
<glyph unicode="&#x43;" horiz-adv-x="746" d="M399 -13C559 -13 673 83 707 216L652 236C623 125 532 45 399 45C254 45 116 152 116 354C116 557 254 664 399 664C527 664 619 592 647 476L704 496C671 631 558 722 399 722C225 722 52 591 52 354C52 117 223 -13 399 -13Z"/>
<glyph unicode="&#x44;" horiz-adv-x="712" d="M164 56L164 653L320 653C467 653 594 552 594 353C594 155 465 56 318 56ZM320 0C500 0 659 121 659 353C659 586 502 709 322 709L101 709L101 0Z"/>
<glyph unicode="&#x45;" horiz-adv-x="575" d="M519 0L519 58L165 58L165 326L488 326L488 384L165 384L165 651L519 651L519 709L101 709L101 0Z"/>
<glyph unicode="&#x46;" horiz-adv-x="571" d="M165 0L165 318L490 318L490 376L165 376L165 651L521 651L521 709L101 709L101 0Z"/>
<glyph unicode="&#x47;" horiz-adv-x="766" d="M699 0L699 333L377 333L377 275L639 275C637 185 574 44 388 44C254 44 116 151 116 355C116 559 252 664 395 664C519 664 611 595 646 485L703 509C662 636 547 722 395 722C221 722 52 593 52 355C52 116 220 -13 386 -13C540 -13 616 76 643 137L649 0Z"/>
<glyph unicode="&#x48;" horiz-adv-x="736" d="M635 0L635 709L571 709L571 389L165 389L165 709L101 709L101 0L165 0L165 331L571 331L571 0Z"/>
<glyph unicode="&#x49;" horiz-adv-x="266" d="M165 0L165 709L101 709L101 0Z"/>
<glyph unicode="&#x4a;" horiz-adv-x="537" d="M33 208C33 72 111 -13 240 -13C368 -13 444 80 444 209L444 709L380 709L380 208C380 107 330 45 240 45C150 45 96 106 96 211L96 268L33 253Z"/>
<glyph unicode="&#x4b;" horiz-adv-x="638" d="M548 0L628 0L329 394L624 709L541 709L165 303L165 709L101 709L101 0L165 0L165 219L287 349Z"/>
<glyph unicode="&#x4c;" horiz-adv-x="544" d="M523 0L523 58L165 58L165 709L101 709L101 0Z"/>
<glyph unicode="&#x4d;" horiz-adv-x="945" d="M844 0L844 709L755 709L473 83L191 709L101 709L101 0L165 0L165 614L442 0L502 0L780 614L780 0Z"/>
<glyph unicode="&#x4e;" horiz-adv-x="763" d="M662 0L662 709L598 709L598 104L189 709L101 709L101 0L165 0L165 630L594 0Z"/>
<glyph unicode="&#x4f;" horiz-adv-x="797" d="M116 354C116 557 253 664 398 664C543 664 681 557 681 354C681 152 543 45 398 45C253 45 116 152 116 354ZM52 354C52 117 224 -13 398 -13C572 -13 745 117 745 354C745 591 572 722 398 722C224 722 52 591 52 354Z"/>
<glyph unicode="&#x50;" horiz-adv-x="585" d="M165 357L165 652L325 652C426 652 488 591 488 504C488 417 426 357 325 357ZM335 300C465 300 552 387 552 504C552 621 465 709 335 709L101 709L101 0L165 0L165 300Z"/>
<glyph unicode="&#x51;" horiz-adv-x="797" d="M692 -53L734 -15L642 87C703 149 745 239 745 354C745 591 572 722 398 722C224 722 52 591 52 354C52 117 224 -13 398 -13C469 -13 540 8 598 50ZM398 45C253 45 116 152 116 354C116 557 253 664 398 664C543 664 681 557 681 354C681 258 649 184 601 132L461 288L417 250L558 94C511 62 455 45 398 45Z"/>
<glyph unicode="&#x52;" horiz-adv-x="613" d="M484 0L558 0L382 311C490 325 559 404 559 507C559 621 475 709 348 709L101 709L101 0L165 0L165 307L313 307ZM165 364L165 652L338 652C432 652 495 594 495 507C495 421 432 364 338 364Z"/>
<glyph unicode="&#x53;" horiz-adv-x="582" d="M523 548C503 638 437 722 292 722C175 722 69 632 69 522C69 421 138 361 233 339L340 314C421 295 467 247 467 181C467 104 404 44 295 44C178 44 109 125 100 217L41 198C53 90 139 -13 295 -13C438 -13 530 77 530 186C530 286 462 350 352 376L244 401C172 418 132 462 132 526C132 609 209 666 294 666C400 666 452 601 467 528Z"/>
<glyph unicode="&#x54;" horiz-adv-x="603" d="M584 651L584 709L19 709L19 651L269 651L269 0L333 0L333 651Z"/>
<glyph unicode="&#x55;" horiz-adv-x="672" d="M336 -13C481 -13 579 75 579 236L579 709L515 709L515 239C515 114 452 45 336 45C220 45 157 114 157 239L157 709L93 709L93 236C93 74 192 -13 336 -13Z"/>
<glyph unicode="&#x56;" horiz-adv-x="655" d="M328 76L94 709L26 709L295 0L358 0L631 709L564 709Z"/>
<glyph unicode="&#x57;" horiz-adv-x="990" d="M726 89L529 709L460 709L264 89L89 709L23 709L230 0L296 0L494 626L692 0L761 0L965 709L900 709Z"/>
<glyph unicode="&#x58;" horiz-adv-x="591" d="M571 709L496 709L296 405L97 709L21 709L259 356L19 0L93 0L296 305L495 0L570 0L332 356Z"/>
<glyph unicode="&#x59;" horiz-adv-x="616" d="M277 303L277 0L339 0L339 303L587 709L513 709L308 362L104 709L29 709Z"/>
<glyph unicode="&#x5a;" horiz-adv-x="624" d="M583 0L583 58L113 58L580 646L580 709L46 709L46 651L506 651L40 65L40 0Z"/>
<glyph unicode="&#x5b;" horiz-adv-x="260" d="M230 -141L230 -92L129 -92L129 728L230 728L230 777L76 777L76 -141Z"/>
<glyph unicode="&#x5c;" horiz-adv-x="466" d="M373 0L433 0L92 709L31 709Z"/>
<glyph unicode="&#x5d;" horiz-adv-x="260" d="M184 -141L184 777L30 777L30 728L131 728L131 -92L30 -92L30 -141Z"/>
<glyph unicode="&#x5e;" horiz-adv-x="530" d="M485 355L292 709L239 709L45 355L108 355L266 648L422 355Z"/>
<glyph unicode="&#x5f;" horiz-adv-x="522" d="M517 -50L517 0L5 0L5 -50Z"/>
<glyph unicode="&#x60;" horiz-adv-x="248" d="M159 537L206 537L117 676L41 676Z"/>
<glyph unicode="&#x61;" horiz-adv-x="500" d="M201 -12C288 -12 345 37 367 82C367 43 371 11 373 0L432 0C428 20 425 44 425 82L425 323C425 414 368 489 244 489C142 489 66 429 55 338L111 326C119 395 169 437 245 437C323 437 365 392 365 329C365 307 356 289 315 283L188 264C101 251 45 204 45 123C45 54 101 -12 201 -12ZM208 39C142 39 106 82 106 126C106 178 141 209 197 217L330 237C349 240 362 246 365 249L365 195C365 99 299 39 208 39Z"/>
<glyph unicode="&#x62;" horiz-adv-x="577" d="M139 0L139 93C164 42 219 -13 311 -13C444 -13 529 97 529 239C529 381 446 490 313 490C217 490 161 432 140 385L140 722L80 722L80 0ZM304 41C206 41 139 123 139 239C139 354 206 436 304 436C402 436 469 354 469 239C469 123 402 41 304 41Z"/>
<glyph unicode="&#x63;" horiz-adv-x="529" d="M281 436C373 436 416 374 432 318L485 340C463 420 395 490 281 490C147 490 47 385 47 238C47 92 146 -13 281 -13C396 -13 466 62 489 136L436 158C420 105 373 41 281 41C185 41 107 117 107 238C107 361 186 436 281 436Z"/>
<glyph unicode="&#x64;" horiz-adv-x="574" d="M107 239C107 354 173 436 273 436C371 436 434 352 434 239C434 127 371 41 272 41C171 41 107 127 107 239ZM434 75C434 41 437 12 439 0L498 0C497 5 493 40 493 91L493 722L433 722L433 387C416 428 369 490 267 490C135 490 47 379 47 239C47 97 133 -13 267 -13C360 -13 413 45 434 94Z"/>
<glyph unicode="&#x65;" horiz-adv-x="535" d="M110 277C116 365 180 436 269 436C369 436 426 366 428 277ZM435 154C415 91 365 41 279 41C185 41 109 113 108 223L108 227L490 227C491 235 491 241 491 249C490 390 409 490 268 490C149 490 47 390 47 240C47 80 153 -13 279 -13C389 -13 461 54 488 135Z"/>
<glyph unicode="&#x66;" horiz-adv-x="326" d="M308 423L308 477L175 477L175 573C175 649 218 674 266 674C287 674 302 670 311 666L311 720C300 725 282 730 257 730C177 730 115 677 115 576L115 477L17 477L17 423L115 423L115 0L175 0L175 423Z"/>
<glyph unicode="&#x67;" horiz-adv-x="562" d="M48 -27C60 -127 141 -203 257 -203C433 -203 482 -76 482 35L482 477L423 477L423 395C399 444 350 488 261 488C134 488 48 387 48 257C48 124 136 25 261 25C348 25 401 73 422 122L422 34C422 -65 384 -150 258 -150C173 -150 113 -88 105 -13ZM268 77C172 77 108 153 108 257C108 361 173 436 268 436C362 436 424 360 424 257C424 153 362 77 268 77Z"/>
<glyph unicode="&#x68;" horiz-adv-x="537" d="M140 287C140 365 192 436 273 436C363 436 402 377 402 302L402 0L462 0L462 312C462 410 406 490 293 490C219 490 165 450 140 402L140 722L80 722L80 0L140 0Z"/>
<glyph unicode="&#x69;" horiz-adv-x="220" d="M140 0L140 477L80 477L80 0ZM60 675C60 646 82 625 110 625C138 625 160 646 160 675C160 704 138 725 110 725C82 725 60 704 60 675Z"/>
<glyph unicode="&#x6a;" horiz-adv-x="220" d="M80 -63C80 -122 55 -149 2 -149C-14 -149 -28 -147 -39 -143L-39 -194C-29 -199 -12 -203 14 -203C90 -203 140 -152 140 -65L140 477L80 477ZM60 675C60 646 82 625 110 625C138 625 160 646 160 675C160 704 138 725 110 725C82 725 60 704 60 675Z"/>
<glyph unicode="&#x6b;" horiz-adv-x="496" d="M473 477L390 477L140 225L140 722L80 722L80 0L140 0L140 146L228 233L402 0L477 0L270 274Z"/>
<glyph unicode="&#x6c;" horiz-adv-x="220" d="M140 0L140 722L80 722L80 0Z"/>
<glyph unicode="&#x6d;" horiz-adv-x="845" d="M140 0L140 293C140 372 194 437 273 437C354 437 395 381 395 309L395 0L455 0L455 293C455 371 509 437 588 437C668 437 710 381 710 309L710 0L770 0L770 316C770 426 698 490 605 490C529 490 470 451 441 382C422 449 365 490 291 490C217 490 160 448 139 398L139 477L80 477L80 0Z"/>
<glyph unicode="&#x6e;" horiz-adv-x="537" d="M140 285C140 366 191 435 273 435C365 435 402 376 402 301L402 0L462 0L462 311C462 409 405 489 293 489C220 489 164 452 138 401L138 477L80 477L80 0L140 0Z"/>
<glyph unicode="&#x6f;" horiz-adv-x="568" d="M284 -13C417 -13 521 89 521 238C521 388 417 489 284 489C150 489 47 388 47 238C47 89 151 -13 284 -13ZM108 238C108 363 190 435 284 435C378 435 460 363 460 238C460 114 378 41 284 41C190 41 108 114 108 238Z"/>
<glyph unicode="&#x70;" horiz-adv-x="577" d="M140 -190L140 90C164 42 219 -13 311 -13C445 -13 529 97 529 239C529 380 448 490 313 490C218 490 162 431 139 382L139 477L80 477L80 -190ZM469 239C469 127 403 41 303 41C204 41 139 126 139 239C139 350 204 436 303 436C403 436 469 351 469 239Z"/>
<glyph unicode="&#x71;" horiz-adv-x="574" d="M494 -190L494 477L435 477L435 383C415 432 365 490 265 490C135 490 48 379 48 239C48 98 133 -13 266 -13C356 -13 411 40 434 91L434 -190ZM108 239C108 352 172 436 272 436C371 436 435 352 435 239C435 127 371 41 272 41C173 41 108 127 108 239Z"/>
<glyph unicode="&#x72;" horiz-adv-x="337" d="M323 478C315 481 302 483 286 483C223 483 168 454 139 388L139 477L80 477L80 0L140 0L140 259C140 368 200 420 281 420C297 420 312 418 323 415Z"/>
<glyph unicode="&#x73;" horiz-adv-x="439" d="M40 125C49 62 108 -13 225 -13C331 -13 391 57 391 128C391 197 346 242 267 260L191 277C142 288 116 312 116 353C116 403 164 437 218 437C294 437 327 392 336 346L389 366C376 423 329 489 218 489C131 489 57 426 57 349C57 280 104 238 174 222L251 204C302 192 332 168 332 124C332 74 285 39 226 39C148 39 104 86 95 144Z"/>
<glyph unicode="&#x74;" horiz-adv-x="328" d="M177 628L119 628L119 547C119 498 99 477 52 477L16 477L16 423L117 423L117 129C117 42 165 -5 242 -5C271 -5 293 0 301 4L301 57C292 53 275 49 258 49C204 49 177 77 177 135L177 423L301 423L301 477L177 477Z"/>
<glyph unicode="&#x75;" horiz-adv-x="539" d="M402 74L402 67C402 37 405 10 407 0L464 0C461 21 458 55 458 91L458 477L398 477L398 186C398 106 348 41 263 41C169 41 134 111 134 187L134 477L74 477L74 177C74 77 131 -13 252 -13C327 -13 380 28 402 74Z"/>
<glyph unicode="&#x76;" horiz-adv-x="499" d="M470 477L403 477L249 68L97 477L29 477L218 0L281 0Z"/>
<glyph unicode="&#x77;" horiz-adv-x="795" d="M366 477L224 74L97 477L31 477L189 0L256 0L398 404L540 0L607 0L763 477L698 477L573 74L431 477Z"/>
<glyph unicode="&#x78;" horiz-adv-x="478" d="M20 0L92 0L238 200L385 0L457 0L274 243L450 477L379 477L239 286L99 477L28 477L202 243Z"/>
<glyph unicode="&#x79;" horiz-adv-x="501" d="M174 -190L483 477L417 477L259 125L92 477L25 477L228 62L109 -190Z"/>
<glyph unicode="&#x7a;" horiz-adv-x="464" d="M422 0L422 54L117 54L417 424L417 477L46 477L46 423L345 423L43 53L43 0Z"/>
<glyph unicode="&#x7b;" horiz-adv-x="311" d="M23 289C83 285 128 251 128 183L128 24C128 -81 176 -134 275 -134L284 -134L284 -86L275 -86C203 -86 181 -51 181 20L181 195C181 260 142 307 76 318C141 329 181 376 181 441L181 616C181 687 203 722 275 722L284 722L284 771L275 771C176 771 128 717 128 613L128 453C128 385 83 351 23 347Z"/>
<glyph unicode="&#x7c;" horiz-adv-x="205" d="M129 -141L129 777L76 777L76 -141Z"/>
<glyph unicode="&#x7d;" horiz-adv-x="311" d="M288 347C228 351 183 385 183 453L183 613C183 717 135 771 36 771L27 771L27 722L36 722C108 722 130 687 130 616L130 441C130 376 170 329 235 318C169 307 130 260 130 195L130 20C130 -51 108 -86 36 -86L27 -86L27 -134L36 -134C135 -134 183 -81 183 24L183 183C183 251 228 285 288 289Z"/>
<glyph unicode="&#x7e;" horiz-adv-x="619" d="M319 253C352 236 384 225 413 225C470 225 513 252 547 304L510 334C486 298 456 279 413 279C393 279 367 287 344 299L298 324C267 341 235 350 207 350C150 350 106 322 72 270L109 240C136 277 166 297 208 297C228 297 250 290 272 278Z"/>
<glyph unicode="&#xa0;" horiz-adv-x="259" />
<glyph unicode="&#xa1;" horiz-adv-x="213" d="M68 -226L144 -226L126 294L85 294ZM108 487C80 487 58 465 58 438C58 410 80 388 108 388C136 388 158 410 158 438C158 465 136 487 108 487Z"/>
<glyph unicode="&#xa2;" horiz-adv-x="540" d="M309 98C409 107 474 175 495 249L444 269C428 220 386 163 309 154L309 543C388 533 425 477 439 427L492 448C471 527 408 590 309 598L309 709L259 709L259 598C139 585 52 485 52 348C52 210 138 111 259 99L259 0L309 0ZM111 348C111 451 170 529 259 542L259 154C170 166 111 244 111 348Z"/>
<glyph unicode="&#xa3;" horiz-adv-x="593" d="M402 310L402 363L207 363C189 414 162 457 162 517C162 609 224 666 308 666C391 666 447 607 452 528L510 541C503 637 432 721 307 721C181 721 100 634 100 519C100 458 123 410 142 363L63 363L63 310L158 310C164 290 167 271 167 249C167 160 112 93 54 56L54 0L374 0C481 0 545 73 551 181L494 189C489 110 444 55 364 55L131 55C182 94 229 160 229 251C229 274 225 292 221 310Z"/>
<glyph unicode="&#xa4;" horiz-adv-x="614" d="M506 106L544 144L475 214C505 249 524 297 524 348C524 400 504 448 473 484L542 557L505 594L433 521C399 547 356 561 310 561C263 561 218 545 182 518L108 594L70 557L144 480C115 445 97 398 97 348C97 299 113 254 142 219L69 144L107 106L179 181C214 152 261 135 310 135C357 135 401 150 436 177ZM151 348C151 440 222 509 310 509C399 509 468 440 468 348C468 257 399 187 310 187C222 187 151 257 151 348Z"/>
<glyph unicode="&#xa5;" horiz-adv-x="618" d="M341 0L341 175L531 175L531 225L341 225L341 309L531 309L531 359L369 359L583 709L513 709L311 371L108 709L35 709L249 359L89 359L89 309L278 309L278 225L89 225L89 175L278 175L278 0Z"/>
<glyph unicode="&#xa6;" horiz-adv-x="215" d="M81 777L81 378L134 378L134 777ZM81 259L81 -141L134 -141L134 259Z"/>
<glyph unicode="&#xa7;" horiz-adv-x="501" d="M68 281C68 203 121 165 194 127L300 70C349 44 378 11 378 -41C378 -109 323 -152 251 -152C168 -152 119 -94 117 -11L60 -23C64 -130 133 -203 249 -203C351 -203 438 -136 438 -35C438 27 406 75 344 112C393 133 434 177 434 238C434 316 379 355 308 393L202 450C155 475 126 508 126 559C126 628 185 671 251 671C332 671 380 615 381 530L439 543C436 646 368 722 252 722C154 722 66 656 66 554C66 491 98 443 156 407C110 389 68 341 68 281ZM205 188C154 215 128 245 128 290C128 334 160 371 197 385L297 332C347 305 375 275 375 229C375 183 341 147 304 134Z"/>
<glyph unicode="&#xa8;" horiz-adv-x="350" d="M221 611C221 588 240 569 263 569C286 569 305 588 305 611C305 634 286 653 263 653C240 653 221 634 221 611ZM45 611C45 588 64 569 87 569C110 569 129 588 129 611C129 634 110 653 87 653C64 653 45 634 45 611Z"/>
<glyph unicode="&#xa9;" horiz-adv-x="834" d="M420 513C490 513 529 471 543 420L590 438C572 503 515 561 420 561C310 561 229 476 229 355C229 235 309 149 422 149C516 149 574 210 593 270L548 290C534 246 495 197 420 197C341 197 281 257 281 355C281 453 342 513 420 513ZM417 674C591 674 729 534 729 354C729 175 591 35 417 35C243 35 105 175 105 354C105 534 243 674 417 674ZM417 -13C619 -13 781 150 781 354C781 559 619 722 417 722C215 722 53 559 53 354C53 150 215 -13 417 -13Z"/>
<glyph unicode="&#xaa;" horiz-adv-x="393" d="M275 526C275 452 239 407 171 407C125 407 102 435 102 465C102 500 125 519 161 525L252 540C266 542 271 544 275 549ZM51 463C51 412 91 365 164 365C221 365 260 396 276 427C276 401 278 384 280 374L329 374C327 385 325 407 325 431L325 600C325 665 286 720 192 720C117 720 64 674 57 612L103 600C109 646 142 677 193 677C246 677 275 647 275 606C275 591 267 579 243 575L150 561C91 553 51 519 51 463Z"/>
<glyph unicode="&#xab;" horiz-adv-x="465" d="M241 95L109 286L241 477L181 477L48 286L181 95ZM410 95L278 286L410 477L350 477L217 286L350 95Z"/>
<glyph unicode="&#xac;" horiz-adv-x="578" d="M500 218L500 472L60 472L60 419L445 419L445 218Z"/>
<glyph unicode="&#xad;" horiz-adv-x="401" d="M332 261L332 313L69 313L69 261Z"/>
<glyph unicode="&#xae;" horiz-adv-x="834" d="M352 362L352 512L426 512C478 512 510 484 510 436C510 390 478 362 426 362ZM352 318L411 318L503 156L562 156L466 322C522 334 560 379 560 437C560 505 508 556 433 556L302 556L302 156L352 156ZM417 674C591 674 729 534 729 354C729 175 591 35 417 35C243 35 105 175 105 354C105 534 243 674 417 674ZM417 -13C619 -13 781 150 781 354C781 559 619 722 417 722C215 722 53 559 53 354C53 150 215 -13 417 -13Z"/>
<glyph unicode="&#xaf;" horiz-adv-x="344" d="M299 583L299 633L45 633L45 583Z"/>
<glyph unicode="&#xb0;" horiz-adv-x="392" d="M196 462C140 462 96 507 96 566C96 624 140 669 196 669C253 669 296 624 296 566C296 507 253 462 196 462ZM42 566C42 480 111 412 196 412C281 412 350 480 350 566C350 651 281 719 196 719C111 719 42 651 42 566Z"/>
<glyph unicode="&#xb1;" horiz-adv-x="604" d="M517 384L517 434L328 434L328 579L275 579L275 434L87 434L87 384L275 384L275 239L328 239L328 384ZM517 125L517 176L87 176L87 125Z"/>
<glyph unicode="&#xb2;" horiz-adv-x="337" d="M93 575C92 583 91 593 91 598C91 644 123 673 168 673C214 673 242 642 242 607C242 575 219 549 187 529L118 487C62 453 40 405 40 352L40 347L298 347L298 391L102 391C106 417 125 437 148 452L222 498C265 525 294 559 294 606C294 666 246 716 169 716C90 716 41 664 41 602C41 596 42 585 43 578Z"/>
<glyph unicode="&#xb3;" horiz-adv-x="355" d="M148 523C157 526 169 528 180 528C224 528 263 505 263 458C263 415 226 383 176 383C128 383 85 414 81 463L35 446C43 387 96 340 177 340C260 340 315 393 315 458C315 528 260 563 200 565C198 565 193 564 191 564L307 668L307 710L45 710L45 666L240 666L126 562Z"/>
<glyph unicode="&#xb4;" horiz-adv-x="249" d="M208 676L130 676L41 537L90 537Z"/>
<glyph unicode="&#xb5;" horiz-adv-x="531" d="M251 -13C326 -13 379 28 401 74L401 67C401 37 404 10 406 0L463 0C460 21 457 55 457 91L457 477L397 477L397 186C397 106 347 41 262 41C168 41 132 110 132 186L132 477L72 477L72 -190L132 -190L132 41C156 7 197 -13 251 -13Z"/>
<glyph unicode="&#xb6;" horiz-adv-x="614" d="M312 659L423 659L423 -190L477 -190L477 659L569 659L569 709L251 709C126 709 34 630 34 517C34 412 121 327 225 327L258 327L258 -190L312 -190Z"/>
<glyph unicode="&#xb7;" horiz-adv-x="243" d="M69 284C69 255 92 232 121 232C151 232 174 255 174 284C174 313 151 337 121 337C92 337 69 313 69 284Z"/>
<glyph unicode="&#xb8;" horiz-adv-x="306" d="M120 -95C132 -89 145 -87 157 -87C194 -87 214 -103 214 -128C214 -155 190 -170 152 -170C115 -170 87 -149 72 -131L45 -163C65 -188 106 -210 153 -210C224 -210 261 -174 261 -128C261 -83 226 -52 173 -52C164 -52 157 -53 149 -56L192 8L144 8L96 -66Z"/>
<glyph unicode="&#xb9;" horiz-adv-x="217" d="M165 347L165 710L116 710C109 674 77 642 27 635L27 596C64 599 97 615 114 633L114 347Z"/>
<glyph unicode="&#xba;" horiz-adv-x="423" d="M211 365C307 365 380 437 380 543C380 648 306 720 211 720C116 720 43 648 43 543C43 437 116 365 211 365ZM93 543C93 627 148 675 211 675C274 675 329 627 329 543C329 458 274 410 211 410C148 410 93 458 93 543Z"/>
<glyph unicode="&#xbb;" horiz-adv-x="465" d="M284 95L417 286L284 477L224 477L356 286L224 95ZM115 95L248 286L115 477L55 477L187 286L55 95Z"/>
<glyph unicode="&#xbc;" horiz-adv-x="749" d="M143 0L615 709L560 709L86 0ZM177 346L177 709L128 709C121 673 89 641 39 634L39 595C76 598 109 614 126 632L126 346ZM401 82L591 82L591 0L642 0L642 82L713 82L713 127L642 127L642 363L581 363L401 133ZM591 127L451 127L591 306Z"/>
<glyph unicode="&#xbd;" horiz-adv-x="766" d="M141 0L613 709L558 709L84 0ZM175 346L175 709L126 709C119 673 87 641 37 634L37 595C74 598 107 614 124 632L124 346ZM516 228C515 236 514 246 514 251C514 297 546 326 591 326C637 326 665 295 665 260C665 228 642 202 610 182L541 140C485 106 463 58 463 5L463 0L721 0L721 44L525 44C529 70 548 90 571 105L645 151C688 178 717 212 717 259C717 319 669 369 592 369C513 369 464 317 464 255C464 249 465 238 466 231Z"/>
<glyph unicode="&#xbe;" horiz-adv-x="828" d="M222 0L694 709L639 709L165 0ZM480 82L670 82L670 0L721 0L721 82L792 82L792 127L721 127L721 363L660 363L480 133ZM670 127L530 127L670 306ZM155 522C164 525 176 527 187 527C231 527 270 504 270 457C270 414 233 382 183 382C135 382 92 413 88 462L42 445C50 386 103 339 184 339C267 339 322 392 322 457C322 527 267 562 207 564C205 564 200 563 198 563L314 667L314 709L52 709L52 665L247 665L133 561Z"/>
<glyph unicode="&#xbf;" horiz-adv-x="479" d="M223 294C224 285 225 274 225 262C225 224 215 183 178 156L133 123C74 79 33 24 33 -49C33 -146 108 -239 237 -239C380 -239 446 -136 446 -42C446 -24 444 -8 438 9L377 18C382 0 385 -19 385 -36C385 -111 338 -183 237 -183C145 -183 96 -119 96 -48C96 1 123 43 165 75L209 109C260 148 281 194 281 256C281 271 281 284 278 294ZM250 487C222 487 200 465 200 438C200 410 222 388 250 388C278 388 300 410 300 438C300 465 278 487 250 487Z"/>
<glyph unicode="&#xc0;" horiz-adv-x="694" d="M604 0L672 0L385 709L309 709L22 0L90 0L177 219L516 219ZM346 646L493 277L200 277ZM315 759L372 759L265 878L181 878Z"/>
<glyph unicode="&#xc1;" horiz-adv-x="694" d="M604 0L672 0L385 709L309 709L22 0L90 0L177 219L516 219ZM346 646L493 277L200 277ZM512 878L428 878L321 759L378 759Z"/>
<glyph unicode="&#xc2;" horiz-adv-x="694" d="M604 0L672 0L385 709L309 709L22 0L90 0L177 219L516 219ZM346 646L493 277L200 277ZM249 759L346 843L444 759L503 759L387 878L305 878L190 759Z"/>
<glyph unicode="&#xc3;" horiz-adv-x="694" d="M604 0L672 0L385 709L309 709L22 0L90 0L177 219L516 219ZM346 646L493 277L200 277ZM501 871L454 871C454 832 440 815 415 815C398 815 385 822 370 833L352 846C332 861 308 873 280 873C232 873 194 839 194 778L194 766L241 766C241 803 254 821 280 821C299 821 314 812 330 801L351 786C369 773 391 763 417 763C462 763 501 797 501 860Z"/>
<glyph unicode="&#xc4;" horiz-adv-x="694" d="M423 819C423 795 442 776 466 776C490 776 509 795 509 819C509 843 490 862 466 862C442 862 423 843 423 819ZM185 819C185 795 204 776 228 776C252 776 271 795 271 819C271 843 252 862 228 862C204 862 185 843 185 819ZM604 0L672 0L385 709L309 709L22 0L90 0L177 219L516 219ZM346 646L493 277L200 277Z"/>
<glyph unicode="&#xc5;" horiz-adv-x="694" d="M346 646L493 277L200 277ZM404 768C404 734 379 709 346 709C314 709 289 734 289 768C289 802 314 828 346 828C379 828 404 802 404 768ZM452 768C452 827 404 873 347 873C290 873 241 827 241 768C241 728 264 694 297 677L22 0L90 0L177 219L516 219L604 0L672 0L397 678C428 695 452 729 452 768Z"/>
<glyph unicode="&#xc6;" horiz-adv-x="979" d="M923 0L923 58L569 58L569 326L892 326L892 384L569 384L569 651L923 651L923 709L472 709L0 0L79 0L222 219L505 219L505 0ZM505 652L505 277L260 277Z"/>
<glyph unicode="&#xc7;" horiz-adv-x="746" d="M373 -95C385 -89 398 -87 410 -87C447 -87 467 -103 467 -128C467 -155 443 -170 405 -170C368 -170 340 -149 325 -131L298 -163C318 -188 359 -210 406 -210C477 -210 514 -174 514 -128C514 -83 479 -52 426 -52C417 -52 410 -53 402 -56L432 -11C574 1 675 92 707 216L652 236C623 125 532 45 399 45C254 45 116 152 116 354C116 557 254 664 399 664C527 664 619 592 647 476L704 496C671 631 558 722 399 722C225 722 52 591 52 354C52 124 213 -5 383 -13L349 -66Z"/>
<glyph unicode="&#xc8;" horiz-adv-x="575" d="M307 759L364 759L257 878L173 878ZM519 0L519 58L165 58L165 326L488 326L488 384L165 384L165 651L519 651L519 709L101 709L101 0Z"/>
<glyph unicode="&#xc9;" horiz-adv-x="575" d="M442 878L358 878L251 759L308 759ZM519 0L519 58L165 58L165 326L488 326L488 384L165 384L165 651L519 651L519 709L101 709L101 0Z"/>
<glyph unicode="&#xca;" horiz-adv-x="575" d="M214 759L311 843L409 759L468 759L352 878L270 878L155 759ZM519 0L519 58L165 58L165 326L488 326L488 384L165 384L165 651L519 651L519 709L101 709L101 0Z"/>
<glyph unicode="&#xcb;" horiz-adv-x="575" d="M519 0L519 58L165 58L165 326L488 326L488 384L165 384L165 651L519 651L519 709L101 709L101 0ZM167 819C167 795 186 776 210 776C234 776 253 795 253 819C253 843 234 862 210 862C186 862 167 843 167 819ZM371 819C371 795 390 776 414 776C438 776 457 795 457 819C457 843 438 862 414 862C390 862 371 843 371 819Z"/>
<glyph unicode="&#xcc;" horiz-adv-x="266" d="M165 0L165 709L101 709L101 0ZM104 759L161 759L54 878L-30 878Z"/>
<glyph unicode="&#xcd;" horiz-adv-x="266" d="M165 0L165 709L101 709L101 0ZM296 878L212 878L105 759L162 759Z"/>
<glyph unicode="&#xce;" horiz-adv-x="266" d="M165 0L165 709L101 709L101 0ZM36 759L133 843L231 759L290 759L174 878L92 878L-23 759Z"/>
<glyph unicode="&#xcf;" horiz-adv-x="266" d="M165 0L165 709L101 709L101 0ZM27 819C27 797 45 779 67 779C89 779 107 797 107 819C107 841 89 859 67 859C45 859 27 841 27 819ZM160 819C160 797 178 779 200 779C222 779 240 797 240 819C240 841 222 859 200 859C178 859 160 841 160 819Z"/>
<glyph unicode="&#xd0;" horiz-adv-x="713" d="M321 0C501 0 660 121 660 353C660 586 503 709 323 709L102 709L102 393L24 393L24 339L102 339L102 0ZM165 56L165 339L308 339L308 393L165 393L165 653L321 653C468 653 595 552 595 353C595 155 466 56 319 56Z"/>
<glyph unicode="&#xd1;" horiz-adv-x="763" d="M542 871L495 871C495 832 481 815 456 815C439 815 426 822 411 833L393 846C373 861 349 873 321 873C273 873 235 839 235 778L235 766L282 766C282 803 295 821 321 821C340 821 355 812 371 801L392 786C410 773 432 763 458 763C503 763 542 797 542 860ZM662 0L662 709L598 709L598 104L189 709L101 709L101 0L165 0L165 630L594 0Z"/>
<glyph unicode="&#xd2;" horiz-adv-x="797" d="M377 759L434 759L327 878L243 878ZM116 354C116 557 253 664 398 664C543 664 681 557 681 354C681 152 543 45 398 45C253 45 116 152 116 354ZM52 354C52 117 224 -13 398 -13C572 -13 745 117 745 354C745 591 572 722 398 722C224 722 52 591 52 354Z"/>
<glyph unicode="&#xd3;" horiz-adv-x="797" d="M553 878L469 878L362 759L419 759ZM116 354C116 557 253 664 398 664C543 664 681 557 681 354C681 152 543 45 398 45C253 45 116 152 116 354ZM52 354C52 117 224 -13 398 -13C572 -13 745 117 745 354C745 591 572 722 398 722C224 722 52 591 52 354Z"/>
<glyph unicode="&#xd4;" horiz-adv-x="797" d="M301 759L398 843L496 759L555 759L439 878L357 878L242 759ZM116 354C116 557 253 664 398 664C543 664 681 557 681 354C681 152 543 45 398 45C253 45 116 152 116 354ZM52 354C52 117 224 -13 398 -13C572 -13 745 117 745 354C745 591 572 722 398 722C224 722 52 591 52 354Z"/>
<glyph unicode="&#xd5;" horiz-adv-x="797" d="M553 871L506 871C506 832 492 815 467 815C450 815 437 822 422 833L404 846C384 861 360 873 332 873C284 873 246 839 246 778L246 766L293 766C293 803 306 821 332 821C351 821 366 812 382 801L403 786C421 773 443 763 469 763C514 763 553 797 553 860ZM116 354C116 557 253 664 398 664C543 664 681 557 681 354C681 152 543 45 398 45C253 45 116 152 116 354ZM52 354C52 117 224 -13 398 -13C572 -13 745 117 745 354C745 591 572 722 398 722C224 722 52 591 52 354Z"/>
<glyph unicode="&#xd6;" horiz-adv-x="797" d="M213 819C213 795 232 776 256 776C280 776 299 795 299 819C299 843 280 862 256 862C232 862 213 843 213 819ZM497 819C497 795 516 776 540 776C564 776 583 795 583 819C583 843 564 862 540 862C516 862 497 843 497 819ZM116 354C116 557 253 664 398 664C543 664 681 557 681 354C681 152 543 45 398 45C253 45 116 152 116 354ZM52 354C52 117 224 -13 398 -13C572 -13 745 117 745 354C745 591 572 722 398 722C224 722 52 591 52 354Z"/>
<glyph unicode="&#xd7;" horiz-adv-x="569" d="M107 569L71 532L248 348L70 162L106 126L284 311L463 125L499 162L319 348L498 533L462 569L285 385Z"/>
<glyph unicode="&#xd8;" horiz-adv-x="798" d="M52 354C52 235 95 143 160 81L89 -11L132 -43L202 47C260 8 329 -13 398 -13C572 -13 745 117 745 354C745 467 705 556 645 618L722 717L679 749L605 653C545 698 471 722 398 722C224 722 52 591 52 354ZM116 354C116 557 253 664 398 664C459 664 520 645 569 607L197 129C148 181 116 256 116 354ZM681 354C681 152 543 45 398 45C341 45 285 61 238 94L607 570C652 518 681 446 681 354Z"/>
<glyph unicode="&#xd9;" horiz-adv-x="672" d="M332 759L389 759L282 878L198 878ZM336 -13C481 -13 579 75 579 236L579 709L515 709L515 239C515 114 452 45 336 45C220 45 157 114 157 239L157 709L93 709L93 236C93 74 192 -13 336 -13Z"/>
<glyph unicode="&#xda;" horiz-adv-x="672" d="M474 878L390 878L283 759L340 759ZM336 -13C481 -13 579 75 579 236L579 709L515 709L515 239C515 114 452 45 336 45C220 45 157 114 157 239L157 709L93 709L93 236C93 74 192 -13 336 -13Z"/>
<glyph unicode="&#xdb;" horiz-adv-x="672" d="M239 759L336 843L434 759L493 759L377 878L295 878L180 759ZM336 -13C481 -13 579 75 579 236L579 709L515 709L515 239C515 114 452 45 336 45C220 45 157 114 157 239L157 709L93 709L93 236C93 74 192 -13 336 -13Z"/>
<glyph unicode="&#xdc;" horiz-adv-x="672" d="M195 819C195 795 214 776 238 776C262 776 281 795 281 819C281 843 262 862 238 862C214 862 195 843 195 819ZM394 819C394 795 413 776 437 776C461 776 480 795 480 819C480 843 461 862 437 862C413 862 394 843 394 819ZM336 -13C481 -13 579 75 579 236L579 709L515 709L515 239C515 114 452 45 336 45C220 45 157 114 157 239L157 709L93 709L93 236C93 74 192 -13 336 -13Z"/>
<glyph unicode="&#xdd;" horiz-adv-x="616" d="M277 303L277 0L339 0L339 303L587 709L513 709L308 362L104 709L29 709ZM445 878L361 878L254 759L311 759Z"/>
<glyph unicode="&#xde;" horiz-adv-x="585" d="M165 0L165 154L335 154C465 154 552 241 552 358C552 475 465 563 335 563L165 563L165 709L101 709L101 0ZM165 211L165 506L325 506C426 506 488 445 488 358C488 271 426 211 325 211Z"/>
<glyph unicode="&#xdf;" horiz-adv-x="545" d="M331 343C331 364 343 375 361 387L398 412C438 439 476 481 476 553C476 648 401 722 284 722C171 722 80 638 80 492L80 0L140 0L140 489C140 606 205 668 284 668C368 668 416 615 416 552C416 506 393 474 359 452L321 426C290 405 271 378 271 341C271 292 309 265 342 248L380 228C420 207 450 176 450 128C450 86 419 39 355 39C282 39 256 99 255 140L199 126C201 67 244 -13 355 -13C459 -13 510 64 510 133C510 199 467 249 413 277L375 297C350 311 331 322 331 343Z"/>
<glyph unicode="&#xe0;" horiz-adv-x="500" d="M201 -12C288 -12 345 37 367 82C367 43 371 11 373 0L432 0C428 20 425 44 425 82L425 323C425 414 368 489 244 489C142 489 66 429 55 338L111 326C119 395 169 437 245 437C323 437 365 392 365 329C365 307 356 289 315 283L188 264C101 251 45 204 45 123C45 54 101 -12 201 -12ZM208 39C142 39 106 82 106 126C106 178 141 209 197 217L330 237C349 240 362 246 365 249L365 195C365 99 299 39 208 39ZM230 537L277 537L188 676L112 676Z"/>
<glyph unicode="&#xe1;" horiz-adv-x="500" d="M201 -12C288 -12 345 37 367 82C367 43 371 11 373 0L432 0C428 20 425 44 425 82L425 323C425 414 368 489 244 489C142 489 66 429 55 338L111 326C119 395 169 437 245 437C323 437 365 392 365 329C365 307 356 289 315 283L188 264C101 251 45 204 45 123C45 54 101 -12 201 -12ZM208 39C142 39 106 82 106 126C106 178 141 209 197 217L330 237C349 240 362 246 365 249L365 195C365 99 299 39 208 39ZM382 676L304 676L215 537L264 537Z"/>
<glyph unicode="&#xe2;" horiz-adv-x="500" d="M157 538L249 637L341 538L395 538L285 675L213 675L103 538ZM201 -12C288 -12 345 37 367 82C367 43 371 11 373 0L432 0C428 20 425 44 425 82L425 323C425 414 368 489 244 489C142 489 66 429 55 338L111 326C119 395 169 437 245 437C323 437 365 392 365 329C365 307 356 289 315 283L188 264C101 251 45 204 45 123C45 54 101 -12 201 -12ZM208 39C142 39 106 82 106 126C106 178 141 209 197 217L330 237C349 240 362 246 365 249L365 195C365 99 299 39 208 39Z"/>
<glyph unicode="&#xe3;" horiz-adv-x="500" d="M201 -12C288 -12 345 37 367 82C367 43 371 11 373 0L432 0C428 20 425 44 425 82L425 323C425 414 368 489 244 489C142 489 66 429 55 338L111 326C119 395 169 437 245 437C323 437 365 392 365 329C365 307 356 289 315 283L188 264C101 251 45 204 45 123C45 54 101 -12 201 -12ZM208 39C142 39 106 82 106 126C106 178 141 209 197 217L330 237C349 240 362 246 365 249L365 195C365 99 299 39 208 39ZM401 659L354 659C354 620 341 603 316 603C299 603 287 610 272 621L254 634C234 649 211 661 183 661C135 661 98 627 98 566L98 554L145 554C145 591 157 609 183 609C202 609 216 600 232 589L253 574C271 561 292 551 318 551C363 551 401 585 401 648Z"/>
<glyph unicode="&#xe4;" horiz-adv-x="500" d="M291 611C291 588 310 569 333 569C356 569 375 588 375 611C375 634 356 653 333 653C310 653 291 634 291 611ZM115 611C115 588 134 569 157 569C180 569 199 588 199 611C199 634 180 653 157 653C134 653 115 634 115 611ZM201 -12C288 -12 345 37 367 82C367 43 371 11 373 0L432 0C428 20 425 44 425 82L425 323C425 414 368 489 244 489C142 489 66 429 55 338L111 326C119 395 169 437 245 437C323 437 365 392 365 329C365 307 356 289 315 283L188 264C101 251 45 204 45 123C45 54 101 -12 201 -12ZM208 39C142 39 106 82 106 126C106 178 141 209 197 217L330 237C349 240 362 246 365 249L365 195C365 99 299 39 208 39Z"/>
<glyph unicode="&#xe5;" horiz-adv-x="500" d="M201 -12C288 -12 345 37 367 82C367 43 371 11 373 0L432 0C428 20 425 44 425 82L425 323C425 414 368 489 244 489C142 489 66 429 55 338L111 326C119 395 169 437 245 437C323 437 365 392 365 329C365 307 356 289 315 283L188 264C101 251 45 204 45 123C45 54 101 -12 201 -12ZM208 39C142 39 106 82 106 126C106 178 141 209 197 217L330 237C349 240 362 246 365 249L365 195C365 99 299 39 208 39ZM351 635C351 693 304 740 246 740C189 740 141 693 141 635C141 577 189 530 246 530C304 530 351 577 351 635ZM307 635C307 600 281 572 246 572C211 572 185 600 185 635C185 670 211 698 246 698C281 698 307 670 307 635Z"/>
<glyph unicode="&#xe6;" horiz-adv-x="853" d="M209 38C143 38 107 81 107 126C107 178 141 209 196 217L303 233C325 236 359 245 366 253L366 195C366 98 300 38 209 38ZM428 277C434 365 498 436 587 436C687 436 744 366 746 277ZM202 -13C308 -13 368 45 395 110C435 30 511 -13 597 -13C707 -13 779 54 806 135L753 154C733 91 683 41 597 41C505 41 430 109 426 215L426 227L808 227C809 235 809 241 809 249C808 390 727 490 586 490C516 490 452 456 412 397C388 452 333 490 245 490C143 490 66 431 55 339L113 326C120 395 170 438 246 438C323 438 366 393 366 330C366 308 354 289 316 283L189 264C101 250 45 204 45 123C45 54 102 -13 202 -13Z"/>
<glyph unicode="&#xe7;" horiz-adv-x="529" d="M252 -95C264 -89 277 -87 289 -87C326 -87 346 -103 346 -128C346 -155 322 -170 284 -170C247 -170 219 -149 204 -131L177 -163C197 -188 238 -210 285 -210C356 -210 393 -174 393 -128C393 -83 358 -52 305 -52C296 -52 289 -53 281 -56L311 -11C408 0 468 68 489 136L436 158C420 105 373 41 281 41C185 41 107 117 107 238C107 361 186 436 281 436C373 436 416 374 432 318L485 340C463 420 395 490 281 490C147 490 47 385 47 238C47 98 137 -3 263 -12L228 -66Z"/>
<glyph unicode="&#xe8;" horiz-adv-x="535" d="M110 277C116 365 180 436 269 436C369 436 426 366 428 277ZM435 154C415 91 365 41 279 41C185 41 109 113 108 223L108 227L490 227C491 235 491 241 491 249C490 390 409 490 268 490C149 490 47 390 47 240C47 80 153 -13 279 -13C389 -13 461 54 488 135ZM255 537L302 537L213 676L137 676Z"/>
<glyph unicode="&#xe9;" horiz-adv-x="535" d="M413 676L335 676L246 537L295 537ZM110 277C116 365 180 436 269 436C369 436 426 366 428 277ZM435 154C415 91 365 41 279 41C185 41 109 113 108 223L108 227L490 227C491 235 491 241 491 249C490 390 409 490 268 490C149 490 47 390 47 240C47 80 153 -13 279 -13C389 -13 461 54 488 135Z"/>
<glyph unicode="&#xea;" horiz-adv-x="535" d="M177 538L269 637L361 538L415 538L305 675L233 675L123 538ZM110 277C116 365 180 436 269 436C369 436 426 366 428 277ZM435 154C415 91 365 41 279 41C185 41 109 113 108 223L108 227L490 227C491 235 491 241 491 249C490 390 409 490 268 490C149 490 47 390 47 240C47 80 153 -13 279 -13C389 -13 461 54 488 135Z"/>
<glyph unicode="&#xeb;" horiz-adv-x="535" d="M316 611C316 588 335 569 358 569C381 569 400 588 400 611C400 634 381 653 358 653C335 653 316 634 316 611ZM140 611C140 588 159 569 182 569C205 569 224 588 224 611C224 634 205 653 182 653C159 653 140 634 140 611ZM110 277C116 365 180 436 269 436C369 436 426 366 428 277ZM435 154C415 91 365 41 279 41C185 41 109 113 108 223L108 227L490 227C491 235 491 241 491 249C490 390 409 490 268 490C149 490 47 390 47 240C47 80 153 -13 279 -13C389 -13 461 54 488 135Z"/>
<glyph unicode="&#xec;" horiz-adv-x="220" d="M140 0L140 477L80 477L80 0ZM90 537L137 537L48 676L-28 676Z"/>
<glyph unicode="&#xed;" horiz-adv-x="220" d="M252 676L174 676L85 537L134 537ZM140 0L140 477L80 477L80 0Z"/>
<glyph unicode="&#xee;" horiz-adv-x="220" d="M18 538L110 637L202 538L256 538L146 675L74 675L-36 538ZM140 0L140 477L80 477L80 0Z"/>
<glyph unicode="&#xef;" horiz-adv-x="220" d="M140 0L140 477L80 477L80 0ZM7 610C7 588 25 570 47 570C69 570 87 588 87 610C87 632 69 650 47 650C25 650 7 632 7 610ZM133 610C133 588 151 570 173 570C195 570 213 588 213 610C213 632 195 650 173 650C151 650 133 632 133 610Z"/>
<glyph unicode="&#xf0;" horiz-adv-x="566" d="M469 650L449 691L336 634C277 681 211 709 161 722L142 673C191 660 237 637 279 605L168 550L187 509L320 576C373 526 413 461 434 386C400 438 339 463 272 463C156 463 47 373 47 227C47 91 143 -13 280 -13C428 -13 513 103 513 255C513 404 455 523 374 603ZM280 41C184 41 107 114 107 227C107 342 188 409 280 409C372 409 453 344 453 236C453 122 383 41 280 41Z"/>
<glyph unicode="&#xf1;" horiz-adv-x="537" d="M430 659L383 659C383 620 370 603 345 603C328 603 316 610 301 621L283 634C263 649 240 661 212 661C164 661 127 627 127 566L127 554L174 554C174 591 186 609 212 609C231 609 245 600 261 589L282 574C300 561 321 551 347 551C392 551 430 585 430 648ZM140 285C140 366 191 435 273 435C365 435 402 376 402 301L402 0L462 0L462 311C462 409 405 489 293 489C220 489 164 452 138 401L138 477L80 477L80 0L140 0Z"/>
<glyph unicode="&#xf2;" horiz-adv-x="568" d="M262 537L309 537L220 676L144 676ZM284 -13C417 -13 521 89 521 238C521 388 417 489 284 489C150 489 47 388 47 238C47 89 151 -13 284 -13ZM108 238C108 363 190 435 284 435C378 435 460 363 460 238C460 114 378 41 284 41C190 41 108 114 108 238Z"/>
<glyph unicode="&#xf3;" horiz-adv-x="568" d="M415 676L337 676L248 537L297 537ZM284 -13C417 -13 521 89 521 238C521 388 417 489 284 489C150 489 47 388 47 238C47 89 151 -13 284 -13ZM108 238C108 363 190 435 284 435C378 435 460 363 460 238C460 114 378 41 284 41C190 41 108 114 108 238Z"/>
<glyph unicode="&#xf4;" horiz-adv-x="568" d="M189 538L281 637L373 538L427 538L317 675L245 675L135 538ZM284 -13C417 -13 521 89 521 238C521 388 417 489 284 489C150 489 47 388 47 238C47 89 151 -13 284 -13ZM108 238C108 363 190 435 284 435C378 435 460 363 460 238C460 114 378 41 284 41C190 41 108 114 108 238Z"/>
<glyph unicode="&#xf5;" horiz-adv-x="568" d="M284 -13C417 -13 521 89 521 238C521 388 417 489 284 489C150 489 47 388 47 238C47 89 151 -13 284 -13ZM108 238C108 363 190 435 284 435C378 435 460 363 460 238C460 114 378 41 284 41C190 41 108 114 108 238ZM434 659L387 659C387 620 374 603 349 603C332 603 320 610 305 621L287 634C267 649 244 661 216 661C168 661 131 627 131 566L131 554L178 554C178 591 190 609 216 609C235 609 249 600 265 589L286 574C304 561 325 551 351 551C396 551 434 585 434 648Z"/>
<glyph unicode="&#xf6;" horiz-adv-x="568" d="M328 611C328 588 347 569 370 569C393 569 412 588 412 611C412 634 393 653 370 653C347 653 328 634 328 611ZM152 611C152 588 171 569 194 569C217 569 236 588 236 611C236 634 217 653 194 653C171 653 152 634 152 611ZM284 -13C417 -13 521 89 521 238C521 388 417 489 284 489C150 489 47 388 47 238C47 89 151 -13 284 -13ZM108 238C108 363 190 435 284 435C378 435 460 363 460 238C460 114 378 41 284 41C190 41 108 114 108 238Z"/>
<glyph unicode="&#xf7;" horiz-adv-x="600" d="M251 170C251 144 274 122 299 122C325 122 347 144 347 170C347 196 325 217 299 217C274 217 251 196 251 170ZM521 322L521 375L79 375L79 322ZM251 525C251 500 274 477 299 477C325 477 347 500 347 525C347 552 325 573 299 573C274 573 251 552 251 525Z"/>
<glyph unicode="&#xf8;" horiz-adv-x="565" d="M282 490C149 490 48 388 48 238C48 164 73 102 114 58L61 -10L99 -41L151 26C188 1 233 -13 282 -13C414 -13 517 89 517 238C517 310 493 370 454 414L511 487L472 518L417 447C379 475 332 490 282 490ZM108 238C108 363 189 436 282 436C319 436 354 425 383 403L150 104C124 137 108 183 108 238ZM282 41C247 41 214 51 186 70L418 368C442 335 457 291 457 238C457 114 376 41 282 41Z"/>
<glyph unicode="&#xf9;" horiz-adv-x="539" d="M402 74L402 67C402 37 405 10 407 0L464 0C461 21 458 55 458 91L458 477L398 477L398 186C398 106 348 41 263 41C169 41 134 111 134 187L134 477L74 477L74 177C74 77 131 -13 252 -13C327 -13 380 28 402 74ZM262 537L309 537L220 676L144 676Z"/>
<glyph unicode="&#xfa;" horiz-adv-x="539" d="M385 676L307 676L218 537L267 537ZM402 74L402 67C402 37 405 10 407 0L464 0C461 21 458 55 458 91L458 477L398 477L398 186C398 106 348 41 263 41C169 41 134 111 134 187L134 477L74 477L74 177C74 77 131 -13 252 -13C327 -13 380 28 402 74Z"/>
<glyph unicode="&#xfb;" horiz-adv-x="539" d="M175 538L267 637L359 538L413 538L303 675L231 675L121 538ZM402 74L402 67C402 37 405 10 407 0L464 0C461 21 458 55 458 91L458 477L398 477L398 186C398 106 348 41 263 41C169 41 134 111 134 187L134 477L74 477L74 177C74 77 131 -13 252 -13C327 -13 380 28 402 74Z"/>
<glyph unicode="&#xfc;" horiz-adv-x="539" d="M311 611C311 588 330 569 353 569C376 569 395 588 395 611C395 634 376 653 353 653C330 653 311 634 311 611ZM135 611C135 588 154 569 177 569C200 569 219 588 219 611C219 634 200 653 177 653C154 653 135 634 135 611ZM402 74L402 67C402 37 405 10 407 0L464 0C461 21 458 55 458 91L458 477L398 477L398 186C398 106 348 41 263 41C169 41 134 111 134 187L134 477L74 477L74 177C74 77 131 -13 252 -13C327 -13 380 28 402 74Z"/>
<glyph unicode="&#xfd;" horiz-adv-x="501" d="M174 -190L483 477L417 477L259 125L92 477L25 477L228 62L109 -190ZM373 676L295 676L206 537L255 537Z"/>
<glyph unicode="&#xfe;" horiz-adv-x="577" d="M80 722L80 -190L140 -190L140 90C164 42 219 -13 311 -13C445 -13 529 97 529 239C529 380 448 490 313 490C219 490 163 432 140 384L140 722ZM469 239C469 127 403 41 303 41C204 41 139 126 139 239C139 350 204 436 303 436C403 436 469 351 469 239Z"/>
<glyph unicode="&#xff;" horiz-adv-x="501" d="M300 611C300 588 319 569 342 569C365 569 384 588 384 611C384 634 365 653 342 653C319 653 300 634 300 611ZM124 611C124 588 143 569 166 569C189 569 208 588 208 611C208 634 189 653 166 653C143 653 124 634 124 611ZM174 -190L483 477L417 477L259 125L92 477L25 477L228 62L109 -190Z"/>
<glyph unicode="&#x100;" horiz-adv-x="694" d="M604 0L672 0L385 709L309 709L22 0L90 0L177 219L516 219ZM346 646L493 277L200 277ZM482 793L482 845L210 845L210 793Z"/>
<glyph unicode="&#x101;" horiz-adv-x="500" d="M201 -12C288 -12 345 37 367 82C367 43 371 11 373 0L432 0C428 20 425 44 425 82L425 323C425 414 368 489 244 489C142 489 66 429 55 338L111 326C119 395 169 437 245 437C323 437 365 392 365 329C365 307 356 289 315 283L188 264C101 251 45 204 45 123C45 54 101 -12 201 -12ZM208 39C142 39 106 82 106 126C106 178 141 209 197 217L330 237C349 240 362 246 365 249L365 195C365 99 299 39 208 39ZM375 583L375 633L121 633L121 583Z"/>
<glyph unicode="&#x102;" horiz-adv-x="694" d="M604 0L672 0L385 709L309 709L22 0L90 0L177 219L516 219ZM346 646L493 277L200 277ZM347 754C437 754 487 816 491 880L439 880C436 842 408 802 347 802C286 802 258 842 254 880L202 880C207 816 257 754 347 754Z"/>
<glyph unicode="&#x103;" horiz-adv-x="500" d="M201 -12C288 -12 345 37 367 82C367 43 371 11 373 0L432 0C428 20 425 44 425 82L425 323C425 414 368 489 244 489C142 489 66 429 55 338L111 326C119 395 169 437 245 437C323 437 365 392 365 329C365 307 356 289 315 283L188 264C101 251 45 204 45 123C45 54 101 -12 201 -12ZM208 39C142 39 106 82 106 126C106 178 141 209 197 217L330 237C349 240 362 246 365 249L365 195C365 99 299 39 208 39ZM247 538C338 538 386 608 387 676L340 676C338 633 310 587 247 587C184 587 156 633 154 676L107 676C108 608 156 538 247 538Z"/>
<glyph unicode="&#x104;" horiz-adv-x="694" d="M604 0L611 0C574 -24 538 -62 538 -117C538 -176 584 -210 641 -210C661 -210 674 -207 686 -202L686 -158C677 -161 666 -163 652 -163C618 -163 589 -144 589 -106C589 -56 635 -19 672 0L385 709L309 709L22 0L90 0L177 219L516 219ZM346 646L493 277L200 277Z"/>
<glyph unicode="&#x105;" horiz-adv-x="500" d="M298 -117C298 -176 344 -210 401 -210C421 -210 434 -207 446 -202L446 -158C437 -161 426 -163 412 -163C378 -163 349 -144 349 -106C349 -56 395 -19 432 0C428 20 425 44 425 82L425 323C425 414 368 489 244 489C142 489 66 429 55 338L111 326C119 395 169 437 245 437C323 437 365 392 365 329C365 307 356 289 315 283L188 264C101 251 45 204 45 123C45 54 101 -12 201 -12C288 -12 345 37 367 82C367 44 370 13 372 1C335 -23 298 -61 298 -117ZM208 39C142 39 106 82 106 126C106 178 141 209 197 217L330 237C349 240 362 246 365 249L365 195C365 99 299 39 208 39Z"/>
<glyph unicode="&#x106;" horiz-adv-x="746" d="M545 878L461 878L354 759L411 759ZM399 -13C559 -13 673 83 707 216L652 236C623 125 532 45 399 45C254 45 116 152 116 354C116 557 254 664 399 664C527 664 619 592 647 476L704 496C671 631 558 722 399 722C225 722 52 591 52 354C52 117 223 -13 399 -13Z"/>
<glyph unicode="&#x107;" horiz-adv-x="529" d="M416 676L338 676L249 537L298 537ZM281 436C373 436 416 374 432 318L485 340C463 420 395 490 281 490C147 490 47 385 47 238C47 92 146 -13 281 -13C396 -13 466 62 489 136L436 158C420 105 373 41 281 41C185 41 107 117 107 238C107 361 186 436 281 436Z"/>
<glyph unicode="&#x108;" horiz-adv-x="746" d="M302 759L399 843L497 759L556 759L440 878L358 878L243 759ZM399 -13C559 -13 673 83 707 216L652 236C623 125 532 45 399 45C254 45 116 152 116 354C116 557 254 664 399 664C527 664 619 592 647 476L704 496C671 631 558 722 399 722C225 722 52 591 52 354C52 117 223 -13 399 -13Z"/>
<glyph unicode="&#x109;" horiz-adv-x="529" d="M191 538L283 637L375 538L429 538L319 675L247 675L137 538ZM281 436C373 436 416 374 432 318L485 340C463 420 395 490 281 490C147 490 47 385 47 238C47 92 146 -13 281 -13C396 -13 466 62 489 136L436 158C420 105 373 41 281 41C185 41 107 117 107 238C107 361 186 436 281 436Z"/>
<glyph unicode="&#x10a;" horiz-adv-x="746" d="M399 -13C559 -13 673 83 707 216L652 236C623 125 532 45 399 45C254 45 116 152 116 354C116 557 254 664 399 664C527 664 619 592 647 476L704 496C671 631 558 722 399 722C225 722 52 591 52 354C52 117 223 -13 399 -13ZM354 818C354 792 375 771 401 771C427 771 448 792 448 818C448 844 427 865 401 865C375 865 354 844 354 818Z"/>
<glyph unicode="&#x10b;" horiz-adv-x="529" d="M281 436C373 436 416 374 432 318L485 340C463 420 395 490 281 490C147 490 47 385 47 238C47 92 146 -13 281 -13C396 -13 466 62 489 136L436 158C420 105 373 41 281 41C185 41 107 117 107 238C107 361 186 436 281 436ZM237 607C237 581 258 560 284 560C310 560 331 581 331 607C331 633 310 654 284 654C258 654 237 633 237 607Z"/>
<glyph unicode="&#x10c;" horiz-adv-x="746" d="M243 878L358 759L440 759L556 878L497 878L399 794L302 878ZM399 -13C559 -13 673 83 707 216L652 236C623 125 532 45 399 45C254 45 116 152 116 354C116 557 254 664 399 664C527 664 619 592 647 476L704 496C671 631 558 722 399 722C225 722 52 591 52 354C52 117 223 -13 399 -13Z"/>
<glyph unicode="&#x10d;" horiz-adv-x="529" d="M131 675L241 538L313 538L423 675L369 675L277 576L185 675ZM281 436C373 436 416 374 432 318L485 340C463 420 395 490 281 490C147 490 47 385 47 238C47 92 146 -13 281 -13C396 -13 466 62 489 136L436 158C420 105 373 41 281 41C185 41 107 117 107 238C107 361 186 436 281 436Z"/>
<glyph unicode="&#x10e;" horiz-adv-x="712" d="M194 878L309 759L391 759L507 878L448 878L350 794L253 878ZM164 56L164 653L320 653C467 653 594 552 594 353C594 155 465 56 318 56ZM320 0C500 0 659 121 659 353C659 586 502 709 322 709L101 709L101 0Z"/>
<glyph unicode="&#x10f;" horiz-adv-x="574" d="M638 722L570 722L534 546L580 546ZM107 239C107 354 173 436 273 436C371 436 434 352 434 239C434 127 371 41 272 41C171 41 107 127 107 239ZM434 75C434 41 437 12 439 0L498 0C497 5 493 40 493 91L493 722L433 722L433 387C416 428 369 490 267 490C135 490 47 379 47 239C47 97 133 -13 267 -13C360 -13 413 45 434 94Z"/>
<glyph unicode="&#x110;" horiz-adv-x="713" d="M321 0C501 0 660 121 660 353C660 586 503 709 323 709L102 709L102 393L24 393L24 339L102 339L102 0ZM165 56L165 339L308 339L308 393L165 393L165 653L321 653C468 653 595 552 595 353C595 155 466 56 319 56Z"/>
<glyph unicode="&#x111;" horiz-adv-x="574" d="M434 75C434 41 437 12 439 0L498 0C497 5 493 40 493 91L493 570L587 570L587 620L493 620L493 722L433 722L433 620L301 620L301 570L433 570L433 387C416 428 369 490 267 490C135 490 47 379 47 239C47 97 133 -13 267 -13C360 -13 413 45 434 94ZM107 239C107 354 173 436 273 436C371 436 434 352 434 239C434 127 371 41 272 41C171 41 107 127 107 239Z"/>
<glyph unicode="&#x112;" horiz-adv-x="575" d="M519 0L519 58L165 58L165 326L488 326L488 384L165 384L165 651L519 651L519 709L101 709L101 0ZM445 793L445 845L173 845L173 793Z"/>
<glyph unicode="&#x113;" horiz-adv-x="535" d="M396 583L396 633L142 633L142 583ZM110 277C116 365 180 436 269 436C369 436 426 366 428 277ZM435 154C415 91 365 41 279 41C185 41 109 113 108 223L108 227L490 227C491 235 491 241 491 249C490 390 409 490 268 490C149 490 47 390 47 240C47 80 153 -13 279 -13C389 -13 461 54 488 135Z"/>
<glyph unicode="&#x114;" horiz-adv-x="575" d="M312 754C402 754 452 816 456 880L404 880C401 842 373 802 312 802C251 802 223 842 219 880L167 880C172 816 222 754 312 754ZM519 0L519 58L165 58L165 326L488 326L488 384L165 384L165 651L519 651L519 709L101 709L101 0Z"/>
<glyph unicode="&#x115;" horiz-adv-x="535" d="M110 277C116 365 180 436 269 436C369 436 426 366 428 277ZM435 154C415 91 365 41 279 41C185 41 109 113 108 223L108 227L490 227C491 235 491 241 491 249C490 390 409 490 268 490C149 490 47 390 47 240C47 80 153 -13 279 -13C389 -13 461 54 488 135ZM269 538C360 538 408 608 409 676L362 676C360 633 332 587 269 587C206 587 178 633 176 676L129 676C130 608 178 538 269 538Z"/>
<glyph unicode="&#x116;" horiz-adv-x="575" d="M266 818C266 792 287 771 313 771C339 771 360 792 360 818C360 844 339 865 313 865C287 865 266 844 266 818ZM519 0L519 58L165 58L165 326L488 326L488 384L165 384L165 651L519 651L519 709L101 709L101 0Z"/>
<glyph unicode="&#x117;" horiz-adv-x="535" d="M110 277C116 365 180 436 269 436C369 436 426 366 428 277ZM435 154C415 91 365 41 279 41C185 41 109 113 108 223L108 227L490 227C491 235 491 241 491 249C490 390 409 490 268 490C149 490 47 390 47 240C47 80 153 -13 279 -13C389 -13 461 54 488 135ZM222 607C222 581 243 560 269 560C295 560 316 581 316 607C316 633 295 654 269 654C243 654 222 633 222 607Z"/>
<glyph unicode="&#x118;" horiz-adv-x="575" d="M385 -117C385 -176 431 -210 488 -210C508 -210 521 -207 533 -202L533 -158C524 -161 513 -163 499 -163C465 -163 436 -144 436 -106C436 -56 482 -19 519 0L519 58L165 58L165 326L488 326L488 384L165 384L165 651L519 651L519 709L101 709L101 0L458 0C421 -24 385 -62 385 -117Z"/>
<glyph unicode="&#x119;" horiz-adv-x="535" d="M224 -117C224 -176 270 -210 327 -210C347 -210 360 -207 372 -202L372 -158C363 -161 352 -163 338 -163C304 -163 275 -144 275 -106C275 -56 323 -15 366 3C430 30 467 75 488 135L435 154C415 91 365 41 279 41C185 41 109 113 108 223L108 227L490 227C491 235 491 241 491 249C490 390 409 490 268 490C149 490 47 390 47 240C47 80 153 -13 279 -13C249 -37 224 -71 224 -117ZM110 277C116 365 180 436 269 436C369 436 426 366 428 277Z"/>
<glyph unicode="&#x11a;" horiz-adv-x="575" d="M161 878L276 759L358 759L474 878L415 878L317 794L220 878ZM519 0L519 58L165 58L165 326L488 326L488 384L165 384L165 651L519 651L519 709L101 709L101 0Z"/>
<glyph unicode="&#x11b;" horiz-adv-x="535" d="M123 675L233 538L305 538L415 675L361 675L269 576L177 675ZM110 277C116 365 180 436 269 436C369 436 426 366 428 277ZM435 154C415 91 365 41 279 41C185 41 109 113 108 223L108 227L490 227C491 235 491 241 491 249C490 390 409 490 268 490C149 490 47 390 47 240C47 80 153 -13 279 -13C389 -13 461 54 488 135Z"/>
<glyph unicode="&#x11c;" horiz-adv-x="766" d="M298 759L395 843L493 759L552 759L436 878L354 878L239 759ZM699 0L699 333L377 333L377 275L639 275C637 185 574 44 388 44C254 44 116 151 116 355C116 559 252 664 395 664C519 664 611 595 646 485L703 509C662 636 547 722 395 722C221 722 52 593 52 355C52 116 220 -13 386 -13C540 -13 616 76 643 137L649 0Z"/>
<glyph unicode="&#x11d;" horiz-adv-x="562" d="M186 538L278 637L370 538L424 538L314 675L242 675L132 538ZM48 -27C60 -127 141 -203 257 -203C433 -203 482 -76 482 35L482 477L423 477L423 395C399 444 350 488 261 488C134 488 48 387 48 257C48 124 136 25 261 25C348 25 401 73 422 122L422 34C422 -65 384 -150 258 -150C173 -150 113 -88 105 -13ZM268 77C172 77 108 153 108 257C108 361 173 436 268 436C362 436 424 360 424 257C424 153 362 77 268 77Z"/>
<glyph unicode="&#x11e;" horiz-adv-x="766" d="M396 754C486 754 536 816 540 880L488 880C485 842 457 802 396 802C335 802 307 842 303 880L251 880C256 816 306 754 396 754ZM699 0L699 333L377 333L377 275L639 275C637 185 574 44 388 44C254 44 116 151 116 355C116 559 252 664 395 664C519 664 611 595 646 485L703 509C662 636 547 722 395 722C221 722 52 593 52 355C52 116 220 -13 386 -13C540 -13 616 76 643 137L649 0Z"/>
<glyph unicode="&#x11f;" horiz-adv-x="562" d="M48 -27C60 -127 141 -203 257 -203C433 -203 482 -76 482 35L482 477L423 477L423 395C399 444 350 488 261 488C134 488 48 387 48 257C48 124 136 25 261 25C348 25 401 73 422 122L422 34C422 -65 384 -150 258 -150C173 -150 113 -88 105 -13ZM268 77C172 77 108 153 108 257C108 361 173 436 268 436C362 436 424 360 424 257C424 153 362 77 268 77ZM278 538C369 538 417 608 418 676L371 676C369 633 341 587 278 587C215 587 187 633 185 676L138 676C139 608 187 538 278 538Z"/>
<glyph unicode="&#x120;" horiz-adv-x="766" d="M349 818C349 792 370 771 396 771C422 771 443 792 443 818C443 844 422 865 396 865C370 865 349 844 349 818ZM699 0L699 333L377 333L377 275L639 275C637 185 574 44 388 44C254 44 116 151 116 355C116 559 252 664 395 664C519 664 611 595 646 485L703 509C662 636 547 722 395 722C221 722 52 593 52 355C52 116 220 -13 386 -13C540 -13 616 76 643 137L649 0Z"/>
<glyph unicode="&#x121;" horiz-adv-x="562" d="M231 607C231 581 252 560 278 560C304 560 325 581 325 607C325 633 304 654 278 654C252 654 231 633 231 607ZM48 -27C60 -127 141 -203 257 -203C433 -203 482 -76 482 35L482 477L423 477L423 395C399 444 350 488 261 488C134 488 48 387 48 257C48 124 136 25 261 25C348 25 401 73 422 122L422 34C422 -65 384 -150 258 -150C173 -150 113 -88 105 -13ZM268 77C172 77 108 153 108 257C108 361 173 436 268 436C362 436 424 360 424 257C424 153 362 77 268 77Z"/>
<glyph unicode="&#x122;" horiz-adv-x="766" d="M351 -84C351 -110 369 -126 393 -126C401 -126 408 -124 412 -120C410 -150 383 -175 349 -178L349 -208C399 -205 448 -169 448 -101C448 -59 421 -42 397 -42C372 -42 351 -59 351 -84ZM699 0L699 333L377 333L377 275L639 275C637 185 574 44 388 44C254 44 116 151 116 355C116 559 252 664 395 664C519 664 611 595 646 485L703 509C662 636 547 722 395 722C221 722 52 593 52 355C52 116 220 -13 386 -13C540 -13 616 76 643 137L649 0Z"/>
<glyph unicode="&#x123;" horiz-adv-x="562" d="M326 573C326 599 308 615 284 615C276 615 269 613 265 609C267 639 294 664 328 667L328 697C278 694 229 658 229 590C229 548 256 531 280 531C305 531 326 548 326 573ZM48 -27C60 -127 141 -203 257 -203C433 -203 482 -76 482 35L482 477L423 477L423 395C399 444 350 488 261 488C134 488 48 387 48 257C48 124 136 25 261 25C348 25 401 73 422 122L422 34C422 -65 384 -150 258 -150C173 -150 113 -88 105 -13ZM268 77C172 77 108 153 108 257C108 361 173 436 268 436C362 436 424 360 424 257C424 153 362 77 268 77Z"/>
<glyph unicode="&#x124;" horiz-adv-x="736" d="M270 759L367 843L465 759L524 759L408 878L326 878L211 759ZM635 0L635 709L571 709L571 389L165 389L165 709L101 709L101 0L165 0L165 331L571 331L571 0Z"/>
<glyph unicode="&#x125;" horiz-adv-x="537" d="M176 763L273 847L371 763L430 763L314 882L232 882L117 763ZM140 287C140 365 192 436 273 436C363 436 402 377 402 302L402 0L462 0L462 312C462 410 406 490 293 490C219 490 165 450 140 402L140 722L80 722L80 0L140 0Z"/>
<glyph unicode="&#x126;" horiz-adv-x="736" d="M31 523L101 523L101 0L165 0L165 331L571 331L571 0L635 0L635 523L705 523L705 577L635 577L635 709L571 709L571 577L165 577L165 709L101 709L101 577L31 577ZM165 389L165 523L571 523L571 389Z"/>
<glyph unicode="&#x127;" horiz-adv-x="537" d="M140 287C140 365 192 436 273 436C363 436 402 377 402 302L402 0L462 0L462 312C462 410 406 490 293 490C219 490 165 450 140 402L140 570L272 570L272 620L140 620L140 722L80 722L80 620L-14 620L-14 570L80 570L80 0L140 0Z"/>
<glyph unicode="&#x128;" horiz-adv-x="266" d="M165 0L165 709L101 709L101 0ZM288 871L241 871C241 832 227 815 202 815C185 815 172 822 157 833L139 846C119 861 95 873 67 873C19 873 -19 839 -19 778L-19 766L28 766C28 803 41 821 67 821C86 821 101 812 117 801L138 786C156 773 178 763 204 763C249 763 288 797 288 860Z"/>
<glyph unicode="&#x129;" horiz-adv-x="220" d="M140 0L140 477L80 477L80 0ZM262 659L215 659C215 620 202 603 177 603C160 603 148 610 133 621L115 634C95 649 72 661 44 661C-4 661 -41 627 -41 566L-41 554L6 554C6 591 18 609 44 609C63 609 77 600 93 589L114 574C132 561 153 551 179 551C224 551 262 585 262 648Z"/>
<glyph unicode="&#x12a;" horiz-adv-x="266" d="M165 0L165 709L101 709L101 0ZM269 793L269 845L-3 845L-3 793Z"/>
<glyph unicode="&#x12b;" horiz-adv-x="220" d="M140 0L140 477L80 477L80 0ZM237 583L237 633L-17 633L-17 583Z"/>
<glyph unicode="&#x12c;" horiz-adv-x="266" d="M165 0L165 709L101 709L101 0ZM134 754C224 754 274 816 278 880L226 880C223 842 195 802 134 802C73 802 45 842 41 880L-11 880C-6 816 44 754 134 754Z"/>
<glyph unicode="&#x12d;" horiz-adv-x="220" d="M140 0L140 477L80 477L80 0ZM110 538C201 538 249 608 250 676L203 676C201 633 173 587 110 587C47 587 19 633 17 676L-30 676C-29 608 19 538 110 538Z"/>
<glyph unicode="&#x12e;" horiz-adv-x="266" d="M31 -117C31 -176 77 -210 134 -210C154 -210 167 -207 179 -202L179 -158C170 -161 159 -163 145 -163C111 -163 82 -144 82 -106C82 -56 128 -19 165 0L165 709L101 709L101 0L104 0C67 -24 31 -62 31 -117Z"/>
<glyph unicode="&#x12f;" horiz-adv-x="220" d="M6 -117C6 -176 52 -210 109 -210C129 -210 142 -207 154 -202L154 -158C145 -161 134 -163 120 -163C86 -163 57 -144 57 -106C57 -56 103 -19 140 0L140 477L80 477L80 0C42 -24 6 -61 6 -117ZM60 675C60 646 82 625 110 625C138 625 160 646 160 675C160 704 138 725 110 725C82 725 60 704 60 675Z"/>
<glyph unicode="&#x130;" horiz-adv-x="266" d="M165 0L165 709L101 709L101 0ZM87 818C87 792 108 771 134 771C160 771 181 792 181 818C181 844 160 865 134 865C108 865 87 844 87 818Z"/>
<glyph unicode="&#x131;" horiz-adv-x="220" d="M140 0L140 477L80 477L80 0Z"/>
<glyph unicode="&#x132;" horiz-adv-x="597" d="M157 300L157 709L93 709L93 300ZM93 208C93 72 171 -13 300 -13C428 -13 504 80 504 209L504 709L440 709L440 208C440 107 390 45 300 45C210 45 156 106 156 211L156 240L93 225Z"/>
<glyph unicode="&#x133;" horiz-adv-x="440" d="M140 0L140 477L80 477L80 0ZM60 675C60 646 82 625 110 625C138 625 160 646 160 675C160 704 138 725 110 725C82 725 60 704 60 675ZM300 -63C300 -122 275 -149 222 -149C206 -149 192 -147 181 -143L181 -194C191 -199 208 -203 234 -203C310 -203 360 -152 360 -65L360 477L300 477ZM280 675C280 646 302 625 330 625C358 625 380 646 380 675C380 704 358 725 330 725C302 725 280 704 280 675Z"/>
<glyph unicode="&#x134;" horiz-adv-x="537" d="M315 759L412 843L510 759L569 759L453 878L371 878L256 759ZM33 208C33 72 111 -13 240 -13C368 -13 444 80 444 209L444 709L380 709L380 208C380 107 330 45 240 45C150 45 96 106 96 211L96 268L33 253Z"/>
<glyph unicode="&#x135;" horiz-adv-x="220" d="M18 538L110 637L202 538L256 538L146 675L74 675L-36 538ZM80 -63C80 -122 55 -149 2 -149C-14 -149 -28 -147 -39 -143L-39 -194C-29 -199 -12 -203 14 -203C90 -203 140 -152 140 -65L140 477L80 477Z"/>
<glyph unicode="&#x136;" horiz-adv-x="638" d="M548 0L628 0L329 394L624 709L541 709L165 303L165 709L101 709L101 0L165 0L165 219L287 349ZM303 -84C303 -110 321 -126 345 -126C353 -126 360 -124 364 -120C362 -150 335 -175 301 -178L301 -208C351 -205 400 -169 400 -101C400 -59 373 -42 349 -42C324 -42 303 -59 303 -84Z"/>
<glyph unicode="&#x137;" horiz-adv-x="496" d="M473 477L390 477L140 225L140 722L80 722L80 0L140 0L140 146L228 233L402 0L477 0L270 274ZM226 -84C226 -110 244 -126 268 -126C276 -126 283 -124 287 -120C285 -150 258 -175 224 -178L224 -208C274 -205 323 -169 323 -101C323 -59 296 -42 272 -42C247 -42 226 -59 226 -84Z"/>
<glyph unicode="&#x138;" horiz-adv-x="495" d="M472 477L389 477L139 225L139 477L80 477L80 0L139 0L139 146L227 233L401 0L476 0L269 274Z"/>
<glyph unicode="&#x139;" horiz-adv-x="544" d="M296 878L212 878L105 759L162 759ZM523 0L523 58L165 58L165 709L101 709L101 0Z"/>
<glyph unicode="&#x13a;" horiz-adv-x="220" d="M273 882L189 882L82 763L139 763ZM140 0L140 722L80 722L80 0Z"/>
<glyph unicode="&#x13b;" horiz-adv-x="544" d="M270 -84C270 -110 288 -126 312 -126C320 -126 327 -124 331 -120C329 -150 302 -175 268 -178L268 -208C318 -205 367 -169 367 -101C367 -59 340 -42 316 -42C291 -42 270 -59 270 -84ZM523 0L523 58L165 58L165 709L101 709L101 0Z"/>
<glyph unicode="&#x13c;" horiz-adv-x="220" d="M62 -84C62 -110 80 -126 104 -126C112 -126 119 -124 123 -120C121 -150 94 -175 60 -178L60 -208C110 -205 159 -169 159 -101C159 -59 132 -42 108 -42C83 -42 62 -59 62 -84ZM140 0L140 722L80 722L80 0Z"/>
<glyph unicode="&#x13d;" horiz-adv-x="544" d="M385 759L314 759L276 573L323 573ZM523 0L523 58L165 58L165 709L101 709L101 0Z"/>
<glyph unicode="&#x13e;" horiz-adv-x="220" d="M285 722L217 722L181 546L227 546ZM140 0L140 722L80 722L80 0Z"/>
<glyph unicode="&#x13f;" horiz-adv-x="544" d="M523 0L523 58L165 58L165 709L101 709L101 0ZM299 373C299 344 322 321 351 321C381 321 404 344 404 373C404 402 381 426 351 426C322 426 299 402 299 373Z"/>
<glyph unicode="&#x140;" horiz-adv-x="277" d="M140 0L140 722L80 722L80 0ZM197 324C197 298 218 277 244 277C270 277 291 298 291 324C291 350 270 371 244 371C218 371 197 350 197 324Z"/>
<glyph unicode="&#x141;" horiz-adv-x="555" d="M534 0L534 58L176 58L176 331L338 403L338 459L176 387L176 709L112 709L112 359L13 315L13 259L112 303L112 0Z"/>
<glyph unicode="&#x142;" horiz-adv-x="308" d="M174 0L174 321L281 368L281 424L174 377L174 722L114 722L114 350L19 309L19 253L114 294L114 0Z"/>
<glyph unicode="&#x143;" horiz-adv-x="763" d="M662 0L662 709L598 709L598 104L189 709L101 709L101 0L165 0L165 630L594 0ZM524 878L440 878L333 759L390 759Z"/>
<glyph unicode="&#x144;" horiz-adv-x="537" d="M396 676L318 676L229 537L278 537ZM140 285C140 366 191 435 273 435C365 435 402 376 402 301L402 0L462 0L462 311C462 409 405 489 293 489C220 489 164 452 138 401L138 477L80 477L80 0L140 0Z"/>
<glyph unicode="&#x145;" horiz-adv-x="763" d="M346 -84C346 -110 364 -126 388 -126C396 -126 403 -124 407 -120C405 -150 378 -175 344 -178L344 -208C394 -205 443 -169 443 -101C443 -59 416 -42 392 -42C367 -42 346 -59 346 -84ZM662 0L662 709L598 709L598 104L189 709L101 709L101 0L165 0L165 630L594 0Z"/>
<glyph unicode="&#x146;" horiz-adv-x="537" d="M230 -84C230 -110 248 -126 272 -126C280 -126 287 -124 291 -120C289 -150 262 -175 228 -178L228 -208C278 -205 327 -169 327 -101C327 -59 300 -42 276 -42C251 -42 230 -59 230 -84ZM140 285C140 366 191 435 273 435C365 435 402 376 402 301L402 0L462 0L462 311C462 409 405 489 293 489C220 489 164 452 138 401L138 477L80 477L80 0L140 0Z"/>
<glyph unicode="&#x147;" horiz-adv-x="763" d="M227 878L342 759L424 759L540 878L481 878L383 794L286 878ZM662 0L662 709L598 709L598 104L189 709L101 709L101 0L165 0L165 630L594 0Z"/>
<glyph unicode="&#x148;" horiz-adv-x="537" d="M117 675L227 538L299 538L409 675L355 675L263 576L171 675ZM140 285C140 366 191 435 273 435C365 435 402 376 402 301L402 0L462 0L462 311C462 409 405 489 293 489C220 489 164 452 138 401L138 477L80 477L80 0L140 0Z"/>
<glyph unicode="&#x149;" horiz-adv-x="537" d="M82 649C82 623 100 607 124 607C132 607 139 609 143 613C141 583 114 558 80 555L80 525C130 528 179 564 179 632C179 674 152 691 128 691C103 691 82 674 82 649ZM140 285C140 366 191 435 273 435C365 435 402 376 402 301L402 0L462 0L462 311C462 409 405 489 293 489C220 489 164 452 138 401L138 477L80 477L80 0L140 0Z"/>
<glyph unicode="&#x14a;" horiz-adv-x="763" d="M662 709L598 709L598 104L189 709L101 709L101 0L165 0L165 630L599 -7L599 -77C599 -122 581 -149 533 -149C519 -149 503 -147 493 -143L493 -195C502 -199 520 -203 549 -203C619 -203 662 -152 662 -78Z"/>
<glyph unicode="&#x14b;" horiz-adv-x="537" d="M140 286C140 365 191 436 273 436C363 436 402 377 402 302L402 -76C402 -121 382 -149 335 -149C321 -149 305 -147 294 -143L294 -195C304 -199 322 -203 350 -203C421 -203 462 -152 462 -79L462 312C462 410 406 490 293 490C220 490 164 451 139 397L139 477L80 477L80 0L140 0Z"/>
<glyph unicode="&#x14c;" horiz-adv-x="797" d="M116 354C116 557 253 664 398 664C543 664 681 557 681 354C681 152 543 45 398 45C253 45 116 152 116 354ZM52 354C52 117 224 -13 398 -13C572 -13 745 117 745 354C745 591 572 722 398 722C224 722 52 591 52 354ZM534 793L534 845L262 845L262 793Z"/>
<glyph unicode="&#x14d;" horiz-adv-x="568" d="M408 583L408 633L154 633L154 583ZM284 -13C417 -13 521 89 521 238C521 388 417 489 284 489C150 489 47 388 47 238C47 89 151 -13 284 -13ZM108 238C108 363 190 435 284 435C378 435 460 363 460 238C460 114 378 41 284 41C190 41 108 114 108 238Z"/>
<glyph unicode="&#x14e;" horiz-adv-x="797" d="M399 754C489 754 539 816 543 880L491 880C488 842 460 802 399 802C338 802 310 842 306 880L254 880C259 816 309 754 399 754ZM116 354C116 557 253 664 398 664C543 664 681 557 681 354C681 152 543 45 398 45C253 45 116 152 116 354ZM52 354C52 117 224 -13 398 -13C572 -13 745 117 745 354C745 591 572 722 398 722C224 722 52 591 52 354Z"/>
<glyph unicode="&#x14f;" horiz-adv-x="568" d="M284 -13C417 -13 521 89 521 238C521 388 417 489 284 489C150 489 47 388 47 238C47 89 151 -13 284 -13ZM108 238C108 363 190 435 284 435C378 435 460 363 460 238C460 114 378 41 284 41C190 41 108 114 108 238ZM280 538C371 538 419 608 420 676L373 676C371 633 343 587 280 587C217 587 189 633 187 676L140 676C141 608 189 538 280 538Z"/>
<glyph unicode="&#x150;" horiz-adv-x="797" d="M571 878L503 878L429 759L474 759ZM456 878L388 878L314 759L359 759ZM116 354C116 557 253 664 398 664C543 664 681 557 681 354C681 152 543 45 398 45C253 45 116 152 116 354ZM52 354C52 117 224 -13 398 -13C572 -13 745 117 745 354C745 591 572 722 398 722C224 722 52 591 52 354Z"/>
<glyph unicode="&#x151;" horiz-adv-x="568" d="M284 -13C417 -13 521 89 521 238C521 388 417 489 284 489C150 489 47 388 47 238C47 89 151 -13 284 -13ZM108 238C108 363 190 435 284 435C378 435 460 363 460 238C460 114 378 41 284 41C190 41 108 114 108 238ZM443 676L376 676L309 537L353 537ZM337 676L270 676L203 537L247 537Z"/>
<glyph unicode="&#x152;" horiz-adv-x="1155" d="M1099 0L1099 58L745 58L745 326L1068 326L1068 384L745 384L745 651L1099 651L1099 709L681 709L681 566C616 671 506 722 398 722C224 722 52 591 52 354C52 117 224 -13 398 -13C506 -13 616 36 681 141L681 0ZM116 354C116 557 253 664 398 664C543 664 681 557 681 354C681 152 543 45 398 45C253 45 116 152 116 354Z"/>
<glyph unicode="&#x153;" horiz-adv-x="944" d="M844 154C824 91 774 41 688 41C594 41 518 113 517 223L517 227L899 227C900 235 900 241 900 249C899 390 818 490 677 490C596 490 523 444 485 363C445 443 369 490 281 490C148 490 47 388 47 238C47 89 151 -13 281 -13C369 -13 445 33 485 112C525 30 602 -13 688 -13C798 -13 870 54 897 135ZM281 41C188 41 107 114 107 238C107 363 188 436 281 436C375 436 456 363 456 238C456 114 375 41 281 41ZM519 277C525 365 589 436 678 436C778 436 835 366 837 277Z"/>
<glyph unicode="&#x154;" horiz-adv-x="613" d="M447 878L363 878L256 759L313 759ZM484 0L558 0L382 311C490 325 559 404 559 507C559 621 475 709 348 709L101 709L101 0L165 0L165 307L313 307ZM165 364L165 652L338 652C432 652 495 594 495 507C495 421 432 364 338 364Z"/>
<glyph unicode="&#x155;" horiz-adv-x="337" d="M317 676L239 676L150 537L199 537ZM323 478C315 481 302 483 286 483C223 483 168 454 139 388L139 477L80 477L80 0L140 0L140 259C140 368 200 420 281 420C297 420 312 418 323 415Z"/>
<glyph unicode="&#x156;" horiz-adv-x="613" d="M484 0L558 0L382 311C490 325 559 404 559 507C559 621 475 709 348 709L101 709L101 0L165 0L165 307L313 307ZM165 364L165 652L338 652C432 652 495 594 495 507C495 421 432 364 338 364ZM284 -84C284 -110 302 -126 326 -126C334 -126 341 -124 345 -120C343 -150 316 -175 282 -178L282 -208C332 -205 381 -169 381 -101C381 -59 354 -42 330 -42C305 -42 284 -59 284 -84Z"/>
<glyph unicode="&#x157;" horiz-adv-x="337" d="M323 478C315 481 302 483 286 483C223 483 168 454 139 388L139 477L80 477L80 0L140 0L140 259C140 368 200 420 281 420C297 420 312 418 323 415ZM62 -84C62 -110 80 -126 104 -126C112 -126 119 -124 123 -120C121 -150 94 -175 60 -178L60 -208C110 -205 159 -169 159 -101C159 -59 132 -42 108 -42C83 -42 62 -59 62 -84Z"/>
<glyph unicode="&#x158;" horiz-adv-x="613" d="M145 878L260 759L342 759L458 878L399 878L301 794L204 878ZM484 0L558 0L382 311C490 325 559 404 559 507C559 621 475 709 348 709L101 709L101 0L165 0L165 307L313 307ZM165 364L165 652L338 652C432 652 495 594 495 507C495 421 432 364 338 364Z"/>
<glyph unicode="&#x159;" horiz-adv-x="337" d="M52 675L162 538L234 538L344 675L290 675L198 576L106 675ZM323 478C315 481 302 483 286 483C223 483 168 454 139 388L139 477L80 477L80 0L140 0L140 259C140 368 200 420 281 420C297 420 312 418 323 415Z"/>
<glyph unicode="&#x15a;" horiz-adv-x="582" d="M449 878L365 878L258 759L315 759ZM523 548C503 638 437 722 292 722C175 722 69 632 69 522C69 421 138 361 233 339L340 314C421 295 467 247 467 181C467 104 404 44 295 44C178 44 109 125 100 217L41 198C53 90 139 -13 295 -13C438 -13 530 77 530 186C530 286 462 350 352 376L244 401C172 418 132 462 132 526C132 609 209 666 294 666C400 666 452 601 467 528Z"/>
<glyph unicode="&#x15b;" horiz-adv-x="439" d="M355 676L277 676L188 537L237 537ZM40 125C49 62 108 -13 225 -13C331 -13 391 57 391 128C391 197 346 242 267 260L191 277C142 288 116 312 116 353C116 403 164 437 218 437C294 437 327 392 336 346L389 366C376 423 329 489 218 489C131 489 57 426 57 349C57 280 104 238 174 222L251 204C302 192 332 168 332 124C332 74 285 39 226 39C148 39 104 86 95 144Z"/>
<glyph unicode="&#x15c;" horiz-adv-x="582" d="M208 759L305 843L403 759L462 759L346 878L264 878L149 759ZM523 548C503 638 437 722 292 722C175 722 69 632 69 522C69 421 138 361 233 339L340 314C421 295 467 247 467 181C467 104 404 44 295 44C178 44 109 125 100 217L41 198C53 90 139 -13 295 -13C438 -13 530 77 530 186C530 286 462 350 352 376L244 401C172 418 132 462 132 526C132 609 209 666 294 666C400 666 452 601 467 528Z"/>
<glyph unicode="&#x15d;" horiz-adv-x="439" d="M136 538L228 637L320 538L374 538L264 675L192 675L82 538ZM40 125C49 62 108 -13 225 -13C331 -13 391 57 391 128C391 197 346 242 267 260L191 277C142 288 116 312 116 353C116 403 164 437 218 437C294 437 327 392 336 346L389 366C376 423 329 489 218 489C131 489 57 426 57 349C57 280 104 238 174 222L251 204C302 192 332 168 332 124C332 74 285 39 226 39C148 39 104 86 95 144Z"/>
<glyph unicode="&#x15e;" horiz-adv-x="582" d="M272 -95C284 -89 297 -87 309 -87C346 -87 366 -103 366 -128C366 -155 342 -170 304 -170C267 -170 239 -149 224 -131L197 -163C217 -188 258 -210 305 -210C376 -210 413 -174 413 -128C413 -83 378 -52 325 -52C316 -52 309 -53 301 -56L331 -11C453 2 530 86 530 186C530 286 462 350 352 376L244 401C172 418 132 462 132 526C132 609 209 666 294 666C400 666 452 601 467 528L523 548C503 638 437 722 292 722C175 722 69 632 69 522C69 421 138 361 233 339L340 314C421 295 467 247 467 181C467 104 404 44 295 44C178 44 109 125 100 217L41 198C52 93 134 -7 282 -13L248 -66Z"/>
<glyph unicode="&#x15f;" horiz-adv-x="439" d="M193 -95C205 -89 218 -87 230 -87C267 -87 287 -103 287 -128C287 -155 263 -170 225 -170C188 -170 160 -149 145 -131L118 -163C138 -188 179 -210 226 -210C297 -210 334 -174 334 -128C334 -83 299 -52 246 -52C237 -52 230 -53 222 -56L252 -11C341 0 391 63 391 128C391 197 346 242 267 260L191 277C142 288 116 312 116 353C116 403 164 437 218 437C294 437 327 392 336 346L389 366C376 423 329 489 218 489C131 489 57 426 57 349C57 280 104 238 174 222L251 204C302 192 332 168 332 124C332 74 285 39 226 39C148 39 104 86 95 144L40 125C48 66 101 -4 204 -12L169 -66Z"/>
<glyph unicode="&#x160;" horiz-adv-x="582" d="M140 878L255 759L337 759L453 878L394 878L296 794L199 878ZM523 548C503 638 437 722 292 722C175 722 69 632 69 522C69 421 138 361 233 339L340 314C421 295 467 247 467 181C467 104 404 44 295 44C178 44 109 125 100 217L41 198C53 90 139 -13 295 -13C438 -13 530 77 530 186C530 286 462 350 352 376L244 401C172 418 132 462 132 526C132 609 209 666 294 666C400 666 452 601 467 528Z"/>
<glyph unicode="&#x161;" horiz-adv-x="439" d="M76 675L186 538L258 538L368 675L314 675L222 576L130 675ZM40 125C49 62 108 -13 225 -13C331 -13 391 57 391 128C391 197 346 242 267 260L191 277C142 288 116 312 116 353C116 403 164 437 218 437C294 437 327 392 336 346L389 366C376 423 329 489 218 489C131 489 57 426 57 349C57 280 104 238 174 222L251 204C302 192 332 168 332 124C332 74 285 39 226 39C148 39 104 86 95 144Z"/>
<glyph unicode="&#x162;" horiz-adv-x="603" d="M584 651L584 709L19 709L19 651L269 651L269 0L279 0L236 -66L260 -95C272 -89 285 -87 297 -87C334 -87 354 -103 354 -128C354 -155 330 -170 292 -170C255 -170 227 -149 212 -131L185 -163C205 -188 246 -210 293 -210C364 -210 401 -174 401 -128C401 -83 366 -52 313 -52C304 -52 297 -53 289 -56L326 0L333 0L333 651Z"/>
<glyph unicode="&#x163;" horiz-adv-x="328" d="M170 -84C170 -110 188 -126 212 -126C220 -126 227 -124 231 -120C229 -150 202 -175 168 -178L168 -208C218 -205 267 -169 267 -101C267 -59 240 -42 216 -42C191 -42 170 -59 170 -84ZM177 628L119 628L119 547C119 498 99 477 52 477L16 477L16 423L117 423L117 129C117 42 165 -5 242 -5C271 -5 293 0 301 4L301 57C292 53 275 49 258 49C204 49 177 77 177 135L177 423L301 423L301 477L177 477Z"/>
<glyph unicode="&#x164;" horiz-adv-x="603" d="M144 878L259 759L341 759L457 878L398 878L300 794L203 878ZM584 651L584 709L19 709L19 651L269 651L269 0L333 0L333 651Z"/>
<glyph unicode="&#x165;" horiz-adv-x="328" d="M322 722L254 722L218 546L264 546ZM177 628L119 628L119 547C119 498 99 477 52 477L16 477L16 423L117 423L117 129C117 42 165 -5 242 -5C271 -5 293 0 301 4L301 57C292 53 275 49 258 49C204 49 177 77 177 135L177 423L301 423L301 477L177 477Z"/>
<glyph unicode="&#x166;" horiz-adv-x="613" d="M589 651L589 709L24 709L24 651L274 651L274 372L149 372L149 318L274 318L274 0L338 0L338 318L463 318L463 372L338 372L338 651Z"/>
<glyph unicode="&#x167;" horiz-adv-x="340" d="M186 628L128 628L128 547C128 498 108 477 61 477L25 477L25 423L126 423L126 278L25 278L25 228L126 228L126 129C126 42 174 -5 251 -5C280 -5 302 0 310 4L310 57C301 53 284 49 267 49C213 49 186 77 186 135L186 228L310 228L310 278L186 278L186 423L310 423L310 477L186 477Z"/>
<glyph unicode="&#x168;" horiz-adv-x="672" d="M492 871L445 871C445 832 431 815 406 815C389 815 376 822 361 833L343 846C323 861 299 873 271 873C223 873 185 839 185 778L185 766L232 766C232 803 245 821 271 821C290 821 305 812 321 801L342 786C360 773 382 763 408 763C453 763 492 797 492 860ZM336 -13C481 -13 579 75 579 236L579 709L515 709L515 239C515 114 452 45 336 45C220 45 157 114 157 239L157 709L93 709L93 236C93 74 192 -13 336 -13Z"/>
<glyph unicode="&#x169;" horiz-adv-x="539" d="M402 74L402 67C402 37 405 10 407 0L464 0C461 21 458 55 458 91L458 477L398 477L398 186C398 106 348 41 263 41C169 41 134 111 134 187L134 477L74 477L74 177C74 77 131 -13 252 -13C327 -13 380 28 402 74ZM418 659L371 659C371 620 358 603 333 603C316 603 304 610 289 621L271 634C251 649 228 661 200 661C152 661 115 627 115 566L115 554L162 554C162 591 174 609 200 609C219 609 233 600 249 589L270 574C288 561 309 551 335 551C380 551 418 585 418 648Z"/>
<glyph unicode="&#x16a;" horiz-adv-x="672" d="M336 -13C481 -13 579 75 579 236L579 709L515 709L515 239C515 114 452 45 336 45C220 45 157 114 157 239L157 709L93 709L93 236C93 74 192 -13 336 -13ZM473 793L473 845L201 845L201 793Z"/>
<glyph unicode="&#x16b;" horiz-adv-x="539" d="M393 583L393 633L139 633L139 583ZM402 74L402 67C402 37 405 10 407 0L464 0C461 21 458 55 458 91L458 477L398 477L398 186C398 106 348 41 263 41C169 41 134 111 134 187L134 477L74 477L74 177C74 77 131 -13 252 -13C327 -13 380 28 402 74Z"/>
<glyph unicode="&#x16c;" horiz-adv-x="672" d="M338 754C428 754 478 816 482 880L430 880C427 842 399 802 338 802C277 802 249 842 245 880L193 880C198 816 248 754 338 754ZM336 -13C481 -13 579 75 579 236L579 709L515 709L515 239C515 114 452 45 336 45C220 45 157 114 157 239L157 709L93 709L93 236C93 74 192 -13 336 -13Z"/>
<glyph unicode="&#x16d;" horiz-adv-x="539" d="M402 74L402 67C402 37 405 10 407 0L464 0C461 21 458 55 458 91L458 477L398 477L398 186C398 106 348 41 263 41C169 41 134 111 134 187L134 477L74 477L74 177C74 77 131 -13 252 -13C327 -13 380 28 402 74ZM264 538C355 538 403 608 404 676L357 676C355 633 327 587 264 587C201 587 173 633 171 676L124 676C125 608 173 538 264 538Z"/>
<glyph unicode="&#x16e;" horiz-adv-x="672" d="M336 -13C481 -13 579 75 579 236L579 709L515 709L515 239C515 114 452 45 336 45C220 45 157 114 157 239L157 709L93 709L93 236C93 74 192 -13 336 -13ZM337 788C305 788 281 813 281 845C281 878 305 904 337 904C369 904 393 878 393 845C393 813 369 788 337 788ZM337 745C392 745 438 789 438 845C438 902 392 947 337 947C282 947 236 902 236 845C236 789 282 745 337 745Z"/>
<glyph unicode="&#x16f;" horiz-adv-x="539" d="M368 635C368 693 321 740 263 740C206 740 158 693 158 635C158 577 206 530 263 530C321 530 368 577 368 635ZM324 635C324 600 298 572 263 572C228 572 202 600 202 635C202 670 228 698 263 698C298 698 324 670 324 635ZM402 74L402 67C402 37 405 10 407 0L464 0C461 21 458 55 458 91L458 477L398 477L398 186C398 106 348 41 263 41C169 41 134 111 134 187L134 477L74 477L74 177C74 77 131 -13 252 -13C327 -13 380 28 402 74Z"/>
<glyph unicode="&#x170;" horiz-adv-x="672" d="M497 878L429 878L355 759L400 759ZM382 878L314 878L240 759L285 759ZM336 -13C481 -13 579 75 579 236L579 709L515 709L515 239C515 114 452 45 336 45C220 45 157 114 157 239L157 709L93 709L93 236C93 74 192 -13 336 -13Z"/>
<glyph unicode="&#x171;" horiz-adv-x="539" d="M402 74L402 67C402 37 405 10 407 0L464 0C461 21 458 55 458 91L458 477L398 477L398 186C398 106 348 41 263 41C169 41 134 111 134 187L134 477L74 477L74 177C74 77 131 -13 252 -13C327 -13 380 28 402 74ZM414 676L347 676L280 537L324 537ZM308 676L241 676L174 537L218 537Z"/>
<glyph unicode="&#x172;" horiz-adv-x="672" d="M279 -117C279 -176 325 -210 382 -210C402 -210 415 -207 427 -202L427 -158C418 -161 407 -163 393 -163C359 -163 330 -144 330 -106C330 -64 360 -35 392 -12C396 -9 402 -5 408 -4C513 20 579 103 579 236L579 709L515 709L515 239C515 114 452 45 336 45C220 45 157 114 157 239L157 709L93 709L93 236C93 75 191 -12 334 -13C304 -37 279 -71 279 -117Z"/>
<glyph unicode="&#x173;" horiz-adv-x="539" d="M330 -117C330 -176 376 -210 433 -210C453 -210 466 -207 478 -202L478 -158C469 -161 458 -163 444 -163C410 -163 381 -144 381 -106C381 -56 427 -19 464 0C461 21 458 55 458 91L458 477L398 477L398 186C398 106 348 41 263 41C169 41 134 111 134 187L134 477L74 477L74 177C74 77 131 -13 252 -13C327 -13 380 28 402 74L402 67C402 39 404 13 406 2C368 -22 330 -60 330 -117Z"/>
<glyph unicode="&#x174;" horiz-adv-x="990" d="M397 759L494 843L592 759L651 759L535 878L453 878L338 759ZM726 89L529 709L460 709L264 89L89 709L23 709L230 0L296 0L494 626L692 0L761 0L965 709L900 709Z"/>
<glyph unicode="&#x175;" horiz-adv-x="795" d="M306 538L398 637L490 538L544 538L434 675L362 675L252 538ZM366 477L224 74L97 477L31 477L189 0L256 0L398 404L540 0L607 0L763 477L698 477L573 74L431 477Z"/>
<glyph unicode="&#x176;" horiz-adv-x="616" d="M277 303L277 0L339 0L339 303L587 709L513 709L308 362L104 709L29 709ZM211 759L308 843L406 759L465 759L349 878L267 878L152 759Z"/>
<glyph unicode="&#x177;" horiz-adv-x="501" d="M160 538L252 637L344 538L398 538L288 675L216 675L106 538ZM174 -190L483 477L417 477L259 125L92 477L25 477L228 62L109 -190Z"/>
<glyph unicode="&#x178;" horiz-adv-x="616" d="M277 303L277 0L339 0L339 303L587 709L513 709L308 362L104 709L29 709ZM163 819C163 795 182 776 206 776C230 776 249 795 249 819C249 843 230 862 206 862C182 862 163 843 163 819ZM367 819C367 795 386 776 410 776C434 776 453 795 453 819C453 843 434 862 410 862C386 862 367 843 367 819Z"/>
<glyph unicode="&#x179;" horiz-adv-x="624" d="M450 878L366 878L259 759L316 759ZM583 0L583 58L113 58L580 646L580 709L46 709L46 651L506 651L40 65L40 0Z"/>
<glyph unicode="&#x17a;" horiz-adv-x="464" d="M352 676L274 676L185 537L234 537ZM422 0L422 54L117 54L417 424L417 477L46 477L46 423L345 423L43 53L43 0Z"/>
<glyph unicode="&#x17b;" horiz-adv-x="624" d="M583 0L583 58L113 58L580 646L580 709L46 709L46 651L506 651L40 65L40 0ZM268 818C268 792 289 771 315 771C341 771 362 792 362 818C362 844 341 865 315 865C289 865 268 844 268 818Z"/>
<glyph unicode="&#x17c;" horiz-adv-x="464" d="M422 0L422 54L117 54L417 424L417 477L46 477L46 423L345 423L43 53L43 0ZM181 607C181 581 202 560 228 560C254 560 275 581 275 607C275 633 254 654 228 654C202 654 181 633 181 607Z"/>
<glyph unicode="&#x17d;" horiz-adv-x="624" d="M161 878L276 759L358 759L474 878L415 878L317 794L220 878ZM583 0L583 58L113 58L580 646L580 709L46 709L46 651L506 651L40 65L40 0Z"/>
<glyph unicode="&#x17e;" horiz-adv-x="464" d="M83 675L193 538L265 538L375 675L321 675L229 576L137 675ZM422 0L422 54L117 54L417 424L417 477L46 477L46 423L345 423L43 53L43 0Z"/>
<glyph unicode="&#x18f;" horiz-adv-x="784" d="M384 664C527 664 665 559 668 361L41 361L41 354C41 117 211 -13 385 -13C559 -13 732 117 732 354C732 591 558 722 384 722C233 722 100 628 57 493L114 473C149 587 259 664 384 664ZM385 45C252 45 128 134 108 303L664 303C643 134 517 45 385 45Z"/>
<glyph unicode="&#x192;" horiz-adv-x="5120" d="M2128 382C2006 412 1984 431 1984 474C1984 515 2022 542 2079 542C2134 542 2188 521 2245 478C2246 477 2248 476 2250 476C2253 476 2256 478 2257 480L2316 564C2317 566 2318 567 2318 569C2318 571 2317 573 2315 575C2250 628 2172 656 2081 656C1949 656 1857 577 1857 464C1857 344 1937 300 2073 268C2190 240 2210 218 2210 178C2210 133 2170 105 2106 105C2035 105 1977 129 1912 186C1911 187 1909 188 1906 188C1904 188 1902 186 1901 185L1834 105C1833 104 1832 101 1832 99C1832 97 1833 96 1835 94C1911 26 2003 -9 2103 -9C2244 -9 2336 69 2336 188C2336 289 2276 346 2128 382ZM2657 502C2595 502 2545 477 2504 428L2504 484C2504 489 2500 492 2495 492L2387 492C2382 492 2378 489 2378 484L2378 -135C2378 -140 2382 -144 2387 -144L2495 -144C2500 -144 2504 -140 2504 -135L2504 60C2545 13 2595 -9 2657 -9C2771 -9 2886 78 2886 246C2886 414 2771 502 2657 502ZM2760 246C2760 160 2707 101 2632 101C2557 101 2501 163 2501 246C2501 329 2557 391 2632 391C2706 391 2760 330 2760 246ZM3183 502C3036 502 2921 388 2921 244C2921 101 3035 -10 3181 -10C3328 -10 3444 102 3444 246C3444 389 3329 502 3183 502ZM3183 100C3104 100 3045 163 3045 246C3045 330 3102 390 3181 390C3259 390 3318 328 3318 244C3318 161 3261 100 3183 100ZM3637 492L3637 615C3637 619 3633 622 3629 622L3520 622C3516 622 3512 619 3512 615L3512 492L3459 492C3456 492 3452 489 3452 484L3452 390C3452 386 3456 382 3459 382L3512 382L3512 140C3512 42 3560 -8 3657 -8C3702 -8 3731 2 3757 17C3763 20 3763 24 3763 26L3763 113C3763 119 3759 122 3755 122C3752 122 3747 119 3742 117C3736 114 3715 105 3688 105C3653 105 3637 121 3637 157L3637 382L3757 382C3762 382 3765 386 3765 390L3765 484C3765 489 3762 492 3757 492ZM4294 559C4299 559 4302 564 4302 567L4302 659C4302 663 4299 666 4296 667C4271 675 4242 679 4206 679C4105 679 4051 622 4051 516L4051 492L3999 492C3995 492 3992 489 3992 485L3992 390C3992 386 3995 382 3999 382L4051 382L4051 9C4051 4 4055 0 4060 0L4168 0C4173 0 4177 4 4177 9L4177 382L4279 382L4434 9C4416 -31 4399 -39 4375 -39C4356 -39 4339 -33 4315 -21C4314 -21 4312 -20 4311 -20C4308 -20 4305 -22 4304 -25L4268 -107C4267 -109 4267 -110 4267 -112C4267 -114 4269 -117 4271 -118C4311 -138 4344 -147 4387 -147C4468 -147 4512 -109 4551 -8L4739 477C4740 479 4741 483 4741 484C4741 489 4736 492 4733 492L4619 492C4616 492 4613 490 4612 487L4496 154L4369 488C4368 490 4364 492 4361 492L4175 492L4175 506C4175 551 4192 571 4230 571C4246 571 4256 569 4273 565C4286 562 4291 559 4294 559ZM3823 492C3820 492 3816 489 3816 484L3816 9C3816 4 3820 0 3823 0L3933 0C3937 0 3940 4 3940 9L3940 484C3940 489 3937 492 3933 492ZM3878 708C3835 708 3801 674 3801 631C3801 587 3835 552 3878 552C3921 552 3957 587 3957 631C3957 674 3921 708 3878 708ZM4833 338C4876 338 4910 373 4910 416C4910 458 4876 492 4833 492C4790 492 4757 457 4757 415C4757 373 4790 338 4833 338ZM4833 484C4873 484 4903 453 4903 416C4903 377 4873 345 4833 345C4794 345 4765 376 4765 415C4765 453 4794 484 4833 484ZM4851 407C4861 411 4870 418 4870 431C4870 448 4857 458 4838 458L4803 458L4803 377L4818 377L4818 404L4834 404L4854 377L4873 377ZM4838 444C4847 444 4854 439 4854 430C4854 423 4847 418 4838 418L4818 418L4818 444ZM1200 -6C1192 -6 1184 -3 1177 1C1070 66 946 100 804 100C754 100 676 95 589 77C579 75 557 69 548 69C522 69 505 90 505 113C505 133 519 150 539 155C631 176 719 187 802 187C983 187 1118 141 1223 76C1236 68 1244 54 1244 39C1244 14 1223 -6 1200 -6ZM1277 181C1267 181 1257 184 1248 189C1124 266 957 307 794 307C741 307 664 302 587 283C549 274 550 270 527 270C495 270 475 295 475 324C475 348 490 370 514 377C603 404 699 417 796 417C978 417 1164 371 1306 284C1323 274 1332 256 1332 237C1332 206 1306 181 1277 181ZM1332 408C1191 492 993 528 812 528C700 528 595 514 512 489C506 487 499 486 493 486C455 486 428 519 428 553C428 581 446 607 475 616C568 644 684 660 806 660C1023 660 1234 617 1399 521C1420 509 1432 487 1432 465C1432 428 1402 399 1365 399C1354 399 1342 402 1332 408ZM210 327C210 -63 527 -378 916 -378C1305 -378 1621 -63 1621 327C1621 717 1305 1033 916 1033C527 1033 210 717 210 327Z"/>
<glyph unicode="&#x1b5;" horiz-adv-x="632" d="M587 0L587 58L117 58L340 339L538 339L538 393L383 393L584 646L584 709L50 709L50 651L510 651L305 393L98 393L98 339L262 339L44 65L44 0Z"/>
<glyph unicode="&#x1b6;" horiz-adv-x="475" d="M429 0L429 54L124 54L262 225L409 225L409 275L303 275L424 424L424 477L53 477L53 423L352 423L231 275L57 275L57 225L190 225L50 53L50 0Z"/>
<glyph unicode="&#x1fa;" horiz-adv-x="694" d="M346 646L493 277L200 277ZM402 767C402 734 378 710 345 710C314 710 290 734 290 767C290 800 314 825 345 825C378 825 402 800 402 767ZM447 767C447 824 401 868 346 868C291 868 246 824 246 767C246 728 267 697 298 680L22 0L90 0L177 219L516 219L604 0L672 0L396 681C426 697 447 729 447 767ZM511 1021L427 1021L320 902L377 902Z"/>
<glyph unicode="&#x1fb;" horiz-adv-x="500" d="M201 -12C288 -12 345 37 367 82C367 43 371 11 373 0L432 0C428 20 425 44 425 82L425 323C425 414 368 489 244 489C142 489 66 429 55 338L111 326C119 395 169 437 245 437C323 437 365 392 365 329C365 307 356 289 315 283L188 264C101 251 45 204 45 123C45 54 101 -12 201 -12ZM208 39C142 39 106 82 106 126C106 178 141 209 197 217L330 237C349 240 362 246 365 249L365 195C365 99 299 39 208 39ZM388 918L310 918L221 779L270 779ZM350 633C350 691 303 738 245 738C188 738 140 691 140 633C140 575 188 528 245 528C303 528 350 575 350 633ZM306 633C306 598 280 570 245 570C210 570 184 598 184 633C184 668 210 696 245 696C280 696 306 668 306 633Z"/>
<glyph unicode="&#x1fc;" horiz-adv-x="979" d="M695 878L611 878L504 759L561 759ZM923 0L923 58L569 58L569 326L892 326L892 384L569 384L569 651L923 651L923 709L472 709L0 0L79 0L222 219L505 219L505 0ZM505 652L505 277L260 277Z"/>
<glyph unicode="&#x1fd;" horiz-adv-x="853" d="M558 676L480 676L391 537L440 537ZM209 38C143 38 107 81 107 126C107 178 141 209 196 217L303 233C325 236 359 245 366 253L366 195C366 98 300 38 209 38ZM428 277C434 365 498 436 587 436C687 436 744 366 746 277ZM202 -13C308 -13 368 45 395 110C435 30 511 -13 597 -13C707 -13 779 54 806 135L753 154C733 91 683 41 597 41C505 41 430 109 426 215L426 227L808 227C809 235 809 241 809 249C808 390 727 490 586 490C516 490 452 456 412 397C388 452 333 490 245 490C143 490 66 431 55 339L113 326C120 395 170 438 246 438C323 438 366 393 366 330C366 308 354 289 316 283L189 264C101 250 45 204 45 123C45 54 102 -13 202 -13Z"/>
<glyph unicode="&#x1fe;" horiz-adv-x="798" d="M52 354C52 235 95 143 160 81L89 -11L132 -43L202 47C260 8 329 -13 398 -13C572 -13 745 117 745 354C745 467 705 556 645 618L722 717L679 749L605 653C545 698 471 722 398 722C224 722 52 591 52 354ZM116 354C116 557 253 664 398 664C459 664 520 645 569 607L197 129C148 181 116 256 116 354ZM681 354C681 152 543 45 398 45C341 45 285 61 238 94L607 570C652 518 681 446 681 354ZM553 878L469 878L362 759L419 759Z"/>
<glyph unicode="&#x1ff;" horiz-adv-x="565" d="M282 490C149 490 48 388 48 238C48 164 73 102 114 58L61 -10L99 -41L151 26C188 1 233 -13 282 -13C414 -13 517 89 517 238C517 310 493 370 454 414L511 487L472 518L417 447C379 475 332 490 282 490ZM108 238C108 363 189 436 282 436C319 436 354 425 383 403L150 104C124 137 108 183 108 238ZM282 41C247 41 214 51 186 70L418 368C442 335 457 291 457 238C457 114 376 41 282 41ZM416 676L338 676L249 537L298 537Z"/>
<glyph unicode="&#x218;" horiz-adv-x="582" d="M523 548C503 638 437 722 292 722C175 722 69 632 69 522C69 421 138 361 233 339L340 314C421 295 467 247 467 181C467 104 404 44 295 44C178 44 109 125 100 217L41 198C53 90 139 -13 295 -13C438 -13 530 77 530 186C530 286 462 350 352 376L244 401C172 418 132 462 132 526C132 609 209 666 294 666C400 666 452 601 467 528ZM253 -84C253 -110 271 -126 295 -126C303 -126 310 -124 314 -120C312 -150 285 -175 251 -178L251 -208C301 -205 350 -169 350 -101C350 -59 323 -42 299 -42C274 -42 253 -59 253 -84Z"/>
<glyph unicode="&#x219;" horiz-adv-x="439" d="M40 125C49 62 108 -13 225 -13C331 -13 391 57 391 128C391 197 346 242 267 260L191 277C142 288 116 312 116 353C116 403 164 437 218 437C294 437 327 392 336 346L389 366C376 423 329 489 218 489C131 489 57 426 57 349C57 280 104 238 174 222L251 204C302 192 332 168 332 124C332 74 285 39 226 39C148 39 104 86 95 144ZM177 -84C177 -110 195 -126 219 -126C227 -126 234 -124 238 -120C236 -150 209 -175 175 -178L175 -208C225 -205 274 -169 274 -101C274 -59 247 -42 223 -42C198 -42 177 -59 177 -84Z"/>
<glyph unicode="&#x21a;" horiz-adv-x="603" d="M254 -84C254 -110 272 -126 296 -126C304 -126 311 -124 315 -120C313 -150 286 -175 252 -178L252 -208C302 -205 351 -169 351 -101C351 -59 324 -42 300 -42C275 -42 254 -59 254 -84ZM584 651L584 709L19 709L19 651L269 651L269 0L333 0L333 651Z"/>
<glyph unicode="&#x21b;" horiz-adv-x="328" d="M177 628L119 628L119 547C119 498 99 477 52 477L16 477L16 423L117 423L117 129C117 57 149 13 203 0L161 -66L185 -95C197 -89 210 -87 222 -87C259 -87 279 -103 279 -128C279 -155 255 -170 217 -170C180 -170 152 -149 137 -131L110 -163C130 -188 171 -210 218 -210C289 -210 326 -174 326 -128C326 -83 291 -52 238 -52C229 -52 222 -53 214 -56L248 -5C274 -4 293 0 301 4L301 57C292 53 275 49 258 49C204 49 177 77 177 135L177 423L301 423L301 477L177 477Z"/>
<glyph unicode="&#x237;" horiz-adv-x="220" d="M80 -63C80 -122 55 -149 2 -149C-14 -149 -28 -147 -39 -143L-39 -194C-29 -199 -12 -203 14 -203C90 -203 140 -152 140 -65L140 477L80 477Z"/>
<glyph unicode="&#x259;" horiz-adv-x="535" d="M425 200C419 112 355 41 266 41C166 41 109 111 107 200ZM100 323C120 386 170 436 256 436C350 436 426 364 427 254L427 250L45 250C44 242 44 236 44 228C45 87 126 -13 267 -13C386 -13 488 87 488 237C488 397 382 490 256 490C146 490 74 423 47 342Z"/>
<glyph unicode="&#x2c6;" horiz-adv-x="382" d="M99 538L191 637L283 538L337 538L227 675L155 675L45 538Z"/>
<glyph unicode="&#x2c7;" horiz-adv-x="374" d="M41 675L151 538L223 538L333 675L279 675L187 576L95 675Z"/>
<glyph unicode="&#x2c9;" horiz-adv-x="344" d="M299 583L299 633L45 633L45 583Z"/>
<glyph unicode="&#x2d8;" horiz-adv-x="370" d="M185 538C276 538 324 608 325 676L278 676C276 633 248 587 185 587C122 587 94 633 92 676L45 676C46 608 94 538 185 538Z"/>
<glyph unicode="&#x2d9;" horiz-adv-x="168" d="M37 607C37 581 58 560 84 560C110 560 131 581 131 607C131 633 110 654 84 654C58 654 37 633 37 607Z"/>
<glyph unicode="&#x2da;" horiz-adv-x="300" d="M255 635C255 693 208 740 150 740C93 740 45 693 45 635C45 577 93 530 150 530C208 530 255 577 255 635ZM211 635C211 600 185 572 150 572C115 572 89 600 89 635C89 670 115 698 150 698C185 698 211 670 211 635Z"/>
<glyph unicode="&#x2db;" horiz-adv-x="230" d="M41 -117C41 -176 87 -210 144 -210C164 -210 177 -207 189 -202L189 -158C180 -161 169 -163 155 -163C121 -163 92 -144 92 -106C92 -56 138 -19 175 0L134 12C91 -12 41 -52 41 -117Z"/>
<glyph unicode="&#x2dc;" horiz-adv-x="393" d="M348 659L301 659C301 620 288 603 263 603C246 603 234 610 219 621L201 634C181 649 158 661 130 661C82 661 45 627 45 566L45 554L92 554C92 591 104 609 130 609C149 609 163 600 179 589L200 574C218 561 239 551 265 551C310 551 348 585 348 648Z"/>
<glyph unicode="&#x2dd;" horiz-adv-x="330" d="M285 676L218 676L151 537L195 537ZM179 676L112 676L45 537L89 537Z"/>
<glyph unicode="&#x394;" horiz-adv-x="686" d="M24 0L663 0L379 709L307 709ZM343 642L572 58L114 58Z"/>
<glyph unicode="&#x3a9;" horiz-adv-x="820" d="M410 665C558 665 699 555 699 376C699 215 581 106 457 83L457 0L753 0L753 55L531 55C652 93 763 210 763 376C763 586 596 722 410 722C223 722 57 586 57 376C57 210 168 93 289 55L67 55L67 0L363 0L363 83C239 106 121 215 121 376C121 555 262 665 410 665Z"/>
</font>
</defs>
</svg>
