<?xml version="1.0" encoding="UTF-8" standalone="no"?>
<!DOCTYPE svg PUBLIC "-//W3C//DTD SVG 1.1//EN" "http://www.w3.org/Graphics/SVG/1.1/DTD/svg11.dtd" >
<svg xmlns="http://www.w3.org/2000/svg">
<metadata>
This is a SVG font generated by e-font.
</metadata>
<defs>
<font id="CircularSpotifyTextMedium" horiz-adv-x="572" >
<font-face units-per-em="1000" ascent="1033" descent="-378" />
<missing-glyph horiz-adv-x="572" />
<glyph unicode="&#x20;" horiz-adv-x="242" />
<glyph unicode="&#x21;" horiz-adv-x="264" d="M202 709L61 709L90 210L174 210ZM59 66C59 26 91 -7 131 -7C172 -7 205 26 205 66C205 106 172 140 131 140C91 140 59 106 59 66Z"/>
<glyph unicode="&#x22;" horiz-adv-x="401" d="M42 651C42 644 44 633 45 628L89 443L131 443L176 629C177 634 179 644 179 651C179 691 150 721 111 721C70 721 42 691 42 651ZM221 651C221 644 224 633 225 628L269 443L311 443L356 629C357 634 358 644 358 651C358 691 330 721 290 721C250 721 221 691 221 651Z"/>
<glyph unicode="&#x23;" horiz-adv-x="730" d="M412 262L275 262L309 431L447 431ZM361 0L459 0L493 175L645 175L645 262L510 262L543 431L695 431L695 518L560 518L598 709L500 709L462 518L324 518L363 709L267 709L228 518L84 518L84 431L213 431L178 262L35 262L35 175L162 175L128 0L224 0L258 175L396 175Z"/>
<glyph unicode="&#x24;" horiz-adv-x="578" d="M344 -115L344 3C469 21 540 110 540 206C540 302 473 378 353 402L254 422C199 434 172 465 172 510C172 563 221 605 290 605C380 605 416 548 425 501L529 532C514 605 461 687 344 705L344 825L252 825L252 706C143 690 58 609 58 501C58 402 125 332 230 311L331 290C389 278 423 245 423 198C423 144 378 102 299 102C196 102 145 169 138 241L32 213C42 122 109 21 252 3L252 -115Z"/>
<glyph unicode="&#x25;" horiz-adv-x="835" d="M240 0L700 709L594 709L133 0ZM359 559C359 649 284 719 195 719C107 719 32 649 32 559C32 468 106 398 195 398C284 398 359 467 359 559ZM124 559C124 601 155 631 195 631C236 631 266 601 266 559C266 515 236 485 195 485C155 485 124 515 124 559ZM475 151C475 60 550 -10 638 -10C727 -10 803 59 803 151C803 241 727 311 639 311C550 311 475 241 475 151ZM709 151C709 108 679 77 639 77C599 77 568 107 568 151C568 193 599 224 639 224C679 224 709 193 709 151Z"/>
<glyph unicode="&#x26;" horiz-adv-x="694" d="M530 0L685 0L525 167L622 274L622 424L453 242L335 365L366 388C416 426 466 478 466 548C466 654 383 724 272 724C180 724 82 660 82 543C82 477 129 422 163 387L175 374L168 369C94 314 45 264 45 173C45 80 119 -13 256 -13C333 -13 395 25 450 84ZM258 92C200 92 164 137 164 181C164 227 188 256 222 281L246 299L377 160L376 159C340 120 305 92 258 92ZM196 550C196 601 236 626 273 626C319 626 352 592 352 550C352 523 341 497 304 469L263 439L243 461C218 488 196 516 196 550Z"/>
<glyph unicode="&#x27;" horiz-adv-x="221" d="M42 651C42 644 44 633 45 628L89 443L131 443L176 629C177 634 179 644 179 651C179 691 150 721 111 721C70 721 42 691 42 651Z"/>
<glyph unicode="&#x28;" horiz-adv-x="325" d="M43 320C43 96 132 -56 244 -168L312 -107C208 7 141 141 141 320C141 498 208 632 312 746L244 808C132 696 43 544 43 320Z"/>
<glyph unicode="&#x29;" horiz-adv-x="325" d="M282 320C282 544 194 696 81 808L13 746C118 632 184 498 184 320C184 141 118 7 13 -107L81 -168C194 -56 282 96 282 320Z"/>
<glyph unicode="&#x2a;" horiz-adv-x="459" d="M276 709L182 709L182 578L63 619L34 533L155 493L79 392L153 338L228 442L308 337L381 391L303 493L424 533L395 619L276 579Z"/>
<glyph unicode="&#x2b;" horiz-adv-x="552" d="M325 592L226 592L226 397L38 397L38 301L226 301L226 104L325 104L325 301L514 301L514 397L325 397Z"/>
<glyph unicode="&#x2c;" horiz-adv-x="276" d="M51 73C51 27 83 -3 127 -3C140 -3 147 0 151 2C150 -50 108 -96 62 -106L62 -165C130 -156 225 -97 225 43C225 107 187 149 134 149C87 149 51 115 51 73Z"/>
<glyph unicode="&#x2d;" horiz-adv-x="410" d="M346 241L346 344L64 344L64 241Z"/>
<glyph unicode="&#x2e;" horiz-adv-x="264" d="M51 75C51 30 87 -6 132 -6C177 -6 214 30 214 75C214 120 177 157 132 157C87 157 51 120 51 75Z"/>
<glyph unicode="&#x2f;" horiz-adv-x="503" d="M478 709L371 709L26 0L133 0Z"/>
<glyph unicode="&#x30;" horiz-adv-x="669" d="M50 354C50 259 66 170 113 100C160 30 231 -15 334 -15C438 -15 510 30 556 100C603 170 619 259 619 354C619 449 603 539 556 609C510 678 438 724 334 724C231 724 159 678 113 609C65 539 50 449 50 354ZM168 354C168 452 185 525 223 568C249 598 283 618 334 618C385 618 419 598 445 568C483 524 500 452 500 354C500 256 483 184 445 140C419 110 385 90 334 90C283 90 249 110 223 140C185 183 168 256 168 354Z"/>
<glyph unicode="&#x31;" horiz-adv-x="383" d="M312 0L312 709L207 709C192 634 123 579 23 576L23 493L194 493L194 0Z"/>
<glyph unicode="&#x32;" horiz-adv-x="598" d="M171 447C170 459 168 471 168 482C168 558 209 619 297 619C381 619 422 563 422 502C422 449 393 402 329 362L212 287C90 210 46 119 44 0L547 0L547 108L192 108C202 147 233 174 270 197L409 285C491 336 543 411 543 504C543 623 453 724 300 724C142 724 51 615 51 493C51 481 52 468 54 458Z"/>
<glyph unicode="&#x33;" horiz-adv-x="616" d="M247 325C265 333 287 338 309 338C375 338 445 301 445 213C445 145 395 88 304 88C223 88 160 145 156 233L39 208C47 91 142 -15 305 -15C472 -15 566 93 566 213C566 354 456 427 351 429L548 606L548 709L62 709L62 602L392 602L190 419Z"/>
<glyph unicode="&#x34;" horiz-adv-x="637" d="M29 157L372 157L372 0L489 0L489 157L608 157L608 264L489 264L489 709L330 709L29 290ZM372 264L137 264L372 591Z"/>
<glyph unicode="&#x35;" horiz-adv-x="600" d="M31 196C41 85 143 -15 295 -15C456 -15 558 94 558 227C558 375 457 462 317 462C265 462 209 445 178 412L226 602L526 602L526 709L146 709L56 354L171 311C199 341 244 361 294 361C370 361 438 315 438 223C438 141 374 88 295 88C210 88 151 146 145 226Z"/>
<glyph unicode="&#x36;" horiz-adv-x="633" d="M571 686C540 708 485 724 420 724C207 724 48 571 48 311C48 84 185 -15 327 -15C471 -15 592 78 592 228C592 378 492 467 351 467C259 467 196 425 168 380C179 520 272 618 413 618C464 618 509 603 537 589ZM183 227C183 315 250 367 327 367C405 367 472 315 472 227C472 139 405 87 327 87C253 87 183 140 183 227Z"/>
<glyph unicode="&#x37;" horiz-adv-x="560" d="M546 709L23 709L23 602L411 602C411 602 159 402 127 0L251 0C284 369 484 550 546 600Z"/>
<glyph unicode="&#x38;" horiz-adv-x="617" d="M308 -15C471 -15 568 73 568 188C568 272 511 338 436 363C504 387 551 453 551 525C551 642 447 724 308 724C170 724 67 642 67 525C67 452 115 387 180 363C105 337 49 272 49 188C49 73 147 -15 308 -15ZM308 409C236 411 185 455 185 519C185 577 233 625 308 625C384 625 431 577 431 519C431 455 381 411 308 409ZM308 86C218 86 169 138 169 199C169 262 219 314 308 314C398 314 448 262 448 199C448 138 398 86 308 86Z"/>
<glyph unicode="&#x39;" horiz-adv-x="631" d="M447 482C447 395 378 341 303 341C226 341 160 393 160 482C160 567 228 620 303 620C377 620 447 566 447 482ZM60 25C95 2 167 -15 224 -15C462 -15 582 138 582 396C582 621 448 724 304 724C161 724 41 624 41 479C41 326 160 240 285 240C375 240 436 280 462 326C457 190 382 91 223 91C176 91 125 106 95 123Z"/>
<glyph unicode="&#x3a;" horiz-adv-x="289" d="M64 74C64 30 100 -6 145 -6C189 -6 226 30 226 74C226 119 189 155 145 155C100 155 64 119 64 74ZM63 412C63 368 99 332 144 332C188 332 225 368 225 412C225 457 188 493 144 493C99 493 63 457 63 412Z"/>
<glyph unicode="&#x3b;" horiz-adv-x="296" d="M66 69C66 26 97 -3 139 -3C151 -3 158 0 161 2C160 -47 121 -91 77 -101L77 -157C141 -148 232 -92 232 41C232 102 196 142 145 142C101 142 66 109 66 69ZM65 412C65 368 101 332 146 332C190 332 227 368 227 412C227 457 190 493 146 493C101 493 65 457 65 412Z"/>
<glyph unicode="&#x3c;" horiz-adv-x="526" d="M155 350L456 496L456 608L34 395L34 301L456 90L456 202Z"/>
<glyph unicode="&#x3d;" horiz-adv-x="605" d="M540 401L540 495L65 495L65 401ZM540 203L540 299L65 299L65 203Z"/>
<glyph unicode="&#x3e;" horiz-adv-x="528" d="M70 201L70 90L493 302L493 395L70 608L70 496L373 348Z"/>
<glyph unicode="&#x3f;" horiz-adv-x="520" d="M295 210C294 216 294 221 294 223C294 262 311 295 344 318L387 348C445 389 487 445 487 524C487 626 407 724 259 724C108 724 33 615 33 515C33 499 35 483 39 469L152 461C148 472 146 491 146 506C146 563 185 620 259 620C332 620 367 571 367 519C367 485 353 456 320 432L274 399C216 357 193 308 193 248C193 234 194 223 195 210ZM173 66C173 26 205 -7 246 -7C286 -7 319 26 319 66C319 106 286 140 246 140C205 140 173 106 173 66Z"/>
<glyph unicode="&#x40;" horiz-adv-x="830" d="M599 138C703 139 796 246 796 397C796 584 642 724 438 724C224 724 47 565 47 332C47 105 214 -47 448 -47C530 -47 630 -15 686 37L641 98C583 54 515 34 448 34C254 34 139 162 139 332C139 518 267 642 439 642C600 642 709 539 709 396C709 297 659 217 606 217C581 217 572 235 572 255C572 261 574 271 575 276L628 524L540 524L531 476C516 518 470 537 430 537C323 537 232 440 232 308C232 206 296 136 384 136C428 136 474 158 501 200C511 162 548 138 599 138ZM509 368C507 281 463 219 402 219C348 219 325 261 325 315C325 380 365 453 434 453C483 453 509 421 509 368Z"/>
<glyph unicode="&#x41;" horiz-adv-x="717" d="M573 0L704 0L428 709L289 709L13 0L140 0L206 178L506 178ZM356 579L464 289L248 289Z"/>
<glyph unicode="&#x42;" horiz-adv-x="619" d="M89 709L89 0L351 0C483 0 571 82 571 196C571 280 519 345 444 365C505 387 549 443 549 518C549 629 469 709 333 709ZM208 409L208 607L314 607C387 607 429 568 429 508C429 449 387 409 317 409ZM208 102L208 308L334 308C408 308 449 265 449 204C449 141 402 102 330 102Z"/>
<glyph unicode="&#x43;" horiz-adv-x="751" d="M402 -15C583 -15 691 100 723 220L613 256C589 176 521 100 402 100C281 100 167 188 167 354C167 526 284 611 401 611C520 611 586 542 607 456L720 494C688 618 581 724 401 724C217 724 44 585 44 354C44 123 211 -15 402 -15Z"/>
<glyph unicode="&#x44;" horiz-adv-x="731" d="M209 110L209 599L336 599C459 599 560 519 560 353C560 189 458 110 335 110ZM339 0C531 0 685 126 685 353C685 581 533 709 340 709L89 709L89 0Z"/>
<glyph unicode="&#x45;" horiz-adv-x="580" d="M527 0L527 112L209 112L209 300L497 300L497 409L209 409L209 597L527 597L527 709L89 709L89 0Z"/>
<glyph unicode="&#x46;" horiz-adv-x="571" d="M209 0L209 286L497 286L497 397L209 397L209 596L530 596L530 709L89 709L89 0Z"/>
<glyph unicode="&#x47;" horiz-adv-x="776" d="M716 0L716 359L369 359L369 254L603 254C597 193 543 95 400 95C278 95 166 182 166 355C166 531 286 613 401 613C514 613 584 545 608 465L721 508C683 625 573 724 401 724C217 724 44 588 44 355C44 121 208 -15 393 -15C506 -15 579 38 610 90L619 0Z"/>
<glyph unicode="&#x48;" horiz-adv-x="752" d="M663 0L663 709L542 709L542 416L209 416L209 709L89 709L89 0L209 0L209 303L542 303L542 0Z"/>
<glyph unicode="&#x49;" horiz-adv-x="300" d="M211 0L211 709L89 709L89 0Z"/>
<glyph unicode="&#x4a;" horiz-adv-x="556" d="M24 214C24 76 112 -15 251 -15C386 -15 474 90 474 216L474 709L354 709L354 213C354 141 314 98 250 98C188 98 141 135 141 218L141 284L24 260Z"/>
<glyph unicode="&#x4b;" horiz-adv-x="677" d="M524 0L675 0L385 396L672 709L514 709L209 369L209 709L89 709L89 0L209 0L209 204L303 307Z"/>
<glyph unicode="&#x4c;" horiz-adv-x="551" d="M534 0L534 114L209 114L209 709L89 709L89 0Z"/>
<glyph unicode="&#x4d;" horiz-adv-x="958" d="M869 0L869 709L706 709L479 168L249 709L89 709L89 0L206 0L206 520L425 0L529 0L750 522L750 0Z"/>
<glyph unicode="&#x4e;" horiz-adv-x="773" d="M684 0L684 709L564 709L564 206L242 709L89 709L89 0L209 0L209 537L559 0Z"/>
<glyph unicode="&#x4f;" horiz-adv-x="809" d="M167 355C167 526 285 611 404 611C524 611 642 526 642 355C642 184 524 99 404 99C285 99 167 184 167 355ZM44 355C44 122 218 -15 404 -15C590 -15 765 122 765 355C765 587 590 724 404 724C218 724 44 587 44 355Z"/>
<glyph unicode="&#x50;" horiz-adv-x="605" d="M209 383L209 603L334 603C410 603 456 560 456 492C456 425 410 383 334 383ZM352 277C488 277 578 368 578 493C578 617 488 709 352 709L89 709L89 0L209 0L209 277Z"/>
<glyph unicode="&#x51;" horiz-adv-x="809" d="M44 355C44 122 218 -15 404 -15C469 -15 534 2 589 34L676 -61L757 8L673 102C729 164 765 250 765 355C765 587 590 724 404 724C218 724 44 587 44 355ZM167 355C167 526 285 611 404 611C524 611 642 526 642 355C642 286 623 232 593 191L475 322L393 252L510 122C477 106 440 99 404 99C285 99 167 184 167 355Z"/>
<glyph unicode="&#x52;" horiz-adv-x="630" d="M447 0L583 0L423 292C522 316 583 393 583 494C583 614 498 709 361 709L89 709L89 0L210 0L210 280L298 280ZM210 386L210 603L339 603C413 603 461 560 461 494C461 429 413 386 339 386Z"/>
<glyph unicode="&#x53;" horiz-adv-x="602" d="M551 543C535 622 470 724 303 724C171 724 62 626 62 507C62 401 134 330 242 308L342 287C403 274 437 237 437 191C437 136 393 93 308 93C206 93 153 161 146 235L34 203C45 101 128 -15 308 -15C470 -15 559 90 559 200C559 300 492 379 367 404L265 425C210 437 182 471 182 516C182 570 232 618 304 618C399 618 436 553 443 509Z"/>
<glyph unicode="&#x54;" horiz-adv-x="615" d="M598 596L598 709L17 709L17 596L247 596L247 0L367 0L367 596Z"/>
<glyph unicode="&#x55;" horiz-adv-x="693" d="M346 -15C495 -15 611 76 611 247L611 709L491 709L491 254C491 154 437 99 346 99C256 99 201 154 201 254L201 709L82 709L82 247C82 76 198 -15 346 -15Z"/>
<glyph unicode="&#x56;" horiz-adv-x="682" d="M343 157L145 709L15 709L279 0L401 0L669 709L542 709Z"/>
<glyph unicode="&#x57;" horiz-adv-x="1032" d="M748 187L579 709L454 709L288 191L146 709L20 709L221 0L344 0L516 536L688 0L812 0L1011 709L887 709Z"/>
<glyph unicode="&#x58;" horiz-adv-x="639" d="M628 709L487 709L321 449L156 709L12 709L247 355L10 0L151 0L318 259L483 0L627 0L392 354Z"/>
<glyph unicode="&#x59;" horiz-adv-x="651" d="M265 300L265 0L385 0L385 300L635 709L500 709L329 412L159 709L17 709Z"/>
<glyph unicode="&#x5a;" horiz-adv-x="639" d="M595 0L595 114L192 114L590 595L590 709L53 709L53 596L435 596L42 118L42 0Z"/>
<glyph unicode="&#x5b;" horiz-adv-x="311" d="M284 -157L284 -66L168 -66L168 709L284 709L284 799L70 799L70 -157Z"/>
<glyph unicode="&#x5c;" horiz-adv-x="503" d="M370 0L477 0L132 709L25 709Z"/>
<glyph unicode="&#x5d;" horiz-adv-x="311" d="M241 -157L241 799L27 799L27 709L143 709L143 -66L27 -66L27 -157Z"/>
<glyph unicode="&#x5e;" horiz-adv-x="558" d="M522 352L326 710L232 710L36 352L150 352L280 596L409 352Z"/>
<glyph unicode="&#x5f;" horiz-adv-x="521" d="M516 -96L516 0L5 0L5 -96Z"/>
<glyph unicode="&#x60;" horiz-adv-x="285" d="M161 548L256 548L168 696L29 696Z"/>
<glyph unicode="&#x61;" horiz-adv-x="531" d="M41 132C41 55 104 -15 206 -15C285 -15 333 25 356 62C356 23 360 3 361 0L469 0C468 5 463 34 463 78L463 320C463 417 406 502 256 502C136 502 60 427 51 343L157 319C162 368 196 407 257 407C321 407 349 374 349 333C349 316 341 302 313 298L188 279C105 267 41 219 41 132ZM228 76C182 76 157 106 157 139C157 179 186 199 222 205L349 224L349 202C349 107 293 76 228 76Z"/>
<glyph unicode="&#x62;" horiz-adv-x="606" d="M185 0L185 65C213 18 266 -12 335 -12C477 -12 564 99 564 246C564 389 485 500 339 500C264 500 208 465 186 427L186 724L72 724L72 0ZM447 245C447 149 392 91 316 91C242 91 185 149 185 245C185 342 242 397 316 397C393 397 447 342 447 245Z"/>
<glyph unicode="&#x63;" horiz-adv-x="549" d="M291 395C365 395 398 347 409 304L513 342C493 420 421 502 290 502C150 502 41 394 41 244C41 96 150 -15 293 -15C421 -15 494 68 517 144L415 181C404 144 369 91 293 91C220 91 157 146 157 244C157 342 220 395 291 395Z"/>
<glyph unicode="&#x64;" horiz-adv-x="601" d="M157 245C157 338 213 397 289 397C365 397 417 339 417 246C417 153 364 90 288 90C209 90 157 152 157 245ZM529 724L416 724L416 430C401 461 358 500 273 500C136 500 41 385 41 245C41 98 135 -12 275 -12C344 -12 395 22 418 63C418 43 421 11 423 0L534 0C533 8 529 45 529 89Z"/>
<glyph unicode="&#x65;" horiz-adv-x="557" d="M160 297C164 349 206 405 279 405C359 405 397 354 399 297ZM412 170C396 122 360 85 290 85C218 85 160 138 157 212L513 212C514 214 516 230 516 249C516 403 428 502 278 502C155 502 41 400 41 246C41 81 158 -15 290 -15C407 -15 484 54 510 139Z"/>
<glyph unicode="&#x66;" horiz-adv-x="363" d="M302 625C324 625 337 622 344 620L344 719C336 723 312 729 283 729C183 729 113 663 113 554L113 487L28 487L28 386L113 386L113 0L230 0L230 386L343 386L343 487L230 487L230 551C230 611 271 625 302 625Z"/>
<glyph unicode="&#x67;" horiz-adv-x="595" d="M41 -27C54 -125 144 -205 273 -205C456 -205 523 -84 523 46L523 487L411 487L411 425C390 465 343 496 267 496C133 496 42 389 42 259C42 122 137 22 267 22C338 22 387 55 408 93L408 42C408 -57 362 -104 270 -104C203 -104 156 -59 148 1ZM286 121C210 121 159 174 159 259C159 342 212 396 286 396C358 396 411 342 411 259C411 175 360 121 286 121Z"/>
<glyph unicode="&#x68;" horiz-adv-x="572" d="M188 286C190 348 225 396 289 396C362 396 389 348 389 288L389 0L505 0L505 308C505 415 447 501 327 501C276 501 221 483 188 440L188 724L72 724L72 0L188 0Z"/>
<glyph unicode="&#x69;" horiz-adv-x="259" d="M187 0L187 487L72 487L72 0ZM54 658C54 616 88 583 129 583C171 583 205 616 205 658C205 700 171 734 129 734C88 734 54 700 54 658Z"/>
<glyph unicode="&#x6a;" horiz-adv-x="260" d="M72 -40C72 -80 56 -103 12 -103C-1 -103 -18 -101 -23 -100L-23 -196C-18 -198 4 -205 43 -205C133 -205 188 -140 188 -49L188 487L72 487ZM54 659C54 618 88 584 129 584C171 584 205 618 205 659C205 701 171 735 129 735C88 735 54 701 54 659Z"/>
<glyph unicode="&#x6b;" horiz-adv-x="544" d="M528 487L374 487L187 290L187 724L72 724L72 0L187 0L187 136L247 199L390 0L532 0L328 281Z"/>
<glyph unicode="&#x6c;" horiz-adv-x="260" d="M188 0L188 724L72 724L72 0Z"/>
<glyph unicode="&#x6d;" horiz-adv-x="870" d="M187 0L187 289C187 351 226 397 288 397C354 397 382 353 382 297L382 0L496 0L496 289C496 349 536 397 597 397C662 397 691 354 691 297L691 0L803 0L803 316C803 445 719 501 631 501C568 501 511 479 473 415C447 472 391 501 327 501C272 501 211 475 183 425L183 487L72 487L72 0Z"/>
<glyph unicode="&#x6e;" horiz-adv-x="572" d="M188 281C188 345 223 396 289 396C362 396 389 348 389 288L389 0L505 0L505 308C505 415 448 501 329 501C275 501 217 478 185 422L185 487L72 487L72 0L188 0Z"/>
<glyph unicode="&#x6f;" horiz-adv-x="587" d="M293 89C222 89 157 143 157 244C157 345 222 397 293 397C365 397 429 345 429 244C429 142 365 89 293 89ZM293 502C148 502 41 393 41 244C41 94 148 -15 293 -15C439 -15 546 94 546 244C546 393 439 502 293 502Z"/>
<glyph unicode="&#x70;" horiz-adv-x="606" d="M187 -190L187 55C212 18 265 -12 335 -12C475 -12 564 98 564 244C564 388 483 498 339 498C264 498 208 463 184 421L184 487L72 487L72 -190ZM448 244C448 151 394 91 317 91C241 91 186 151 186 244C186 335 241 395 317 395C395 395 448 335 448 244Z"/>
<glyph unicode="&#x71;" horiz-adv-x="605" d="M533 -190L533 487L422 487L422 422C405 457 358 499 273 499C131 499 42 385 42 245C42 100 137 -12 276 -12C344 -12 395 15 419 58L419 -190ZM159 245C159 338 212 396 289 396C365 396 420 338 420 245C420 152 365 90 289 90C213 90 159 152 159 245Z"/>
<glyph unicode="&#x72;" horiz-adv-x="377" d="M357 490C352 491 340 493 326 493C262 493 208 462 185 409L185 487L72 487L72 0L188 0L188 232C188 323 229 375 319 375C331 375 344 374 357 372Z"/>
<glyph unicode="&#x73;" horiz-adv-x="465" d="M38 132C44 77 98 -15 239 -15C363 -15 423 67 423 141C423 213 375 269 283 289L209 304C179 310 160 329 160 355C160 385 189 411 230 411C295 411 316 366 320 338L418 366C410 414 366 502 230 502C129 502 51 430 51 345C51 278 96 222 182 203L254 187C293 179 311 159 311 133C311 103 286 77 238 77C176 77 143 116 139 160Z"/>
<glyph unicode="&#x74;" horiz-adv-x="365" d="M225 636L120 636L120 563C120 520 97 487 45 487L20 487L20 384L110 384L110 139C110 48 166 -6 256 -6C298 -6 320 2 327 5L327 101C322 100 303 97 287 97C244 97 225 115 225 158L225 384L326 384L326 487L225 487Z"/>
<glyph unicode="&#x75;" horiz-adv-x="571" d="M389 54C389 34 391 11 393 0L504 0C502 18 499 49 499 89L499 487L383 487L383 199C383 135 348 90 281 90C211 90 183 141 183 201L183 487L67 487L67 180C67 72 135 -14 251 -14C308 -14 365 10 389 54Z"/>
<glyph unicode="&#x76;" horiz-adv-x="541" d="M521 487L399 487L273 139L144 487L16 487L214 0L330 0Z"/>
<glyph unicode="&#x77;" horiz-adv-x="825" d="M356 487L241 150L142 487L18 487L176 0L295 0L413 350L534 0L650 0L806 487L688 487L591 150L476 487Z"/>
<glyph unicode="&#x78;" horiz-adv-x="522" d="M16 0L149 0C158 15 249 148 259 163L372 0L508 0L331 248L502 487L370 487L264 331C255 345 166 472 157 487L19 487L193 246Z"/>
<glyph unicode="&#x79;" horiz-adv-x="551" d="M230 -197L540 487L417 487L286 179L146 487L15 487L223 58L106 -197Z"/>
<glyph unicode="&#x7a;" horiz-adv-x="488" d="M443 0L443 102L188 102L438 389L438 487L50 487L50 385L292 385L45 101L45 0Z"/>
<glyph unicode="&#x7b;" horiz-adv-x="356" d="M14 273C71 273 119 247 119 176L119 37C119 -91 188 -153 306 -153L329 -153L329 -64L307 -64C247 -64 217 -37 217 32L217 198C217 263 179 308 115 323C179 337 217 382 217 447L217 613C217 682 247 710 307 710L329 710L329 799L306 799C188 799 119 737 119 609L119 469C119 399 71 373 14 373Z"/>
<glyph unicode="&#x7c;" horiz-adv-x="238" d="M168 -153L168 799L70 799L70 -153Z"/>
<glyph unicode="&#x7d;" horiz-adv-x="356" d="M342 373C285 373 237 399 237 469L237 609C237 737 168 799 50 799L27 799L27 710L49 710C109 710 139 682 139 613L139 447C139 382 177 337 241 323C177 308 139 263 139 198L139 32C139 -37 109 -64 49 -64L27 -64L27 -153L50 -153C168 -153 237 -91 237 37L237 176C237 247 285 273 342 273Z"/>
<glyph unicode="&#x7e;" horiz-adv-x="628" d="M313 236C348 217 382 208 415 208C479 208 536 242 573 307L507 360C485 326 452 307 417 307C399 307 380 312 362 322L316 347C282 366 248 374 215 374C151 374 93 339 56 274L122 221C147 255 179 275 214 275C231 275 248 270 266 261Z"/>
<glyph unicode="&#xa0;" horiz-adv-x="242" />
<glyph unicode="&#xa1;" horiz-adv-x="252" d="M168 285L85 285L55 -213L197 -213ZM53 429C53 388 86 356 126 356C166 356 200 388 200 429C200 469 166 502 126 502C86 502 53 469 53 429Z"/>
<glyph unicode="&#xa2;" horiz-adv-x="560" d="M298 201C219 201 159 258 159 351C159 444 219 502 297 502C370 502 406 456 418 411L521 446C502 522 441 589 344 605L344 709L252 709L252 606C132 587 44 487 44 351C44 215 132 117 252 97L252 0L344 0L344 96C442 113 505 183 524 257L423 292C410 248 371 201 298 201Z"/>
<glyph unicode="&#xa3;" horiz-adv-x="610" d="M436 304L436 395L245 395C232 434 215 470 215 512C215 587 260 622 320 622C383 622 424 578 427 512L529 533C526 625 463 723 320 723C182 723 99 632 99 519C99 473 114 431 127 395L59 395L59 304L155 304C159 287 161 273 161 256C161 181 114 124 53 96L53 0L387 0C504 0 574 80 576 196L473 208C471 146 433 103 371 103L197 103C244 136 273 198 273 264C273 281 271 291 269 304Z"/>
<glyph unicode="&#xa4;" horiz-adv-x="612" d="M487 98L559 169L489 240C510 271 524 312 524 355C524 398 510 439 488 471L559 543L487 614L414 540C383 558 346 568 308 568C268 568 231 557 198 537L124 614L52 543L126 468C105 436 93 397 93 355C93 313 105 274 125 243L52 169L123 98L197 173C229 153 267 141 308 141C347 141 384 152 416 171ZM192 355C192 423 242 470 308 470C374 470 423 423 423 355C423 286 374 238 308 238C242 238 192 286 192 355Z"/>
<glyph unicode="&#xa5;" horiz-adv-x="657" d="M386 0L386 144L571 144L571 229L386 229L386 299L571 299L571 384L431 384L627 709L499 709L332 415L163 709L30 709L223 384L85 384L85 299L270 299L270 229L85 229L85 144L270 144L270 0Z"/>
<glyph unicode="&#xa6;" horiz-adv-x="250" d="M76 799L76 400L174 400L174 799ZM76 245L76 -154L174 -154L174 245Z"/>
<glyph unicode="&#xa7;" horiz-adv-x="522" d="M464 249C464 338 398 383 324 421L223 473C190 490 172 516 172 546C172 593 209 626 263 626C323 626 358 587 358 519L467 539C465 644 392 723 264 723C156 723 56 651 56 537C56 481 84 431 138 394C99 374 58 330 58 270C58 180 123 136 197 98L299 46C330 30 349 3 349 -28C349 -78 312 -108 260 -108C197 -108 163 -67 163 0L55 -20C58 -130 131 -205 259 -205C367 -205 466 -132 466 -18C466 36 437 88 385 125C423 145 464 189 464 249ZM304 304C342 283 356 260 356 228C356 199 339 177 317 162L217 215C178 235 165 259 165 291C165 319 181 342 203 357Z"/>
<glyph unicode="&#xa8;" horiz-adv-x="393" d="M32 625C32 588 60 560 96 560C133 560 162 588 162 625C162 661 133 690 96 690C60 690 32 661 32 625ZM232 625C232 588 260 560 296 560C332 560 361 588 361 625C361 661 332 690 296 690C260 690 232 661 232 625Z"/>
<glyph unicode="&#xa9;" horiz-adv-x="824" d="M127 355C127 520 251 648 411 648C570 648 695 520 695 355C695 189 570 61 411 61C251 61 127 189 127 355ZM45 355C45 151 208 -15 411 -15C614 -15 779 151 779 355C779 558 614 724 411 724C208 724 45 558 45 355ZM414 473C472 473 498 436 506 402L588 432C573 493 516 558 413 558C303 558 217 473 217 355C217 238 303 151 415 151C516 151 573 216 591 276L511 305C503 276 475 235 415 235C358 235 308 278 308 355C308 432 358 473 414 473Z"/>
<glyph unicode="&#xaa;" horiz-adv-x="411" d="M260 507C260 443 223 423 182 423C150 423 134 444 134 465C134 492 153 504 178 508L260 522ZM46 460C46 405 90 356 164 356C215 356 249 381 266 408C266 387 268 373 269 366L351 366C350 371 347 397 347 421L347 590C347 659 307 720 199 720C109 720 59 663 53 607L132 590C135 622 159 649 199 649C241 649 260 626 260 600C260 588 254 579 235 576L149 564C92 556 46 520 46 460Z"/>
<glyph unicode="&#xab;" horiz-adv-x="534" d="M282 100L149 292L283 487L172 487L36 293L171 100ZM489 100L356 292L490 487L379 487L243 293L378 100Z"/>
<glyph unicode="&#xac;" horiz-adv-x="591" d="M523 199L523 492L45 492L45 394L422 394L422 199Z"/>
<glyph unicode="&#xad;" horiz-adv-x="410" d="M346 241L346 344L64 344L64 241Z"/>
<glyph unicode="&#xae;" horiz-adv-x="824" d="M45 355C45 151 208 -15 411 -15C614 -15 779 151 779 355C779 558 614 724 411 724C208 724 45 558 45 355ZM127 355C127 520 251 648 411 648C570 648 695 520 695 355C695 189 570 61 411 61C251 61 127 189 127 355ZM474 157L572 157L487 312C536 331 569 375 569 430C569 501 510 558 432 558L283 558L283 157L369 157L369 301L398 301ZM369 374L369 485L418 485C458 485 481 464 481 429C481 395 458 374 418 374Z"/>
<glyph unicode="&#xaf;" horiz-adv-x="338" d="M308 577L308 667L30 667L30 577Z"/>
<glyph unicode="&#xb0;" horiz-adv-x="402" d="M201 487C161 487 130 517 130 561C130 603 161 634 201 634C241 634 271 603 271 561C271 518 241 487 201 487ZM37 561C37 471 112 400 200 400C289 400 365 469 365 561C365 651 289 722 201 722C112 722 37 651 37 561Z"/>
<glyph unicode="&#xb1;" horiz-adv-x="593" d="M524 368L524 463L346 463L346 592L246 592L246 463L69 463L69 368L246 368L246 241L346 241L346 368ZM524 104L524 200L69 200L69 104Z"/>
<glyph unicode="&#xb2;" horiz-adv-x="351" d="M124 567C122 575 121 586 121 591C121 622 141 643 173 643C206 643 222 621 222 599C222 578 208 559 181 543L121 507C58 469 34 418 34 355L34 343L315 343L315 419L146 419C148 428 156 437 166 444L237 487C284 515 312 551 312 598C312 662 262 717 175 717C86 717 37 661 37 596C37 587 38 576 40 566Z"/>
<glyph unicode="&#xb3;" horiz-adv-x="363" d="M27 444C37 389 88 335 177 335C270 335 328 391 328 458C328 523 284 562 225 568L319 637L319 709L40 709L40 634L204 634L113 565L145 504C155 508 164 510 176 510C207 510 237 496 237 459C237 432 213 410 176 410C139 410 112 435 107 468Z"/>
<glyph unicode="&#xb4;" horiz-adv-x="286" d="M256 696L119 696L30 548L125 548Z"/>
<glyph unicode="&#xb5;" horiz-adv-x="562" d="M387 54C387 34 389 11 391 0L502 0C499 27 497 58 497 89L497 487L381 487L381 199C381 135 346 90 279 90C209 90 181 141 181 201L181 487L65 487L65 -190L181 -190L181 -2C201 -10 224 -14 249 -14C306 -14 363 10 387 54Z"/>
<glyph unicode="&#xb6;" horiz-adv-x="667" d="M341 616L436 616L436 -190L531 -190L531 616L628 616L628 709L262 709C136 709 30 637 30 505C30 395 121 310 229 310L246 310L246 -190L341 -190Z"/>
<glyph unicode="&#xb7;" horiz-adv-x="271" d="M57 298C57 254 92 221 135 221C179 221 214 254 214 298C214 341 179 376 135 376C92 376 57 341 57 298Z"/>
<glyph unicode="&#xb8;" horiz-adv-x="296" d="M117 -105C125 -102 136 -100 145 -100C171 -100 186 -114 186 -130C186 -151 166 -160 142 -160C107 -160 82 -138 69 -125L28 -175C47 -199 90 -223 143 -223C231 -223 266 -178 266 -131C266 -81 226 -48 169 -47L208 13L130 13L82 -62Z"/>
<glyph unicode="&#xb9;" horiz-adv-x="249" d="M203 343L203 709L121 709C114 673 80 637 23 636L23 576L112 576L112 343Z"/>
<glyph unicode="&#xba;" horiz-adv-x="436" d="M219 356C321 356 398 432 398 538C398 644 321 720 219 720C116 720 39 644 39 538C39 432 116 356 219 356ZM128 538C128 606 171 639 219 639C266 639 309 606 309 538C309 471 266 436 219 436C171 436 128 471 128 538Z"/>
<glyph unicode="&#xbb;" horiz-adv-x="534" d="M363 100L498 293L362 487L251 487L385 292L252 100ZM156 100L291 293L155 487L44 487L178 292L45 100Z"/>
<glyph unicode="&#xbc;" horiz-adv-x="782" d="M194 0L654 709L553 709L92 0ZM33 575L122 575L122 343L213 343L213 709L131 709C124 673 90 636 33 636ZM416 72L597 72L597 0L687 0L687 72L749 72L749 144L687 144L687 367L588 367L416 159ZM597 144L493 144L597 269Z"/>
<glyph unicode="&#xbd;" horiz-adv-x="805" d="M197 0L657 709L556 709L95 0ZM573 224C571 230 570 240 570 246C570 278 590 300 622 300C655 300 671 278 671 256C671 235 656 216 630 200L570 164C508 127 483 75 483 13L483 0L764 0L764 76L595 76C597 86 606 94 616 101L686 144C733 172 762 208 762 255C762 319 711 374 624 374C535 374 486 318 486 253C486 245 487 233 489 224ZM33 575L122 575L122 343L213 343L213 709L131 709C124 673 90 636 33 636Z"/>
<glyph unicode="&#xbe;" horiz-adv-x="857" d="M269 0L729 709L628 709L167 0ZM491 72L672 72L672 0L762 0L762 72L824 72L824 144L762 144L762 367L663 367L491 159ZM672 144L568 144L672 269ZM156 504C164 506 174 508 184 508C214 508 244 495 244 459C244 431 220 410 184 410C147 410 119 434 115 468L35 444C44 389 95 334 185 334C277 334 336 391 336 457C336 521 291 559 232 566L326 635L326 709L48 709L48 634L214 634L125 567Z"/>
<glyph unicode="&#xbf;" horiz-adv-x="512" d="M221 286L221 276C221 236 204 201 172 178L129 148C71 107 30 52 30 -28C30 -129 109 -228 258 -228C409 -228 483 -120 483 -20C483 -4 482 12 478 26L364 38C368 26 370 8 370 -7C370 -65 335 -123 258 -123C185 -123 150 -75 150 -23C150 11 164 41 197 65L243 98C301 139 323 188 323 248C323 262 322 274 320 286ZM197 429C197 389 229 356 270 356C310 356 343 389 343 429C343 469 310 502 270 502C229 502 197 469 197 429Z"/>
<glyph unicode="&#xc0;" horiz-adv-x="717" d="M573 0L704 0L428 709L289 709L13 0L140 0L206 178L506 178ZM356 579L464 289L248 289ZM309 759L417 759L314 883L166 883Z"/>
<glyph unicode="&#xc1;" horiz-adv-x="717" d="M573 0L704 0L428 709L289 709L13 0L140 0L206 178L506 178ZM356 579L464 289L248 289ZM549 883L400 883L298 759L407 759Z"/>
<glyph unicode="&#xc2;" horiz-adv-x="717" d="M573 0L704 0L428 709L289 709L13 0L140 0L206 178L506 178ZM356 579L464 289L248 289ZM281 759L353 823L428 759L538 759L419 883L290 883L174 759Z"/>
<glyph unicode="&#xc3;" horiz-adv-x="717" d="M573 0L704 0L428 709L289 709L13 0L140 0L206 178L506 178ZM356 579L464 289L248 289ZM520 886L446 886L446 876C446 852 432 843 415 843C402 843 388 851 372 860L362 866C342 878 317 889 288 889C233 889 188 853 188 779L188 757L263 757L263 767C263 789 278 800 293 800C308 800 322 793 338 783L348 776C368 764 392 753 421 753C476 753 520 790 520 863Z"/>
<glyph unicode="&#xc4;" horiz-adv-x="717" d="M137 821C137 784 166 755 203 755C241 755 270 784 270 821C270 858 241 888 203 888C166 888 137 858 137 821ZM444 821C444 784 472 755 509 755C547 755 576 784 576 821C576 858 547 888 509 888C472 888 444 858 444 821ZM573 0L704 0L428 709L289 709L13 0L140 0L206 178L506 178ZM356 579L464 289L248 289Z"/>
<glyph unicode="&#xc5;" horiz-adv-x="717" d="M356 579L464 289L248 289ZM356 709C328 709 306 729 306 759C306 788 328 808 356 808C384 808 406 788 406 759C406 729 384 709 356 709ZM486 759C486 831 426 885 356 885C287 885 227 831 227 759C227 720 244 686 271 663L13 0L140 0L206 178L506 178L573 0L704 0L444 666C470 689 486 721 486 759Z"/>
<glyph unicode="&#xc6;" horiz-adv-x="1027" d="M974 0L974 112L656 112L656 300L944 300L944 409L656 409L656 597L974 597L974 709L465 709L-5 0L144 0L259 180L536 180L536 0ZM325 283L536 611L536 283Z"/>
<glyph unicode="&#xc7;" horiz-adv-x="751" d="M372 -105C380 -102 391 -100 400 -100C426 -100 441 -114 441 -130C441 -151 421 -160 397 -160C362 -160 337 -138 324 -125L283 -175C302 -199 345 -223 398 -223C486 -223 521 -178 521 -131C521 -81 481 -48 424 -47L446 -12C600 4 693 110 723 220L613 256C589 176 521 100 402 100C281 100 167 188 167 354C167 526 284 611 401 611C520 611 586 542 607 456L720 494C688 618 581 724 401 724C217 724 44 585 44 354C44 137 191 2 368 -13L337 -62Z"/>
<glyph unicode="&#xc8;" horiz-adv-x="580" d="M284 759L392 759L289 883L141 883ZM527 0L527 112L209 112L209 300L497 300L497 409L209 409L209 597L527 597L527 709L89 709L89 0Z"/>
<glyph unicode="&#xc9;" horiz-adv-x="580" d="M478 883L329 883L227 759L336 759ZM527 0L527 112L209 112L209 300L497 300L497 409L209 409L209 597L527 597L527 709L89 709L89 0Z"/>
<glyph unicode="&#xca;" horiz-adv-x="580" d="M232 759L304 823L379 759L489 759L370 883L241 883L125 759ZM527 0L527 112L209 112L209 300L497 300L497 409L209 409L209 597L527 597L527 709L89 709L89 0Z"/>
<glyph unicode="&#xcb;" horiz-adv-x="580" d="M129 821C129 784 158 755 195 755C232 755 262 784 262 821C262 858 232 888 195 888C158 888 129 858 129 821ZM357 821C357 784 385 755 423 755C460 755 489 784 489 821C489 858 460 888 423 888C385 888 357 858 357 821ZM527 0L527 112L209 112L209 300L497 300L497 409L209 409L209 597L527 597L527 709L89 709L89 0Z"/>
<glyph unicode="&#xcc;" horiz-adv-x="300" d="M211 0L211 709L89 709L89 0ZM100 759L208 759L105 883L-43 883Z"/>
<glyph unicode="&#xcd;" horiz-adv-x="300" d="M211 0L211 709L89 709L89 0ZM343 883L194 883L92 759L201 759Z"/>
<glyph unicode="&#xce;" horiz-adv-x="300" d="M211 0L211 709L89 709L89 0ZM80 759L152 823L227 759L337 759L218 883L89 883L-27 759Z"/>
<glyph unicode="&#xcf;" horiz-adv-x="300" d="M2 821C2 786 29 758 64 758C99 758 127 786 127 821C127 856 99 884 64 884C29 884 2 856 2 821ZM175 821C175 786 202 758 238 758C273 758 300 786 300 821C300 856 273 884 238 884C202 884 175 856 175 821ZM211 0L211 709L89 709L89 0Z"/>
<glyph unicode="&#xd0;" horiz-adv-x="739" d="M347 0C539 0 693 126 693 353C693 581 541 709 348 709L97 709L97 412L15 412L15 319L97 319L97 0ZM217 110L217 319L348 319L348 412L217 412L217 599L344 599C467 599 568 519 568 353C568 189 466 110 343 110Z"/>
<glyph unicode="&#xd1;" horiz-adv-x="773" d="M554 886L480 886L480 876C480 852 466 843 449 843C436 843 422 851 406 860L396 866C376 878 351 889 322 889C267 889 222 853 222 779L222 757L297 757L297 767C297 789 312 800 327 800C342 800 356 793 372 783L382 776C402 764 426 753 455 753C510 753 554 790 554 863ZM684 0L684 709L564 709L564 206L242 709L89 709L89 0L209 0L209 537L559 0Z"/>
<glyph unicode="&#xd2;" horiz-adv-x="809" d="M355 759L463 759L360 883L212 883ZM167 355C167 526 285 611 404 611C524 611 642 526 642 355C642 184 524 99 404 99C285 99 167 184 167 355ZM44 355C44 122 218 -15 404 -15C590 -15 765 122 765 355C765 587 590 724 404 724C218 724 44 587 44 355Z"/>
<glyph unicode="&#xd3;" horiz-adv-x="809" d="M592 883L443 883L341 759L450 759ZM167 355C167 526 285 611 404 611C524 611 642 526 642 355C642 184 524 99 404 99C285 99 167 184 167 355ZM44 355C44 122 218 -15 404 -15C590 -15 765 122 765 355C765 587 590 724 404 724C218 724 44 587 44 355Z"/>
<glyph unicode="&#xd4;" horiz-adv-x="809" d="M330 759L402 823L477 759L587 759L468 883L339 883L223 759ZM167 355C167 526 285 611 404 611C524 611 642 526 642 355C642 184 524 99 404 99C285 99 167 184 167 355ZM44 355C44 122 218 -15 404 -15C590 -15 765 122 765 355C765 587 590 724 404 724C218 724 44 587 44 355Z"/>
<glyph unicode="&#xd5;" horiz-adv-x="809" d="M571 887L497 887L497 877C497 853 483 844 466 844C453 844 439 852 423 861L413 867C393 879 368 890 339 890C284 890 239 854 239 780L239 758L314 758L314 768C314 790 329 801 344 801C359 801 373 794 389 784L399 777C419 765 443 754 472 754C527 754 571 791 571 864ZM167 355C167 526 285 611 404 611C524 611 642 526 642 355C642 184 524 99 404 99C285 99 167 184 167 355ZM44 355C44 122 218 -15 404 -15C590 -15 765 122 765 355C765 587 590 724 404 724C218 724 44 587 44 355Z"/>
<glyph unicode="&#xd6;" horiz-adv-x="809" d="M177 821C177 784 206 755 243 755C280 755 310 784 310 821C310 858 280 888 243 888C206 888 177 858 177 821ZM500 821C500 784 529 755 566 755C603 755 633 784 633 821C633 858 603 888 566 888C529 888 500 858 500 821ZM167 355C167 526 285 611 404 611C524 611 642 526 642 355C642 184 524 99 404 99C285 99 167 184 167 355ZM44 355C44 122 218 -15 404 -15C590 -15 765 122 765 355C765 587 590 724 404 724C218 724 44 587 44 355Z"/>
<glyph unicode="&#xd7;" horiz-adv-x="576" d="M123 589L53 520L219 349L52 178L121 108L288 279L456 108L524 178L357 349L524 521L454 589L288 419Z"/>
<glyph unicode="&#xd8;" horiz-adv-x="809" d="M44 355C44 246 82 158 142 95L71 4L151 -55L219 33C275 1 339 -15 404 -15C590 -15 765 122 765 355C765 463 727 550 667 613L739 705L661 765L590 674C534 706 470 724 404 724C218 724 44 587 44 355ZM167 355C167 526 285 611 404 611C444 611 484 601 519 582L216 191C185 232 167 286 167 355ZM642 355C642 184 524 99 404 99C365 99 326 108 291 126L594 517C623 476 642 422 642 355Z"/>
<glyph unicode="&#xd9;" horiz-adv-x="693" d="M312 759L420 759L317 883L169 883ZM346 -15C495 -15 611 76 611 247L611 709L491 709L491 254C491 154 437 99 346 99C256 99 201 154 201 254L201 709L82 709L82 247C82 76 198 -15 346 -15Z"/>
<glyph unicode="&#xda;" horiz-adv-x="693" d="M518 883L369 883L267 759L376 759ZM346 -15C495 -15 611 76 611 247L611 709L491 709L491 254C491 154 437 99 346 99C256 99 201 154 201 254L201 709L82 709L82 247C82 76 198 -15 346 -15Z"/>
<glyph unicode="&#xdb;" horiz-adv-x="693" d="M272 759L344 823L419 759L529 759L410 883L281 883L165 759ZM346 -15C495 -15 611 76 611 247L611 709L491 709L491 254C491 154 437 99 346 99C256 99 201 154 201 254L201 709L82 709L82 247C82 76 198 -15 346 -15Z"/>
<glyph unicode="&#xdc;" horiz-adv-x="693" d="M163 821C163 784 191 755 229 755C266 755 295 784 295 821C295 858 266 888 229 888C191 888 163 858 163 821ZM399 821C399 784 427 755 465 755C502 755 531 784 531 821C531 858 502 888 465 888C427 888 399 858 399 821ZM346 -15C495 -15 611 76 611 247L611 709L491 709L491 254C491 154 437 99 346 99C256 99 201 154 201 254L201 709L82 709L82 247C82 76 198 -15 346 -15Z"/>
<glyph unicode="&#xdd;" horiz-adv-x="651" d="M265 300L265 0L385 0L385 300L635 709L500 709L329 412L159 709L17 709ZM501 883L352 883L250 759L359 759Z"/>
<glyph unicode="&#xde;" horiz-adv-x="605" d="M209 251L209 472L334 472C410 472 456 429 456 360C456 294 410 251 334 251ZM347 147C480 147 578 238 578 361C578 484 480 576 346 576L209 576L209 709L89 709L89 0L209 0L209 147Z"/>
<glyph unicode="&#xdf;" horiz-adv-x="591" d="M378 343C378 362 390 373 407 383L431 398C476 427 519 469 519 547C519 645 434 724 302 724C178 724 72 644 72 489L72 0L186 0L186 482C186 578 241 622 302 622C370 622 404 584 404 542C404 509 383 485 351 465L326 448C292 426 261 390 261 335C261 258 319 226 368 205L400 191C434 176 450 157 450 128C450 104 430 76 389 76C336 76 319 120 318 149L222 127C223 69 268 -15 389 -15C508 -15 560 69 560 136C560 207 513 260 452 287L419 302C393 313 379 321 378 343Z"/>
<glyph unicode="&#xe0;" horiz-adv-x="531" d="M41 132C41 55 104 -15 206 -15C285 -15 333 25 356 62C356 23 360 3 361 0L469 0C468 5 463 34 463 78L463 320C463 417 406 502 256 502C136 502 60 427 51 343L157 319C162 368 196 407 257 407C321 407 349 374 349 333C349 316 341 302 313 298L188 279C105 267 41 219 41 132ZM228 76C182 76 157 106 157 139C157 179 186 199 222 205L349 224L349 202C349 107 293 76 228 76ZM226 548L321 548L233 696L94 696Z"/>
<glyph unicode="&#xe1;" horiz-adv-x="531" d="M41 132C41 55 104 -15 206 -15C285 -15 333 25 356 62C356 23 360 3 361 0L469 0C468 5 463 34 463 78L463 320C463 417 406 502 256 502C136 502 60 427 51 343L157 319C162 368 196 407 257 407C321 407 349 374 349 333C349 316 341 302 313 298L188 279C105 267 41 219 41 132ZM228 76C182 76 157 106 157 139C157 179 186 199 222 205L349 224L349 202C349 107 293 76 228 76ZM418 696L281 696L192 548L287 548Z"/>
<glyph unicode="&#xe2;" horiz-adv-x="531" d="M41 132C41 55 104 -15 206 -15C285 -15 333 25 356 62C356 23 360 3 361 0L469 0C468 5 463 34 463 78L463 320C463 417 406 502 256 502C136 502 60 427 51 343L157 319C162 368 196 407 257 407C321 407 349 374 349 333C349 316 341 302 313 298L188 279C105 267 41 219 41 132ZM228 76C182 76 157 106 157 139C157 179 186 199 222 205L349 224L349 202C349 107 293 76 228 76ZM189 549L259 626L329 549L428 549L320 692L199 692L92 549Z"/>
<glyph unicode="&#xe3;" horiz-adv-x="531" d="M41 132C41 55 104 -15 206 -15C285 -15 333 25 356 62C356 23 360 3 361 0L469 0C468 5 463 34 463 78L463 320C463 417 406 502 256 502C136 502 60 427 51 343L157 319C162 368 196 407 257 407C321 407 349 374 349 333C349 316 341 302 313 298L188 279C105 267 41 219 41 132ZM228 76C182 76 157 106 157 139C157 179 186 199 222 205L349 224L349 202C349 107 293 76 228 76ZM98 556L174 556C174 587 184 599 204 599C219 599 232 592 247 583L257 577C277 565 299 554 328 554C386 554 430 593 430 671L430 688L354 688C354 657 343 644 323 644C308 644 295 652 280 661L270 667C250 679 229 689 200 689C142 689 97 652 97 574Z"/>
<glyph unicode="&#xe4;" horiz-adv-x="531" d="M41 132C41 55 104 -15 206 -15C285 -15 333 25 356 62C356 23 360 3 361 0L469 0C468 5 463 34 463 78L463 320C463 417 406 502 256 502C136 502 60 427 51 343L157 319C162 368 196 407 257 407C321 407 349 374 349 333C349 316 341 302 313 298L188 279C105 267 41 219 41 132ZM228 76C182 76 157 106 157 139C157 179 186 199 222 205L349 224L349 202C349 107 293 76 228 76ZM95 625C95 588 123 560 159 560C196 560 225 588 225 625C225 661 196 690 159 690C123 690 95 661 95 625ZM295 625C295 588 323 560 359 560C395 560 424 588 424 625C424 661 395 690 359 690C323 690 295 661 295 625Z"/>
<glyph unicode="&#xe5;" horiz-adv-x="531" d="M41 132C41 55 104 -15 206 -15C285 -15 333 25 356 62C356 23 360 3 361 0L469 0C468 5 463 34 463 78L463 320C463 417 406 502 256 502C136 502 60 427 51 343L157 319C162 368 196 407 257 407C321 407 349 374 349 333C349 316 341 302 313 298L188 279C105 267 41 219 41 132ZM228 76C182 76 157 106 157 139C157 179 186 199 222 205L349 224L349 202C349 107 293 76 228 76ZM369 648C369 712 316 759 255 759C195 759 142 712 142 648C142 585 195 538 255 538C316 538 369 585 369 648ZM299 648C299 623 280 604 254 604C230 604 211 623 211 648C211 674 230 693 254 693C280 693 299 674 299 648Z"/>
<glyph unicode="&#xe6;" horiz-adv-x="871" d="M727 171C710 122 674 85 604 85C532 85 473 137 470 212L828 212C829 221 830 238 830 249C830 403 744 502 594 502C532 502 472 476 429 431C397 473 342 502 261 502C149 502 59 430 51 343L153 322C158 368 197 408 260 408C325 408 357 373 357 333C357 318 350 302 320 298L188 279C105 267 41 219 41 132C41 55 104 -15 220 -15C320 -15 377 33 408 80C453 19 525 -15 603 -15C716 -15 799 54 825 139ZM232 76C183 76 157 106 157 137C157 177 184 200 222 205L357 224L357 201C357 107 291 76 232 76ZM473 297C477 349 519 405 593 405C673 405 712 354 714 297Z"/>
<glyph unicode="&#xe7;" horiz-adv-x="549" d="M259 -106C267 -103 278 -101 287 -101C313 -101 328 -115 328 -131C328 -152 308 -161 284 -161C249 -161 224 -139 211 -126L170 -176C189 -200 232 -224 285 -224C373 -224 408 -179 408 -132C408 -82 368 -49 311 -48L334 -12C437 3 496 76 517 144L415 181C404 144 369 91 293 91C220 91 157 146 157 244C157 342 220 395 291 395C365 395 398 347 409 304L513 342C493 420 421 502 290 502C150 502 41 394 41 244C41 109 133 4 257 -12L224 -63Z"/>
<glyph unicode="&#xe8;" horiz-adv-x="557" d="M160 297C164 349 206 405 279 405C359 405 397 354 399 297ZM412 170C396 122 360 85 290 85C218 85 160 138 157 212L513 212C514 214 516 230 516 249C516 403 428 502 278 502C155 502 41 400 41 246C41 81 158 -15 290 -15C407 -15 484 54 510 139ZM248 548L343 548L255 696L116 696Z"/>
<glyph unicode="&#xe9;" horiz-adv-x="557" d="M452 696L315 696L226 548L321 548ZM160 297C164 349 206 405 279 405C359 405 397 354 399 297ZM412 170C396 122 360 85 290 85C218 85 160 138 157 212L513 212C514 214 516 230 516 249C516 403 428 502 278 502C155 502 41 400 41 246C41 81 158 -15 290 -15C407 -15 484 54 510 139Z"/>
<glyph unicode="&#xea;" horiz-adv-x="557" d="M214 549L284 626L354 549L453 549L345 692L224 692L117 549ZM160 297C164 349 206 405 279 405C359 405 397 354 399 297ZM412 170C396 122 360 85 290 85C218 85 160 138 157 212L513 212C514 214 516 230 516 249C516 403 428 502 278 502C155 502 41 400 41 246C41 81 158 -15 290 -15C407 -15 484 54 510 139Z"/>
<glyph unicode="&#xeb;" horiz-adv-x="557" d="M119 625C119 588 147 560 183 560C220 560 249 588 249 625C249 661 220 690 183 690C147 690 119 661 119 625ZM319 625C319 588 347 560 383 560C419 560 448 588 448 625C448 661 419 690 383 690C347 690 319 661 319 625ZM160 297C164 349 206 405 279 405C359 405 397 354 399 297ZM412 170C396 122 360 85 290 85C218 85 160 138 157 212L513 212C514 214 516 230 516 249C516 403 428 502 278 502C155 502 41 400 41 246C41 81 158 -15 290 -15C407 -15 484 54 510 139Z"/>
<glyph unicode="&#xec;" horiz-adv-x="259" d="M187 0L187 487L72 487L72 0ZM90 548L185 548L97 696L-42 696Z"/>
<glyph unicode="&#xed;" horiz-adv-x="259" d="M304 696L167 696L78 548L173 548ZM187 0L187 487L72 487L72 0Z"/>
<glyph unicode="&#xee;" horiz-adv-x="259" d="M59 549L129 626L199 549L298 549L190 692L69 692L-38 549ZM187 0L187 487L72 487L72 0Z"/>
<glyph unicode="&#xef;" horiz-adv-x="259" d="M-13 625C-13 590 13 564 48 564C83 564 110 590 110 625C110 660 83 687 48 687C13 687 -13 660 -13 625ZM149 625C149 590 176 564 210 564C245 564 272 590 272 625C272 660 245 687 210 687C176 687 149 660 149 625ZM187 0L187 487L72 487L72 0Z"/>
<glyph unicode="&#xf0;" horiz-adv-x="592" d="M500 629L468 702L356 651C293 696 225 722 169 736L133 647C169 636 209 622 246 601L154 559L185 487L320 548C357 514 387 472 405 419C380 448 330 463 278 463C161 463 42 379 42 228C42 89 148 -14 293 -14C456 -14 545 113 545 270C545 415 493 520 422 594ZM293 89C222 89 157 139 157 229C157 319 222 369 293 369C365 369 428 321 428 229C428 138 365 89 293 89Z"/>
<glyph unicode="&#xf1;" horiz-adv-x="572" d="M188 281C188 345 223 396 289 396C362 396 389 348 389 288L389 0L505 0L505 308C505 415 448 501 329 501C275 501 217 478 185 422L185 487L72 487L72 0L188 0ZM130 556L206 556C206 587 216 599 236 599C251 599 264 592 279 583L289 577C309 565 331 554 360 554C418 554 462 593 462 671L462 688L386 688C386 657 375 644 355 644C340 644 327 652 312 661L302 667C282 679 261 689 232 689C174 689 129 652 129 574Z"/>
<glyph unicode="&#xf2;" horiz-adv-x="587" d="M293 89C222 89 157 143 157 244C157 345 222 397 293 397C365 397 429 345 429 244C429 142 365 89 293 89ZM293 502C148 502 41 393 41 244C41 94 148 -15 293 -15C439 -15 546 94 546 244C546 393 439 502 293 502ZM251 548L346 548L258 696L119 696Z"/>
<glyph unicode="&#xf3;" horiz-adv-x="587" d="M462 696L325 696L236 548L331 548ZM293 89C222 89 157 143 157 244C157 345 222 397 293 397C365 397 429 345 429 244C429 142 365 89 293 89ZM293 502C148 502 41 393 41 244C41 94 148 -15 293 -15C439 -15 546 94 546 244C546 393 439 502 293 502Z"/>
<glyph unicode="&#xf4;" horiz-adv-x="587" d="M224 549L294 626L364 549L463 549L355 692L234 692L127 549ZM293 89C222 89 157 143 157 244C157 345 222 397 293 397C365 397 429 345 429 244C429 142 365 89 293 89ZM293 502C148 502 41 393 41 244C41 94 148 -15 293 -15C439 -15 546 94 546 244C546 393 439 502 293 502Z"/>
<glyph unicode="&#xf5;" horiz-adv-x="587" d="M293 89C222 89 157 143 157 244C157 345 222 397 293 397C365 397 429 345 429 244C429 142 365 89 293 89ZM293 502C148 502 41 393 41 244C41 94 148 -15 293 -15C439 -15 546 94 546 244C546 393 439 502 293 502ZM130 556L206 556C206 587 216 599 236 599C251 599 264 592 279 583L289 577C309 565 331 554 360 554C418 554 462 593 462 671L462 688L386 688C386 657 375 644 355 644C340 644 327 652 312 661L302 667C282 679 261 689 232 689C174 689 129 652 129 574Z"/>
<glyph unicode="&#xf6;" horiz-adv-x="587" d="M128 625C128 588 156 560 192 560C229 560 258 588 258 625C258 661 229 690 192 690C156 690 128 661 128 625ZM328 625C328 588 356 560 392 560C428 560 457 588 457 625C457 661 428 690 392 690C356 690 328 661 328 625ZM293 89C222 89 157 143 157 244C157 345 222 397 293 397C365 397 429 345 429 244C429 142 365 89 293 89ZM293 502C148 502 41 393 41 244C41 94 148 -15 293 -15C439 -15 546 94 546 244C546 393 439 502 293 502Z"/>
<glyph unicode="&#xf7;" horiz-adv-x="571" d="M211 168C211 129 244 96 284 96C323 96 355 129 355 168C355 208 323 240 284 240C244 240 211 208 211 168ZM523 299L523 398L48 398L48 299ZM211 530C211 491 244 457 284 457C323 457 355 491 355 530C355 569 323 601 284 601C244 601 211 569 211 530Z"/>
<glyph unicode="&#xf8;" horiz-adv-x="587" d="M293 502C148 502 41 393 41 244C41 174 64 113 104 68L54 5L117 -46L167 17C202 -3 243 -15 293 -15C439 -15 546 94 546 244C546 312 523 373 484 418L536 483L474 534L422 469C385 490 341 502 293 502ZM157 244C157 345 222 397 293 397C314 397 335 392 354 383L176 159C164 182 157 210 157 244ZM293 89C272 89 252 93 234 102L411 326C422 304 429 276 429 244C429 142 365 89 293 89Z"/>
<glyph unicode="&#xf9;" horiz-adv-x="571" d="M389 54C389 34 391 11 393 0L504 0C502 18 499 49 499 89L499 487L383 487L383 199C383 135 348 90 281 90C211 90 183 141 183 201L183 487L67 487L67 180C67 72 135 -14 251 -14C308 -14 365 10 389 54ZM254 548L349 548L261 696L122 696Z"/>
<glyph unicode="&#xfa;" horiz-adv-x="571" d="M432 696L295 696L206 548L301 548ZM389 54C389 34 391 11 393 0L504 0C502 18 499 49 499 89L499 487L383 487L383 199C383 135 348 90 281 90C211 90 183 141 183 201L183 487L67 487L67 180C67 72 135 -14 251 -14C308 -14 365 10 389 54Z"/>
<glyph unicode="&#xfb;" horiz-adv-x="571" d="M213 549L283 626L353 549L452 549L344 692L223 692L116 549ZM389 54C389 34 391 11 393 0L504 0C502 18 499 49 499 89L499 487L383 487L383 199C383 135 348 90 281 90C211 90 183 141 183 201L183 487L67 487L67 180C67 72 135 -14 251 -14C308 -14 365 10 389 54Z"/>
<glyph unicode="&#xfc;" horiz-adv-x="571" d="M119 625C119 588 147 560 183 560C220 560 249 588 249 625C249 661 220 690 183 690C147 690 119 661 119 625ZM319 625C319 588 347 560 383 560C419 560 448 588 448 625C448 661 419 690 383 690C347 690 319 661 319 625ZM389 54C389 34 391 11 393 0L504 0C502 18 499 49 499 89L499 487L383 487L383 199C383 135 348 90 281 90C211 90 183 141 183 201L183 487L67 487L67 180C67 72 135 -14 251 -14C308 -14 365 10 389 54Z"/>
<glyph unicode="&#xfd;" horiz-adv-x="551" d="M230 -197L540 487L417 487L286 179L146 487L15 487L223 58L106 -197ZM438 696L301 696L212 548L307 548Z"/>
<glyph unicode="&#xfe;" horiz-adv-x="606" d="M187 -190L187 55C212 18 265 -12 335 -12C475 -12 564 98 564 244C564 388 483 498 339 498C268 498 214 466 188 427L188 724L72 724L72 -190ZM448 244C448 151 394 91 317 91C241 91 186 151 186 244C186 335 241 395 317 395C395 395 448 335 448 244Z"/>
<glyph unicode="&#xff;" horiz-adv-x="551" d="M230 -197L540 487L417 487L286 179L146 487L15 487L223 58L106 -197ZM115 625C115 588 143 560 179 560C216 560 245 588 245 625C245 661 216 690 179 690C143 690 115 661 115 625ZM315 625C315 588 343 560 379 560C415 560 444 588 444 625C444 661 415 690 379 690C343 690 315 661 315 625Z"/>
<glyph unicode="&#x100;" horiz-adv-x="717" d="M573 0L704 0L428 709L289 709L13 0L140 0L206 178L506 178ZM356 579L464 289L248 289ZM506 776L506 869L206 869L206 776Z"/>
<glyph unicode="&#x101;" horiz-adv-x="531" d="M41 132C41 55 104 -15 206 -15C285 -15 333 25 356 62C356 23 360 3 361 0L469 0C468 5 463 34 463 78L463 320C463 417 406 502 256 502C136 502 60 427 51 343L157 319C162 368 196 407 257 407C321 407 349 374 349 333C349 316 341 302 313 298L188 279C105 267 41 219 41 132ZM228 76C182 76 157 106 157 139C157 179 186 199 222 205L349 224L349 202C349 107 293 76 228 76ZM400 577L400 667L122 667L122 577Z"/>
<glyph unicode="&#x102;" horiz-adv-x="717" d="M573 0L704 0L428 709L289 709L13 0L140 0L206 178L506 178ZM356 579L464 289L248 289ZM357 754C462 754 514 821 517 886L424 886C423 861 404 832 357 832C310 832 291 861 289 886L196 886C200 821 252 754 357 754Z"/>
<glyph unicode="&#x103;" horiz-adv-x="531" d="M41 132C41 55 104 -15 206 -15C285 -15 333 25 356 62C356 23 360 3 361 0L469 0C468 5 463 34 463 78L463 320C463 417 406 502 256 502C136 502 60 427 51 343L157 319C162 368 196 407 257 407C321 407 349 374 349 333C349 316 341 302 313 298L188 279C105 267 41 219 41 132ZM228 76C182 76 157 106 157 139C157 179 186 199 222 205L349 224L349 202C349 107 293 76 228 76ZM257 547C359 547 410 619 412 694L330 694C328 666 308 633 257 633C207 633 187 665 185 694L103 694C105 619 157 547 257 547Z"/>
<glyph unicode="&#x104;" horiz-adv-x="717" d="M622 -95C622 -50 666 -18 704 0L428 709L289 709L13 0L140 0L206 178L506 178L573 0L605 0C568 -22 534 -57 534 -116C534 -180 586 -220 653 -220C677 -220 691 -217 704 -212L704 -138C694 -140 684 -141 673 -141C646 -141 622 -127 622 -95ZM356 579L464 289L248 289Z"/>
<glyph unicode="&#x105;" horiz-adv-x="531" d="M228 76C182 76 157 106 157 139C157 179 186 199 222 205L349 224L349 202C349 107 293 76 228 76ZM299 -116C299 -180 351 -220 418 -220C442 -220 456 -217 469 -212L469 -138C459 -140 449 -141 438 -141C411 -141 387 -127 387 -95C387 -50 431 -18 469 0C466 19 463 42 463 78L463 320C463 417 406 502 256 502C136 502 60 427 51 343L157 319C162 368 196 407 257 407C321 407 349 374 349 333C349 316 341 302 313 298L188 279C105 267 41 219 41 132C41 55 104 -15 206 -15C285 -15 333 25 356 62C356 24 360 4 361 0L370 0C333 -22 299 -57 299 -116Z"/>
<glyph unicode="&#x106;" horiz-adv-x="751" d="M402 -15C583 -15 691 100 723 220L613 256C589 176 521 100 402 100C281 100 167 188 167 354C167 526 284 611 401 611C520 611 586 542 607 456L720 494C688 618 581 724 401 724C217 724 44 585 44 354C44 123 211 -15 402 -15ZM588 883L439 883L337 759L446 759Z"/>
<glyph unicode="&#x107;" horiz-adv-x="549" d="M457 696L320 696L231 548L326 548ZM291 395C365 395 398 347 409 304L513 342C493 420 421 502 290 502C150 502 41 394 41 244C41 96 150 -15 293 -15C421 -15 494 68 517 144L415 181C404 144 369 91 293 91C220 91 157 146 157 244C157 342 220 395 291 395Z"/>
<glyph unicode="&#x108;" horiz-adv-x="751" d="M329 759L401 823L476 759L586 759L467 883L338 883L222 759ZM402 -15C583 -15 691 100 723 220L613 256C589 176 521 100 402 100C281 100 167 188 167 354C167 526 284 611 401 611C520 611 586 542 607 456L720 494C688 618 581 724 401 724C217 724 44 585 44 354C44 123 211 -15 402 -15Z"/>
<glyph unicode="&#x109;" horiz-adv-x="549" d="M219 549L289 626L359 549L458 549L350 692L229 692L122 549ZM291 395C365 395 398 347 409 304L513 342C493 420 421 502 290 502C150 502 41 394 41 244C41 96 150 -15 293 -15C421 -15 494 68 517 144L415 181C404 144 369 91 293 91C220 91 157 146 157 244C157 342 220 395 291 395Z"/>
<glyph unicode="&#x10a;" horiz-adv-x="751" d="M402 -15C583 -15 691 100 723 220L613 256C589 176 521 100 402 100C281 100 167 188 167 354C167 526 284 611 401 611C520 611 586 542 607 456L720 494C688 618 581 724 401 724C217 724 44 585 44 354C44 123 211 -15 402 -15ZM327 829C327 790 360 758 400 758C440 758 473 790 473 829C473 870 440 902 400 902C360 902 327 870 327 829Z"/>
<glyph unicode="&#x10b;" horiz-adv-x="549" d="M291 395C365 395 398 347 409 304L513 342C493 420 421 502 290 502C150 502 41 394 41 244C41 96 150 -15 293 -15C421 -15 494 68 517 144L415 181C404 144 369 91 293 91C220 91 157 146 157 244C157 342 220 395 291 395ZM217 623C217 584 249 552 289 552C329 552 361 584 361 623C361 663 329 695 289 695C249 695 217 663 217 623Z"/>
<glyph unicode="&#x10c;" horiz-adv-x="751" d="M219 883L335 759L464 759L583 883L475 883L400 818L328 883ZM402 -15C583 -15 691 100 723 220L613 256C589 176 521 100 402 100C281 100 167 188 167 354C167 526 284 611 401 611C520 611 586 542 607 456L720 494C688 618 581 724 401 724C217 724 44 585 44 354C44 123 211 -15 402 -15Z"/>
<glyph unicode="&#x10d;" horiz-adv-x="549" d="M115 694L221 549L345 549L451 694L353 694L283 617L213 694ZM291 395C365 395 398 347 409 304L513 342C493 420 421 502 290 502C150 502 41 394 41 244C41 96 150 -15 293 -15C421 -15 494 68 517 144L415 181C404 144 369 91 293 91C220 91 157 146 157 244C157 342 220 395 291 395Z"/>
<glyph unicode="&#x10e;" horiz-adv-x="731" d="M177 883L293 759L422 759L541 883L433 883L358 818L286 883ZM209 110L209 599L336 599C459 599 560 519 560 353C560 189 458 110 335 110ZM339 0C531 0 685 126 685 353C685 581 533 709 340 709L89 709L89 0Z"/>
<glyph unicode="&#x10f;" horiz-adv-x="601" d="M718 724L599 724L570 535L650 535ZM157 245C157 338 213 397 289 397C365 397 417 339 417 246C417 153 364 90 288 90C209 90 157 152 157 245ZM529 724L416 724L416 430C401 461 358 500 273 500C136 500 41 385 41 245C41 98 135 -12 275 -12C344 -12 395 22 418 63C418 43 421 11 423 0L534 0C533 8 529 45 529 89Z"/>
<glyph unicode="&#x110;" horiz-adv-x="739" d="M347 0C539 0 693 126 693 353C693 581 541 709 348 709L97 709L97 412L15 412L15 319L97 319L97 0ZM217 110L217 319L348 319L348 412L217 412L217 599L344 599C467 599 568 519 568 353C568 189 466 110 343 110Z"/>
<glyph unicode="&#x111;" horiz-adv-x="601" d="M157 245C157 338 213 397 289 397C365 397 417 339 417 246C417 153 364 90 288 90C209 90 157 152 157 245ZM418 63C418 37 421 11 423 0L534 0C533 8 529 45 529 89L529 553L604 553L604 639L529 639L529 724L416 724L416 639L293 639L293 553L416 553L416 430C401 461 358 500 273 500C136 500 41 385 41 245C41 98 135 -12 275 -12C344 -12 395 22 418 63Z"/>
<glyph unicode="&#x112;" horiz-adv-x="580" d="M527 0L527 112L209 112L209 300L497 300L497 409L209 409L209 597L527 597L527 709L89 709L89 0ZM456 776L456 869L156 869L156 776Z"/>
<glyph unicode="&#x113;" horiz-adv-x="557" d="M160 297C164 349 206 405 279 405C359 405 397 354 399 297ZM412 170C396 122 360 85 290 85C218 85 160 138 157 212L513 212C514 214 516 230 516 249C516 403 428 502 278 502C155 502 41 400 41 246C41 81 158 -15 290 -15C407 -15 484 54 510 139ZM423 577L423 667L145 667L145 577Z"/>
<glyph unicode="&#x114;" horiz-adv-x="580" d="M527 0L527 112L209 112L209 300L497 300L497 409L209 409L209 597L527 597L527 709L89 709L89 0ZM307 754C412 754 464 821 467 886L374 886C373 861 354 832 307 832C260 832 241 861 239 886L146 886C150 821 202 754 307 754Z"/>
<glyph unicode="&#x115;" horiz-adv-x="557" d="M160 297C164 349 206 405 279 405C359 405 397 354 399 297ZM412 170C396 122 360 85 290 85C218 85 160 138 157 212L513 212C514 214 516 230 516 249C516 403 428 502 278 502C155 502 41 400 41 246C41 81 158 -15 290 -15C407 -15 484 54 510 139ZM283 547C385 547 436 619 438 694L356 694C354 666 334 633 283 633C233 633 213 665 211 694L129 694C131 619 183 547 283 547Z"/>
<glyph unicode="&#x116;" horiz-adv-x="580" d="M235 826C235 787 268 755 308 755C348 755 381 787 381 826C381 867 348 899 308 899C268 899 235 867 235 826ZM527 0L527 112L209 112L209 300L497 300L497 409L209 409L209 597L527 597L527 709L89 709L89 0Z"/>
<glyph unicode="&#x117;" horiz-adv-x="557" d="M160 297C164 349 206 405 279 405C359 405 397 354 399 297ZM412 170C396 122 360 85 290 85C218 85 160 138 157 212L513 212C514 214 516 230 516 249C516 403 428 502 278 502C155 502 41 400 41 246C41 81 158 -15 290 -15C407 -15 484 54 510 139ZM213 622C213 583 245 551 285 551C325 551 357 583 357 622C357 662 325 694 285 694C245 694 213 662 213 622Z"/>
<glyph unicode="&#x118;" horiz-adv-x="580" d="M527 0L527 112L209 112L209 300L497 300L497 409L209 409L209 597L527 597L527 709L89 709L89 0L428 0C392 -22 357 -57 357 -116C357 -180 409 -220 476 -220C500 -220 514 -217 527 -212L527 -138C517 -140 507 -141 496 -141C469 -141 445 -127 445 -95C445 -50 489 -18 527 0Z"/>
<glyph unicode="&#x119;" horiz-adv-x="557" d="M412 170C396 122 360 85 290 85C218 85 160 138 157 212L513 212C514 214 516 230 516 249C516 403 428 502 278 502C155 502 41 400 41 246C41 94 141 1 259 -13C231 -35 208 -68 208 -115C208 -179 260 -219 327 -219C351 -219 365 -216 378 -211L378 -137C369 -139 360 -140 347 -140C319 -140 296 -125 296 -90C296 -50 325 -18 370 -3C440 21 490 75 510 139ZM160 297C164 349 206 405 279 405C359 405 397 354 399 297Z"/>
<glyph unicode="&#x11a;" horiz-adv-x="580" d="M131 883L247 759L376 759L495 883L387 883L312 818L240 883ZM527 0L527 112L209 112L209 300L497 300L497 409L209 409L209 597L527 597L527 709L89 709L89 0Z"/>
<glyph unicode="&#x11b;" horiz-adv-x="557" d="M115 694L221 549L345 549L451 694L353 694L283 617L213 694ZM160 297C164 349 206 405 279 405C359 405 397 354 399 297ZM412 170C396 122 360 85 290 85C218 85 160 138 157 212L513 212C514 214 516 230 516 249C516 403 428 502 278 502C155 502 41 400 41 246C41 81 158 -15 290 -15C407 -15 484 54 510 139Z"/>
<glyph unicode="&#x11c;" horiz-adv-x="776" d="M326 759L398 823L473 759L583 759L464 883L335 883L219 759ZM716 0L716 359L369 359L369 254L603 254C597 193 543 95 400 95C278 95 166 182 166 355C166 531 286 613 401 613C514 613 584 545 608 465L721 508C683 625 573 724 401 724C217 724 44 588 44 355C44 121 208 -15 393 -15C506 -15 579 38 610 90L619 0Z"/>
<glyph unicode="&#x11d;" horiz-adv-x="595" d="M219 549L289 626L359 549L458 549L350 692L229 692L122 549ZM41 -27C54 -125 144 -205 273 -205C456 -205 523 -84 523 46L523 487L411 487L411 425C390 465 343 496 267 496C133 496 42 389 42 259C42 122 137 22 267 22C338 22 387 55 408 93L408 42C408 -57 362 -104 270 -104C203 -104 156 -59 148 1ZM286 121C210 121 159 174 159 259C159 342 212 396 286 396C358 396 411 342 411 259C411 175 360 121 286 121Z"/>
<glyph unicode="&#x11e;" horiz-adv-x="776" d="M397 754C502 754 554 821 557 886L464 886C463 861 444 832 397 832C350 832 331 861 329 886L236 886C240 821 292 754 397 754ZM716 0L716 359L369 359L369 254L603 254C597 193 543 95 400 95C278 95 166 182 166 355C166 531 286 613 401 613C514 613 584 545 608 465L721 508C683 625 573 724 401 724C217 724 44 588 44 355C44 121 208 -15 393 -15C506 -15 579 38 610 90L619 0Z"/>
<glyph unicode="&#x11f;" horiz-adv-x="595" d="M41 -27C54 -125 144 -205 273 -205C456 -205 523 -84 523 46L523 487L411 487L411 425C390 465 343 496 267 496C133 496 42 389 42 259C42 122 137 22 267 22C338 22 387 55 408 93L408 42C408 -57 362 -104 270 -104C203 -104 156 -59 148 1ZM286 121C210 121 159 174 159 259C159 342 212 396 286 396C358 396 411 342 411 259C411 175 360 121 286 121ZM283 547C385 547 436 619 438 694L356 694C354 666 334 633 283 633C233 633 213 665 211 694L129 694C131 619 183 547 283 547Z"/>
<glyph unicode="&#x120;" horiz-adv-x="776" d="M327 828C327 789 360 757 400 757C440 757 473 789 473 828C473 869 440 901 400 901C360 901 327 869 327 828ZM716 0L716 359L369 359L369 254L603 254C597 193 543 95 400 95C278 95 166 182 166 355C166 531 286 613 401 613C514 613 584 545 608 465L721 508C683 625 573 724 401 724C217 724 44 588 44 355C44 121 208 -15 393 -15C506 -15 579 38 610 90L619 0Z"/>
<glyph unicode="&#x121;" horiz-adv-x="595" d="M41 -27C54 -125 144 -205 273 -205C456 -205 523 -84 523 46L523 487L411 487L411 425C390 465 343 496 267 496C133 496 42 389 42 259C42 122 137 22 267 22C338 22 387 55 408 93L408 42C408 -57 362 -104 270 -104C203 -104 156 -59 148 1ZM286 121C210 121 159 174 159 259C159 342 212 396 286 396C358 396 411 342 411 259C411 175 360 121 286 121ZM209 622C209 583 241 551 281 551C321 551 353 583 353 622C353 662 321 694 281 694C241 694 209 662 209 622Z"/>
<glyph unicode="&#x122;" horiz-adv-x="776" d="M333 -98C333 -132 357 -155 393 -155C406 -155 416 -150 418 -148C416 -173 387 -196 345 -196L345 -240C401 -240 474 -211 474 -120C474 -67 437 -39 400 -39C363 -39 333 -65 333 -98ZM716 0L716 359L369 359L369 254L603 254C597 193 543 95 400 95C278 95 166 182 166 355C166 531 286 613 401 613C514 613 584 545 608 465L721 508C683 625 573 724 401 724C217 724 44 588 44 355C44 121 208 -15 393 -15C506 -15 579 38 610 90L619 0Z"/>
<glyph unicode="&#x123;" horiz-adv-x="595" d="M346 596C346 630 323 654 286 654C273 654 263 649 261 647C263 670 292 694 334 694L334 738C279 738 205 703 205 618C205 566 243 538 279 538C318 538 346 562 346 596ZM41 -27C54 -125 144 -205 273 -205C456 -205 523 -84 523 46L523 487L411 487L411 425C390 465 343 496 267 496C133 496 42 389 42 259C42 122 137 22 267 22C338 22 387 55 408 93L408 42C408 -57 362 -104 270 -104C203 -104 156 -59 148 1ZM286 121C210 121 159 174 159 259C159 342 212 396 286 396C358 396 411 342 411 259C411 175 360 121 286 121Z"/>
<glyph unicode="&#x124;" horiz-adv-x="752" d="M663 0L663 709L542 709L542 416L209 416L209 709L89 709L89 0L209 0L209 303L542 303L542 0ZM301 759L373 823L448 759L558 759L439 883L310 883L194 759Z"/>
<glyph unicode="&#x125;" horiz-adv-x="572" d="M216 769L288 833L363 769L473 769L354 893L225 893L109 769ZM188 286C190 348 225 396 289 396C362 396 389 348 389 288L389 0L505 0L505 308C505 415 447 501 327 501C276 501 221 483 188 440L188 724L72 724L72 0L188 0Z"/>
<glyph unicode="&#x126;" horiz-adv-x="757" d="M666 0L666 515L737 515L737 597L666 597L666 709L545 709L545 597L212 597L212 709L92 709L92 597L20 597L20 515L92 515L92 0L212 0L212 303L545 303L545 0ZM212 416L212 515L545 515L545 416Z"/>
<glyph unicode="&#x127;" horiz-adv-x="572" d="M188 286C190 348 225 396 289 396C362 396 389 348 389 288L389 0L505 0L505 308C505 415 447 501 327 501C276 501 221 483 188 440L188 554L303 554L303 641L188 641L188 724L72 724L72 641L-11 641L-11 554L72 554L72 0L188 0Z"/>
<glyph unicode="&#x128;" horiz-adv-x="300" d="M211 0L211 709L89 709L89 0ZM318 886L244 886L244 876C244 852 230 843 213 843C200 843 186 851 170 860L160 866C140 878 115 889 86 889C31 889 -14 853 -14 779L-14 757L61 757L61 767C61 789 76 800 91 800C106 800 120 793 136 783L146 776C166 764 190 753 219 753C274 753 318 790 318 863Z"/>
<glyph unicode="&#x129;" horiz-adv-x="259" d="M187 0L187 487L72 487L72 0ZM-36 556L40 556C40 587 50 599 70 599C85 599 98 592 113 583L123 577C143 565 165 554 194 554C252 554 296 593 296 671L296 688L220 688C220 657 209 644 189 644C174 644 161 652 146 661L136 667C116 679 95 689 66 689C8 689 -37 652 -37 574Z"/>
<glyph unicode="&#x12a;" horiz-adv-x="300" d="M211 0L211 709L89 709L89 0ZM301 776L301 869L1 869L1 776Z"/>
<glyph unicode="&#x12b;" horiz-adv-x="259" d="M187 0L187 487L72 487L72 0ZM269 577L269 667L-9 667L-9 577Z"/>
<glyph unicode="&#x12c;" horiz-adv-x="300" d="M211 0L211 709L89 709L89 0ZM151 754C256 754 308 821 311 886L218 886C217 861 198 832 151 832C104 832 85 861 83 886L-10 886C-6 821 46 754 151 754Z"/>
<glyph unicode="&#x12d;" horiz-adv-x="259" d="M187 0L187 487L72 487L72 0ZM129 547C231 547 282 619 284 694L202 694C200 666 180 633 129 633C79 633 59 665 57 694L-25 694C-23 619 29 547 129 547Z"/>
<glyph unicode="&#x12e;" horiz-adv-x="300" d="M41 -116C41 -180 93 -220 160 -220C184 -220 198 -217 211 -212L211 -138C201 -140 191 -141 180 -141C153 -141 129 -127 129 -95C129 -50 173 -18 211 0L211 709L89 709L89 0L112 0C75 -22 41 -57 41 -116Z"/>
<glyph unicode="&#x12f;" horiz-adv-x="259" d="M54 658C54 616 88 583 129 583C171 583 205 616 205 658C205 700 171 734 129 734C88 734 54 700 54 658ZM17 -116C17 -180 69 -220 136 -220C160 -220 174 -217 187 -212L187 -138C177 -140 167 -141 156 -141C129 -141 105 -127 105 -95C105 -50 149 -18 187 0L187 487L72 487L72 0L88 0C51 -22 17 -57 17 -116Z"/>
<glyph unicode="&#x130;" horiz-adv-x="300" d="M211 0L211 709L89 709L89 0ZM77 826C77 787 110 755 150 755C190 755 223 787 223 826C223 867 190 899 150 899C110 899 77 867 77 826Z"/>
<glyph unicode="&#x131;" horiz-adv-x="259" d="M187 0L187 487L72 487L72 0Z"/>
<glyph unicode="&#x132;" horiz-adv-x="616" d="M204 305L204 709L82 709L82 305ZM82 214C82 76 171 -15 311 -15C446 -15 534 90 534 216L534 709L413 709L413 213C413 141 374 98 310 98C247 98 204 135 204 218L204 235Z"/>
<glyph unicode="&#x133;" horiz-adv-x="519" d="M187 0L187 487L72 487L72 0ZM54 658C54 616 88 583 129 583C171 583 205 616 205 658C205 700 171 734 129 734C88 734 54 700 54 658ZM331 -40C331 -80 315 -103 271 -103C258 -103 241 -101 236 -100L236 -196C241 -198 263 -205 302 -205C392 -205 447 -140 447 -49L447 487L331 487ZM313 659C313 618 347 584 388 584C430 584 464 618 464 659C464 701 430 735 388 735C347 735 313 701 313 659Z"/>
<glyph unicode="&#x134;" horiz-adv-x="556" d="M340 759L412 823L487 759L597 759L478 883L349 883L233 759ZM24 214C24 76 112 -15 251 -15C386 -15 474 90 474 216L474 709L354 709L354 213C354 141 314 98 250 98C188 98 141 135 141 218L141 284L24 260Z"/>
<glyph unicode="&#x135;" horiz-adv-x="260" d="M58 549L128 626L198 549L297 549L189 692L68 692L-39 549ZM72 -40C72 -80 56 -103 12 -103C-1 -103 -18 -101 -23 -100L-23 -196C-18 -198 4 -205 43 -205C133 -205 188 -140 188 -49L188 487L72 487Z"/>
<glyph unicode="&#x136;" horiz-adv-x="677" d="M524 0L675 0L385 396L672 709L514 709L209 369L209 709L89 709L89 0L209 0L209 204L303 307ZM297 -94C297 -128 321 -151 357 -151C370 -151 380 -146 382 -144C380 -169 351 -192 309 -192L309 -236C365 -236 438 -207 438 -116C438 -63 401 -35 364 -35C327 -35 297 -61 297 -94Z"/>
<glyph unicode="&#x137;" horiz-adv-x="544" d="M528 487L374 487L187 290L187 724L72 724L72 0L187 0L187 136L247 199L390 0L532 0L328 281ZM228 -96C228 -130 252 -153 288 -153C301 -153 311 -148 313 -146C311 -171 282 -194 240 -194L240 -238C296 -238 369 -209 369 -118C369 -65 332 -37 295 -37C258 -37 228 -63 228 -96Z"/>
<glyph unicode="&#x138;" horiz-adv-x="544" d="M528 487L374 487L187 290L187 487L72 487L72 0L187 0L187 136L247 199L390 0L532 0L328 281Z"/>
<glyph unicode="&#x139;" horiz-adv-x="551" d="M349 883L200 883L98 759L207 759ZM534 0L534 114L209 114L209 709L89 709L89 0Z"/>
<glyph unicode="&#x13a;" horiz-adv-x="260" d="M323 893L174 893L72 769L181 769ZM188 0L188 724L72 724L72 0Z"/>
<glyph unicode="&#x13b;" horiz-adv-x="551" d="M534 0L534 114L209 114L209 709L89 709L89 0ZM249 -96C249 -130 273 -153 309 -153C322 -153 332 -148 334 -146C332 -171 303 -194 261 -194L261 -238C317 -238 390 -209 390 -118C390 -65 353 -37 316 -37C279 -37 249 -63 249 -96Z"/>
<glyph unicode="&#x13c;" horiz-adv-x="260" d="M188 0L188 724L72 724L72 0ZM59 -96C59 -130 83 -153 119 -153C132 -153 142 -148 144 -146C142 -171 113 -194 71 -194L71 -238C127 -238 200 -209 200 -118C200 -65 163 -37 126 -37C89 -37 59 -63 59 -96Z"/>
<glyph unicode="&#x13d;" horiz-adv-x="551" d="M459 759L333 759L302 559L387 559ZM534 0L534 114L209 114L209 709L89 709L89 0Z"/>
<glyph unicode="&#x13e;" horiz-adv-x="260" d="M371 724L252 724L223 535L303 535ZM188 0L188 724L72 724L72 0Z"/>
<glyph unicode="&#x13f;" horiz-adv-x="551" d="M301 390C301 351 334 320 372 320C411 320 443 351 443 390C443 429 411 460 372 460C334 460 301 429 301 390ZM534 0L534 114L209 114L209 709L89 709L89 0Z"/>
<glyph unicode="&#x140;" horiz-adv-x="377" d="M188 0L188 724L72 724L72 0ZM242 321C242 282 274 250 314 250C354 250 386 282 386 321C386 361 354 393 314 393C274 393 242 361 242 321Z"/>
<glyph unicode="&#x141;" horiz-adv-x="571" d="M554 0L554 114L229 114L229 327L388 398L388 498L229 427L229 709L109 709L109 373L15 331L15 231L109 273L109 0Z"/>
<glyph unicode="&#x142;" horiz-adv-x="358" d="M238 0L238 316L328 357L328 457L238 417L238 724L122 724L122 365L35 326L35 225L122 264L122 0Z"/>
<glyph unicode="&#x143;" horiz-adv-x="773" d="M551 883L402 883L300 759L409 759ZM684 0L684 709L564 709L564 206L242 709L89 709L89 0L209 0L209 537L559 0Z"/>
<glyph unicode="&#x144;" horiz-adv-x="572" d="M438 696L301 696L212 548L307 548ZM188 281C188 345 223 396 289 396C362 396 389 348 389 288L389 0L505 0L505 308C505 415 448 501 329 501C275 501 217 478 185 422L185 487L72 487L72 0L188 0Z"/>
<glyph unicode="&#x145;" horiz-adv-x="773" d="M334 -96C334 -130 358 -153 394 -153C407 -153 417 -148 419 -146C417 -171 388 -194 346 -194L346 -238C402 -238 475 -209 475 -118C475 -65 438 -37 401 -37C364 -37 334 -63 334 -96ZM684 0L684 709L564 709L564 206L242 709L89 709L89 0L209 0L209 537L559 0Z"/>
<glyph unicode="&#x146;" horiz-adv-x="572" d="M224 -95C224 -129 248 -152 284 -152C297 -152 307 -147 309 -145C307 -170 278 -193 236 -193L236 -237C292 -237 365 -208 365 -117C365 -64 328 -36 291 -36C254 -36 224 -62 224 -95ZM188 281C188 345 223 396 289 396C362 396 389 348 389 288L389 0L505 0L505 308C505 415 448 501 329 501C275 501 217 478 185 422L185 487L72 487L72 0L188 0Z"/>
<glyph unicode="&#x147;" horiz-adv-x="773" d="M205 883L321 759L450 759L569 883L461 883L386 818L314 883ZM684 0L684 709L564 709L564 206L242 709L89 709L89 0L209 0L209 537L559 0Z"/>
<glyph unicode="&#x148;" horiz-adv-x="572" d="M107 694L213 549L337 549L443 694L345 694L275 617L205 694ZM188 281C188 345 223 396 289 396C362 396 389 348 389 288L389 0L505 0L505 308C505 415 448 501 329 501C275 501 217 478 185 422L185 487L72 487L72 0L188 0Z"/>
<glyph unicode="&#x149;" horiz-adv-x="572" d="M60 671C60 637 84 614 120 614C133 614 143 619 145 620C143 594 114 574 72 574L72 529C127 529 201 555 201 650C201 702 166 730 127 730C90 730 60 706 60 671ZM188 281C188 345 223 396 289 396C362 396 389 348 389 288L389 0L505 0L505 308C505 415 448 501 329 501C275 501 217 478 185 422L185 487L72 487L72 0L188 0Z"/>
<glyph unicode="&#x14a;" horiz-adv-x="773" d="M564 -7L564 -35C564 -73 550 -96 504 -96C490 -96 475 -94 466 -92L466 -189C472 -192 495 -199 535 -199C626 -199 684 -134 684 -41L684 709L564 709L564 208L242 709L89 709L89 0L209 0L209 537Z"/>
<glyph unicode="&#x14b;" horiz-adv-x="572" d="M188 281C188 345 223 396 289 396C362 396 389 348 389 288L389 -38C389 -78 373 -102 328 -102C309 -102 297 -100 291 -99L291 -194C296 -197 319 -203 358 -203C448 -203 505 -139 505 -47L505 308C505 415 448 501 329 501C275 501 217 478 185 422L185 487L72 487L72 0L188 0Z"/>
<glyph unicode="&#x14c;" horiz-adv-x="809" d="M167 355C167 526 285 611 404 611C524 611 642 526 642 355C642 184 524 99 404 99C285 99 167 184 167 355ZM44 355C44 122 218 -15 404 -15C590 -15 765 122 765 355C765 587 590 724 404 724C218 724 44 587 44 355ZM554 776L554 869L254 869L254 776Z"/>
<glyph unicode="&#x14d;" horiz-adv-x="587" d="M433 577L433 667L155 667L155 577ZM293 89C222 89 157 143 157 244C157 345 222 397 293 397C365 397 429 345 429 244C429 142 365 89 293 89ZM293 502C148 502 41 393 41 244C41 94 148 -15 293 -15C439 -15 546 94 546 244C546 393 439 502 293 502Z"/>
<glyph unicode="&#x14e;" horiz-adv-x="809" d="M410 754C515 754 567 821 570 886L477 886C476 861 457 832 410 832C363 832 344 861 342 886L249 886C253 821 305 754 410 754ZM167 355C167 526 285 611 404 611C524 611 642 526 642 355C642 184 524 99 404 99C285 99 167 184 167 355ZM44 355C44 122 218 -15 404 -15C590 -15 765 122 765 355C765 587 590 724 404 724C218 724 44 587 44 355Z"/>
<glyph unicode="&#x14f;" horiz-adv-x="587" d="M293 89C222 89 157 143 157 244C157 345 222 397 293 397C365 397 429 345 429 244C429 142 365 89 293 89ZM293 502C148 502 41 393 41 244C41 94 148 -15 293 -15C439 -15 546 94 546 244C546 393 439 502 293 502ZM293 547C395 547 446 619 448 694L366 694C364 666 344 633 293 633C243 633 223 665 221 694L139 694C141 619 193 547 293 547Z"/>
<glyph unicode="&#x150;" horiz-adv-x="809" d="M453 883L335 883L279 759L358 759ZM615 883L497 883L428 759L508 759ZM167 355C167 526 285 611 404 611C524 611 642 526 642 355C642 184 524 99 404 99C285 99 167 184 167 355ZM44 355C44 122 218 -15 404 -15C590 -15 765 122 765 355C765 587 590 724 404 724C218 724 44 587 44 355Z"/>
<glyph unicode="&#x151;" horiz-adv-x="587" d="M293 89C222 89 157 143 157 244C157 345 222 397 293 397C365 397 429 345 429 244C429 142 365 89 293 89ZM293 502C148 502 41 393 41 244C41 94 148 -15 293 -15C439 -15 546 94 546 244C546 393 439 502 293 502ZM348 696L230 696L178 548L254 548ZM503 696L384 696L320 548L396 548Z"/>
<glyph unicode="&#x152;" horiz-adv-x="1132" d="M1080 0L1080 112L762 112L762 300L1050 300L1050 409L762 409L762 597L1079 597L1079 709L642 709L642 627C582 690 498 724 404 724C218 724 44 587 44 355C44 122 218 -15 404 -15C498 -15 582 19 642 81L642 0ZM167 355C167 526 285 611 404 611C524 611 642 526 642 355C642 184 524 99 404 99C285 99 167 184 167 355Z"/>
<glyph unicode="&#x153;" horiz-adv-x="946" d="M293 502C148 502 41 393 41 244C41 94 148 -15 293 -15C373 -15 442 18 487 73C534 16 604 -15 679 -15C796 -15 873 54 899 139L801 170C785 122 749 85 679 85C607 85 549 138 546 212L902 212C903 214 905 230 905 249C905 403 817 502 667 502C597 502 530 468 487 415C441 470 373 502 293 502ZM293 89C222 89 157 143 157 244C157 345 222 397 293 397C365 397 429 345 429 244C429 142 365 89 293 89ZM549 297C553 349 595 405 668 405C748 405 786 354 788 297Z"/>
<glyph unicode="&#x154;" horiz-adv-x="630" d="M485 883L336 883L234 759L343 759ZM447 0L583 0L423 292C522 316 583 393 583 494C583 614 498 709 361 709L89 709L89 0L210 0L210 280L298 280ZM210 386L210 603L339 603C413 603 461 560 461 494C461 429 413 386 339 386Z"/>
<glyph unicode="&#x155;" horiz-adv-x="377" d="M349 696L212 696L123 548L218 548ZM357 490C352 491 340 493 326 493C262 493 208 462 185 409L185 487L72 487L72 0L188 0L188 232C188 323 229 375 319 375C331 375 344 374 357 372Z"/>
<glyph unicode="&#x156;" horiz-adv-x="630" d="M447 0L583 0L423 292C522 316 583 393 583 494C583 614 498 709 361 709L89 709L89 0L210 0L210 280L298 280ZM210 386L210 603L339 603C413 603 461 560 461 494C461 429 413 386 339 386ZM268 -94C268 -128 292 -151 328 -151C341 -151 351 -146 353 -144C351 -169 322 -192 280 -192L280 -236C336 -236 409 -207 409 -116C409 -63 372 -35 335 -35C298 -35 268 -61 268 -94Z"/>
<glyph unicode="&#x157;" horiz-adv-x="377" d="M357 490C352 491 340 493 326 493C262 493 208 462 185 409L185 487L72 487L72 0L188 0L188 232C188 323 229 375 319 375C331 375 344 374 357 372ZM61 -96C61 -130 85 -153 121 -153C134 -153 144 -148 146 -146C144 -171 115 -194 73 -194L73 -238C129 -238 202 -209 202 -118C202 -65 165 -37 128 -37C91 -37 61 -63 61 -96Z"/>
<glyph unicode="&#x158;" horiz-adv-x="630" d="M131 883L247 759L376 759L495 883L387 883L312 818L240 883ZM447 0L583 0L423 292C522 316 583 393 583 494C583 614 498 709 361 709L89 709L89 0L210 0L210 280L298 280ZM210 386L210 603L339 603C413 603 461 560 461 494C461 429 413 386 339 386Z"/>
<glyph unicode="&#x159;" horiz-adv-x="377" d="M40 694L146 549L270 549L376 694L278 694L208 617L138 694ZM357 490C352 491 340 493 326 493C262 493 208 462 185 409L185 487L72 487L72 0L188 0L188 232C188 323 229 375 319 375C331 375 344 374 357 372Z"/>
<glyph unicode="&#x15a;" horiz-adv-x="602" d="M493 883L344 883L242 759L351 759ZM551 543C535 622 470 724 303 724C171 724 62 626 62 507C62 401 134 330 242 308L342 287C403 274 437 237 437 191C437 136 393 93 308 93C206 93 153 161 146 235L34 203C45 101 128 -15 308 -15C470 -15 559 90 559 200C559 300 492 379 367 404L265 425C210 437 182 471 182 516C182 570 232 618 304 618C399 618 436 553 443 509Z"/>
<glyph unicode="&#x15b;" horiz-adv-x="465" d="M402 696L265 696L176 548L271 548ZM38 132C44 77 98 -15 239 -15C363 -15 423 67 423 141C423 213 375 269 283 289L209 304C179 310 160 329 160 355C160 385 189 411 230 411C295 411 316 366 320 338L418 366C410 414 366 502 230 502C129 502 51 430 51 345C51 278 96 222 182 203L254 187C293 179 311 159 311 133C311 103 286 77 238 77C176 77 143 116 139 160Z"/>
<glyph unicode="&#x15c;" horiz-adv-x="602" d="M244 759L316 823L391 759L501 759L382 883L253 883L137 759ZM551 543C535 622 470 724 303 724C171 724 62 626 62 507C62 401 134 330 242 308L342 287C403 274 437 237 437 191C437 136 393 93 308 93C206 93 153 161 146 235L34 203C45 101 128 -15 308 -15C470 -15 559 90 559 200C559 300 492 379 367 404L265 425C210 437 182 471 182 516C182 570 232 618 304 618C399 618 436 553 443 509Z"/>
<glyph unicode="&#x15d;" horiz-adv-x="465" d="M172 549L242 626L312 549L411 549L303 692L182 692L75 549ZM38 132C44 77 98 -15 239 -15C363 -15 423 67 423 141C423 213 375 269 283 289L209 304C179 310 160 329 160 355C160 385 189 411 230 411C295 411 316 366 320 338L418 366C410 414 366 502 230 502C129 502 51 430 51 345C51 278 96 222 182 203L254 187C293 179 311 159 311 133C311 103 286 77 238 77C176 77 143 116 139 160Z"/>
<glyph unicode="&#x15e;" horiz-adv-x="602" d="M277 -105C285 -102 296 -100 305 -100C331 -100 346 -114 346 -130C346 -151 326 -160 302 -160C267 -160 242 -138 229 -125L188 -175C207 -199 250 -223 303 -223C391 -223 426 -178 426 -131C426 -81 386 -48 329 -47L351 -12C486 4 559 100 559 200C559 300 492 379 367 404L265 425C210 437 182 471 182 516C182 570 232 618 304 618C399 618 436 553 443 509L551 543C535 622 470 724 303 724C171 724 62 626 62 507C62 401 134 330 242 308L342 287C403 274 437 237 437 191C437 136 393 93 308 93C206 93 153 161 146 235L34 203C44 108 117 0 273 -13L242 -62Z"/>
<glyph unicode="&#x15f;" horiz-adv-x="465" d="M201 -105C209 -102 220 -100 229 -100C255 -100 270 -114 270 -130C270 -151 250 -160 226 -160C191 -160 166 -138 153 -125L112 -175C131 -199 174 -223 227 -223C315 -223 350 -178 350 -131C350 -81 310 -48 253 -47L276 -12C376 2 423 77 423 141C423 213 375 269 283 289L209 304C179 310 160 329 160 355C160 385 189 411 230 411C295 411 316 366 320 338L418 366C410 414 366 502 230 502C129 502 51 430 51 345C51 278 96 222 182 203L254 187C293 179 311 159 311 133C311 103 286 77 238 77C176 77 143 116 139 160L38 132C43 82 87 4 198 -12L166 -62Z"/>
<glyph unicode="&#x160;" horiz-adv-x="602" d="M127 883L243 759L372 759L491 883L383 883L308 818L236 883ZM551 543C535 622 470 724 303 724C171 724 62 626 62 507C62 401 134 330 242 308L342 287C403 274 437 237 437 191C437 136 393 93 308 93C206 93 153 161 146 235L34 203C45 101 128 -15 308 -15C470 -15 559 90 559 200C559 300 492 379 367 404L265 425C210 437 182 471 182 516C182 570 232 618 304 618C399 618 436 553 443 509Z"/>
<glyph unicode="&#x161;" horiz-adv-x="465" d="M67 694L173 549L297 549L403 694L305 694L235 617L165 694ZM38 132C44 77 98 -15 239 -15C363 -15 423 67 423 141C423 213 375 269 283 289L209 304C179 310 160 329 160 355C160 385 189 411 230 411C295 411 316 366 320 338L418 366C410 414 366 502 230 502C129 502 51 430 51 345C51 278 96 222 182 203L254 187C293 179 311 159 311 133C311 103 286 77 238 77C176 77 143 116 139 160Z"/>
<glyph unicode="&#x162;" horiz-adv-x="615" d="M265 -105C273 -102 284 -100 293 -100C319 -100 334 -114 334 -130C334 -151 314 -160 290 -160C255 -160 230 -138 217 -125L176 -175C195 -199 238 -223 291 -223C379 -223 414 -178 414 -131C414 -81 374 -48 317 -47L347 0L367 0L367 596L598 596L598 709L17 709L17 596L247 596L247 0L269 0L230 -62Z"/>
<glyph unicode="&#x163;" horiz-adv-x="365" d="M225 636L120 636L120 563C120 520 97 487 45 487L20 487L20 384L110 384L110 139C110 48 166 -6 256 -6C298 -6 320 2 327 5L327 101C322 100 303 97 287 97C244 97 225 115 225 158L225 384L326 384L326 487L225 487ZM148 -96C148 -130 172 -153 208 -153C221 -153 231 -148 233 -146C231 -171 202 -194 160 -194L160 -238C216 -238 289 -209 289 -118C289 -65 252 -37 215 -37C178 -37 148 -63 148 -96Z"/>
<glyph unicode="&#x164;" horiz-adv-x="615" d="M126 883L242 759L371 759L490 883L382 883L307 818L235 883ZM598 596L598 709L17 709L17 596L247 596L247 0L367 0L367 596Z"/>
<glyph unicode="&#x165;" horiz-adv-x="365" d="M430 750L311 750L282 561L362 561ZM225 636L120 636L120 563C120 520 97 487 45 487L20 487L20 384L110 384L110 139C110 48 166 -6 256 -6C298 -6 320 2 327 5L327 101C322 100 303 97 287 97C244 97 225 115 225 158L225 384L326 384L326 487L225 487Z"/>
<glyph unicode="&#x166;" horiz-adv-x="624" d="M602 596L602 709L21 709L21 596L251 596L251 372L138 372L138 279L251 279L251 0L371 0L371 279L488 279L488 372L371 372L371 596Z"/>
<glyph unicode="&#x167;" horiz-adv-x="372" d="M116 139C116 48 172 -6 262 -6C306 -6 326 2 333 5L333 101C328 100 309 97 293 97C250 97 231 115 231 158L231 202L332 202L332 288L231 288L231 384L332 384L332 487L231 487L231 636L126 636L126 563C126 520 103 487 51 487L26 487L26 384L116 384L116 288L26 288L26 202L116 202Z"/>
<glyph unicode="&#x168;" horiz-adv-x="693" d="M346 -15C495 -15 611 76 611 247L611 709L491 709L491 254C491 154 437 99 346 99C256 99 201 154 201 254L201 709L82 709L82 247C82 76 198 -15 346 -15ZM514 886L440 886L440 876C440 852 426 843 409 843C396 843 382 851 366 860L356 866C336 878 311 889 282 889C227 889 182 853 182 779L182 757L257 757L257 767C257 789 272 800 287 800C302 800 316 793 332 783L342 776C362 764 386 753 415 753C470 753 514 790 514 863Z"/>
<glyph unicode="&#x169;" horiz-adv-x="571" d="M389 54C389 34 391 11 393 0L504 0C502 18 499 49 499 89L499 487L383 487L383 199C383 135 348 90 281 90C211 90 183 141 183 201L183 487L67 487L67 180C67 72 135 -14 251 -14C308 -14 365 10 389 54ZM119 556L195 556C195 587 205 599 225 599C240 599 253 592 268 583L278 577C298 565 320 554 349 554C407 554 451 593 451 671L451 688L375 688C375 657 364 644 344 644C329 644 316 652 301 661L291 667C271 679 250 689 221 689C163 689 118 652 118 574Z"/>
<glyph unicode="&#x16a;" horiz-adv-x="693" d="M346 -15C495 -15 611 76 611 247L611 709L491 709L491 254C491 154 437 99 346 99C256 99 201 154 201 254L201 709L82 709L82 247C82 76 198 -15 346 -15ZM497 776L497 869L197 869L197 776Z"/>
<glyph unicode="&#x16b;" horiz-adv-x="571" d="M389 54C389 34 391 11 393 0L504 0C502 18 499 49 499 89L499 487L383 487L383 199C383 135 348 90 281 90C211 90 183 141 183 201L183 487L67 487L67 180C67 72 135 -14 251 -14C308 -14 365 10 389 54ZM422 577L422 667L144 667L144 577Z"/>
<glyph unicode="&#x16c;" horiz-adv-x="693" d="M346 -15C495 -15 611 76 611 247L611 709L491 709L491 254C491 154 437 99 346 99C256 99 201 154 201 254L201 709L82 709L82 247C82 76 198 -15 346 -15ZM347 754C452 754 504 821 507 886L414 886C413 861 394 832 347 832C300 832 281 861 279 886L186 886C190 821 242 754 347 754Z"/>
<glyph unicode="&#x16d;" horiz-adv-x="571" d="M389 54C389 34 391 11 393 0L504 0C502 18 499 49 499 89L499 487L383 487L383 199C383 135 348 90 281 90C211 90 183 141 183 201L183 487L67 487L67 180C67 72 135 -14 251 -14C308 -14 365 10 389 54ZM282 547C384 547 435 619 437 694L355 694C353 666 333 633 282 633C232 633 212 665 210 694L128 694C130 619 182 547 282 547Z"/>
<glyph unicode="&#x16e;" horiz-adv-x="693" d="M346 -15C495 -15 611 76 611 247L611 709L491 709L491 254C491 154 437 99 346 99C256 99 201 154 201 254L201 709L82 709L82 247C82 76 198 -15 346 -15ZM469 853C469 921 412 972 346 972C281 972 224 921 224 853C224 785 281 734 346 734C412 734 469 785 469 853ZM393 853C393 825 372 806 346 806C319 806 299 825 299 853C299 881 319 900 346 900C372 900 393 881 393 853Z"/>
<glyph unicode="&#x16f;" horiz-adv-x="571" d="M397 645C397 709 344 756 283 756C223 756 170 709 170 645C170 582 223 535 283 535C344 535 397 582 397 645ZM327 645C327 620 308 601 282 601C258 601 239 620 239 645C239 671 258 690 282 690C308 690 327 671 327 645ZM389 54C389 34 391 11 393 0L504 0C502 18 499 49 499 89L499 487L383 487L383 199C383 135 348 90 281 90C211 90 183 141 183 201L183 487L67 487L67 180C67 72 135 -14 251 -14C308 -14 365 10 389 54Z"/>
<glyph unicode="&#x170;" horiz-adv-x="693" d="M394 883L276 883L220 759L299 759ZM556 883L438 883L369 759L449 759ZM346 -15C495 -15 611 76 611 247L611 709L491 709L491 254C491 154 437 99 346 99C256 99 201 154 201 254L201 709L82 709L82 247C82 76 198 -15 346 -15Z"/>
<glyph unicode="&#x171;" horiz-adv-x="571" d="M389 54C389 34 391 11 393 0L504 0C502 18 499 49 499 89L499 487L383 487L383 199C383 135 348 90 281 90C211 90 183 141 183 201L183 487L67 487L67 180C67 72 135 -14 251 -14C308 -14 365 10 389 54ZM327 696L209 696L157 548L233 548ZM482 696L363 696L299 548L375 548Z"/>
<glyph unicode="&#x172;" horiz-adv-x="693" d="M397 -220C421 -220 435 -217 448 -212L448 -138C439 -140 430 -141 417 -141C389 -141 365 -125 365 -92C365 -48 402 -19 450 0C546 38 611 117 611 247L611 709L491 709L491 254C491 154 437 99 346 99C256 99 201 154 201 254L201 709L82 709L82 247C82 83 188 -7 328 -14C300 -37 278 -69 278 -116C278 -180 330 -220 397 -220Z"/>
<glyph unicode="&#x173;" horiz-adv-x="571" d="M334 -116C334 -180 386 -220 453 -220C477 -220 491 -217 504 -212L504 -138C494 -140 484 -141 473 -141C446 -141 422 -127 422 -95C422 -50 466 -18 504 0C502 19 499 48 499 89L499 487L383 487L383 199C383 135 348 90 281 90C211 90 183 141 183 201L183 487L67 487L67 180C67 72 135 -14 251 -14C308 -14 365 10 389 54C389 34 391 11 393 0L405 0C368 -22 334 -57 334 -116Z"/>
<glyph unicode="&#x174;" horiz-adv-x="1032" d="M441 759L513 823L588 759L698 759L579 883L450 883L334 759ZM748 187L579 709L454 709L288 191L146 709L20 709L221 0L344 0L516 536L688 0L812 0L1011 709L887 709Z"/>
<glyph unicode="&#x175;" horiz-adv-x="828" d="M343 549L413 626L483 549L582 549L474 692L353 692L246 549ZM356 487L241 150L142 487L18 487L176 0L295 0L413 350L534 0L650 0L806 487L688 487L591 150L476 487Z"/>
<glyph unicode="&#x176;" horiz-adv-x="651" d="M265 300L265 0L385 0L385 300L635 709L500 709L329 412L159 709L17 709ZM251 759L323 823L398 759L508 759L389 883L260 883L144 759Z"/>
<glyph unicode="&#x177;" horiz-adv-x="551" d="M230 -197L540 487L417 487L286 179L146 487L15 487L223 58L106 -197ZM207 549L277 626L347 549L446 549L338 692L217 692L110 549Z"/>
<glyph unicode="&#x178;" horiz-adv-x="651" d="M142 821C142 784 170 755 208 755C245 755 274 784 274 821C274 858 245 888 208 888C170 888 142 858 142 821ZM381 821C381 784 410 755 447 755C484 755 514 784 514 821C514 858 484 888 447 888C410 888 381 858 381 821ZM265 300L265 0L385 0L385 300L635 709L500 709L329 412L159 709L17 709Z"/>
<glyph unicode="&#x179;" horiz-adv-x="639" d="M486 883L337 883L235 759L344 759ZM595 0L595 114L192 114L590 595L590 709L53 709L53 596L435 596L42 118L42 0Z"/>
<glyph unicode="&#x17a;" horiz-adv-x="488" d="M397 696L260 696L171 548L266 548ZM443 0L443 102L188 102L438 389L438 487L50 487L50 385L292 385L45 101L45 0Z"/>
<glyph unicode="&#x17b;" horiz-adv-x="639" d="M595 0L595 114L192 114L590 595L590 709L53 709L53 596L435 596L42 118L42 0ZM250 826C250 787 283 755 323 755C363 755 396 787 396 826C396 867 363 899 323 899C283 899 250 867 250 826Z"/>
<glyph unicode="&#x17c;" horiz-adv-x="488" d="M443 0L443 102L188 102L438 389L438 487L50 487L50 385L292 385L45 101L45 0ZM173 622C173 583 205 551 245 551C285 551 317 583 317 622C317 662 285 694 245 694C205 694 173 662 173 622Z"/>
<glyph unicode="&#x17d;" horiz-adv-x="639" d="M143 883L259 759L388 759L507 883L399 883L324 818L252 883ZM595 0L595 114L192 114L590 595L590 709L53 709L53 596L435 596L42 118L42 0Z"/>
<glyph unicode="&#x17e;" horiz-adv-x="488" d="M80 694L186 549L310 549L416 694L318 694L248 617L178 694ZM443 0L443 102L188 102L438 389L438 487L50 487L50 385L292 385L45 101L45 0Z"/>
<glyph unicode="&#x18f;" horiz-adv-x="790" d="M385 724C210 724 81 615 46 494L156 455C179 533 264 612 383 612C502 612 613 537 620 378L38 378C37 365 37 357 37 352C37 107 210 -15 390 -15C576 -15 745 119 745 352C745 593 584 724 385 724ZM390 95C271 95 185 170 169 275L610 275C589 164 504 95 390 95Z"/>
<glyph unicode="&#x192;" horiz-adv-x="5120" d="M2128 382C2006 412 1984 431 1984 474C1984 515 2022 542 2079 542C2134 542 2188 521 2245 478C2246 477 2248 476 2250 476C2253 476 2256 478 2257 480L2316 564C2317 566 2318 567 2318 569C2318 571 2317 573 2315 575C2250 628 2172 656 2081 656C1949 656 1857 577 1857 464C1857 344 1937 300 2073 268C2190 240 2210 218 2210 178C2210 133 2170 105 2106 105C2035 105 1977 129 1912 186C1911 187 1909 188 1906 188C1904 188 1902 186 1901 185L1834 105C1833 104 1832 101 1832 99C1832 97 1833 96 1835 94C1911 26 2003 -9 2103 -9C2244 -9 2336 69 2336 188C2336 289 2276 346 2128 382ZM2657 502C2595 502 2545 477 2504 428L2504 484C2504 489 2500 492 2495 492L2387 492C2382 492 2378 489 2378 484L2378 -135C2378 -140 2382 -144 2387 -144L2495 -144C2500 -144 2504 -140 2504 -135L2504 60C2545 13 2595 -9 2657 -9C2771 -9 2886 78 2886 246C2886 414 2771 502 2657 502ZM2760 246C2760 160 2707 101 2632 101C2557 101 2501 163 2501 246C2501 329 2557 391 2632 391C2706 391 2760 330 2760 246ZM3183 502C3036 502 2921 388 2921 244C2921 101 3035 -10 3181 -10C3328 -10 3444 102 3444 246C3444 389 3329 502 3183 502ZM3183 100C3104 100 3045 163 3045 246C3045 330 3102 390 3181 390C3259 390 3318 328 3318 244C3318 161 3261 100 3183 100ZM3637 492L3637 615C3637 619 3633 622 3629 622L3520 622C3516 622 3512 619 3512 615L3512 492L3459 492C3456 492 3452 489 3452 484L3452 390C3452 386 3456 382 3459 382L3512 382L3512 140C3512 42 3560 -8 3657 -8C3702 -8 3731 2 3757 17C3763 20 3763 24 3763 26L3763 113C3763 119 3759 122 3755 122C3752 122 3747 119 3742 117C3736 114 3715 105 3688 105C3653 105 3637 121 3637 157L3637 382L3757 382C3762 382 3765 386 3765 390L3765 484C3765 489 3762 492 3757 492ZM4294 559C4299 559 4302 564 4302 567L4302 659C4302 663 4299 666 4296 667C4271 675 4242 679 4206 679C4105 679 4051 622 4051 516L4051 492L3999 492C3995 492 3992 489 3992 485L3992 390C3992 386 3995 382 3999 382L4051 382L4051 9C4051 4 4055 0 4060 0L4168 0C4173 0 4177 4 4177 9L4177 382L4279 382L4434 9C4416 -31 4399 -39 4375 -39C4356 -39 4339 -33 4315 -21C4314 -21 4312 -20 4311 -20C4308 -20 4305 -22 4304 -25L4268 -107C4267 -109 4267 -110 4267 -112C4267 -114 4269 -117 4271 -118C4311 -138 4344 -147 4387 -147C4468 -147 4512 -109 4551 -8L4739 477C4740 479 4741 483 4741 484C4741 489 4736 492 4733 492L4619 492C4616 492 4613 490 4612 487L4496 154L4369 488C4368 490 4364 492 4361 492L4175 492L4175 506C4175 551 4192 571 4230 571C4246 571 4256 569 4273 565C4286 562 4291 559 4294 559ZM3823 492C3820 492 3816 489 3816 484L3816 9C3816 4 3820 0 3823 0L3933 0C3937 0 3940 4 3940 9L3940 484C3940 489 3937 492 3933 492ZM3878 708C3835 708 3801 674 3801 631C3801 587 3835 552 3878 552C3921 552 3957 587 3957 631C3957 674 3921 708 3878 708ZM4833 338C4876 338 4910 373 4910 416C4910 458 4876 492 4833 492C4790 492 4757 457 4757 415C4757 373 4790 338 4833 338ZM4833 484C4873 484 4903 453 4903 416C4903 377 4873 345 4833 345C4794 345 4765 376 4765 415C4765 453 4794 484 4833 484ZM4851 407C4861 411 4870 418 4870 431C4870 448 4857 458 4838 458L4803 458L4803 377L4818 377L4818 404L4834 404L4854 377L4873 377ZM4838 444C4847 444 4854 439 4854 430C4854 423 4847 418 4838 418L4818 418L4818 444ZM1200 -6C1192 -6 1184 -3 1177 1C1070 66 946 100 804 100C754 100 676 95 589 77C579 75 557 69 548 69C522 69 505 90 505 113C505 133 519 150 539 155C631 176 719 187 802 187C983 187 1118 141 1223 76C1236 68 1244 54 1244 39C1244 14 1223 -6 1200 -6ZM1277 181C1267 181 1257 184 1248 189C1124 266 957 307 794 307C741 307 664 302 587 283C549 274 550 270 527 270C495 270 475 295 475 324C475 348 490 370 514 377C603 404 699 417 796 417C978 417 1164 371 1306 284C1323 274 1332 256 1332 237C1332 206 1306 181 1277 181ZM1332 408C1191 492 993 528 812 528C700 528 595 514 512 489C506 487 499 486 493 486C455 486 428 519 428 553C428 581 446 607 475 616C568 644 684 660 806 660C1023 660 1234 617 1399 521C1420 509 1432 487 1432 465C1432 428 1402 399 1365 399C1354 399 1342 402 1332 408ZM210 327C210 -63 527 -378 916 -378C1305 -378 1621 -63 1621 327C1621 717 1305 1033 916 1033C527 1033 210 717 210 327Z"/>
<glyph unicode="&#x1b5;" horiz-adv-x="648" d="M600 0L600 114L197 114L365 317L565 317L565 418L448 418L595 595L595 709L58 709L58 596L440 596L293 418L80 418L80 317L210 317L47 118L47 0Z"/>
<glyph unicode="&#x1b6;" horiz-adv-x="496" d="M447 0L447 100L192 100L282 206L438 206L438 292L355 292L442 394L442 487L54 487L54 387L301 387L220 292L57 292L57 206L147 206L49 91L49 0Z"/>
<glyph unicode="&#x1fa;" horiz-adv-x="717" d="M552 1032L403 1032L301 908L410 908ZM356 579L464 289L248 289ZM356 709C328 709 306 729 306 759C306 788 328 808 356 808C384 808 406 788 406 759C406 729 384 709 356 709ZM486 759C486 831 426 885 356 885C287 885 227 831 227 759C227 720 244 686 271 663L13 0L140 0L206 178L506 178L573 0L704 0L444 666C470 689 486 721 486 759Z"/>
<glyph unicode="&#x1fb;" horiz-adv-x="531" d="M41 132C41 55 104 -15 206 -15C285 -15 333 25 356 62C356 23 360 3 361 0L469 0C468 5 463 34 463 78L463 320C463 417 406 502 256 502C136 502 60 427 51 343L157 319C162 368 196 407 257 407C321 407 349 374 349 333C349 316 341 302 313 298L188 279C105 267 41 219 41 132ZM228 76C182 76 157 106 157 139C157 179 186 199 222 205L349 224L349 202C349 107 293 76 228 76ZM434 931L297 931L208 783L303 783ZM373 640C373 704 320 751 259 751C199 751 146 704 146 640C146 577 199 530 259 530C320 530 373 577 373 640ZM303 640C303 615 284 596 258 596C234 596 215 615 215 640C215 666 234 685 258 685C284 685 303 666 303 640Z"/>
<glyph unicode="&#x1fc;" horiz-adv-x="1027" d="M743 883L594 883L492 759L601 759ZM974 0L974 112L656 112L656 300L944 300L944 409L656 409L656 597L974 597L974 709L465 709L-5 0L144 0L259 180L536 180L536 0ZM325 283L536 611L536 283Z"/>
<glyph unicode="&#x1fd;" horiz-adv-x="871" d="M603 696L466 696L377 548L472 548ZM727 171C710 122 674 85 604 85C532 85 473 137 470 212L828 212C829 221 830 238 830 249C830 403 744 502 594 502C532 502 472 476 429 431C397 473 342 502 261 502C149 502 59 430 51 343L153 322C158 368 197 408 260 408C325 408 357 373 357 333C357 318 350 302 320 298L188 279C105 267 41 219 41 132C41 55 104 -15 220 -15C320 -15 377 33 408 80C453 19 525 -15 603 -15C716 -15 799 54 825 139ZM232 76C183 76 157 106 157 137C157 177 184 200 222 205L357 224L357 201C357 107 291 76 232 76ZM473 297C477 349 519 405 593 405C673 405 712 354 714 297Z"/>
<glyph unicode="&#x1fe;" horiz-adv-x="809" d="M596 883L447 883L345 759L454 759ZM44 355C44 246 82 158 142 95L71 4L151 -55L219 33C275 1 339 -15 404 -15C590 -15 765 122 765 355C765 463 727 550 667 613L739 705L661 765L590 674C534 706 470 724 404 724C218 724 44 587 44 355ZM167 355C167 526 285 611 404 611C444 611 484 601 519 582L216 191C185 232 167 286 167 355ZM642 355C642 184 524 99 404 99C365 99 326 108 291 126L594 517C623 476 642 422 642 355Z"/>
<glyph unicode="&#x1ff;" horiz-adv-x="587" d="M468 696L331 696L242 548L337 548ZM293 502C148 502 41 393 41 244C41 174 64 113 104 68L54 5L117 -46L167 17C202 -3 243 -15 293 -15C439 -15 546 94 546 244C546 312 523 373 484 418L536 483L474 534L422 469C385 490 341 502 293 502ZM157 244C157 345 222 397 293 397C314 397 335 392 354 383L176 159C164 182 157 210 157 244ZM293 89C272 89 252 93 234 102L411 326C422 304 429 276 429 244C429 142 365 89 293 89Z"/>
<glyph unicode="&#x218;" horiz-adv-x="602" d="M551 543C535 622 470 724 303 724C171 724 62 626 62 507C62 401 134 330 242 308L342 287C403 274 437 237 437 191C437 136 393 93 308 93C206 93 153 161 146 235L34 203C45 101 128 -15 308 -15C470 -15 559 90 559 200C559 300 492 379 367 404L265 425C210 437 182 471 182 516C182 570 232 618 304 618C399 618 436 553 443 509ZM243 -96C243 -130 267 -153 303 -153C316 -153 326 -148 328 -146C326 -171 297 -194 255 -194L255 -238C311 -238 384 -209 384 -118C384 -65 347 -37 310 -37C273 -37 243 -63 243 -96Z"/>
<glyph unicode="&#x219;" horiz-adv-x="465" d="M38 132C44 77 98 -15 239 -15C363 -15 423 67 423 141C423 213 375 269 283 289L209 304C179 310 160 329 160 355C160 385 189 411 230 411C295 411 316 366 320 338L418 366C410 414 366 502 230 502C129 502 51 430 51 345C51 278 96 222 182 203L254 187C293 179 311 159 311 133C311 103 286 77 238 77C176 77 143 116 139 160ZM168 -98C168 -132 192 -155 228 -155C241 -155 251 -150 253 -148C251 -173 222 -196 180 -196L180 -240C236 -240 309 -211 309 -120C309 -67 272 -39 235 -39C198 -39 168 -65 168 -98Z"/>
<glyph unicode="&#x21a;" horiz-adv-x="615" d="M598 596L598 709L17 709L17 596L247 596L247 0L367 0L367 596ZM237 -96C237 -130 261 -153 297 -153C310 -153 320 -148 322 -146C320 -171 291 -194 249 -194L249 -238C305 -238 378 -209 378 -118C378 -65 341 -37 304 -37C267 -37 237 -63 237 -96Z"/>
<glyph unicode="&#x21b;" horiz-adv-x="365" d="M182 -105C190 -102 201 -100 210 -100C236 -100 251 -114 251 -130C251 -151 231 -160 207 -160C172 -160 147 -138 134 -125L93 -175C112 -199 155 -223 208 -223C296 -223 331 -178 331 -131C331 -81 291 -48 234 -47L260 -6C299 -5 320 2 327 5L327 101C322 100 303 97 287 97C244 97 225 115 225 158L225 384L326 384L326 487L225 487L225 636L120 636L120 563C120 520 97 487 45 487L20 487L20 384L110 384L110 139C110 73 139 26 190 6L147 -62Z"/>
<glyph unicode="&#x237;" horiz-adv-x="260" d="M72 -40C72 -80 56 -103 12 -103C-1 -103 -18 -101 -23 -100L-23 -196C-18 -198 4 -205 43 -205C133 -205 188 -140 188 -49L188 487L72 487Z"/>
<glyph unicode="&#x259;" horiz-adv-x="560" d="M400 188C396 135 354 81 280 81C201 81 158 130 156 188ZM141 316C158 363 204 403 272 403C350 403 400 348 403 271L41 271C41 270 39 251 39 236C39 84 134 -15 281 -15C410 -15 518 88 518 242C518 398 423 502 274 502C156 502 73 431 45 350Z"/>
<glyph unicode="&#x2c6;" horiz-adv-x="396" d="M127 549L197 626L267 549L366 549L258 692L137 692L30 549Z"/>
<glyph unicode="&#x2c7;" horiz-adv-x="396" d="M30 694L136 549L260 549L366 694L268 694L198 617L128 694Z"/>
<glyph unicode="&#x2c9;" horiz-adv-x="338" d="M308 577L308 667L30 667L30 577Z"/>
<glyph unicode="&#x2d8;" horiz-adv-x="369" d="M184 547C286 547 337 619 339 694L257 694C255 666 235 633 184 633C134 633 114 665 112 694L30 694C32 619 84 547 184 547Z"/>
<glyph unicode="&#x2d9;" horiz-adv-x="184" d="M20 622C20 583 52 551 92 551C132 551 164 583 164 622C164 662 132 694 92 694C52 694 20 662 20 622Z"/>
<glyph unicode="&#x2da;" horiz-adv-x="287" d="M257 645C257 709 204 756 143 756C83 756 30 709 30 645C30 582 83 535 143 535C204 535 257 582 257 645ZM187 645C187 620 168 601 142 601C118 601 99 620 99 645C99 671 118 690 142 690C168 690 187 671 187 645Z"/>
<glyph unicode="&#x2db;" horiz-adv-x="228" d="M147 -220C171 -220 185 -217 198 -212L198 -138C188 -140 178 -141 167 -141C140 -141 116 -127 116 -95C116 -50 160 -18 198 0L130 16C85 -4 28 -41 28 -116C28 -180 80 -220 147 -220Z"/>
<glyph unicode="&#x2dc;" horiz-adv-x="385" d="M27 556L103 556C103 587 113 599 133 599C148 599 161 592 176 583L186 577C206 565 228 554 257 554C315 554 359 593 359 671L359 688L283 688C283 657 272 644 252 644C237 644 224 652 209 661L199 667C179 679 158 689 129 689C71 689 26 652 26 574Z"/>
<glyph unicode="&#x2dd;" horiz-adv-x="383" d="M199 696L81 696L29 548L105 548ZM354 696L235 696L171 548L247 548Z"/>
<glyph unicode="&#x394;" horiz-adv-x="704" d="M13 0L691 0L416 709L287 709ZM351 576L523 111L180 111Z"/>
<glyph unicode="&#x3a9;" horiz-adv-x="804" d="M402 614C514 614 628 535 628 391C628 264 533 183 441 164L441 0L745 0L745 109L556 109C656 148 751 251 751 396C751 600 585 724 402 724C219 724 53 600 53 396C53 251 148 148 248 109L59 109L59 0L363 0L363 164C271 183 176 264 176 391C176 535 290 614 402 614Z"/>
<glyph unicode="&#x3bc;" horiz-adv-x="576" d="M394 54C394 34 396 11 398 0L509 0C508 9 504 46 504 89L504 487L388 487L388 199C388 135 353 90 286 90C216 90 188 141 188 201L188 487L72 487L72 -190L188 -190L188 -2C208 -10 231 -14 256 -14C313 -14 370 10 394 54Z"/>
<glyph unicode="&#x3c0;" horiz-adv-x="620" d="M573 5L573 95C564 92 556 91 542 91C515 91 491 103 491 139L491 387L571 387L571 487L31 487L31 387L114 387L114 0L229 0L229 387L376 387L376 125C376 51 418 -8 508 -8C544 -8 565 2 573 5Z"/>
</font>
</defs>
</svg>
