<?xml version="1.0" encoding="UTF-8" standalone="no"?>
<svg
   viewBox="0 200 1122.52 493.70135"
   height="193.70135"
   width="1122.52"
   xml:space="preserve"
   id="svg2"
   version="1.1"
   inkscape:version="1.1 (c68e22c387, 2021-05-23)"
   xmlns:inkscape="http://www.inkscape.org/namespaces/inkscape"
   xmlns:sodipodi="http://sodipodi.sourceforge.net/DTD/sodipodi-0.dtd"
   xmlns="http://www.w3.org/2000/svg"
   xmlns:svg="http://www.w3.org/2000/svg"
   xmlns:rdf="http://www.w3.org/1999/02/22-rdf-syntax-ns#"
   xmlns:cc="http://creativecommons.org/ns#"
   xmlns:dc="http://purl.org/dc/elements/1.1/"><sodipodi:namedview
     id="namedview25"
     pagecolor="#ffffff"
     bordercolor="#666666"
     borderopacity="1.0"
     inkscape:pageshadow="2"
     inkscape:pageopacity="0.0"
     inkscape:pagecheckerboard="0"
     showgrid="false"
     inkscape:zoom="1.2382853"
     inkscape:cx="401.76526"
     inkscape:cy="96.504419"
     inkscape:window-width="2560"
     inkscape:window-height="1361"
     inkscape:window-x="1080"
     inkscape:window-y="433"
     inkscape:window-maximized="1"
     inkscape:current-layer="svg2" /><metadata
     id="metadata8"><rdf:RDF><cc:Work
         rdf:about=""><dc:format>image/svg+xml</dc:format><dc:type
           rdf:resource="http://purl.org/dc/dcmitype/StillImage" /></cc:Work></rdf:RDF></metadata><defs
     id="defs6"><clipPath
       id="clipPath18"
       clipPathUnits="userSpaceOnUse"><path
         id="path16"
         d="M 0,595.276 H 841.89 V 0 H 0 Z" /></clipPath></defs><g
     transform="matrix(4.4554836,0,0,-4.4554836,-1314.2534,1771.5521)"
     id="g10"><g
       id="g12"><g
         clip-path="url(#clipPath18)"
         id="g14"><path
           id="path20"
           style="fill:#ed1c24;fill-opacity:1;fill-rule:nonzero;stroke:none"
           d="m 382.603,271.558 16.89,-0.024 8.085,32.486 -25.787,-9.326 5.573,-4.041 z" /><path
           id="path22"
           style="fill:#ed1c24;fill-opacity:1;fill-rule:nonzero;stroke:none"
           d="m 268.953,308.961 c -1.377,-7.693 -3.061,-15.341 -5.565,-22.755 -0.883,-2.818 -3.581,-4.107 -6.453,-4.576 h -0.119 c -2.46,-0.352 -5.449,-0.352 -7.914,0.293 -2.932,0.82 -4.69,2.467 -4.222,5.16 1.2,6.922 2.761,13.798 4.986,20.468 1.054,3.407 2.927,5.104 7.15,5.573 0.119,0.06 0.294,0.06 0.412,0.06 1.053,0.119 1.994,0.178 2.873,0.178 0.823,0 1.758,0 2.875,-0.119 1.114,-0.059 2.108,-0.235 3.05,-0.528 0.934,-0.295 1.695,-0.707 2.286,-1.291 0.585,-0.646 0.819,-1.465 0.641,-2.463 m 2.47,14.006 c -6.405,0.951 -13.106,0.756 -19.429,0.069 -2.142,-0.235 -4.292,-0.553 -6.376,-1.112 -7.442,-1.996 -11.491,-6.631 -14.362,-15.543 -0.705,-2.404 -1.411,-4.812 -1.997,-7.273 -0.646,-2.463 -1.113,-4.986 -1.523,-7.447 -0.409,-2.525 -0.644,-4.932 -0.644,-7.271 0,-1.996 0.348,-3.698 1.113,-5.104 2.143,-3.941 6.408,-6.062 10.605,-6.926 5.068,-1.045 10.407,-1.429 15.572,-1.318 4.802,0.102 9.636,0.6 14.243,2.002 2.165,0.658 4.326,1.605 6.201,2.885 3.558,2.429 5.698,6.148 7.092,10.144 0.797,2.283 1.352,4.633 1.967,6.969 1.104,4.189 1.906,8.464 2.448,12.761 0.452,3.58 1.241,7.649 -0.864,10.883 -1.806,2.777 -5.159,4.191 -8.227,5.051 -1.899,0.531 -3.845,0.935 -5.819,1.23" /><path
           id="path24"
           style="fill:#ed1c24;fill-opacity:1;fill-rule:nonzero;stroke:none"
           d="m 725.318,319.711 h -8.404 v 2.196 c -0.003,0 -0.008,0.002 -0.008,0.004 0,0.769 -0.647,1.402 -1.477,1.484 h -8.594 c -0.756,-0.049 -1.374,-0.545 -1.514,-1.201 -0.003,-0.024 -0.008,-0.047 -0.01,-0.072 v -2.411 h -18.367 v 2.432 c -0.113,0.662 -0.711,1.178 -1.454,1.252 h -8.559 c -0.756,-0.049 -1.371,-0.545 -1.514,-1.201 -0.018,-0.084 -0.028,-0.168 -0.031,-0.256 v -2.227 c 0,0 -8.251,-0.011 -8.278,-0.011 -0.693,0 -1.27,-0.446 -1.397,-1.035 -0.016,-0.071 -0.021,-0.139 -0.023,-0.211 v -3.848 -0.045 c 0.012,-0.682 0.616,-1.228 1.367,-1.256 h 8.334 v -1.584 c 0,-0.765 0.693,-1.453 1.521,-1.453 0,0 8.338,-0.006 8.371,-0.006 0.816,0 1.646,0.518 1.646,1.231 v 1.812 h 18.384 v -1.676 c 0.067,-0.724 0.71,-1.302 1.517,-1.361 h 8.391 c 0.012,0.002 0.02,0.002 0.041,0.002 0.815,0 1.494,0.533 1.631,1.23 0.015,0.073 0.02,0.145 0.023,0.221 v 1.584 h 8.314 c 0.007,0.002 0.012,0.004 0.026,0.004 0.783,0 1.421,0.57 1.423,1.279 v 3.85 c -0.002,0.686 -0.606,1.242 -1.359,1.273" /><path
           id="path26"
           style="fill:#ed1c24;fill-opacity:1;fill-rule:nonzero;stroke:none"
           d="m 679.488,304.862 c -0.026,0 -0.044,0.004 -0.061,0.01 h -8.366 c -0.622,-0.045 -1.125,-0.448 -1.266,-0.981 -0.437,-4.889 -3.636,-26.435 -4.107,-31.71 0.057,-0.604 0.572,-1.082 1.232,-1.159 2.163,0.006 6.346,0.018 8.508,0.024 0.01,0.002 0.014,0.006 0.028,0.006 0.786,0 1.423,0.574 1.423,1.283 0.474,5.375 3.559,25.957 4.03,31.283 -0.023,0.689 -0.649,1.244 -1.421,1.244" /><path
           id="path28"
           style="fill:#ed1c24;fill-opacity:1;fill-rule:nonzero;stroke:none"
           d="m 711.455,303.618 c 0.472,-5.326 3.557,-25.908 4.03,-31.283 0,-0.709 0.637,-1.283 1.426,-1.283 0.011,0 0.019,-0.004 0.028,-0.006 2.16,-0.006 6.342,-0.018 8.506,-0.024 0.659,0.077 1.172,0.555 1.232,1.159 -0.474,5.275 -3.67,26.821 -4.108,31.71 -0.139,0.533 -0.644,0.936 -1.265,0.981 h -8.366 c -0.015,-0.006 -0.033,-0.01 -0.061,-0.01 -0.772,0 -1.398,-0.555 -1.422,-1.244" /><path
           id="path30"
           style="fill:#ed1c24;fill-opacity:1;fill-rule:nonzero;stroke:none"
           d="m 708.189,303.864 c -0.126,0.551 -0.652,0.967 -1.289,1.008 h -7.588 c -0.003,0 -0.006,-0.002 -0.006,-0.002 -0.694,0 -1.498,-0.672 -1.4,-1.317 0.013,-0.08 3.031,-22.304 3.08,-22.812 h 10.218 c 0,0 -2.288,17.527 -3.015,23.123" /><path
           id="path32"
           style="fill:#ed1c24;fill-opacity:1;fill-rule:nonzero;stroke:none"
           d="m 711.3,276.003 c 0,0.699 -0.621,1.266 -1.395,1.277 h -12.571 c -0.95,0 -1.7,0.246 -2.238,0.725 -0.532,0.463 -0.8,1.312 -0.8,2.527 0,0 0,18.121 0.003,23.101 -0.029,0.688 -0.651,1.237 -1.422,1.237 -0.003,0 -0.005,0.002 -0.005,0.002 h -8.298 c -0.003,0 -0.005,-0.002 -0.005,-0.002 -0.694,0 -1.274,-0.444 -1.401,-1.036 -0.015,-0.078 -0.025,-0.16 -0.025,-0.244 v -0.006 -23.931 c 0,-3.252 1.384,-5.757 4.12,-7.447 1.248,-0.773 3.166,-1.152 5.863,-1.152 h 17.245 c 0.743,0.043 1.333,0.593 1.333,1.275 0,0.006 0.003,0.01 0.005,0.014 -0.116,1.058 -0.274,2.521 -0.388,3.592 -0.013,0.019 -0.021,0.039 -0.021,0.068" /><path
           id="path34"
           style="fill:#ed1c24;fill-opacity:1;fill-rule:nonzero;stroke:none"
           d="m 658.774,316.112 h -4.176 c 0,0 0.985,5.178 1.112,5.789 0.171,0.836 -0.742,1.492 -1.659,1.494 h -9.162 c -0.808,-0.002 -1.481,-0.521 -1.628,-1.209 -0.021,-0.092 -1.147,-6.074 -1.147,-6.074 h -18.423 c 0,0 1.543,5.459 1.614,5.789 0.181,0.851 -0.744,1.492 -1.657,1.494 h -9.134 c -0.807,-0.002 -1.481,-0.521 -1.627,-1.209 h -0.004 c -0.385,-2.084 -1.688,-6.074 -1.688,-6.074 0,0 -10.658,-0.006 -10.676,-0.006 -0.695,0 -1.411,-0.459 -1.411,-1.035 v -4.184 c 0,-0.65 0.531,-1.263 1.227,-1.263 h 9.476 c 0,0 -6.36,-26.842 -9.165,-37.109 -0.107,-0.803 0.75,-1.469 1.659,-1.469 0.041,0 9.097,0.016 9.136,0.016 0.92,0 1.528,0.626 1.663,1.494 0.005,0.045 9.215,37.068 9.215,37.068 h 6.998 v -15.033 c 0,0 -4.461,-1.313 -6.953,-2.238 -0.455,-0.157 -0.8,-0.516 -0.893,-0.954 0,0 -0.002,-0.002 -0.002,-0.003 -0.257,-1.342 -1.629,-6.737 -1.64,-6.78 -0.163,-0.728 0.684,-1.519 1.427,-1.281 0.554,0.178 8.061,2.639 8.061,2.639 v -6.787 c 0,-2.487 0.93,-4.524 2.76,-6.057 1.698,-1.408 5.05,-2.049 7.448,-2.049 h 19.136 c 0.018,0.006 0.035,0.01 0.065,0.01 0.721,0 1.309,0.484 1.405,1.109 v 3.946 c -0.039,0.623 -0.565,1.119 -1.24,1.195 H 645.05 c -1.971,0 -2.925,0.808 -2.925,2.469 v 10.705 l 17.027,5.827 c 0,0 0.945,0.369 0.945,1.03 v 6.357 c 0,0.832 -0.882,1.334 -1.586,1.053 -0.026,-0.012 -16.386,-5.588 -16.386,-5.588 v 10.43 c 0,0 16.569,0.013 16.598,0.013 0.73,0 1.408,0.512 1.408,1.137 v 4.197 c 0,0.653 -0.629,1.141 -1.357,1.141" /><path
           id="path36"
           style="fill:#ed1c24;fill-opacity:1;fill-rule:nonzero;stroke:none"
           d="m 336.585,322.219 -7.386,-29.034 c -0.921,2.833 -1.806,5.683 -2.766,8.507 -1.487,4.367 -2.915,8.775 -4.275,13.183 -1.048,3.403 -3.39,6.11 -6.915,6.989 -0.94,0.236 -1.932,0.355 -2.872,0.355 h -16.188 l -12.476,-50.091 h 16.38 l 8.675,34.839 9.851,-29.148 c 1.525,-4.634 7.302,-5.691 11.758,-5.691 h 9.542 l 12.48,50.091 z" /><path
           id="path38"
           style="fill:#ed1c24;fill-opacity:1;fill-rule:nonzero;stroke:none"
           d="m 573.412,322.219 -7.387,-29.034 c -0.921,2.833 -1.806,5.683 -2.765,8.507 -1.488,4.367 -2.915,8.775 -4.275,13.183 -1.048,3.403 -3.391,6.11 -6.916,6.989 -0.939,0.236 -1.931,0.355 -2.872,0.355 h -16.188 l -12.476,-50.091 h 16.381 l 8.675,34.839 9.85,-29.148 c 1.526,-4.634 7.302,-5.691 11.758,-5.691 h 9.542 l 12.48,50.091 z" /><path
           id="path40"
           style="fill:#ed1c24;fill-opacity:1;fill-rule:nonzero;stroke:none"
           d="m 207.819,308.961 c -1.376,-7.693 -3.061,-15.341 -5.564,-22.755 -0.882,-2.818 -3.581,-4.107 -6.453,-4.576 h -0.12 c -2.459,-0.352 -5.449,-0.352 -7.913,0.293 -2.932,0.82 -4.69,2.467 -4.222,5.16 1.202,6.922 2.761,13.798 4.986,20.468 1.055,3.407 2.927,5.104 7.149,5.573 0.12,0.06 0.296,0.06 0.413,0.06 1.054,0.119 1.994,0.178 2.873,0.178 0.823,0 1.758,0 2.875,-0.119 1.114,-0.059 2.108,-0.235 3.049,-0.528 0.936,-0.295 1.696,-0.707 2.287,-1.291 0.585,-0.646 0.82,-1.465 0.64,-2.463 m 2.472,14.006 c -6.408,0.951 -13.105,0.756 -19.431,0.069 -2.142,-0.235 -4.291,-0.553 -6.375,-1.112 -7.443,-1.996 -11.49,-6.631 -14.362,-15.543 -0.706,-2.404 -1.411,-4.812 -1.998,-7.273 -0.645,-2.463 -1.113,-4.986 -1.521,-7.447 -0.412,-2.525 -0.646,-4.932 -0.646,-7.271 0,-1.996 0.349,-3.698 1.114,-5.104 2.142,-3.941 6.407,-6.062 10.605,-6.926 5.068,-1.045 10.406,-1.429 15.572,-1.318 4.801,0.102 9.635,0.6 14.245,2.002 2.163,0.658 4.324,1.605 6.198,2.885 3.559,2.429 5.699,6.148 7.092,10.144 0.798,2.283 1.351,4.633 1.968,6.969 1.104,4.189 1.906,8.464 2.449,12.761 0.451,3.58 1.238,7.649 -0.865,10.883 -1.806,2.777 -5.159,4.191 -8.227,5.051 -1.899,0.531 -3.844,0.935 -5.818,1.23" /><path
           id="path42"
           style="fill:#ed1c24;fill-opacity:1;fill-rule:nonzero;stroke:none"
           d="m 505.738,308.961 c -1.377,-7.693 -3.06,-15.341 -5.564,-22.755 -0.883,-2.818 -3.582,-4.107 -6.453,-4.576 h -0.119 c -2.459,-0.352 -5.45,-0.352 -7.914,0.293 -2.93,0.82 -4.69,2.467 -4.223,5.16 1.203,6.922 2.764,13.798 4.986,20.468 1.053,3.407 2.928,5.104 7.151,5.573 0.119,0.06 0.294,0.06 0.412,0.06 1.054,0.119 1.992,0.178 2.873,0.178 0.824,0 1.758,0 2.875,-0.119 1.113,-0.059 2.109,-0.235 3.049,-0.528 0.935,-0.295 1.697,-0.707 2.287,-1.291 0.586,-0.646 0.82,-1.465 0.64,-2.463 m 2.473,14.006 c -6.408,0.951 -13.106,0.756 -19.432,0.069 -2.142,-0.235 -4.293,-0.553 -6.375,-1.112 -7.441,-1.996 -11.49,-6.631 -14.361,-15.543 -0.707,-2.404 -1.41,-4.812 -1.998,-7.273 -0.645,-2.463 -1.113,-4.986 -1.522,-7.447 -0.412,-2.525 -0.644,-4.932 -0.644,-7.271 0,-1.996 0.348,-3.698 1.113,-5.104 2.143,-3.941 6.406,-6.062 10.604,-6.926 5.068,-1.045 10.408,-1.429 15.572,-1.318 4.801,0.102 9.635,0.6 14.242,2.002 2.166,0.658 4.326,1.605 6.201,2.885 3.559,2.429 5.698,6.148 7.092,10.144 0.797,2.283 1.352,4.633 1.967,6.969 1.105,4.189 1.906,8.464 2.449,12.761 0.451,3.58 1.24,7.649 -0.863,10.883 -1.809,2.777 -5.16,4.191 -8.229,5.051 -1.9,0.531 -3.845,0.935 -5.816,1.23" /><path
           id="path44"
           style="fill:#ed1c24;fill-opacity:1;fill-rule:nonzero;stroke:none"
           d="m 137.512,286.073 c -0.815,0.229 -1.564,0.582 -2.178,1.151 -2.201,2.041 -0.95,6.332 -0.298,8.835 l 6.623,26.803 h -17.472 c 0,0 -7.246,-28.3 -8.34,-33.314 -2.226,-10.908 1.232,-17.246 13.191,-17.772 9.147,-0.351 19.128,-0.668 30.093,0.801 l 3.644,14.567 c -4.281,-0.764 -7.807,-1.291 -12.084,-1.586 -2.823,-0.194 -5.679,-0.151 -8.502,0.023 -1.447,0.088 -3.17,0.07 -4.677,0.492" /><path
           id="path46"
           style="fill:#ed1c24;fill-opacity:1;fill-rule:nonzero;stroke:none"
           d="m 435.984,310.661 h 25.039 l 3.018,12.084 h -28.057 c -11.724,0 -19.466,-5.805 -21.634,-14.194 -1.819,-6.865 1.521,-13.782 10.963,-16.13 4.044,-0.996 6.513,-0.938 10.671,-0.938 6.157,0 4.692,-6.978 -1.697,-7.683 -1.41,-0.176 -3.23,-0.113 -4.814,-0.113 H 407.77 l -2.951,-11.85 h 22.253 c 8.033,0 16.182,0.234 22.397,3.693 4.453,2.522 8.211,7.037 8.857,13.078 0.819,8.154 -4.164,14.545 -15.892,14.662 h -6.979 c -6.271,0.061 -4.865,7.156 0.529,7.391" /><path
           id="path48"
           style="fill:#ed1c24;fill-opacity:1;fill-rule:nonzero;stroke:none"
           d="m 371.671,283.976 c -0.819,0.117 -2.97,0.802 -2.97,3.552 0.065,3.75 0.567,7.241 1.565,10.875 0.984,3.588 2.426,7.004 4.212,10.248 0.774,1.277 2.176,2.125 3.775,2.125 0.009,0 0.016,0.002 0.024,0.002 h 0.029 30.955 l 3.031,12.142 h -39.856 c -1.644,0 -3.224,-0.232 -4.754,-0.701 -1.52,-0.414 -2.929,-1.06 -4.275,-1.82 -1.348,-0.764 -2.524,-1.643 -3.579,-2.699 -0.997,-1.055 -1.817,-2.17 -2.461,-3.344 -1.995,-3.93 -3.635,-8.035 -4.926,-12.258 -1.348,-4.223 -2.227,-8.56 -2.698,-13.077 -0.234,-1.702 -0.118,-3.52 0.237,-5.459 0.349,-1.932 0.994,-3.752 1.934,-5.393 0.993,-1.701 2.29,-3.109 3.986,-4.281 1.643,-1.172 3.754,-1.877 6.213,-2.112 4.074,-0.402 10.765,-0.422 16.127,-0.293 l 3.064,12.307 c -0.734,-0.018 -2.175,-0.049 -3.497,-0.049 -1.819,-0.054 -4.316,0 -6.136,0.235" /></g></g></g></svg>
