<?xml version="1.0" standalone="no"?><!DOCTYPE svg PUBLIC "-//W3C//DTD SVG 1.1//EN" "http://www.w3.org/Graphics/SVG/1.1/DTD/svg11.dtd"><svg t="1629097464006" class="icon" viewBox="0 0 1024 1024" version="1.1" xmlns="http://www.w3.org/2000/svg" p-id="1243" xmlns:xlink="http://www.w3.org/1999/xlink" width="200" height="200"><defs><style type="text/css"></style></defs><path d="M503.306008 943.44652c-16.165136 0-31.740848-6.740504-42.680993-18.538178-10.886933-11.686133-16.208114-27.079698-15.027221-43.3707l19.127601-269.765487H210.028061c-22.189327 0-41.97696-12.415749-51.683-32.415206-9.775625-20.113043-7.24704-43.48224 6.516401-61.024743L491.691506 101.69085c21.784099-27.779638 66.585378-27.978159 89.057137-1.769293 10.924795 12.752416 15.533757 29.184634 12.946844 46.234929l-35.812575 234.458424h256.115633c21.459711 0 41.009937 11.881585 50.981013 30.952904 9.972099 19.1583 8.509797 42.078267-3.850694 59.801895L550.073054 918.671304c-10.923772 15.786513-27.975089 24.775217-46.767046 24.775216z m-0.310061-57.525043l0.310061 28.706752V885.864172c-0.112563 0-0.196474 0-0.310061 0.057305z m33.819179-748.474333L210.098669 553.908398l316.382108 0.280386-23.539065 331.450261 311.029204-447.162425-323.122613-0.251733 45.966823-300.777743z" p-id="1244" fill="#eee"></path></svg>
