<?xml version="1.0" encoding="UTF-8" standalone="no"?>
<!DOCTYPE svg PUBLIC "-//W3C//DTD SVG 1.1//EN" "http://www.w3.org/Graphics/SVG/1.1/DTD/svg11.dtd" >
<svg xmlns="http://www.w3.org/2000/svg">
<metadata>
This is a SVG font generated by e-font.
</metadata>
<defs>
<font id="CircularSpotifyTextBook" horiz-adv-x="564" >
<font-face units-per-em="1000" ascent="1033" descent="-378" />
<missing-glyph horiz-adv-x="564" />
<glyph unicode="&#x20;" horiz-adv-x="252" />
<glyph unicode="&#x21;" horiz-adv-x="254" d="M186 709L68 709L94 203L161 203ZM62 60C62 24 91 -5 127 -5C163 -5 193 24 193 60C193 96 163 126 127 126C91 126 62 96 62 60Z"/>
<glyph unicode="&#x22;" horiz-adv-x="386" d="M46 660C46 655 47 646 48 641L89 454L123 454L165 642C166 647 167 654 167 660C167 696 142 721 107 721C71 721 46 696 46 660ZM219 660C219 655 220 646 221 641L262 454L296 454L338 642C339 647 340 654 340 660C340 696 315 721 280 721C244 721 219 696 219 660Z"/>
<glyph unicode="&#x23;" horiz-adv-x="730" d="M366 0L451 0L488 186L642 186L642 262L502 262L537 436L692 436L692 512L551 512L590 709L505 709L465 512L318 512L358 709L274 709L233 512L87 512L87 436L221 436L185 262L38 262L38 186L172 186L135 0L219 0L256 186L403 186ZM305 436L453 436L416 262L270 262Z"/>
<glyph unicode="&#x24;" horiz-adv-x="570" d="M331 -114L331 2C455 17 528 104 528 200C528 297 462 367 348 391L330 395L330 619C394 603 425 554 434 508L518 535C502 611 446 691 331 706L331 824L253 824L253 707C144 693 60 613 60 508C60 410 125 345 225 324L254 317L254 86C170 101 126 166 119 235L34 210C44 116 113 18 253 2L253 -114ZM434 193C434 141 397 98 330 86L330 300C396 285 434 249 434 193ZM152 515C152 568 194 610 254 621L254 411L244 413C183 426 152 464 152 515Z"/>
<glyph unicode="&#x25;" horiz-adv-x="823" d="M789 149C789 237 714 306 628 306C542 306 468 237 468 149C468 60 542 -9 628 -9C714 -9 789 60 789 149ZM551 149C551 194 585 227 628 227C672 227 705 194 705 149C705 103 672 70 628 70C585 70 551 103 551 149ZM194 403C280 403 355 472 355 561C355 649 280 718 194 718C108 718 34 649 34 561C34 472 108 403 194 403ZM117 561C117 606 151 639 194 639C238 639 271 606 271 561C271 515 238 482 194 482C151 482 117 515 117 561ZM224 0L689 709L598 709L132 0Z"/>
<glyph unicode="&#x26;" horiz-adv-x="689" d="M544 0L677 0L516 166L612 277L612 406L454 230L322 367L358 394C408 431 458 481 458 551C458 657 377 724 270 724C182 724 87 662 87 547C87 478 139 424 172 389L185 375L175 367C100 311 50 261 50 169C50 78 121 -12 255 -12C334 -12 396 29 454 94ZM256 78C191 78 151 129 151 177C151 226 177 258 211 284L247 311L391 160L388 156C349 113 310 78 256 78ZM184 553C184 609 230 640 271 640C323 640 361 601 361 554C361 524 350 497 308 466L260 430L238 454C215 478 184 513 184 553Z"/>
<glyph unicode="&#x27;" horiz-adv-x="213" d="M46 660C46 655 47 646 48 641L89 454L123 454L165 642C166 647 167 654 167 660C167 696 142 721 107 721C71 721 46 696 46 660Z"/>
<glyph unicode="&#x28;" horiz-adv-x="311" d="M48 317C48 99 131 -51 238 -160L295 -110C193 4 129 141 129 317C129 493 193 630 295 744L238 794C131 685 48 535 48 317Z"/>
<glyph unicode="&#x29;" horiz-adv-x="311" d="M263 317C263 535 180 685 73 794L16 744C118 630 182 493 182 317C182 141 118 4 16 -110L73 -160C180 -51 263 99 263 317Z"/>
<glyph unicode="&#x2a;" horiz-adv-x="451" d="M264 709L185 709L185 574L63 617L40 545L164 504L85 400L146 354L224 462L307 353L368 399L286 504L410 545L387 617L264 575Z"/>
<glyph unicode="&#x2b;" horiz-adv-x="545" d="M44 388L44 309L231 309L231 112L313 112L313 309L501 309L501 388L313 388L313 583L231 583L231 388Z"/>
<glyph unicode="&#x2c;" horiz-adv-x="268" d="M57 64C57 21 87 -4 124 -4C135 -4 143 -1 146 1C145 -47 112 -96 63 -107L63 -159C125 -151 211 -96 211 36C211 99 173 131 130 131C88 131 57 100 57 64Z"/>
<glyph unicode="&#x2d;" horiz-adv-x="407" d="M339 246L339 328L68 328L68 246Z"/>
<glyph unicode="&#x2e;" horiz-adv-x="252" d="M57 64C57 25 87 -5 126 -5C165 -5 196 25 196 64C196 103 165 134 126 134C87 134 57 103 57 64Z"/>
<glyph unicode="&#x2f;" horiz-adv-x="489" d="M462 709L371 709L28 0L119 0Z"/>
<glyph unicode="&#x30;" horiz-adv-x="658" d="M55 354C55 189 111 -13 329 -13C548 -13 603 188 603 354C603 522 546 722 329 722C112 722 55 522 55 354ZM506 354C506 212 468 74 329 74C190 74 153 212 153 354C153 497 189 634 329 634C468 634 506 496 506 354Z"/>
<glyph unicode="&#x31;" horiz-adv-x="355" d="M279 0L279 709L193 709C178 639 116 589 26 587L26 518L183 518L183 0Z"/>
<glyph unicode="&#x32;" horiz-adv-x="592" d="M539 0L539 90L168 90C178 136 209 177 250 203L396 293C479 345 532 416 532 507C532 625 445 722 297 722C143 722 55 617 55 494C55 481 57 461 59 450L152 446C149 459 148 472 148 483C148 575 207 636 300 636C384 636 436 577 436 505C436 442 400 397 331 353L202 272C90 204 53 105 51 0Z"/>
<glyph unicode="&#x33;" horiz-adv-x="607" d="M346 428C341 428 330 427 323 424L536 628L536 709L64 709L64 619L412 619L198 413L241 342C260 350 285 356 307 356C394 356 458 304 458 215C458 132 394 73 301 73C212 73 142 135 138 229L45 208C53 84 150 -13 302 -13C454 -13 555 90 555 213C555 344 458 425 346 428Z"/>
<glyph unicode="&#x34;" horiz-adv-x="621" d="M31 159L371 159L371 0L467 0L467 159L589 159L589 250L467 250L467 709L343 709L31 270ZM371 250L123 250L371 602Z"/>
<glyph unicode="&#x35;" horiz-adv-x="589" d="M39 197C49 83 147 -13 289 -13C446 -13 543 95 543 226C543 371 449 461 308 461C256 461 192 442 157 402L203 619L510 619L510 709L136 709L59 346L148 313C179 353 229 380 289 380C379 380 446 323 446 225C446 136 382 73 289 73C197 73 136 138 128 219Z"/>
<glyph unicode="&#x36;" horiz-adv-x="629" d="M146 349C157 512 248 635 412 635C465 635 508 620 539 603L567 685C535 706 483 722 417 722C213 722 53 581 53 312C53 105 170 -13 325 -13C467 -13 581 87 581 229C581 371 484 467 349 467C247 467 174 416 146 349ZM165 227C165 319 237 384 326 384C415 384 485 324 485 227C485 133 412 71 324 71C239 71 165 134 165 227Z"/>
<glyph unicode="&#x37;" horiz-adv-x="556" d="M542 709L26 709L26 619L427 619C349 545 170 349 138 0L239 0C271 327 427 518 542 624Z"/>
<glyph unicode="&#x38;" horiz-adv-x="608" d="M304 324C405 324 458 266 458 196C458 127 402 69 304 69C206 69 150 127 150 196C150 266 203 324 304 324ZM304 -13C457 -13 553 72 553 187C553 270 497 340 412 363C490 386 539 455 539 528C539 640 444 722 304 722C164 722 69 640 69 528C69 455 118 386 195 363C111 340 55 270 55 187C55 72 151 -13 304 -13ZM304 401C219 402 165 453 165 522C165 588 216 639 304 639C392 639 443 588 443 522C443 453 390 402 304 401Z"/>
<glyph unicode="&#x39;" horiz-adv-x="619" d="M471 344C466 166 381 73 243 73C184 73 125 96 96 125L65 48C101 11 176 -13 245 -13C451 -13 565 121 565 382C565 604 456 722 299 722C153 721 48 623 48 481C48 334 158 247 285 247C365 247 438 290 471 344ZM450 487C450 392 384 330 296 330C209 330 141 389 141 485C141 578 209 637 295 637C381 637 449 579 450 487Z"/>
<glyph unicode="&#x3a;" horiz-adv-x="276" d="M69 64C69 25 99 -5 138 -5C177 -5 208 25 208 64C208 103 177 134 138 134C99 134 69 103 69 64ZM68 416C68 377 98 347 137 347C176 347 207 377 207 416C207 455 176 486 137 486C98 486 68 455 68 416Z"/>
<glyph unicode="&#x3b;" horiz-adv-x="291" d="M72 62C72 21 101 -3 136 -3C147 -3 154 0 157 2C156 -44 125 -90 78 -101L78 -150C137 -142 219 -90 219 35C219 95 183 125 142 125C102 125 72 96 72 62ZM73 416C73 377 103 347 142 347C181 347 212 377 212 416C212 455 181 486 142 486C103 486 73 455 73 416Z"/>
<glyph unicode="&#x3c;" horiz-adv-x="525" d="M38 305L450 100L450 195L140 348L450 501L450 596L38 390Z"/>
<glyph unicode="&#x3d;" horiz-adv-x="601" d="M532 407L532 484L69 484L69 407ZM532 212L532 291L69 291L69 212Z"/>
<glyph unicode="&#x3e;" horiz-adv-x="525" d="M487 390L75 596L75 501L387 348L75 195L75 100L487 305Z"/>
<glyph unicode="&#x3f;" horiz-adv-x="510" d="M284 203C283 213 283 217 283 222C283 261 296 297 327 318L373 349C431 388 475 443 475 523C475 625 396 724 256 724C102 724 35 611 35 519C35 501 37 485 41 471L138 459C134 470 131 491 131 508C131 571 169 636 256 636C336 636 375 581 375 522C375 483 356 447 322 424L278 394C219 354 195 304 195 238C195 225 195 215 196 203ZM174 60C174 24 203 -5 239 -5C275 -5 305 24 305 60C305 96 275 126 239 126C203 126 174 96 174 60Z"/>
<glyph unicode="&#x40;" horiz-adv-x="831" d="M605 137C709 137 795 248 795 397C795 584 640 724 437 724C226 724 49 565 49 333C49 106 215 -47 449 -47C535 -47 637 -13 695 42L654 96C594 48 522 26 449 26C249 26 131 157 131 332C131 523 262 651 438 651C607 651 718 542 718 396C718 296 666 206 610 206C582 206 572 224 572 247C572 256 573 265 575 275L629 526L550 526L541 473C526 518 476 539 434 539C326 539 234 440 234 306C234 203 297 135 387 135C430 135 476 158 506 201C517 157 558 137 605 137ZM519 370C516 276 469 208 401 208C336 208 316 256 316 317C316 391 363 464 435 464C489 464 519 429 519 370Z"/>
<glyph unicode="&#x41;" horiz-adv-x="711" d="M588 0L694 0L412 709L299 709L17 0L122 0L197 198L511 198ZM353 607L476 289L232 289Z"/>
<glyph unicode="&#x42;" horiz-adv-x="616" d="M95 709L95 0L343 0C473 0 562 81 562 193C562 272 515 344 434 364C496 387 540 441 540 517C540 629 461 709 326 709ZM193 399L193 623L311 623C392 623 441 579 441 512C441 446 394 399 315 399ZM193 86L193 315L333 315C419 315 462 267 462 199C462 130 408 86 329 86Z"/>
<glyph unicode="&#x43;" horiz-adv-x="748" d="M401 -15C564 -15 676 80 714 213L627 245C598 148 522 75 401 75C272 75 149 170 149 355C149 540 272 634 401 634C517 634 595 574 622 467L713 499C677 636 563 724 401 724C225 724 49 592 49 355C49 118 218 -15 401 -15Z"/>
<glyph unicode="&#x44;" horiz-adv-x="730" d="M193 87L193 622L340 622C471 622 579 532 579 353C579 175 469 87 338 87ZM341 0C521 0 680 121 680 353C680 586 523 709 343 709L95 709L95 0Z"/>
<glyph unicode="&#x45;" horiz-adv-x="580" d="M526 0L526 91L193 91L193 308L495 308L495 400L193 400L193 618L526 618L526 709L95 709L95 0Z"/>
<glyph unicode="&#x46;" horiz-adv-x="571" d="M193 0L193 298L495 298L495 390L193 390L193 618L526 618L526 709L95 709L95 0Z"/>
<glyph unicode="&#x47;" horiz-adv-x="772" d="M708 0L708 347L369 347L369 259L615 259C611 186 554 74 396 74C269 74 149 167 149 355C149 543 273 634 400 634C510 634 593 574 625 472L714 510C673 638 554 724 400 724C225 724 49 595 49 355C49 115 215 -15 393 -15C512 -15 589 44 620 100L629 0Z"/>
<glyph unicode="&#x48;" horiz-adv-x="748" d="M653 0L653 709L555 709L555 406L193 406L193 709L95 709L95 0L193 0L193 315L555 315L555 0Z"/>
<glyph unicode="&#x49;" horiz-adv-x="290" d="M195 0L195 709L95 709L95 0Z"/>
<glyph unicode="&#x4a;" horiz-adv-x="551" d="M29 211C29 75 111 -15 250 -15C382 -15 463 88 463 212L463 709L365 709L365 205C365 123 321 76 249 76C178 76 127 118 127 212L127 279L29 257Z"/>
<glyph unicode="&#x4b;" horiz-adv-x="663" d="M534 0L658 0L359 393L654 709L525 709L193 344L193 709L95 709L95 0L193 0L193 214L294 322Z"/>
<glyph unicode="&#x4c;" horiz-adv-x="547" d="M528 0L528 92L193 92L193 709L95 709L95 0Z"/>
<glyph unicode="&#x4d;" horiz-adv-x="956" d="M861 0L861 709L730 709L478 132L228 709L95 709L95 0L192 0L192 552L432 0L522 0L764 552L764 0Z"/>
<glyph unicode="&#x4e;" horiz-adv-x="773" d="M678 0L678 709L580 709L580 165L226 709L95 709L95 0L193 0L193 578L576 0Z"/>
<glyph unicode="&#x4f;" horiz-adv-x="808" d="M148 355C148 540 272 634 404 634C536 634 660 540 660 355C660 170 536 75 404 75C272 75 148 170 148 355ZM48 355C48 118 226 -15 404 -15C582 -15 760 118 760 355C760 592 582 724 404 724C226 724 48 592 48 355Z"/>
<glyph unicode="&#x50;" horiz-adv-x="602" d="M193 378L193 621L335 621C420 621 472 573 472 498C472 425 420 378 335 378ZM353 290C484 290 572 379 572 499C572 618 484 709 353 709L95 709L95 0L193 0L193 290Z"/>
<glyph unicode="&#x51;" horiz-adv-x="808" d="M48 355C48 118 226 -15 404 -15C469 -15 534 2 590 36L676 -59L743 0L660 93C720 155 760 243 760 355C760 592 582 724 404 724C226 724 48 592 48 355ZM148 355C148 540 272 634 404 634C536 634 660 540 660 355C660 273 635 209 597 163L473 303L405 244L528 106C490 85 448 75 404 75C272 75 148 170 148 355Z"/>
<glyph unicode="&#x52;" horiz-adv-x="629" d="M462 0L576 0L407 297C514 317 579 396 579 498C579 615 496 709 362 709L95 709L95 0L194 0L194 290L300 290ZM194 378L194 621L344 621C424 621 478 573 478 498C478 425 424 378 344 378Z"/>
<glyph unicode="&#x53;" horiz-adv-x="594" d="M540 548C524 625 460 724 300 724C169 724 66 624 66 513C66 407 138 341 239 319L340 297C411 282 446 238 446 187C446 125 398 74 300 74C193 74 137 147 130 226L36 196C49 95 130 -15 301 -15C452 -15 546 85 546 195C546 294 480 368 362 394L256 417C196 430 165 469 165 520C165 586 222 638 302 638C401 638 444 568 452 517Z"/>
<glyph unicode="&#x54;" horiz-adv-x="608" d="M590 618L590 709L18 709L18 618L255 618L255 0L353 0L353 618Z"/>
<glyph unicode="&#x55;" horiz-adv-x="686" d="M343 -15C487 -15 598 75 598 242L598 709L500 709L500 245C500 137 443 76 343 76C244 76 185 137 185 245L185 709L88 709L88 242C88 75 199 -15 343 -15Z"/>
<glyph unicode="&#x56;" horiz-adv-x="676" d="M339 126L125 709L21 709L288 0L385 0L658 709L555 709Z"/>
<glyph unicode="&#x57;" horiz-adv-x="1020" d="M742 148L560 709L457 709L279 154L123 709L22 709L227 0L325 0L508 575L693 0L794 0L996 709L895 709Z"/>
<glyph unicode="&#x58;" horiz-adv-x="625" d="M611 709L495 709L313 431L134 709L16 709L256 355L14 0L129 0L312 277L491 0L608 0L370 355Z"/>
<glyph unicode="&#x59;" horiz-adv-x="642" d="M272 303L272 0L370 0L370 303L620 709L508 709L324 393L140 709L22 709Z"/>
<glyph unicode="&#x5a;" horiz-adv-x="633" d="M589 0L589 92L159 92L584 614L584 709L52 709L52 618L465 618L42 98L42 0Z"/>
<glyph unicode="&#x5b;" horiz-adv-x="297" d="M267 -148L267 -73L156 -73L156 709L267 709L267 785L74 785L74 -148Z"/>
<glyph unicode="&#x5c;" horiz-adv-x="489" d="M368 0L461 0L120 709L27 709Z"/>
<glyph unicode="&#x5d;" horiz-adv-x="297" d="M223 -148L223 785L30 785L30 709L141 709L141 -73L30 -73L30 -148Z"/>
<glyph unicode="&#x5e;" horiz-adv-x="551" d="M511 354L317 710L234 710L40 354L139 354L276 612L412 354Z"/>
<glyph unicode="&#x5f;" horiz-adv-x="522" d="M517 -79L517 0L5 0L5 -79Z"/>
<glyph unicode="&#x60;" horiz-adv-x="272" d="M160 543L238 543L152 689L34 689Z"/>
<glyph unicode="&#x61;" horiz-adv-x="523" d="M44 129C44 53 107 -15 205 -15C291 -15 339 31 360 65C360 30 363 12 365 0L457 0C455 12 451 37 451 79L451 320C451 414 395 496 251 496C147 496 64 432 54 340L144 319C150 375 187 416 253 416C326 416 357 377 357 330C357 313 349 298 320 294L190 275C107 263 44 215 44 129ZM218 64C170 64 140 98 140 134C140 177 170 200 210 206L357 228L357 206C357 101 295 64 218 64Z"/>
<glyph unicode="&#x62;" horiz-adv-x="594" d="M169 0L169 70C199 18 254 -13 325 -13C468 -13 549 100 549 243C549 383 474 495 328 495C248 495 192 456 169 413L169 724L76 724L76 0ZM453 243C453 139 397 71 311 71C228 71 168 139 168 243C168 347 228 412 311 412C398 412 453 347 453 243Z"/>
<glyph unicode="&#x63;" horiz-adv-x="539" d="M286 409C368 409 403 354 415 307L500 343C480 416 414 496 286 496C149 496 44 391 44 241C44 95 147 -15 287 -15C412 -15 481 66 504 135L421 171C410 133 377 72 287 72C209 72 140 131 140 241C140 353 210 409 286 409Z"/>
<glyph unicode="&#x64;" horiz-adv-x="589" d="M140 242C140 341 196 411 282 411C368 411 420 343 420 244C420 145 367 70 281 70C191 70 140 143 140 242ZM421 65C421 36 424 11 426 0L517 0C516 8 512 43 512 89L512 724L419 724L419 413C403 452 357 494 272 494C136 494 44 378 44 242C44 99 131 -13 272 -13C347 -13 398 27 421 73Z"/>
<glyph unicode="&#x65;" horiz-adv-x="547" d="M144 290C148 352 196 413 275 413C360 413 405 359 407 290ZM421 165C403 111 364 68 286 68C205 68 143 128 141 214L503 214C504 220 505 232 505 244C505 394 422 496 274 496C153 496 44 393 44 242C44 79 157 -15 286 -15C398 -15 475 52 502 137Z"/>
<glyph unicode="&#x66;" horiz-adv-x="349" d="M327 396L327 481L211 481L211 557C211 623 254 639 287 639C311 639 323 635 328 633L328 717C324 720 304 727 272 727C185 727 114 669 114 562L114 481L25 481L25 396L114 396L114 0L211 0L211 396Z"/>
<glyph unicode="&#x67;" horiz-adv-x="583" d="M44 -26C56 -129 146 -205 266 -205C447 -205 507 -86 507 36L507 481L414 481L414 414C390 462 340 490 266 490C134 490 45 386 45 256C45 120 138 23 266 23C338 23 390 58 413 102L413 33C413 -71 367 -123 266 -123C193 -123 142 -72 135 -5ZM280 102C195 102 141 162 141 256C141 349 197 410 280 410C361 410 417 349 417 256C417 163 361 102 280 102Z"/>
<glyph unicode="&#x68;" horiz-adv-x="559" d="M170 283C172 354 210 410 282 410C366 410 394 356 394 289L394 0L488 0L488 305C488 412 431 495 316 495C261 495 205 476 170 425L170 724L76 724L76 0L170 0Z"/>
<glyph unicode="&#x69;" horiz-adv-x="245" d="M169 0L169 481L76 481L76 0ZM55 663C55 626 85 596 122 596C160 596 190 626 190 663C190 701 160 731 122 731C85 731 55 701 55 663Z"/>
<glyph unicode="&#x6a;" horiz-adv-x="246" d="M76 -52C76 -96 60 -122 11 -122C-3 -122 -14 -120 -19 -119L-19 -198C-13 -200 1 -205 37 -205C120 -205 170 -143 170 -56L170 481L76 481ZM55 665C55 628 85 598 122 598C160 598 190 628 190 665C190 703 160 733 122 733C85 733 55 703 55 665Z"/>
<glyph unicode="&#x6b;" horiz-adv-x="526" d="M507 481L377 481L169 268L169 724L76 724L76 0L169 0L169 145L236 212L393 0L511 0L302 278Z"/>
<glyph unicode="&#x6c;" horiz-adv-x="246" d="M170 0L170 724L76 724L76 0Z"/>
<glyph unicode="&#x6d;" horiz-adv-x="854" d="M169 0L169 290C169 362 214 412 281 412C353 412 383 364 383 302L383 0L477 0L477 291C477 360 522 412 588 412C659 412 690 365 690 302L690 0L783 0L783 312C783 438 701 495 617 495C556 495 494 473 456 404C430 466 372 495 312 495C256 495 196 470 166 417L166 481L76 481L76 0Z"/>
<glyph unicode="&#x6e;" horiz-adv-x="559" d="M170 278C170 351 208 410 282 410C366 410 394 356 394 289L394 0L488 0L488 305C488 412 431 495 316 495C260 495 203 472 168 412L168 481L76 481L76 0L170 0Z"/>
<glyph unicode="&#x6f;" horiz-adv-x="580" d="M290 69C210 69 140 129 140 241C140 352 210 412 290 412C370 412 440 352 440 241C440 129 370 69 290 69ZM290 496C146 496 44 387 44 241C44 94 146 -15 290 -15C434 -15 536 94 536 241C536 387 434 496 290 496Z"/>
<glyph unicode="&#x70;" horiz-adv-x="594" d="M169 -190L169 65C195 22 251 -13 325 -13C466 -13 549 98 549 241C549 381 472 492 328 492C250 492 193 454 167 406L167 481L76 481L76 -190ZM453 241C453 142 398 71 311 71C225 71 168 142 168 241C168 337 225 409 311 409C399 409 453 337 453 241Z"/>
<glyph unicode="&#x71;" horiz-adv-x="592" d="M516 -190L516 481L425 481L425 407C405 450 354 493 271 493C130 493 45 378 45 242C45 102 135 -13 273 -13C344 -13 398 19 423 68L423 -190ZM141 242C141 341 195 410 282 410C367 410 424 341 424 242C424 143 367 70 282 70C196 70 141 143 141 242Z"/>
<glyph unicode="&#x72;" horiz-adv-x="363" d="M343 486C338 487 325 489 312 489C263 489 203 471 168 397L168 481L76 481L76 0L170 0L170 241C170 347 223 389 302 389C315 389 329 388 343 386Z"/>
<glyph unicode="&#x73;" horiz-adv-x="455" d="M38 125C46 70 102 -15 234 -15C353 -15 410 66 410 134C410 205 364 258 277 277L199 294C162 302 144 323 144 352C144 385 176 416 224 416C300 416 320 361 324 336L407 367C397 410 356 496 224 496C130 496 53 426 53 344C53 276 98 225 173 209L255 191C295 182 317 159 317 129C317 95 288 65 235 65C167 65 129 105 123 155Z"/>
<glyph unicode="&#x74;" horiz-adv-x="347" d="M207 633L121 633L121 555C121 513 99 481 47 481L21 481L21 396L113 396L113 132C113 45 165 -5 247 -5C279 -5 303 1 311 4L311 84C303 82 286 80 274 80C225 80 207 102 207 146L207 396L311 396L311 481L207 481Z"/>
<glyph unicode="&#x75;" horiz-adv-x="559" d="M393 58C393 38 395 11 397 0L487 0C485 17 482 51 482 89L482 481L388 481L388 191C388 118 350 68 274 68C195 68 165 126 165 192L165 481L71 481L71 178C71 69 139 -15 251 -15C307 -15 367 8 393 58Z"/>
<glyph unicode="&#x76;" horiz-adv-x="528" d="M504 481L403 481L265 110L128 481L22 481L217 0L312 0Z"/>
<glyph unicode="&#x77;" horiz-adv-x="816" d="M362 481L237 119L129 481L26 481L184 0L283 0L408 366L536 0L633 0L789 481L690 481L584 119L459 481Z"/>
<glyph unicode="&#x78;" horiz-adv-x="507" d="M18 0L130 0L252 177L376 0L489 0C460 39 341 206 312 245L483 481L372 481L256 312L138 481L24 481L197 245Z"/>
<glyph unicode="&#x79;" horiz-adv-x="538" d="M210 -201L523 481L422 481L278 149L128 481L20 481L227 53L107 -201Z"/>
<glyph unicode="&#x7a;" horiz-adv-x="477" d="M432 0L432 85L163 85L427 399L427 481L50 481L50 396L310 396L46 82L46 0Z"/>
<glyph unicode="&#x7b;" horiz-adv-x="346" d="M14 275C72 275 124 248 124 174L124 38C124 -86 187 -148 304 -148L317 -148L317 -73L304 -73C230 -73 206 -41 206 32L206 195C206 262 166 306 102 318C166 330 206 374 206 441L206 605C206 678 230 710 304 710L317 710L317 785L304 785C187 785 124 723 124 599L124 462C124 388 72 361 14 361Z"/>
<glyph unicode="&#x7c;" horiz-adv-x="230" d="M156 -148L156 785L74 785L74 -148Z"/>
<glyph unicode="&#x7d;" horiz-adv-x="346" d="M332 361C274 361 222 388 222 462L222 599C222 723 159 785 42 785L29 785L29 710L42 710C116 710 140 678 140 605L140 441C140 374 180 330 244 318C180 306 140 262 140 195L140 32C140 -41 116 -73 42 -73L29 -73L29 -148L42 -148C159 -148 222 -86 222 38L222 174C222 248 274 275 332 275Z"/>
<glyph unicode="&#x7e;" horiz-adv-x="634" d="M321 239C354 221 387 212 418 212C478 212 531 244 568 305L511 351C489 316 455 296 418 296C400 296 380 301 361 312L315 337C283 355 250 363 220 363C159 363 105 329 68 268L125 222C151 257 184 279 221 279C238 279 256 274 275 264Z"/>
<glyph unicode="&#xa0;" horiz-adv-x="252" />
<glyph unicode="&#xa1;" horiz-adv-x="242" d="M155 288L88 288L62 -217L180 -217ZM56 430C56 394 85 365 121 365C157 365 187 394 187 430C187 466 157 496 121 496C85 496 56 466 56 430Z"/>
<glyph unicode="&#xa2;" horiz-adv-x="553" d="M427 416L510 447C490 524 429 589 332 602L332 709L254 709L254 603C135 586 48 486 48 350C48 213 135 115 254 98L254 0L332 0L332 97C430 111 493 180 513 254L432 284C419 244 388 200 331 187L331 513C387 500 416 456 427 416ZM141 350C141 436 187 497 255 513L255 187C187 204 141 264 141 350Z"/>
<glyph unicode="&#xa3;" horiz-adv-x="604" d="M424 304L424 384L234 384C219 428 198 465 198 514C198 596 247 636 317 636C388 636 435 586 439 515L523 536C518 630 452 722 317 722C183 722 101 633 101 519C101 467 118 426 135 384L62 384L62 304L158 304C162 287 165 272 165 253C165 173 115 114 55 82L55 0L384 0C496 0 564 77 568 190L482 204C479 135 439 86 370 86L175 86C224 122 260 183 260 259C260 278 257 289 254 304Z"/>
<glyph unicode="&#xa4;" horiz-adv-x="614" d="M97 347C97 303 110 263 132 229L59 153L118 94L191 170C225 147 266 133 310 133C351 133 391 145 424 166L494 94L553 153L484 224C509 257 524 301 524 347C524 394 508 437 483 472L553 545L493 604L421 530C388 550 350 561 310 561C268 561 228 548 194 526L119 604L59 545L134 468C111 434 97 392 97 347ZM180 347C180 424 238 478 310 478C382 478 438 424 438 347C438 269 382 215 310 215C238 215 180 269 180 347Z"/>
<glyph unicode="&#xa5;" horiz-adv-x="641" d="M86 374L86 302L271 302L271 227L86 227L86 155L271 155L271 0L369 0L369 155L555 155L555 227L369 227L369 302L555 302L555 374L406 374L609 709L502 709L323 402L143 709L32 709L233 374Z"/>
<glyph unicode="&#xa6;" horiz-adv-x="240" d="M79 785L79 386L161 386L161 785ZM79 251L79 -148L161 -148L161 251Z"/>
<glyph unicode="&#xa7;" horiz-adv-x="516" d="M453 244C453 332 388 374 315 413L213 467C175 487 154 516 154 552C154 608 197 645 259 645C332 645 367 596 367 523L456 541C456 642 388 724 261 724C154 724 59 653 59 543C59 487 91 433 147 398C109 384 63 336 63 274C63 185 127 145 200 107L303 53C338 35 361 4 361 -33C361 -93 318 -126 256 -126C183 -126 148 -75 148 -3L60 -21C62 -129 128 -204 254 -204C362 -204 457 -133 457 -23C457 32 424 86 370 121C407 136 453 184 453 244ZM299 316C343 292 362 266 362 229C362 192 336 160 315 150L216 204C171 228 153 253 153 291C153 327 177 360 200 370Z"/>
<glyph unicode="&#xa8;" horiz-adv-x="379" d="M38 621C38 588 63 563 95 563C128 563 154 588 154 621C154 653 128 679 95 679C63 679 38 653 38 621ZM225 621C225 588 250 563 283 563C315 563 341 588 341 621C341 653 315 679 283 679C250 679 225 653 225 621Z"/>
<glyph unicode="&#xa9;" horiz-adv-x="829" d="M127 355C127 523 253 651 413 651C573 651 699 523 699 355C699 187 573 58 413 58C253 58 127 187 127 355ZM49 355C49 152 211 -15 413 -15C616 -15 780 152 780 355C780 558 616 724 413 724C211 724 49 558 49 355ZM415 494C482 494 511 449 520 411L590 440C574 499 520 565 415 565C303 565 218 479 218 357C218 238 302 148 416 148C518 148 574 214 593 270L525 300C516 269 489 219 416 219C352 219 296 267 296 357C296 448 353 494 415 494Z"/>
<glyph unicode="&#xaa;" horiz-adv-x="408" d="M49 462C49 408 93 360 164 360C220 360 254 389 269 414C269 393 271 378 273 370L344 370C343 374 340 403 340 425L340 594C340 661 301 720 197 720C117 720 62 670 56 609L125 593C129 630 154 658 198 658C246 658 266 632 266 602C266 590 260 580 240 577L152 565C95 557 49 522 49 462ZM176 420C143 420 124 442 124 466C124 495 145 509 171 513L266 528L266 513C266 443 225 420 176 420Z"/>
<glyph unicode="&#xab;" horiz-adv-x="512" d="M268 99L137 290L268 481L175 481L42 290L175 99ZM463 99L332 290L463 481L370 481L237 290L370 99Z"/>
<glyph unicode="&#xac;" horiz-adv-x="586" d="M513 210L513 487L50 487L50 405L429 405L429 210Z"/>
<glyph unicode="&#xad;" horiz-adv-x="407" d="M339 246L339 328L68 328L68 246Z"/>
<glyph unicode="&#xae;" horiz-adv-x="829" d="M49 355C49 152 211 -15 413 -15C616 -15 780 152 780 355C780 558 616 724 413 724C211 724 49 558 49 355ZM127 355C127 523 253 651 413 651C573 651 699 523 699 355C699 187 573 58 413 58C253 58 127 187 127 355ZM367 373L367 493L419 493C464 493 489 471 489 432C489 395 464 373 419 373ZM367 307L397 307L481 157L568 157L478 314C530 331 566 377 566 433C566 504 508 559 430 559L291 559L291 157L367 157Z"/>
<glyph unicode="&#xaf;" horiz-adv-x="343" d="M308 577L308 658L35 658L35 577Z"/>
<glyph unicode="&#xb0;" horiz-adv-x="401" d="M123 563C123 608 157 641 200 641C244 641 277 608 277 563C277 517 244 484 200 484C157 484 123 517 123 563ZM40 563C40 474 114 405 200 405C286 405 361 474 361 563C361 651 286 720 200 720C114 720 40 651 40 563Z"/>
<glyph unicode="&#xb1;" horiz-adv-x="591" d="M77 447L77 370L254 370L254 236L336 236L336 370L514 370L514 447L336 447L336 583L254 583L254 447ZM77 191L77 112L514 112L514 191Z"/>
<glyph unicode="&#xb2;" horiz-adv-x="345" d="M118 568C116 577 115 590 115 594C115 629 138 652 172 652C207 652 226 628 226 602C226 578 211 556 183 539L123 502C64 466 38 416 38 357L38 344L306 344L306 409L131 409C134 423 147 436 162 446L234 491C277 518 304 554 304 601C304 662 255 716 173 716C91 716 41 662 41 599C41 591 42 578 44 568Z"/>
<glyph unicode="&#xb3;" horiz-adv-x="362" d="M149 509C156 511 167 513 177 513C210 513 245 499 245 457C245 426 218 402 177 402C136 402 104 428 98 466L31 439C43 387 91 336 178 336C265 336 323 391 323 457C323 525 272 561 215 566L315 646L315 709L44 709L44 644L215 644L120 565Z"/>
<glyph unicode="&#xb4;" horiz-adv-x="274" d="M240 689L122 689L35 543L114 543Z"/>
<glyph unicode="&#xb5;" horiz-adv-x="550" d="M391 58C391 38 393 11 395 0L485 0C483 13 480 51 480 89L480 481L386 481L386 191C386 118 348 68 272 68C193 68 163 126 163 192L163 481L69 481L69 -190L163 -190L163 5C187 -7 213 -15 249 -15C305 -15 365 8 391 58Z"/>
<glyph unicode="&#xb6;" horiz-adv-x="639" d="M325 628L418 628L418 -190L501 -190L501 628L598 628L598 709L258 709C135 709 32 639 32 511C32 404 121 321 226 321L242 321L242 -190L325 -190Z"/>
<glyph unicode="&#xb7;" horiz-adv-x="267" d="M64 284C64 245 94 215 133 215C172 215 203 245 203 284C203 323 172 354 133 354C94 354 64 323 64 284Z"/>
<glyph unicode="&#xb8;" horiz-adv-x="294" d="M115 -101C123 -98 134 -96 144 -96C172 -96 188 -110 188 -128C188 -151 165 -161 141 -161C107 -161 81 -140 69 -127L32 -172C52 -196 92 -218 142 -218C223 -218 259 -175 259 -128C259 -78 218 -46 162 -46L201 14L130 14L82 -62Z"/>
<glyph unicode="&#xb9;" horiz-adv-x="239" d="M189 344L189 709L118 709C111 672 75 642 26 641L26 589L112 589L112 344Z"/>
<glyph unicode="&#xba;" horiz-adv-x="432" d="M216 427C163 427 116 466 116 540C116 614 163 652 216 652C268 652 315 614 315 540C315 466 268 427 216 427ZM216 720C114 720 41 644 41 540C41 436 114 360 216 360C317 360 391 436 391 540C391 644 317 720 216 720Z"/>
<glyph unicode="&#xbb;" horiz-adv-x="512" d="M337 99L470 290L337 481L244 481L375 290L244 99ZM142 99L275 290L142 481L49 481L180 290L49 99Z"/>
<glyph unicode="&#xbc;" horiz-adv-x="770" d="M185 0L650 709L567 709L101 0ZM198 344L198 709L127 709C120 672 84 642 35 641L35 589L121 589L121 344ZM408 72L593 72L593 0L670 0L670 72L734 72L734 137L670 137L670 365L585 365L408 145ZM593 137L482 137L593 276Z"/>
<glyph unicode="&#xbd;" horiz-adv-x="790" d="M167 0L632 709L549 709L83 0ZM198 344L198 709L127 709C120 672 84 642 35 641L35 589L121 589L121 344ZM559 224C557 233 556 246 556 250C556 285 579 308 613 308C648 308 667 284 667 258C667 234 652 212 624 195L564 158C505 122 479 72 479 13L479 0L747 0L747 65L572 65C575 79 588 92 603 102L675 147C718 174 745 210 745 257C745 318 696 372 614 372C532 372 482 318 482 255C482 247 483 234 485 224Z"/>
<glyph unicode="&#xbe;" horiz-adv-x="843" d="M259 0L724 709L641 709L175 0ZM482 72L667 72L667 0L744 0L744 72L808 72L808 137L744 137L744 365L659 365L482 145ZM667 137L556 137L667 276ZM154 509C161 511 172 513 182 513C215 513 250 499 250 457C250 426 223 402 182 402C141 402 109 428 103 466L36 439C48 387 96 336 183 336C270 336 328 391 328 457C328 525 277 561 220 566L320 646L320 709L49 709L49 644L220 644L125 565Z"/>
<glyph unicode="&#xbf;" horiz-adv-x="503" d="M223 289C224 282 224 276 224 270C224 231 211 195 180 174L134 143C76 104 32 49 32 -31C32 -133 111 -232 251 -232C405 -232 472 -119 472 -27C472 -9 470 7 466 21L369 33C373 22 376 1 376 -16C376 -79 338 -144 251 -144C171 -144 132 -89 132 -30C132 9 151 45 185 68L229 98C288 138 312 188 312 254C312 267 312 277 311 289ZM332 431C332 467 303 496 267 496C231 496 201 467 201 431C201 395 231 365 267 365C303 365 332 395 332 431Z"/>
<glyph unicode="&#xc0;" horiz-adv-x="711" d="M588 0L694 0L412 709L299 709L17 0L122 0L197 198L511 198ZM353 607L476 289L232 289ZM308 759L401 759L299 878L170 878Z"/>
<glyph unicode="&#xc1;" horiz-adv-x="711" d="M588 0L694 0L412 709L299 709L17 0L122 0L197 198L511 198ZM353 607L476 289L232 289ZM538 878L408 878L307 759L401 759Z"/>
<glyph unicode="&#xc2;" horiz-adv-x="711" d="M588 0L694 0L412 709L299 709L17 0L122 0L197 198L511 198ZM353 607L476 289L232 289ZM270 759L351 823L436 759L528 759L411 878L291 878L179 759Z"/>
<glyph unicode="&#xc3;" horiz-adv-x="711" d="M588 0L694 0L412 709L299 709L17 0L122 0L197 198L511 198ZM353 607L476 289L232 289ZM513 881L446 881L446 873C446 847 431 838 414 838C401 838 390 844 376 852L361 861C341 873 316 884 288 884C233 884 191 847 191 773L191 757L259 757C259 788 273 801 294 801C307 801 318 795 331 787L346 777C366 763 388 754 417 754C472 754 513 791 513 865Z"/>
<glyph unicode="&#xc4;" horiz-adv-x="711" d="M149 819C149 786 175 760 208 760C241 760 267 786 267 819C267 852 241 878 208 878C175 878 149 852 149 819ZM440 819C440 786 466 760 499 760C532 760 558 786 558 819C558 852 532 878 499 878C466 878 440 852 440 819ZM588 0L694 0L412 709L299 709L17 0L122 0L197 198L511 198ZM353 607L476 289L232 289Z"/>
<glyph unicode="&#xc5;" horiz-adv-x="711" d="M353 607L476 289L232 289ZM404 760C404 731 381 709 351 709C323 709 301 731 301 760C301 788 323 812 351 812C381 812 404 788 404 760ZM476 760C476 828 420 881 353 881C288 881 231 828 231 760C231 720 251 686 281 664L17 0L122 0L197 198L511 198L588 0L694 0L429 666C457 688 476 721 476 760Z"/>
<glyph unicode="&#xc6;" horiz-adv-x="1013" d="M959 0L959 91L626 91L626 308L928 308L928 400L626 400L626 618L959 618L959 709L470 709L-2 0L124 0L250 196L528 196L528 0ZM306 284L528 628L528 284Z"/>
<glyph unicode="&#xc7;" horiz-adv-x="747" d="M374 -101C382 -98 393 -96 403 -96C431 -96 447 -110 447 -128C447 -151 424 -161 400 -161C366 -161 340 -140 328 -127L291 -172C311 -196 351 -218 401 -218C482 -218 518 -175 518 -128C518 -78 477 -46 421 -46L442 -13C579 2 678 92 713 213L626 245C597 148 518 75 400 75C271 75 148 170 148 355C148 540 271 634 400 634C516 634 594 574 621 467L712 499C676 636 562 724 400 724C224 724 48 592 48 355C48 130 200 -1 371 -14L341 -62Z"/>
<glyph unicode="&#xc8;" horiz-adv-x="580" d="M526 0L526 91L193 91L193 308L495 308L495 400L193 400L193 618L526 618L526 709L95 709L95 0ZM292 759L385 759L283 878L154 878Z"/>
<glyph unicode="&#xc9;" horiz-adv-x="580" d="M526 0L526 91L193 91L193 308L495 308L495 400L193 400L193 618L526 618L526 709L95 709L95 0ZM470 878L340 878L239 759L333 759Z"/>
<glyph unicode="&#xca;" horiz-adv-x="580" d="M526 0L526 91L193 91L193 308L495 308L495 400L193 400L193 618L526 618L526 709L95 709L95 0ZM227 759L308 823L393 759L485 759L368 878L248 878L136 759Z"/>
<glyph unicode="&#xcb;" horiz-adv-x="580" d="M526 0L526 91L193 91L193 308L495 308L495 400L193 400L193 618L526 618L526 709L95 709L95 0ZM138 819C138 786 164 760 197 760C230 760 256 786 256 819C256 852 230 878 197 878C164 878 138 852 138 819ZM369 819C369 786 395 760 428 760C461 760 487 786 487 819C487 852 461 878 428 878C395 878 369 852 369 819Z"/>
<glyph unicode="&#xcc;" horiz-adv-x="290" d="M195 0L195 709L95 709L95 0ZM98 759L191 759L89 878L-40 878Z"/>
<glyph unicode="&#xcd;" horiz-adv-x="290" d="M195 0L195 709L95 709L95 0ZM330 878L200 878L99 759L193 759Z"/>
<glyph unicode="&#xce;" horiz-adv-x="290" d="M195 0L195 709L95 709L95 0ZM68 759L149 823L234 759L326 759L209 878L89 878L-23 759Z"/>
<glyph unicode="&#xcf;" horiz-adv-x="290" d="M195 0L195 709L95 709L95 0ZM16 819C16 789 39 765 69 765C99 765 123 789 123 819C123 849 99 872 69 872C39 872 16 849 16 819ZM169 819C169 789 193 765 223 765C253 765 276 789 276 819C276 849 253 872 223 872C193 872 169 849 169 819Z"/>
<glyph unicode="&#xd0;" horiz-adv-x="733" d="M344 0C524 0 683 121 683 353C683 586 526 709 346 709L98 709L98 407L22 407L22 325L98 325L98 0ZM196 87L196 325L318 325L318 407L196 407L196 622L343 622C474 622 582 532 582 353C582 175 472 87 341 87Z"/>
<glyph unicode="&#xd1;" horiz-adv-x="773" d="M678 0L678 709L580 709L580 165L226 709L95 709L95 0L193 0L193 578L576 0ZM548 881L481 881L481 873C481 847 466 838 449 838C436 838 425 844 411 852L396 861C376 873 351 884 323 884C268 884 226 847 226 773L226 757L294 757C294 788 308 801 329 801C342 801 353 795 366 787L381 777C401 763 423 754 452 754C507 754 548 791 548 865Z"/>
<glyph unicode="&#xd2;" horiz-adv-x="808" d="M148 355C148 540 272 634 404 634C536 634 660 540 660 355C660 170 536 75 404 75C272 75 148 170 148 355ZM48 355C48 118 226 -15 404 -15C582 -15 760 118 760 355C760 592 582 724 404 724C226 724 48 592 48 355ZM364 759L457 759L355 878L226 878Z"/>
<glyph unicode="&#xd3;" horiz-adv-x="808" d="M148 355C148 540 272 634 404 634C536 634 660 540 660 355C660 170 536 75 404 75C272 75 148 170 148 355ZM48 355C48 118 226 -15 404 -15C582 -15 760 118 760 355C760 592 582 724 404 724C226 724 48 592 48 355ZM580 878L450 878L349 759L443 759Z"/>
<glyph unicode="&#xd4;" horiz-adv-x="808" d="M148 355C148 540 272 634 404 634C536 634 660 540 660 355C660 170 536 75 404 75C272 75 148 170 148 355ZM48 355C48 118 226 -15 404 -15C582 -15 760 118 760 355C760 592 582 724 404 724C226 724 48 592 48 355ZM321 759L402 823L487 759L579 759L462 878L342 878L230 759Z"/>
<glyph unicode="&#xd5;" horiz-adv-x="808" d="M148 355C148 540 272 634 404 634C536 634 660 540 660 355C660 170 536 75 404 75C272 75 148 170 148 355ZM48 355C48 118 226 -15 404 -15C582 -15 760 118 760 355C760 592 582 724 404 724C226 724 48 592 48 355ZM569 881L502 881L502 873C502 847 487 838 470 838C457 838 446 844 432 852L417 861C397 873 372 884 344 884C289 884 247 847 247 773L247 757L315 757C315 788 329 801 350 801C363 801 374 795 387 787L402 777C422 763 444 754 473 754C528 754 569 791 569 865Z"/>
<glyph unicode="&#xd6;" horiz-adv-x="808" d="M190 819C190 786 216 760 249 760C282 760 308 786 308 819C308 852 282 878 249 878C216 878 190 852 190 819ZM501 819C501 786 527 760 560 760C593 760 619 786 619 819C619 852 593 878 560 878C527 878 501 852 501 819ZM148 355C148 540 272 634 404 634C536 634 660 540 660 355C660 170 536 75 404 75C272 75 148 170 148 355ZM48 355C48 118 226 -15 404 -15C582 -15 760 118 760 355C760 592 582 724 404 724C226 724 48 592 48 355Z"/>
<glyph unicode="&#xd7;" horiz-adv-x="572" d="M455 116L511 173L341 349L510 524L453 580L286 406L119 580L62 523L230 349L61 173L117 117L285 291Z"/>
<glyph unicode="&#xd8;" horiz-adv-x="808" d="M48 355C48 243 88 154 148 92L77 0L147 -51L215 38C272 3 338 -15 404 -15C582 -15 760 118 760 355C760 465 721 553 662 615L735 709L667 761L595 669C538 705 471 724 404 724C226 724 48 592 48 355ZM148 355C148 540 272 634 404 634C452 634 499 621 539 596L207 167C170 213 148 276 148 355ZM660 355C660 170 536 75 404 75C357 75 311 86 271 110L603 539C638 493 660 432 660 355Z"/>
<glyph unicode="&#xd9;" horiz-adv-x="686" d="M343 -15C487 -15 598 75 598 242L598 709L500 709L500 245C500 137 443 76 343 76C244 76 185 137 185 245L185 709L88 709L88 242C88 75 199 -15 343 -15ZM319 759L412 759L310 878L181 878Z"/>
<glyph unicode="&#xda;" horiz-adv-x="686" d="M343 -15C487 -15 598 75 598 242L598 709L500 709L500 245C500 137 443 76 343 76C244 76 185 137 185 245L185 709L88 709L88 242C88 75 199 -15 343 -15ZM502 878L372 878L271 759L365 759Z"/>
<glyph unicode="&#xdb;" horiz-adv-x="686" d="M343 -15C487 -15 598 75 598 242L598 709L500 709L500 245C500 137 443 76 343 76C244 76 185 137 185 245L185 709L88 709L88 242C88 75 199 -15 343 -15ZM260 759L341 823L426 759L518 759L401 878L281 878L169 759Z"/>
<glyph unicode="&#xdc;" horiz-adv-x="686" d="M343 -15C487 -15 598 75 598 242L598 709L500 709L500 245C500 137 443 76 343 76C244 76 185 137 185 245L185 709L88 709L88 242C88 75 199 -15 343 -15ZM174 819C174 786 200 760 233 760C266 760 292 786 292 819C292 852 266 878 233 878C200 878 174 852 174 819ZM405 819C405 786 431 760 464 760C497 760 523 786 523 819C523 852 497 878 464 878C431 878 405 852 405 819Z"/>
<glyph unicode="&#xdd;" horiz-adv-x="642" d="M272 303L272 0L370 0L370 303L620 709L508 709L324 393L140 709L22 709ZM478 878L348 878L247 759L341 759Z"/>
<glyph unicode="&#xde;" horiz-adv-x="603" d="M193 244L193 485L337 485C422 485 472 438 472 363C472 290 422 244 337 244ZM349 157C480 157 572 244 572 364C572 483 479 572 348 572L193 572L193 709L95 709L95 0L193 0L193 157Z"/>
<glyph unicode="&#xdf;" horiz-adv-x="570" d="M353 343C353 365 366 378 384 389L413 407C458 435 501 477 501 555C501 650 418 724 296 724C174 724 76 640 76 493L76 0L170 0L170 488C170 590 228 641 296 641C366 641 406 600 406 552C406 515 382 488 349 467L317 446C279 421 254 386 254 338C254 263 313 232 359 211L393 195C428 178 445 156 445 122C445 97 423 63 375 63C313 63 294 115 294 148L211 126C211 68 255 -15 375 -15C487 -15 538 63 538 130C538 200 490 251 434 278L399 295C371 308 353 317 353 343Z"/>
<glyph unicode="&#xe0;" horiz-adv-x="523" d="M44 129C44 53 107 -15 205 -15C291 -15 339 31 360 65C360 30 363 12 365 0L457 0C455 12 451 37 451 79L451 320C451 414 395 496 251 496C147 496 64 432 54 340L144 319C150 375 187 416 253 416C326 416 357 377 357 330C357 313 349 298 320 294L190 275C107 263 44 215 44 129ZM218 64C170 64 140 98 140 134C140 177 170 200 210 206L357 228L357 206C357 101 295 64 218 64ZM229 543L307 543L221 689L103 689Z"/>
<glyph unicode="&#xe1;" horiz-adv-x="523" d="M44 129C44 53 107 -15 205 -15C291 -15 339 31 360 65C360 30 363 12 365 0L457 0C455 12 451 37 451 79L451 320C451 414 395 496 251 496C147 496 64 432 54 340L144 319C150 375 187 416 253 416C326 416 357 377 357 330C357 313 349 298 320 294L190 275C107 263 44 215 44 129ZM218 64C170 64 140 98 140 134C140 177 170 200 210 206L357 228L357 206C357 101 295 64 218 64ZM419 689L301 689L214 543L293 543Z"/>
<glyph unicode="&#xe2;" horiz-adv-x="523" d="M44 129C44 53 107 -15 205 -15C291 -15 339 31 360 65C360 30 363 12 365 0L457 0C455 12 451 37 451 79L451 320C451 414 395 496 251 496C147 496 64 432 54 340L144 319C150 375 187 416 253 416C326 416 357 377 357 330C357 313 349 298 320 294L190 275C107 263 44 215 44 129ZM218 64C170 64 140 98 140 134C140 177 170 200 210 206L357 228L357 206C357 101 295 64 218 64ZM189 545L259 626L329 545L417 545L313 684L206 684L102 545Z"/>
<glyph unicode="&#xe3;" horiz-adv-x="523" d="M44 129C44 53 107 -15 205 -15C291 -15 339 31 360 65C360 30 363 12 365 0L457 0C455 12 451 37 451 79L451 320C451 414 395 496 251 496C147 496 64 432 54 340L144 319C150 375 187 416 253 416C326 416 357 377 357 330C357 313 349 298 320 294L190 275C107 263 44 215 44 129ZM218 64C170 64 140 98 140 134C140 177 170 200 210 206L357 228L357 206C357 101 295 64 218 64ZM416 677L345 677C345 645 336 634 316 634C303 634 293 640 280 648L266 657C247 669 226 679 199 679C144 679 101 644 101 570L101 555L173 555C173 588 183 598 202 598C215 598 226 592 239 584L253 575C272 563 293 553 319 553C374 553 416 588 416 662Z"/>
<glyph unicode="&#xe4;" horiz-adv-x="523" d="M44 129C44 53 107 -15 205 -15C291 -15 339 31 360 65C360 30 363 12 365 0L457 0C455 12 451 37 451 79L451 320C451 414 395 496 251 496C147 496 64 432 54 340L144 319C150 375 187 416 253 416C326 416 357 377 357 330C357 313 349 298 320 294L190 275C107 263 44 215 44 129ZM218 64C170 64 140 98 140 134C140 177 170 200 210 206L357 228L357 206C357 101 295 64 218 64ZM104 621C104 588 129 563 161 563C194 563 220 588 220 621C220 653 194 679 161 679C129 679 104 653 104 621ZM291 621C291 588 316 563 349 563C381 563 407 588 407 621C407 653 381 679 349 679C316 679 291 653 291 621Z"/>
<glyph unicode="&#xe5;" horiz-adv-x="523" d="M44 129C44 53 107 -15 205 -15C291 -15 339 31 360 65C360 30 363 12 365 0L457 0C455 12 451 37 451 79L451 320C451 414 395 496 251 496C147 496 64 432 54 340L144 319C150 375 187 416 253 416C326 416 357 377 357 330C357 313 349 298 320 294L190 275C107 263 44 215 44 129ZM218 64C170 64 140 98 140 134C140 177 170 200 210 206L357 228L357 206C357 101 295 64 218 64ZM367 641C367 703 316 751 255 751C196 751 144 703 144 641C144 580 196 532 255 532C316 532 367 580 367 641ZM303 641C303 614 282 593 254 593C227 593 207 614 207 641C207 668 227 690 254 690C282 690 303 668 303 641Z"/>
<glyph unicode="&#xe6;" horiz-adv-x="869" d="M742 165C724 111 686 68 608 68C528 68 465 129 463 214L825 214C826 219 827 235 827 244C827 394 744 496 596 496C531 496 470 466 427 416C396 464 338 496 256 496C164 496 62 437 53 340L141 323C147 374 188 417 256 417C329 417 366 376 366 330C366 316 360 299 328 294L189 275C106 263 43 215 43 129C43 53 105 -15 215 -15C324 -15 380 38 408 89C453 21 527 -15 608 -15C714 -15 797 52 824 137ZM222 64C169 64 139 97 139 132C139 176 167 200 209 206L366 228L366 205C366 100 289 64 222 64ZM466 290C470 352 518 413 597 413C681 413 727 359 729 290Z"/>
<glyph unicode="&#xe7;" horiz-adv-x="539" d="M257 -102C265 -99 276 -97 286 -97C314 -97 330 -111 330 -129C330 -152 307 -162 283 -162C249 -162 223 -141 211 -128L174 -173C194 -197 234 -217 284 -217C365 -217 401 -176 401 -129C401 -79 360 -47 304 -47L327 -12C428 3 483 73 504 135L421 171C410 133 374 72 287 72C209 72 140 132 140 241C140 350 210 409 286 409C368 409 403 354 415 307L500 343C480 416 414 496 286 496C149 496 44 389 44 241C44 108 132 2 256 -13L224 -63Z"/>
<glyph unicode="&#xe8;" horiz-adv-x="547" d="M144 290C148 352 196 413 275 413C360 413 405 359 407 290ZM421 165C403 111 364 68 286 68C205 68 143 128 141 214L503 214C504 220 505 232 505 244C505 394 422 496 274 496C153 496 44 393 44 242C44 79 157 -15 286 -15C398 -15 475 52 502 137ZM253 543L331 543L245 689L127 689Z"/>
<glyph unicode="&#xe9;" horiz-adv-x="547" d="M144 290C148 352 196 413 275 413C360 413 405 359 407 290ZM421 165C403 111 364 68 286 68C205 68 143 128 141 214L503 214C504 220 505 232 505 244C505 394 422 496 274 496C153 496 44 393 44 242C44 79 157 -15 286 -15C398 -15 475 52 502 137ZM438 689L320 689L233 543L312 543Z"/>
<glyph unicode="&#xea;" horiz-adv-x="547" d="M144 290C148 352 196 413 275 413C360 413 405 359 407 290ZM421 165C403 111 364 68 286 68C205 68 143 128 141 214L503 214C504 220 505 232 505 244C505 394 422 496 274 496C153 496 44 393 44 242C44 79 157 -15 286 -15C398 -15 475 52 502 137ZM212 545L282 626L352 545L440 545L336 684L229 684L125 545Z"/>
<glyph unicode="&#xeb;" horiz-adv-x="547" d="M144 290C148 352 196 413 275 413C360 413 405 359 407 290ZM421 165C403 111 364 68 286 68C205 68 143 128 141 214L503 214C504 220 505 232 505 244C505 394 422 496 274 496C153 496 44 393 44 242C44 79 157 -15 286 -15C398 -15 475 52 502 137ZM129 621C129 588 154 563 186 563C219 563 245 588 245 621C245 653 219 679 186 679C154 679 129 653 129 621ZM316 621C316 588 341 563 374 563C406 563 432 588 432 621C432 653 406 679 374 679C341 679 316 653 316 621Z"/>
<glyph unicode="&#xec;" horiz-adv-x="245" d="M169 0L169 481L76 481L76 0ZM89 543L167 543L81 689L-37 689Z"/>
<glyph unicode="&#xed;" horiz-adv-x="245" d="M169 0L169 481L76 481L76 0ZM286 689L168 689L81 543L160 543Z"/>
<glyph unicode="&#xee;" horiz-adv-x="245" d="M169 0L169 481L76 481L76 0ZM53 545L123 626L193 545L281 545L177 684L70 684L-34 545Z"/>
<glyph unicode="&#xef;" horiz-adv-x="245" d="M169 0L169 481L76 481L76 0ZM-1 621C-1 591 22 568 52 568C82 568 106 591 106 621C106 651 82 675 52 675C22 675 -1 651 -1 621ZM140 621C140 591 163 568 193 568C223 568 247 591 247 621C247 651 223 675 193 675C163 675 140 651 140 621Z"/>
<glyph unicode="&#xf0;" horiz-adv-x="585" d="M479 639L448 702L339 647C273 692 204 715 165 724L136 648C173 637 211 623 248 602L154 555L183 492L314 557C356 521 392 475 415 414C386 447 335 464 275 464C159 464 44 375 44 227C44 89 145 -14 289 -14C443 -14 535 105 535 261C535 420 473 529 398 599ZM289 70C209 70 139 125 139 227C139 328 209 384 289 384C369 384 438 330 438 227C438 125 369 70 289 70Z"/>
<glyph unicode="&#xf1;" horiz-adv-x="559" d="M170 278C170 351 208 410 282 410C366 410 394 356 394 289L394 0L488 0L488 305C488 412 431 495 316 495C260 495 203 472 168 412L168 481L76 481L76 0L170 0ZM448 677L377 677C377 645 368 634 348 634C335 634 325 640 312 648L298 657C279 669 258 679 231 679C176 679 133 644 133 570L133 555L205 555C205 588 215 598 234 598C247 598 258 592 271 584L285 575C304 563 325 553 351 553C406 553 448 588 448 662Z"/>
<glyph unicode="&#xf2;" horiz-adv-x="580" d="M290 69C210 69 140 129 140 241C140 352 210 412 290 412C370 412 440 352 440 241C440 129 370 69 290 69ZM290 496C146 496 44 387 44 241C44 94 146 -15 290 -15C434 -15 536 94 536 241C536 387 434 496 290 496ZM255 543L333 543L247 689L129 689Z"/>
<glyph unicode="&#xf3;" horiz-adv-x="580" d="M290 69C210 69 140 129 140 241C140 352 210 412 290 412C370 412 440 352 440 241C440 129 370 69 290 69ZM290 496C146 496 44 387 44 241C44 94 146 -15 290 -15C434 -15 536 94 536 241C536 387 434 496 290 496ZM439 689L321 689L234 543L313 543Z"/>
<glyph unicode="&#xf4;" horiz-adv-x="580" d="M290 69C210 69 140 129 140 241C140 352 210 412 290 412C370 412 440 352 440 241C440 129 370 69 290 69ZM290 496C146 496 44 387 44 241C44 94 146 -15 290 -15C434 -15 536 94 536 241C536 387 434 496 290 496ZM220 545L290 626L360 545L448 545L344 684L237 684L133 545Z"/>
<glyph unicode="&#xf5;" horiz-adv-x="580" d="M290 69C210 69 140 129 140 241C140 352 210 412 290 412C370 412 440 352 440 241C440 129 370 69 290 69ZM290 496C146 496 44 387 44 241C44 94 146 -15 290 -15C434 -15 536 94 536 241C536 387 434 496 290 496ZM449 677L378 677C378 645 369 634 349 634C336 634 326 640 313 648L299 657C280 669 259 679 232 679C177 679 134 644 134 570L134 555L206 555C206 588 216 598 235 598C248 598 259 592 272 584L286 575C305 563 326 553 352 553C407 553 449 588 449 662Z"/>
<glyph unicode="&#xf6;" horiz-adv-x="580" d="M290 69C210 69 140 129 140 241C140 352 210 412 290 412C370 412 440 352 440 241C440 129 370 69 290 69ZM290 496C146 496 44 387 44 241C44 94 146 -15 290 -15C434 -15 536 94 536 241C536 387 434 496 290 496ZM138 621C138 588 163 563 195 563C228 563 254 588 254 621C254 653 228 679 195 679C163 679 138 653 138 621ZM325 621C325 588 350 563 383 563C415 563 441 588 441 621C441 653 415 679 383 679C350 679 325 653 325 621Z"/>
<glyph unicode="&#xf7;" horiz-adv-x="573" d="M221 171C221 136 251 106 286 106C321 106 350 136 350 171C350 206 321 235 286 235C251 235 221 206 221 171ZM221 526C221 491 251 461 286 461C321 461 350 491 350 526C350 561 321 590 286 590C251 590 221 561 221 526ZM58 307L515 307L515 390L58 390Z"/>
<glyph unicode="&#xf8;" horiz-adv-x="582" d="M291 496C147 496 45 387 45 241C45 171 68 110 107 65L58 1L118 -47L167 16C202 -3 244 -15 291 -15C435 -15 537 94 537 241C537 310 514 370 475 415L526 481L466 529L416 464C380 484 338 496 291 496ZM141 241C141 352 211 412 291 412C316 412 340 406 362 394L166 140C151 167 141 197 141 241ZM291 69C266 69 242 74 221 86L417 340C432 314 441 280 441 241C441 129 371 69 291 69Z"/>
<glyph unicode="&#xf9;" horiz-adv-x="559" d="M393 58C393 38 395 11 397 0L487 0C485 17 482 51 482 89L482 481L388 481L388 191C388 118 350 68 274 68C195 68 165 126 165 192L165 481L71 481L71 178C71 69 139 -15 251 -15C307 -15 367 8 393 58ZM252 543L330 543L244 689L126 689Z"/>
<glyph unicode="&#xfa;" horiz-adv-x="559" d="M393 58C393 38 395 11 397 0L487 0C485 17 482 51 482 89L482 481L388 481L388 191C388 118 350 68 274 68C195 68 165 126 165 192L165 481L71 481L71 178C71 69 139 -15 251 -15C307 -15 367 8 393 58ZM419 689L301 689L214 543L293 543Z"/>
<glyph unicode="&#xfb;" horiz-adv-x="559" d="M393 58C393 38 395 11 397 0L487 0C485 17 482 51 482 89L482 481L388 481L388 191C388 118 350 68 274 68C195 68 165 126 165 192L165 481L71 481L71 178C71 69 139 -15 251 -15C307 -15 367 8 393 58ZM206 545L276 626L346 545L434 545L330 684L223 684L119 545Z"/>
<glyph unicode="&#xfc;" horiz-adv-x="559" d="M393 58C393 38 395 11 397 0L487 0C485 17 482 51 482 89L482 481L388 481L388 191C388 118 350 68 274 68C195 68 165 126 165 192L165 481L71 481L71 178C71 69 139 -15 251 -15C307 -15 367 8 393 58ZM124 621C124 588 149 563 181 563C214 563 240 588 240 621C240 653 214 679 181 679C149 679 124 653 124 621ZM311 621C311 588 336 563 369 563C401 563 427 588 427 621C427 653 401 679 369 679C336 679 311 653 311 621Z"/>
<glyph unicode="&#xfd;" horiz-adv-x="538" d="M210 -201L523 481L422 481L278 149L128 481L20 481L227 53L107 -201ZM419 689L301 689L214 543L293 543Z"/>
<glyph unicode="&#xfe;" horiz-adv-x="594" d="M169 -190L169 65C195 22 251 -13 325 -13C466 -13 549 98 549 241C549 381 472 492 328 492C253 492 197 456 170 411L170 724L76 724L76 -190ZM453 241C453 142 398 71 311 71C225 71 168 142 168 241C168 337 225 409 311 409C399 409 453 337 453 241Z"/>
<glyph unicode="&#xff;" horiz-adv-x="538" d="M210 -201L523 481L422 481L278 149L128 481L20 481L227 53L107 -201ZM120 621C120 588 145 563 177 563C210 563 236 588 236 621C236 653 210 679 177 679C145 679 120 653 120 621ZM307 621C307 588 332 563 365 563C397 563 423 588 423 621C423 653 397 679 365 679C332 679 307 653 307 621Z"/>
<glyph unicode="&#x100;" horiz-adv-x="711" d="M588 0L694 0L412 709L299 709L17 0L122 0L197 198L511 198ZM353 607L476 289L232 289ZM499 779L499 862L206 862L206 779Z"/>
<glyph unicode="&#x101;" horiz-adv-x="523" d="M44 129C44 53 107 -15 205 -15C291 -15 339 31 360 65C360 30 363 12 365 0L457 0C455 12 451 37 451 79L451 320C451 414 395 496 251 496C147 496 64 432 54 340L144 319C150 375 187 416 253 416C326 416 357 377 357 330C357 313 349 298 320 294L190 275C107 263 44 215 44 129ZM218 64C170 64 140 98 140 134C140 177 170 200 210 206L357 228L357 206C357 101 295 64 218 64ZM392 577L392 658L119 658L119 577Z"/>
<glyph unicode="&#x102;" horiz-adv-x="711" d="M588 0L694 0L412 709L299 709L17 0L122 0L197 198L511 198ZM353 607L476 289L232 289ZM354 754C455 754 506 819 510 883L429 883C427 860 408 827 354 827C300 827 280 860 278 883L197 883C201 819 253 754 354 754Z"/>
<glyph unicode="&#x103;" horiz-adv-x="523" d="M44 129C44 53 107 -15 205 -15C291 -15 339 31 360 65C360 30 363 12 365 0L457 0C455 12 451 37 451 79L451 320C451 414 395 496 251 496C147 496 64 432 54 340L144 319C150 375 187 416 253 416C326 416 357 377 357 330C357 313 349 298 320 294L190 275C107 263 44 215 44 129ZM218 64C170 64 140 98 140 134C140 177 170 200 210 206L357 228L357 206C357 101 295 64 218 64ZM253 545C350 545 398 616 399 687L326 687C324 657 304 622 253 622C202 622 182 656 180 687L107 687C108 616 159 545 253 545Z"/>
<glyph unicode="&#x104;" horiz-adv-x="711" d="M353 607L476 289L232 289ZM529 -115C529 -179 582 -216 644 -216C669 -216 681 -213 694 -208L694 -140C686 -142 678 -144 662 -144C635 -144 609 -131 609 -97C609 -48 656 -18 694 0L412 709L299 709L17 0L122 0L197 198L511 198L588 0L601 0C564 -22 529 -58 529 -115Z"/>
<glyph unicode="&#x105;" horiz-adv-x="523" d="M292 -115C292 -179 345 -216 407 -216C432 -216 444 -213 457 -208L457 -140C449 -142 441 -144 425 -144C398 -144 372 -131 372 -97C372 -48 419 -18 457 0C455 12 451 37 451 79L451 320C451 414 395 496 251 496C147 496 64 432 54 340L144 319C150 375 187 416 253 416C326 416 357 377 357 330C357 313 349 298 320 294L190 275C107 263 44 215 44 129C44 53 107 -15 205 -15C291 -15 339 31 360 65C360 31 362 13 364 1C327 -21 292 -57 292 -115ZM218 64C170 64 140 98 140 134C140 177 170 200 210 206L357 228L357 206C357 101 295 64 218 64Z"/>
<glyph unicode="&#x106;" horiz-adv-x="748" d="M401 -15C564 -15 676 80 714 213L627 245C598 148 522 75 401 75C272 75 149 170 149 355C149 540 272 634 401 634C517 634 595 574 622 467L713 499C677 636 563 724 401 724C225 724 49 592 49 355C49 118 218 -15 401 -15ZM577 878L447 878L346 759L440 759Z"/>
<glyph unicode="&#x107;" horiz-adv-x="539" d="M286 409C368 409 403 354 415 307L500 343C480 416 414 496 286 496C149 496 44 391 44 241C44 95 147 -15 287 -15C412 -15 481 66 504 135L421 171C410 133 377 72 287 72C209 72 140 131 140 241C140 353 210 409 286 409ZM441 689L323 689L236 543L315 543Z"/>
<glyph unicode="&#x108;" horiz-adv-x="748" d="M401 -15C564 -15 676 80 714 213L627 245C598 148 522 75 401 75C272 75 149 170 149 355C149 540 272 634 401 634C517 634 595 574 622 467L713 499C677 636 563 724 401 724C225 724 49 592 49 355C49 118 218 -15 401 -15ZM322 759L403 823L488 759L580 759L463 878L343 878L231 759Z"/>
<glyph unicode="&#x109;" horiz-adv-x="539" d="M286 409C368 409 403 354 415 307L500 343C480 416 414 496 286 496C149 496 44 391 44 241C44 95 147 -15 287 -15C412 -15 481 66 504 135L421 171C410 133 377 72 287 72C209 72 140 131 140 241C140 353 210 409 286 409ZM215 545L285 626L355 545L443 545L339 684L232 684L128 545Z"/>
<glyph unicode="&#x10a;" horiz-adv-x="748" d="M401 -15C564 -15 676 80 714 213L627 245C598 148 522 75 401 75C272 75 149 170 149 355C149 540 272 634 401 634C517 634 595 574 622 467L713 499C677 636 563 724 401 724C225 724 49 592 49 355C49 118 218 -15 401 -15ZM337 818C337 784 366 755 400 755C435 755 464 784 464 818C464 853 435 882 400 882C366 882 337 853 337 818Z"/>
<glyph unicode="&#x10b;" horiz-adv-x="539" d="M286 409C368 409 403 354 415 307L500 343C480 416 414 496 286 496C149 496 44 391 44 241C44 95 147 -15 287 -15C412 -15 481 66 504 135L421 171C410 133 377 72 287 72C209 72 140 131 140 241C140 353 210 409 286 409ZM224 616C224 582 252 554 286 554C320 554 348 582 348 616C348 650 320 678 286 678C252 678 224 650 224 616Z"/>
<glyph unicode="&#x10c;" horiz-adv-x="748" d="M401 -15C564 -15 676 80 714 213L627 245C598 148 522 75 401 75C272 75 149 170 149 355C149 540 272 634 401 634C517 634 595 574 622 467L713 499C677 636 563 724 401 724C225 724 49 592 49 355C49 118 218 -15 401 -15ZM226 878L338 759L458 759L575 878L483 878L398 814L317 878Z"/>
<glyph unicode="&#x10d;" horiz-adv-x="539" d="M286 409C368 409 403 354 415 307L500 343C480 416 414 496 286 496C149 496 44 391 44 241C44 95 147 -15 287 -15C412 -15 481 66 504 135L421 171C410 133 377 72 287 72C209 72 140 131 140 241C140 353 210 409 286 409ZM121 687L223 545L334 545L436 687L348 687L278 606L208 687Z"/>
<glyph unicode="&#x10e;" horiz-adv-x="730" d="M193 87L193 622L340 622C471 622 579 532 579 353C579 175 469 87 338 87ZM341 0C521 0 680 121 680 353C680 586 523 709 343 709L95 709L95 0ZM185 878L297 759L417 759L534 878L442 878L357 814L276 878Z"/>
<glyph unicode="&#x10f;" horiz-adv-x="588" d="M140 242C140 341 196 411 282 411C368 411 420 343 420 244C420 145 367 70 281 70C191 70 140 143 140 242ZM421 65C421 36 424 11 426 0L517 0C516 8 512 43 512 89L512 724L419 724L419 413C403 452 357 494 272 494C136 494 44 378 44 242C44 99 131 -13 272 -13C347 -13 398 27 421 73ZM686 724L581 724L553 545L622 545Z"/>
<glyph unicode="&#x110;" horiz-adv-x="733" d="M344 0C524 0 683 121 683 353C683 586 526 709 346 709L98 709L98 407L22 407L22 325L98 325L98 0ZM196 87L196 325L318 325L318 407L196 407L196 622L343 622C474 622 582 532 582 353C582 175 472 87 341 87Z"/>
<glyph unicode="&#x111;" horiz-adv-x="588" d="M512 724L419 724L419 631L288 631L288 555L419 555L419 413C403 452 357 494 272 494C136 494 44 378 44 242C44 99 131 -13 272 -13C347 -13 398 27 421 73L421 65C421 36 424 11 426 0L517 0C516 8 512 43 512 89L512 555L589 555L589 631L512 631ZM140 242C140 341 196 411 282 411C368 411 420 343 420 244C420 145 367 70 281 70C191 70 140 143 140 242Z"/>
<glyph unicode="&#x112;" horiz-adv-x="580" d="M526 0L526 91L193 91L193 308L495 308L495 400L193 400L193 618L526 618L526 709L95 709L95 0ZM454 779L454 862L161 862L161 779Z"/>
<glyph unicode="&#x113;" horiz-adv-x="547" d="M144 290C148 352 196 413 275 413C360 413 405 359 407 290ZM421 165C403 111 364 68 286 68C205 68 143 128 141 214L503 214C504 220 505 232 505 244C505 394 422 496 274 496C153 496 44 393 44 242C44 79 157 -15 286 -15C398 -15 475 52 502 137ZM418 577L418 658L145 658L145 577Z"/>
<glyph unicode="&#x114;" horiz-adv-x="580" d="M526 0L526 91L193 91L193 308L495 308L495 400L193 400L193 618L526 618L526 709L95 709L95 0ZM312 754C413 754 464 819 468 883L387 883C385 860 366 827 312 827C258 827 238 860 236 883L155 883C159 819 211 754 312 754Z"/>
<glyph unicode="&#x115;" horiz-adv-x="547" d="M144 290C148 352 196 413 275 413C360 413 405 359 407 290ZM421 165C403 111 364 68 286 68C205 68 143 128 141 214L503 214C504 220 505 232 505 244C505 394 422 496 274 496C153 496 44 393 44 242C44 79 157 -15 286 -15C398 -15 475 52 502 137ZM281 545C378 545 426 616 427 687L354 687C352 657 332 622 281 622C230 622 210 656 208 687L135 687C136 616 187 545 281 545Z"/>
<glyph unicode="&#x116;" horiz-adv-x="580" d="M526 0L526 91L193 91L193 308L495 308L495 400L193 400L193 618L526 618L526 709L95 709L95 0ZM248 818C248 784 277 755 311 755C346 755 375 784 375 818C375 853 346 882 311 882C277 882 248 853 248 818Z"/>
<glyph unicode="&#x117;" horiz-adv-x="547" d="M144 290C148 352 196 413 275 413C360 413 405 359 407 290ZM421 165C403 111 364 68 286 68C205 68 143 128 141 214L503 214C504 220 505 232 505 244C505 394 422 496 274 496C153 496 44 393 44 242C44 79 157 -15 286 -15C398 -15 475 52 502 137ZM220 616C220 582 248 554 282 554C316 554 344 582 344 616C344 650 316 678 282 678C248 678 220 650 220 616Z"/>
<glyph unicode="&#x118;" horiz-adv-x="580" d="M361 -115C361 -179 414 -216 476 -216C501 -216 513 -213 526 -208L526 -140C518 -142 510 -144 494 -144C467 -144 441 -131 441 -97C441 -48 488 -18 526 0L526 91L193 91L193 308L495 308L495 400L193 400L193 618L526 618L526 709L95 709L95 0L433 0C396 -22 361 -58 361 -115Z"/>
<glyph unicode="&#x119;" horiz-adv-x="548" d="M322 -215C347 -215 359 -212 372 -207L372 -139C361 -142 350 -143 340 -143C314 -143 287 -130 287 -91C287 -48 320 -17 362 -3C432 19 482 73 502 137L421 165C403 111 364 68 286 68C206 68 143 129 141 214L503 214C505 229 505 239 505 244C505 394 422 496 274 496C153 496 44 393 44 242C44 91 142 -1 258 -14C230 -36 207 -68 207 -114C207 -178 260 -215 322 -215ZM144 290C148 352 196 413 275 413C359 413 405 359 407 290Z"/>
<glyph unicode="&#x11a;" horiz-adv-x="580" d="M526 0L526 91L193 91L193 308L495 308L495 400L193 400L193 618L526 618L526 709L95 709L95 0ZM144 878L256 759L376 759L493 878L401 878L316 814L235 878Z"/>
<glyph unicode="&#x11b;" horiz-adv-x="547" d="M144 290C148 352 196 413 275 413C360 413 405 359 407 290ZM421 165C403 111 364 68 286 68C205 68 143 128 141 214L503 214C504 220 505 232 505 244C505 394 422 496 274 496C153 496 44 393 44 242C44 79 157 -15 286 -15C398 -15 475 52 502 137ZM124 687L226 545L337 545L439 687L351 687L281 606L211 687Z"/>
<glyph unicode="&#x11c;" horiz-adv-x="772" d="M708 0L708 347L369 347L369 259L615 259C611 186 554 74 396 74C269 74 149 167 149 355C149 543 273 634 400 634C510 634 593 574 625 472L714 510C673 638 554 724 400 724C225 724 49 595 49 355C49 115 215 -15 393 -15C512 -15 589 44 620 100L629 0ZM317 759L398 823L483 759L575 759L458 878L338 878L226 759Z"/>
<glyph unicode="&#x11d;" horiz-adv-x="583" d="M44 -26C56 -129 146 -205 266 -205C447 -205 507 -86 507 36L507 481L414 481L414 414C390 462 340 490 266 490C134 490 45 386 45 256C45 120 138 23 266 23C338 23 390 58 413 102L413 33C413 -71 367 -123 266 -123C193 -123 142 -72 135 -5ZM280 102C195 102 141 162 141 256C141 349 197 410 280 410C361 410 417 349 417 256C417 163 361 102 280 102ZM212 545L282 626L352 545L440 545L336 684L229 684L125 545Z"/>
<glyph unicode="&#x11e;" horiz-adv-x="772" d="M708 0L708 347L369 347L369 259L615 259C611 186 554 74 396 74C269 74 149 167 149 355C149 543 273 634 400 634C510 634 593 574 625 472L714 510C673 638 554 724 400 724C225 724 49 595 49 355C49 115 215 -15 393 -15C512 -15 589 44 620 100L629 0ZM394 754C495 754 546 819 550 883L469 883C467 860 448 827 394 827C340 827 320 860 318 883L237 883C241 819 293 754 394 754Z"/>
<glyph unicode="&#x11f;" horiz-adv-x="583" d="M44 -26C56 -129 146 -205 266 -205C447 -205 507 -86 507 36L507 481L414 481L414 414C390 462 340 490 266 490C134 490 45 386 45 256C45 120 138 23 266 23C338 23 390 58 413 102L413 33C413 -71 367 -123 266 -123C193 -123 142 -72 135 -5ZM280 102C195 102 141 162 141 256C141 349 197 410 280 410C361 410 417 349 417 256C417 163 361 102 280 102ZM276 545C373 545 421 616 422 687L349 687C347 657 327 622 276 622C225 622 205 656 203 687L130 687C131 616 182 545 276 545Z"/>
<glyph unicode="&#x120;" horiz-adv-x="772" d="M708 0L708 347L369 347L369 259L615 259C611 186 554 74 396 74C269 74 149 167 149 355C149 543 273 634 400 634C510 634 593 574 625 472L714 510C673 638 554 724 400 724C225 724 49 595 49 355C49 115 215 -15 393 -15C512 -15 589 44 620 100L629 0ZM335 818C335 784 364 755 398 755C433 755 462 784 462 818C462 853 433 882 398 882C364 882 335 853 335 818Z"/>
<glyph unicode="&#x121;" horiz-adv-x="583" d="M44 -26C56 -129 146 -205 266 -205C447 -205 507 -86 507 36L507 481L414 481L414 414C390 462 340 490 266 490C134 490 45 386 45 256C45 120 138 23 266 23C338 23 390 58 413 102L413 33C413 -71 367 -123 266 -123C193 -123 142 -72 135 -5ZM280 102C195 102 141 162 141 256C141 349 197 410 280 410C361 410 417 349 417 256C417 163 361 102 280 102ZM215 616C215 582 243 554 277 554C311 554 339 582 339 616C339 650 311 678 277 678C243 678 215 650 215 616Z"/>
<glyph unicode="&#x122;" horiz-adv-x="772" d="M708 0L708 347L369 347L369 259L615 259C611 186 554 74 396 74C269 74 149 167 149 355C149 543 273 634 400 634C510 634 593 574 625 472L714 510C673 638 554 724 400 724C225 724 49 595 49 355C49 115 215 -15 393 -15C512 -15 589 44 620 100L629 0ZM334 -88C334 -122 357 -139 388 -139C397 -139 406 -135 409 -133C407 -157 378 -181 344 -181L344 -221C398 -221 458 -186 458 -109C458 -55 422 -36 393 -36C362 -36 334 -58 334 -88Z"/>
<glyph unicode="&#x123;" horiz-adv-x="583" d="M44 -26C56 -129 146 -205 266 -205C447 -205 507 -86 507 36L507 481L414 481L414 414C390 462 340 490 266 490C134 490 45 386 45 256C45 120 138 23 266 23C338 23 390 58 413 102L413 33C413 -71 367 -123 266 -123C193 -123 142 -72 135 -5ZM280 102C195 102 141 162 141 256C141 349 197 410 280 410C361 410 417 349 417 256C417 163 361 102 280 102ZM331 586C331 618 309 637 277 637C265 637 257 632 256 631C258 655 287 679 321 679L321 719C267 719 207 679 207 607C207 554 244 534 272 534C305 534 331 554 331 586Z"/>
<glyph unicode="&#x124;" horiz-adv-x="748" d="M653 0L653 709L555 709L555 406L193 406L193 709L95 709L95 0L193 0L193 315L555 315L555 0ZM291 759L372 823L457 759L549 759L432 878L312 878L200 759Z"/>
<glyph unicode="&#x125;" horiz-adv-x="559" d="M170 283C172 354 210 410 282 410C366 410 394 356 394 289L394 0L488 0L488 305C488 412 431 495 316 495C261 495 205 476 170 425L170 724L76 724L76 0L170 0ZM202 769L283 833L368 769L460 769L343 888L223 888L111 769Z"/>
<glyph unicode="&#x126;" horiz-adv-x="752" d="M655 0L655 513L727 513L727 588L655 588L655 709L557 709L557 588L195 588L195 709L97 709L97 588L24 588L24 513L97 513L97 0L195 0L195 315L557 315L557 0ZM195 406L195 513L557 513L557 406Z"/>
<glyph unicode="&#x127;" horiz-adv-x="559" d="M170 283C172 354 210 410 282 410C366 410 394 356 394 289L394 0L488 0L488 305C488 412 431 495 316 495C261 495 205 476 170 425L170 557L291 557L291 633L170 633L170 724L76 724L76 633L-10 633L-10 557L76 557L76 0L170 0Z"/>
<glyph unicode="&#x128;" horiz-adv-x="290" d="M195 0L195 709L95 709L95 0ZM308 881L241 881L241 873C241 847 226 838 209 838C196 838 185 844 171 852L156 861C136 873 111 884 83 884C28 884 -14 847 -14 773L-14 757L54 757C54 788 68 801 89 801C102 801 113 795 126 787L141 777C161 763 183 754 212 754C267 754 308 791 308 865Z"/>
<glyph unicode="&#x129;" horiz-adv-x="245" d="M169 0L169 481L76 481L76 0ZM280 677L209 677C209 645 200 634 180 634C167 634 157 640 144 648L130 657C111 669 90 679 63 679C8 679 -35 644 -35 570L-35 555L37 555C37 588 47 598 66 598C79 598 90 592 103 584L117 575C136 563 157 553 183 553C238 553 280 588 280 662Z"/>
<glyph unicode="&#x12a;" horiz-adv-x="290" d="M195 0L195 709L95 709L95 0ZM292 779L292 862L-1 862L-1 779Z"/>
<glyph unicode="&#x12b;" horiz-adv-x="245" d="M169 0L169 481L76 481L76 0ZM260 577L260 658L-13 658L-13 577Z"/>
<glyph unicode="&#x12c;" horiz-adv-x="290" d="M195 0L195 709L95 709L95 0ZM146 754C247 754 298 819 302 883L221 883C219 860 200 827 146 827C92 827 72 860 70 883L-11 883C-7 819 45 754 146 754Z"/>
<glyph unicode="&#x12d;" horiz-adv-x="245" d="M169 0L169 481L76 481L76 0ZM123 545C220 545 268 616 269 687L196 687C194 657 174 622 123 622C72 622 52 656 50 687L-23 687C-22 616 29 545 123 545Z"/>
<glyph unicode="&#x12e;" horiz-adv-x="290" d="M30 -115C30 -179 83 -216 145 -216C170 -216 182 -213 195 -208L195 -140C187 -142 179 -144 163 -144C136 -144 110 -131 110 -97C110 -48 157 -18 195 0L195 709L95 709L95 0L102 0C65 -22 30 -58 30 -115Z"/>
<glyph unicode="&#x12f;" horiz-adv-x="245" d="M84 -97C84 -48 131 -18 169 0L169 481L76 481L76 0C39 -22 4 -57 4 -115C4 -179 57 -216 119 -216C144 -216 156 -213 169 -208L169 -140C161 -142 153 -144 137 -144C110 -144 84 -131 84 -97ZM55 663C55 626 85 596 122 596C160 596 190 626 190 663C190 701 160 731 122 731C85 731 55 701 55 663Z"/>
<glyph unicode="&#x130;" horiz-adv-x="290" d="M195 0L195 709L95 709L95 0ZM81 818C81 784 110 755 144 755C179 755 208 784 208 818C208 853 179 882 144 882C110 882 81 853 81 818Z"/>
<glyph unicode="&#x131;" horiz-adv-x="245" d="M169 0L169 481L76 481L76 0Z"/>
<glyph unicode="&#x132;" horiz-adv-x="610" d="M188 300L188 709L88 709L88 300ZM88 211C88 75 170 -15 309 -15C441 -15 522 88 522 212L522 709L424 709L424 205C424 123 380 76 308 76C237 76 188 118 188 212L188 230Z"/>
<glyph unicode="&#x133;" horiz-adv-x="491" d="M169 0L169 481L76 481L76 0ZM55 663C55 626 85 596 122 596C160 596 190 626 190 663C190 701 160 731 122 731C85 731 55 701 55 663ZM321 -52C321 -96 305 -122 256 -122C242 -122 231 -120 226 -119L226 -198C232 -200 246 -205 282 -205C365 -205 415 -143 415 -56L415 481L321 481ZM300 665C300 628 330 598 367 598C405 598 435 628 435 665C435 703 405 733 367 733C330 733 300 703 300 665Z"/>
<glyph unicode="&#x134;" horiz-adv-x="551" d="M29 211C29 75 111 -15 250 -15C382 -15 463 88 463 212L463 709L365 709L365 205C365 123 321 76 249 76C178 76 127 118 127 212L127 279L29 257ZM332 759L413 823L498 759L590 759L473 878L353 878L241 759Z"/>
<glyph unicode="&#x135;" horiz-adv-x="246" d="M76 -52C76 -96 60 -122 11 -122C1 -122 -14 -121 -19 -120L-19 -198C-13 -200 1 -205 37 -205C120 -205 170 -143 170 -56L170 481L76 481ZM53 545L123 626L193 545L281 545L177 684L70 684L-34 545Z"/>
<glyph unicode="&#x136;" horiz-adv-x="663" d="M534 0L658 0L359 393L654 709L525 709L193 344L193 709L95 709L95 0L193 0L193 214L294 322ZM300 -88C300 -122 323 -139 354 -139C363 -139 372 -135 375 -133C373 -157 344 -181 310 -181L310 -221C364 -221 424 -186 424 -109C424 -55 388 -36 359 -36C328 -36 300 -58 300 -88Z"/>
<glyph unicode="&#x137;" horiz-adv-x="526" d="M507 481L377 481L169 268L169 724L76 724L76 0L169 0L169 145L236 212L393 0L511 0L302 278ZM226 -88C226 -122 249 -139 280 -139C293 -139 300 -134 301 -133C299 -157 270 -181 236 -181L236 -221C290 -221 350 -186 350 -109C350 -55 315 -36 285 -36C254 -36 226 -56 226 -88Z"/>
<glyph unicode="&#x138;" horiz-adv-x="526" d="M507 481L377 481L169 268L169 481L76 481L76 0L169 0L169 145L236 212L393 0L511 0L302 278Z"/>
<glyph unicode="&#x139;" horiz-adv-x="547" d="M528 0L528 92L193 92L193 709L95 709L95 0ZM330 878L200 878L99 759L193 759Z"/>
<glyph unicode="&#x13a;" horiz-adv-x="246" d="M170 0L170 724L76 724L76 0ZM308 888L178 888L77 769L171 769Z"/>
<glyph unicode="&#x13b;" horiz-adv-x="547" d="M528 0L528 92L193 92L193 709L95 709L95 0ZM261 -88C261 -122 284 -139 315 -139C324 -139 333 -135 336 -133C334 -157 305 -181 271 -181L271 -221C325 -221 385 -186 385 -109C385 -55 349 -36 320 -36C289 -36 261 -58 261 -88Z"/>
<glyph unicode="&#x13c;" horiz-adv-x="246" d="M170 0L170 724L76 724L76 0ZM61 -88C61 -122 84 -139 115 -139C128 -139 135 -134 136 -133C134 -157 105 -181 71 -181L71 -221C125 -221 185 -186 185 -109C185 -55 150 -36 120 -36C89 -36 61 -56 61 -88Z"/>
<glyph unicode="&#x13d;" horiz-adv-x="547" d="M528 0L528 92L193 92L193 709L95 709L95 0ZM434 759L323 759L293 569L366 569Z"/>
<glyph unicode="&#x13e;" horiz-adv-x="246" d="M170 0L170 724L76 724L76 0ZM336 724L231 724L203 545L272 545Z"/>
<glyph unicode="&#x13f;" horiz-adv-x="547" d="M295 372C295 338 324 309 358 309C393 309 422 338 422 372C422 407 393 436 358 436C324 436 295 407 295 372ZM528 0L528 92L193 92L193 709L95 709L95 0Z"/>
<glyph unicode="&#x140;" horiz-adv-x="347" d="M170 0L170 724L76 724L76 0ZM229 312C229 278 257 250 291 250C325 250 353 278 353 312C353 346 325 374 291 374C257 374 229 346 229 312Z"/>
<glyph unicode="&#x141;" horiz-adv-x="564" d="M545 0L545 92L210 92L210 332L367 402L367 489L210 420L210 709L112 709L112 376L16 334L16 247L112 289L112 0Z"/>
<glyph unicode="&#x142;" horiz-adv-x="335" d="M214 0L214 314L309 356L309 443L214 401L214 724L120 724L120 359L31 320L31 233L120 272L120 0Z"/>
<glyph unicode="&#x143;" horiz-adv-x="773" d="M678 0L678 709L580 709L580 165L226 709L95 709L95 0L193 0L193 578L576 0ZM542 878L412 878L311 759L405 759Z"/>
<glyph unicode="&#x144;" horiz-adv-x="559" d="M170 278C170 351 208 410 282 410C366 410 394 356 394 289L394 0L488 0L488 305C488 412 431 495 316 495C260 495 203 472 168 412L168 481L76 481L76 0L170 0ZM422 689L304 689L217 543L296 543Z"/>
<glyph unicode="&#x145;" horiz-adv-x="773" d="M678 0L678 709L580 709L580 165L226 709L95 709L95 0L193 0L193 578L576 0ZM338 -88C338 -122 361 -139 392 -139C401 -139 410 -135 413 -133C411 -157 382 -181 348 -181L348 -221C402 -221 462 -186 462 -109C462 -55 426 -36 397 -36C366 -36 338 -58 338 -88Z"/>
<glyph unicode="&#x146;" horiz-adv-x="559" d="M170 278C170 351 208 410 282 410C366 410 394 356 394 289L394 0L488 0L488 305C488 412 431 495 316 495C260 495 203 472 168 412L168 481L76 481L76 0L170 0ZM226 -88C226 -122 249 -139 280 -139C293 -139 300 -134 301 -133C299 -157 270 -181 236 -181L236 -221C290 -221 350 -186 350 -109C350 -55 315 -36 285 -36C254 -36 226 -56 226 -88Z"/>
<glyph unicode="&#x147;" horiz-adv-x="773" d="M678 0L678 709L580 709L580 165L226 709L95 709L95 0L193 0L193 578L576 0ZM215 878L327 759L447 759L564 878L472 878L387 814L306 878Z"/>
<glyph unicode="&#x148;" horiz-adv-x="559" d="M170 278C170 351 208 410 282 410C366 410 394 356 394 289L394 0L488 0L488 305C488 412 431 495 316 495C260 495 203 472 168 412L168 481L76 481L76 0L170 0ZM108 687L210 545L321 545L423 687L335 687L265 606L195 687Z"/>
<glyph unicode="&#x149;" horiz-adv-x="559" d="M170 278C170 351 208 410 282 410C366 410 394 356 394 289L394 0L488 0L488 305C488 412 431 495 316 495C260 495 203 472 168 412L168 481L76 481L76 0L170 0ZM65 659C65 625 88 608 119 608C132 608 139 613 140 614C138 590 109 566 75 566L75 526C129 526 189 561 189 638C189 692 154 711 124 711C93 711 65 691 65 659Z"/>
<glyph unicode="&#x14a;" horiz-adv-x="773" d="M518 -112C507 -112 494 -111 488 -110L488 -189C492 -191 508 -196 544 -196C627 -196 678 -134 678 -47L678 709L580 709L580 165L226 709L95 709L95 0L193 0L193 578L580 -6L580 -45C580 -89 567 -112 518 -112Z"/>
<glyph unicode="&#x14b;" horiz-adv-x="559" d="M170 278C170 351 208 410 282 410C366 410 394 356 394 289L394 -52C394 -96 378 -122 329 -122C318 -122 305 -121 299 -120L299 -198C303 -200 319 -205 355 -205C438 -205 488 -143 488 -56L488 305C488 412 431 495 316 495C260 495 203 472 168 412L168 481L76 481L76 0L170 0Z"/>
<glyph unicode="&#x14c;" horiz-adv-x="808" d="M148 355C148 540 272 634 404 634C536 634 660 540 660 355C660 170 536 75 404 75C272 75 148 170 148 355ZM48 355C48 118 226 -15 404 -15C582 -15 760 118 760 355C760 592 582 724 404 724C226 724 48 592 48 355ZM551 779L551 862L258 862L258 779Z"/>
<glyph unicode="&#x14d;" horiz-adv-x="580" d="M290 69C210 69 140 129 140 241C140 352 210 412 290 412C370 412 440 352 440 241C440 129 370 69 290 69ZM290 496C146 496 44 387 44 241C44 94 146 -15 290 -15C434 -15 536 94 536 241C536 387 434 496 290 496ZM427 577L427 658L154 658L154 577Z"/>
<glyph unicode="&#x14e;" horiz-adv-x="808" d="M148 355C148 540 272 634 404 634C536 634 660 540 660 355C660 170 536 75 404 75C272 75 148 170 148 355ZM48 355C48 118 226 -15 404 -15C582 -15 760 118 760 355C760 592 582 724 404 724C226 724 48 592 48 355ZM412 754C513 754 564 819 568 883L487 883C485 860 466 827 412 827C358 827 338 860 336 883L255 883C259 819 311 754 412 754Z"/>
<glyph unicode="&#x14f;" horiz-adv-x="580" d="M290 69C210 69 140 129 140 241C140 352 210 412 290 412C370 412 440 352 440 241C440 129 370 69 290 69ZM290 496C146 496 44 387 44 241C44 94 146 -15 290 -15C434 -15 536 94 536 241C536 387 434 496 290 496ZM290 545C387 545 435 616 436 687L363 687C361 657 341 622 290 622C239 622 219 656 217 687L144 687C145 616 196 545 290 545Z"/>
<glyph unicode="&#x150;" horiz-adv-x="808" d="M148 355C148 540 272 634 404 634C536 634 660 540 660 355C660 170 536 75 404 75C272 75 148 170 148 355ZM48 355C48 118 226 -15 404 -15C582 -15 760 118 760 355C760 592 582 724 404 724C226 724 48 592 48 355ZM454 878L349 878L288 759L358 759ZM605 878L500 878L429 759L499 759Z"/>
<glyph unicode="&#x151;" horiz-adv-x="580" d="M290 69C210 69 140 129 140 241C140 352 210 412 290 412C370 412 440 352 440 241C440 129 370 69 290 69ZM290 496C146 496 44 387 44 241C44 94 146 -15 290 -15C434 -15 536 94 536 241C536 387 434 496 290 496ZM342 689L237 689L186 543L252 543ZM483 689L378 689L317 543L383 543Z"/>
<glyph unicode="&#x152;" horiz-adv-x="1145" d="M148 355C148 540 272 634 404 634C536 634 660 540 660 355C660 170 536 75 404 75C272 75 148 170 148 355ZM1091 0L1091 91L758 91L758 308L1060 308L1060 400L758 400L758 618L1091 618L1091 709L660 709L660 616C592 688 498 724 404 724C226 724 48 592 48 355C48 118 226 -15 404 -15C498 -15 592 21 660 93L660 0Z"/>
<glyph unicode="&#x153;" horiz-adv-x="943" d="M290 69C210 69 140 129 140 241C140 352 210 412 290 412C370 412 440 352 440 241C440 129 370 69 290 69ZM540 290C544 352 592 413 671 413C755 413 801 359 803 290ZM817 165C799 111 760 68 682 68C602 68 539 129 537 214L899 214C900 220 901 234 901 244C901 394 818 496 670 496C598 496 530 459 487 398C444 458 374 496 290 496C146 496 44 387 44 241C44 94 146 -15 290 -15C374 -15 444 22 487 82C532 19 604 -15 682 -15C794 -15 871 52 898 137Z"/>
<glyph unicode="&#x154;" horiz-adv-x="629" d="M462 0L576 0L407 297C514 317 579 396 579 498C579 615 496 709 362 709L95 709L95 0L194 0L194 290L300 290ZM194 378L194 621L344 621C424 621 478 573 478 498C478 425 424 378 344 378ZM477 878L347 878L246 759L340 759Z"/>
<glyph unicode="&#x155;" horiz-adv-x="363" d="M343 486C338 487 325 489 312 489C263 489 203 471 168 397L168 481L76 481L76 0L170 0L170 241C170 347 223 389 302 389C315 389 329 388 343 386ZM343 689L225 689L138 543L217 543Z"/>
<glyph unicode="&#x156;" horiz-adv-x="629" d="M462 0L576 0L407 297C514 317 579 396 579 498C579 615 496 709 362 709L95 709L95 0L194 0L194 290L300 290ZM194 378L194 621L344 621C424 621 478 573 478 498C478 425 424 378 344 378ZM277 -88C277 -122 300 -139 331 -139C340 -139 349 -135 352 -133C350 -157 321 -181 287 -181L287 -221C341 -221 401 -186 401 -109C401 -55 365 -36 336 -36C305 -36 277 -58 277 -88Z"/>
<glyph unicode="&#x157;" horiz-adv-x="363" d="M343 486C338 487 325 489 312 489C263 489 203 471 168 397L168 481L76 481L76 0L170 0L170 241C170 347 223 389 302 389C315 389 329 388 343 386ZM62 -88C62 -122 85 -139 116 -139C129 -139 136 -134 137 -133C135 -157 106 -181 72 -181L72 -221C126 -221 186 -186 186 -109C186 -55 151 -36 121 -36C90 -36 62 -56 62 -88Z"/>
<glyph unicode="&#x158;" horiz-adv-x="629" d="M462 0L576 0L407 297C514 317 579 396 579 498C579 615 496 709 362 709L95 709L95 0L194 0L194 290L300 290ZM194 378L194 621L344 621C424 621 478 573 478 498C478 425 424 378 344 378ZM137 878L249 759L369 759L486 878L394 878L309 814L228 878Z"/>
<glyph unicode="&#x159;" horiz-adv-x="363" d="M343 486C338 487 325 489 312 489C263 489 203 471 168 397L168 481L76 481L76 0L170 0L170 241C170 347 223 389 302 389C315 389 329 388 343 386ZM49 687L151 545L262 545L364 687L276 687L206 606L136 687Z"/>
<glyph unicode="&#x15a;" horiz-adv-x="594" d="M540 548C524 625 460 724 300 724C169 724 66 624 66 513C66 407 138 341 239 319L340 297C411 282 446 238 446 187C446 125 398 74 300 74C193 74 137 147 130 226L36 196C49 95 130 -15 301 -15C452 -15 546 85 546 195C546 294 480 368 362 394L256 417C196 430 165 469 165 520C165 586 222 638 302 638C401 638 444 568 452 517ZM476 878L346 878L245 759L339 759Z"/>
<glyph unicode="&#x15b;" horiz-adv-x="455" d="M38 125C46 70 102 -15 234 -15C353 -15 410 66 410 134C410 205 364 258 277 277L199 294C162 302 144 323 144 352C144 385 176 416 224 416C300 416 320 361 324 336L407 367C397 410 356 496 224 496C130 496 53 426 53 344C53 276 98 225 173 209L255 191C295 182 317 159 317 129C317 95 288 65 235 65C167 65 129 105 123 155ZM386 689L268 689L181 543L260 543Z"/>
<glyph unicode="&#x15c;" horiz-adv-x="594" d="M540 548C524 625 460 724 300 724C169 724 66 624 66 513C66 407 138 341 239 319L340 297C411 282 446 238 446 187C446 125 398 74 300 74C193 74 137 147 130 226L36 196C49 95 130 -15 301 -15C452 -15 546 85 546 195C546 294 480 368 362 394L256 417C196 430 165 469 165 520C165 586 222 638 302 638C401 638 444 568 452 517ZM233 759L314 823L399 759L491 759L374 878L254 878L142 759Z"/>
<glyph unicode="&#x15d;" horiz-adv-x="455" d="M38 125C46 70 102 -15 234 -15C353 -15 410 66 410 134C410 205 364 258 277 277L199 294C162 302 144 323 144 352C144 385 176 416 224 416C300 416 320 361 324 336L407 367C397 410 356 496 224 496C130 496 53 426 53 344C53 276 98 225 173 209L255 191C295 182 317 159 317 129C317 95 288 65 235 65C167 65 129 105 123 155ZM166 545L236 626L306 545L394 545L290 684L183 684L79 545Z"/>
<glyph unicode="&#x15e;" horiz-adv-x="594" d="M540 548C524 625 460 724 300 724C169 724 66 624 66 513C66 407 138 341 239 319L340 297C409 282 446 238 446 187C446 125 398 74 300 74C195 74 137 149 130 228L36 198C48 100 122 -3 273 -14L242 -62L275 -101C283 -98 294 -96 304 -96C332 -96 348 -110 348 -128C348 -151 325 -161 301 -161C267 -161 241 -140 229 -127L192 -172C212 -196 252 -216 302 -216C383 -216 419 -175 419 -128C419 -78 378 -46 322 -46L344 -12C469 4 546 94 546 195C546 294 480 368 362 394L256 417C197 430 165 470 165 520C165 584 222 638 302 638C401 638 444 568 452 517Z"/>
<glyph unicode="&#x15f;" horiz-adv-x="455" d="M38 127C45 77 93 1 196 -12L164 -62L197 -101C205 -98 216 -96 226 -96C254 -96 270 -110 270 -128C270 -151 247 -161 223 -161C189 -161 163 -140 151 -127L114 -172C134 -196 174 -216 224 -216C305 -216 341 -175 341 -128C341 -78 300 -46 244 -46L265 -13C363 0 410 72 410 134C410 205 364 258 277 277L199 294C164 302 144 323 144 352C144 385 176 416 224 416C300 416 320 361 324 336L407 367C397 410 356 496 224 496C130 496 53 426 53 344C53 278 100 225 173 209L255 191C295 182 317 159 317 129C317 95 288 65 235 65C167 65 129 107 123 157Z"/>
<glyph unicode="&#x160;" horiz-adv-x="594" d="M540 548C524 625 460 724 300 724C169 724 66 624 66 513C66 407 138 341 239 319L340 297C411 282 446 238 446 187C446 125 398 74 300 74C193 74 137 147 130 226L36 196C49 95 130 -15 301 -15C452 -15 546 85 546 195C546 294 480 368 362 394L256 417C196 430 165 469 165 520C165 586 222 638 302 638C401 638 444 568 452 517ZM131 878L243 759L363 759L480 878L388 878L303 814L222 878Z"/>
<glyph unicode="&#x161;" horiz-adv-x="455" d="M38 125C46 70 102 -15 234 -15C353 -15 410 66 410 134C410 205 364 258 277 277L199 294C162 302 144 323 144 352C144 385 176 416 224 416C300 416 320 361 324 336L407 367C397 410 356 496 224 496C130 496 53 426 53 344C53 276 98 225 173 209L255 191C295 182 317 159 317 129C317 95 288 65 235 65C167 65 129 105 123 155ZM72 687L174 545L285 545L387 687L299 687L229 606L159 687Z"/>
<glyph unicode="&#x162;" horiz-adv-x="608" d="M263 -101C271 -98 282 -96 292 -96C320 -96 336 -110 336 -128C336 -151 313 -161 289 -161C255 -161 229 -140 217 -127L180 -172C200 -196 240 -218 290 -218C371 -218 407 -175 407 -128C407 -78 366 -46 310 -46L340 0L353 0L353 618L590 618L590 709L18 709L18 618L255 618L255 0L269 0L230 -62Z"/>
<glyph unicode="&#x163;" horiz-adv-x="347" d="M176 -101C184 -98 195 -96 205 -96C233 -96 249 -110 249 -128C249 -151 226 -161 202 -161C168 -161 142 -140 130 -127L93 -172C113 -196 153 -218 203 -218C284 -218 320 -175 320 -128C320 -78 279 -46 223 -46L249 -5C280 -4 303 1 311 4L311 84C303 82 286 80 274 80C225 80 207 102 207 146L207 396L311 396L311 481L207 481L207 633L121 633L121 555C121 513 99 481 47 481L21 481L21 396L113 396L113 132C113 69 140 25 186 6L143 -62Z"/>
<glyph unicode="&#x164;" horiz-adv-x="608" d="M590 618L590 709L18 709L18 618L255 618L255 0L353 0L353 618ZM130 878L242 759L362 759L479 878L387 878L302 814L221 878Z"/>
<glyph unicode="&#x165;" horiz-adv-x="347" d="M207 633L121 633L121 555C121 513 99 481 47 481L21 481L21 396L113 396L113 132C113 45 165 -5 247 -5C279 -5 303 1 311 4L311 84C303 82 286 80 274 80C225 80 207 102 207 146L207 396L311 396L311 481L207 481ZM404 745L299 745L271 566L340 566Z"/>
<glyph unicode="&#x166;" horiz-adv-x="616" d="M594 618L594 709L22 709L22 618L259 618L259 372L151 372L151 291L259 291L259 0L357 0L357 291L467 291L467 372L357 372L357 618Z"/>
<glyph unicode="&#x167;" horiz-adv-x="355" d="M280 80C231 80 213 102 213 146L213 207L317 207L317 283L213 283L213 396L317 396L317 481L213 481L213 633L127 633L127 555C127 513 105 481 53 481L27 481L27 396L119 396L119 283L27 283L27 207L119 207L119 132C119 45 171 -5 253 -5C285 -5 309 1 317 4L317 84C309 82 292 80 280 80Z"/>
<glyph unicode="&#x168;" horiz-adv-x="686" d="M343 -15C487 -15 598 75 598 242L598 709L500 709L500 245C500 137 443 76 343 76C244 76 185 137 185 245L185 709L88 709L88 242C88 75 199 -15 343 -15ZM503 881L436 881L436 873C436 847 421 838 404 838C391 838 380 844 366 852L351 861C331 873 306 884 278 884C223 884 181 847 181 773L181 757L249 757C249 788 263 801 284 801C297 801 308 795 321 787L336 777C356 763 378 754 407 754C462 754 503 791 503 865Z"/>
<glyph unicode="&#x169;" horiz-adv-x="559" d="M393 58C393 38 395 11 397 0L487 0C485 17 482 51 482 89L482 481L388 481L388 191C388 118 350 68 274 68C195 68 165 126 165 192L165 481L71 481L71 178C71 69 139 -15 251 -15C307 -15 367 8 393 58ZM433 677L362 677C362 645 353 634 333 634C320 634 310 640 297 648L283 657C264 669 243 679 216 679C161 679 118 644 118 570L118 555L190 555C190 588 200 598 219 598C232 598 243 592 256 584L270 575C289 563 310 553 336 553C391 553 433 588 433 662Z"/>
<glyph unicode="&#x16a;" horiz-adv-x="686" d="M343 -15C487 -15 598 75 598 242L598 709L500 709L500 245C500 137 443 76 343 76C244 76 185 137 185 245L185 709L88 709L88 242C88 75 199 -15 343 -15ZM490 779L490 862L197 862L197 779Z"/>
<glyph unicode="&#x16b;" horiz-adv-x="559" d="M393 58C393 38 395 11 397 0L487 0C485 17 482 51 482 89L482 481L388 481L388 191C388 118 350 68 274 68C195 68 165 126 165 192L165 481L71 481L71 178C71 69 139 -15 251 -15C307 -15 367 8 393 58ZM413 577L413 658L140 658L140 577Z"/>
<glyph unicode="&#x16c;" horiz-adv-x="686" d="M343 -15C487 -15 598 75 598 242L598 709L500 709L500 245C500 137 443 76 343 76C244 76 185 137 185 245L185 709L88 709L88 242C88 75 199 -15 343 -15ZM344 754C445 754 496 819 500 883L419 883C417 860 398 827 344 827C290 827 270 860 268 883L187 883C191 819 243 754 344 754Z"/>
<glyph unicode="&#x16d;" horiz-adv-x="559" d="M393 58C393 38 395 11 397 0L487 0C485 17 482 51 482 89L482 481L388 481L388 191C388 118 350 68 274 68C195 68 165 126 165 192L165 481L71 481L71 178C71 69 139 -15 251 -15C307 -15 367 8 393 58ZM278 545C375 545 423 616 424 687L351 687C349 657 329 622 278 622C227 622 207 656 205 687L132 687C133 616 184 545 278 545Z"/>
<glyph unicode="&#x16e;" horiz-adv-x="686" d="M343 -15C487 -15 598 75 598 242L598 709L500 709L500 245C500 137 443 76 343 76C244 76 185 137 185 245L185 709L88 709L88 242C88 75 199 -15 343 -15ZM455 848C455 910 404 958 343 958C284 958 232 910 232 848C232 787 284 739 343 739C404 739 455 787 455 848ZM390 848C390 822 369 802 342 802C316 802 296 822 296 848C296 874 316 895 342 895C369 895 390 874 390 848Z"/>
<glyph unicode="&#x16f;" horiz-adv-x="559" d="M393 58C393 38 395 11 397 0L487 0C485 17 482 51 482 89L482 481L388 481L388 191C388 118 350 68 274 68C195 68 165 126 165 192L165 481L71 481L71 178C71 69 139 -15 251 -15C307 -15 367 8 393 58ZM388 641C388 703 337 751 276 751C217 751 165 703 165 641C165 580 217 532 276 532C337 532 388 580 388 641ZM324 641C324 614 303 593 275 593C248 593 228 614 228 641C228 668 248 690 275 690C303 690 324 668 324 641Z"/>
<glyph unicode="&#x170;" horiz-adv-x="686" d="M343 -15C487 -15 598 75 598 242L598 709L500 709L500 245C500 137 443 76 343 76C244 76 185 137 185 245L185 709L88 709L88 242C88 75 199 -15 343 -15ZM389 878L284 878L223 759L293 759ZM540 878L435 878L364 759L434 759Z"/>
<glyph unicode="&#x171;" horiz-adv-x="559" d="M393 58C393 38 395 11 397 0L487 0C485 17 482 51 482 89L482 481L388 481L388 191C388 118 350 68 274 68C195 68 165 126 165 192L165 481L71 481L71 178C71 69 139 -15 251 -15C307 -15 367 8 393 58ZM318 689L213 689L162 543L228 543ZM459 689L354 689L293 543L359 543Z"/>
<glyph unicode="&#x172;" horiz-adv-x="686" d="M274 -115C274 -179 327 -216 389 -216C414 -216 426 -213 439 -208L439 -140C431 -142 423 -144 407 -144C380 -144 354 -131 354 -97C354 -48 401 -18 439 0C533 32 598 114 598 242L598 709L500 709L500 245C500 137 443 76 343 76C244 76 185 137 185 245L185 709L88 709L88 242C88 82 191 -8 325 -14C297 -37 274 -69 274 -115Z"/>
<glyph unicode="&#x173;" horiz-adv-x="559" d="M322 -115C322 -179 375 -216 437 -216C462 -216 474 -213 487 -208L487 -140C479 -142 471 -144 455 -144C428 -144 402 -131 402 -97C402 -48 449 -18 487 0C485 17 482 48 482 89L482 481L388 481L388 191C388 118 350 68 274 68C195 68 165 126 165 192L165 481L71 481L71 178C71 69 139 -15 251 -15C307 -15 367 8 393 58C393 39 395 14 397 2C359 -20 322 -56 322 -115Z"/>
<glyph unicode="&#x174;" horiz-adv-x="1020" d="M742 148L560 709L457 709L279 154L123 709L22 709L227 0L325 0L508 575L693 0L794 0L996 709L895 709ZM426 759L507 823L592 759L684 759L567 878L447 878L335 759Z"/>
<glyph unicode="&#x175;" horiz-adv-x="816" d="M362 481L237 119L129 481L26 481L184 0L283 0L408 366L536 0L633 0L789 481L690 481L584 119L459 481ZM338 545L408 626L478 545L566 545L462 684L355 684L251 545Z"/>
<glyph unicode="&#x176;" horiz-adv-x="642" d="M272 303L272 0L370 0L370 303L620 709L508 709L324 393L140 709L22 709ZM238 759L319 823L404 759L496 759L379 878L259 878L147 759Z"/>
<glyph unicode="&#x177;" horiz-adv-x="538" d="M210 -201L523 481L422 481L278 149L128 481L20 481L227 53L107 -201ZM200 545L270 626L340 545L428 545L324 684L217 684L113 545Z"/>
<glyph unicode="&#x178;" horiz-adv-x="642" d="M272 303L272 0L370 0L370 303L620 709L508 709L324 393L140 709L22 709ZM147 819C147 786 173 760 206 760C239 760 265 786 265 819C265 852 239 878 206 878C173 878 147 852 147 819ZM378 819C378 786 404 760 437 760C470 760 496 786 496 819C496 852 470 878 437 878C404 878 378 852 378 819Z"/>
<glyph unicode="&#x179;" horiz-adv-x="633" d="M589 0L589 92L159 92L584 614L584 709L52 709L52 618L465 618L42 98L42 0ZM473 878L343 878L242 759L336 759Z"/>
<glyph unicode="&#x17a;" horiz-adv-x="477" d="M432 0L432 85L163 85L427 399L427 481L50 481L50 396L310 396L46 82L46 0ZM381 689L263 689L176 543L255 543Z"/>
<glyph unicode="&#x17b;" horiz-adv-x="633" d="M589 0L589 92L159 92L584 614L584 709L52 709L52 618L465 618L42 98L42 0ZM253 818C253 784 282 755 316 755C351 755 380 784 380 818C380 853 351 882 316 882C282 882 253 853 253 818Z"/>
<glyph unicode="&#x17c;" horiz-adv-x="477" d="M432 0L432 85L163 85L427 399L427 481L50 481L50 396L310 396L46 82L46 0ZM177 616C177 582 205 554 239 554C273 554 301 582 301 616C301 650 273 678 239 678C205 678 177 650 177 616Z"/>
<glyph unicode="&#x17d;" horiz-adv-x="633" d="M589 0L589 92L159 92L584 614L584 709L52 709L52 618L465 618L42 98L42 0ZM146 878L258 759L378 759L495 878L403 878L318 814L237 878Z"/>
<glyph unicode="&#x17e;" horiz-adv-x="477" d="M432 0L432 85L163 85L427 399L427 481L50 481L50 396L310 396L46 82L46 0ZM84 687L186 545L297 545L399 687L311 687L241 606L171 687Z"/>
<glyph unicode="&#x18f;" horiz-adv-x="793" d="M383 724C223 724 88 622 50 496L138 464C166 557 265 634 383 634C515 634 634 549 643 375L41 375C40 364 40 356 40 351C40 106 216 -15 392 -15C570 -15 744 112 744 354C744 596 580 724 383 724ZM612 206C568 118 483 75 392 75C294 75 200 122 160 218C151 238 145 260 142 285L638 285C632 255 623 229 612 206Z"/>
<glyph unicode="&#x192;" horiz-adv-x="5120" d="M2128 382C2006 412 1984 431 1984 474C1984 515 2022 542 2079 542C2134 542 2188 521 2245 478C2246 477 2248 476 2250 476C2253 476 2256 478 2257 480L2316 564C2317 566 2318 567 2318 569C2318 571 2317 573 2315 575C2250 628 2172 656 2081 656C1949 656 1857 577 1857 464C1857 344 1937 300 2073 268C2190 240 2210 218 2210 178C2210 133 2170 105 2106 105C2035 105 1977 129 1912 186C1911 187 1909 188 1906 188C1904 188 1902 186 1901 185L1834 105C1833 104 1832 101 1832 99C1832 97 1833 96 1835 94C1911 26 2003 -9 2103 -9C2244 -9 2336 69 2336 188C2336 289 2276 346 2128 382ZM2657 502C2595 502 2545 477 2504 428L2504 484C2504 489 2500 492 2495 492L2387 492C2382 492 2378 489 2378 484L2378 -135C2378 -140 2382 -144 2387 -144L2495 -144C2500 -144 2504 -140 2504 -135L2504 60C2545 13 2595 -9 2657 -9C2771 -9 2886 78 2886 246C2886 414 2771 502 2657 502ZM2760 246C2760 160 2707 101 2632 101C2557 101 2501 163 2501 246C2501 329 2557 391 2632 391C2706 391 2760 330 2760 246ZM3183 502C3036 502 2921 388 2921 244C2921 101 3035 -10 3181 -10C3328 -10 3444 102 3444 246C3444 389 3329 502 3183 502ZM3183 100C3104 100 3045 163 3045 246C3045 330 3102 390 3181 390C3259 390 3318 328 3318 244C3318 161 3261 100 3183 100ZM3637 492L3637 615C3637 619 3633 622 3629 622L3520 622C3516 622 3512 619 3512 615L3512 492L3459 492C3456 492 3452 489 3452 484L3452 390C3452 386 3456 382 3459 382L3512 382L3512 140C3512 42 3560 -8 3657 -8C3702 -8 3731 2 3757 17C3763 20 3763 24 3763 26L3763 113C3763 119 3759 122 3755 122C3752 122 3747 119 3742 117C3736 114 3715 105 3688 105C3653 105 3637 121 3637 157L3637 382L3757 382C3762 382 3765 386 3765 390L3765 484C3765 489 3762 492 3757 492ZM4294 559C4299 559 4302 564 4302 567L4302 659C4302 663 4299 666 4296 667C4271 675 4242 679 4206 679C4105 679 4051 622 4051 516L4051 492L3999 492C3995 492 3992 489 3992 485L3992 390C3992 386 3995 382 3999 382L4051 382L4051 9C4051 4 4055 0 4060 0L4168 0C4173 0 4177 4 4177 9L4177 382L4279 382L4434 9C4416 -31 4399 -39 4375 -39C4356 -39 4339 -33 4315 -21C4314 -21 4312 -20 4311 -20C4308 -20 4305 -22 4304 -25L4268 -107C4267 -109 4267 -110 4267 -112C4267 -114 4269 -117 4271 -118C4311 -138 4344 -147 4387 -147C4468 -147 4512 -109 4551 -8L4739 477C4740 479 4741 483 4741 484C4741 489 4736 492 4733 492L4619 492C4616 492 4613 490 4612 487L4496 154L4369 488C4368 490 4364 492 4361 492L4175 492L4175 506C4175 551 4192 571 4230 571C4246 571 4256 569 4273 565C4286 562 4291 559 4294 559ZM3823 492C3820 492 3816 489 3816 484L3816 9C3816 4 3820 0 3823 0L3933 0C3937 0 3940 4 3940 9L3940 484C3940 489 3937 492 3933 492ZM3878 708C3835 708 3801 674 3801 631C3801 587 3835 552 3878 552C3921 552 3957 587 3957 631C3957 674 3921 708 3878 708ZM4833 338C4876 338 4910 373 4910 416C4910 458 4876 492 4833 492C4790 492 4757 457 4757 415C4757 373 4790 338 4833 338ZM4833 484C4873 484 4903 453 4903 416C4903 377 4873 345 4833 345C4794 345 4765 376 4765 415C4765 453 4794 484 4833 484ZM4851 407C4861 411 4870 418 4870 431C4870 448 4857 458 4838 458L4803 458L4803 377L4818 377L4818 404L4834 404L4854 377L4873 377ZM4838 444C4847 444 4854 439 4854 430C4854 423 4847 418 4838 418L4818 418L4818 444ZM1200 -6C1192 -6 1184 -3 1177 1C1070 66 946 100 804 100C754 100 676 95 589 77C579 75 557 69 548 69C522 69 505 90 505 113C505 133 519 150 539 155C631 176 719 187 802 187C983 187 1118 141 1223 76C1236 68 1244 54 1244 39C1244 14 1223 -6 1200 -6ZM1277 181C1267 181 1257 184 1248 189C1124 266 957 307 794 307C741 307 664 302 587 283C549 274 550 270 527 270C495 270 475 295 475 324C475 348 490 370 514 377C603 404 699 417 796 417C978 417 1164 371 1306 284C1323 274 1332 256 1332 237C1332 206 1306 181 1277 181ZM1332 408C1191 492 993 528 812 528C700 528 595 514 512 489C506 487 499 486 493 486C455 486 428 519 428 553C428 581 446 607 475 616C568 644 684 660 806 660C1023 660 1234 617 1399 521C1420 509 1432 487 1432 465C1432 428 1402 399 1365 399C1354 399 1342 402 1332 408ZM210 327C210 -63 527 -378 916 -378C1305 -378 1621 -63 1621 327C1621 717 1305 1033 916 1033C527 1033 210 717 210 327Z"/>
<glyph unicode="&#x1b5;" horiz-adv-x="641" d="M594 0L594 92L164 92L356 328L545 328L545 413L425 413L589 614L589 709L57 709L57 618L470 618L303 413L89 413L89 328L234 328L47 98L47 0Z"/>
<glyph unicode="&#x1b6;" horiz-adv-x="486" d="M437 0L437 85L168 85L274 211L425 211L425 287L338 287L432 399L432 481L55 481L55 396L315 396L223 287L60 287L60 211L159 211L51 82L51 0Z"/>
<glyph unicode="&#x1fa;" horiz-adv-x="711" d="M353 607L476 289L232 289ZM400 755C400 729 379 709 352 709C326 709 306 729 306 755C306 781 326 802 352 802C379 802 400 781 400 755ZM538 1021L408 1021L307 902L401 902ZM465 755C465 817 414 865 353 865C294 865 242 817 242 755C242 720 259 691 284 671L17 0L122 0L197 198L511 198L588 0L694 0L426 672C450 692 465 722 465 755Z"/>
<glyph unicode="&#x1fb;" horiz-adv-x="523" d="M44 129C44 53 107 -15 205 -15C291 -15 339 31 360 65C360 30 363 12 365 0L457 0C455 12 451 37 451 79L451 320C451 414 395 496 251 496C147 496 64 432 54 340L144 319C150 375 187 416 253 416C326 416 357 377 357 330C357 313 349 298 320 294L190 275C107 263 44 215 44 129ZM218 64C170 64 140 98 140 134C140 177 170 200 210 206L357 228L357 206C357 101 295 64 218 64ZM367 636C367 698 316 746 255 746C196 746 144 698 144 636C144 575 196 527 255 527C316 527 367 575 367 636ZM303 636C303 609 282 588 254 588C227 588 207 609 207 636C207 663 227 685 254 685C282 685 303 663 303 636ZM417 925L299 925L212 779L291 779Z"/>
<glyph unicode="&#x1fc;" horiz-adv-x="1013" d="M959 0L959 91L626 91L626 308L928 308L928 400L626 400L626 618L959 618L959 709L470 709L-2 0L124 0L250 196L528 196L528 0ZM306 284L528 628L528 284ZM729 878L599 878L498 759L592 759Z"/>
<glyph unicode="&#x1fd;" horiz-adv-x="869" d="M742 165C724 111 686 68 608 68C528 68 465 129 463 214L825 214C826 219 827 235 827 244C827 394 744 496 596 496C531 496 470 466 427 416C396 464 338 496 256 496C164 496 62 437 53 340L141 323C147 374 188 417 256 417C329 417 366 376 366 330C366 316 360 299 328 294L189 275C106 263 43 215 43 129C43 53 105 -15 215 -15C324 -15 380 38 408 89C453 21 527 -15 608 -15C714 -15 797 52 824 137ZM222 64C169 64 139 97 139 132C139 176 167 200 209 206L366 228L366 205C366 100 289 64 222 64ZM466 290C470 352 518 413 597 413C681 413 727 359 729 290ZM591 689L473 689L386 543L465 543Z"/>
<glyph unicode="&#x1fe;" horiz-adv-x="808" d="M48 355C48 243 88 154 148 92L77 0L147 -51L215 38C272 3 338 -15 404 -15C582 -15 760 118 760 355C760 465 721 553 662 615L735 709L667 761L595 669C538 705 471 724 404 724C226 724 48 592 48 355ZM148 355C148 540 272 634 404 634C452 634 499 621 539 596L207 167C170 213 148 276 148 355ZM660 355C660 170 536 75 404 75C357 75 311 86 271 110L603 539C638 493 660 432 660 355ZM585 878L455 878L354 759L448 759Z"/>
<glyph unicode="&#x1ff;" horiz-adv-x="582" d="M291 496C147 496 45 387 45 241C45 171 68 110 107 65L58 1L118 -47L167 16C202 -3 244 -15 291 -15C435 -15 537 94 537 241C537 310 514 370 475 415L526 481L466 529L416 464C380 484 338 496 291 496ZM141 241C141 352 211 412 291 412C316 412 340 406 362 394L166 140C151 167 141 197 141 241ZM291 69C266 69 242 74 221 86L417 340C432 314 441 280 441 241C441 129 371 69 291 69ZM457 689L339 689L252 543L331 543Z"/>
<glyph unicode="&#x218;" horiz-adv-x="594" d="M540 548C524 625 460 724 300 724C169 724 66 624 66 513C66 407 138 341 239 319L340 297C411 282 446 238 446 187C446 125 398 74 300 74C193 74 137 147 130 226L36 196C49 95 130 -15 301 -15C452 -15 546 85 546 195C546 294 480 368 362 394L256 417C196 430 165 469 165 520C165 586 222 638 302 638C401 638 444 568 452 517ZM246 -88C246 -122 269 -139 300 -139C309 -139 318 -135 321 -133C319 -157 290 -181 256 -181L256 -221C310 -221 370 -186 370 -109C370 -55 334 -36 305 -36C274 -36 246 -58 246 -88Z"/>
<glyph unicode="&#x219;" horiz-adv-x="455" d="M38 125C46 70 102 -15 234 -15C353 -15 410 66 410 134C410 205 364 258 277 277L199 294C162 302 144 323 144 352C144 385 176 416 224 416C300 416 320 361 324 336L407 367C397 410 356 496 224 496C130 496 53 426 53 344C53 276 98 225 173 209L255 191C295 182 317 159 317 129C317 95 288 65 235 65C167 65 129 105 123 155ZM172 -88C172 -122 195 -139 226 -139C239 -139 246 -134 247 -133C245 -157 216 -181 182 -181L182 -221C236 -221 296 -186 296 -109C296 -55 261 -36 231 -36C200 -36 172 -56 172 -88Z"/>
<glyph unicode="&#x21a;" horiz-adv-x="608" d="M590 618L590 709L18 709L18 618L255 618L255 0L353 0L353 618ZM241 -88C241 -122 264 -139 295 -139C304 -139 313 -135 316 -133C314 -157 285 -181 251 -181L251 -221C305 -221 365 -186 365 -109C365 -55 329 -36 300 -36C269 -36 241 -58 241 -88Z"/>
<glyph unicode="&#x21b;" horiz-adv-x="347" d="M207 633L121 633L121 555C121 513 99 481 47 481L21 481L21 396L113 396L113 132C113 45 165 -5 247 -5C279 -5 303 1 311 4L311 84C303 82 286 80 274 80C225 80 207 102 207 146L207 396L311 396L311 481L207 481ZM147 -88C147 -122 170 -139 201 -139C214 -139 221 -134 222 -133C220 -157 191 -181 157 -181L157 -221C211 -221 271 -186 271 -109C271 -55 236 -36 206 -36C175 -36 147 -56 147 -88Z"/>
<glyph unicode="&#x237;" horiz-adv-x="246" d="M76 -52C76 -96 60 -122 11 -122C1 -122 -14 -121 -19 -120L-19 -198C-13 -200 1 -205 37 -205C120 -205 170 -143 170 -56L170 481L76 481Z"/>
<glyph unicode="&#x259;" horiz-adv-x="552" d="M406 188C402 126 354 68 275 68C193 68 142 119 140 188ZM124 317C142 368 192 413 267 413C352 413 407 349 409 264L42 264C40 248 40 239 40 234C40 84 131 -15 276 -15C402 -15 506 88 506 239C506 392 416 496 267 496C156 496 73 428 45 345Z"/>
<glyph unicode="&#x2c6;" horiz-adv-x="385" d="M122 545L192 626L262 545L350 545L246 684L139 684L35 545Z"/>
<glyph unicode="&#x2c7;" horiz-adv-x="385" d="M35 687L137 545L248 545L350 687L262 687L192 606L122 687Z"/>
<glyph unicode="&#x2c9;" horiz-adv-x="343" d="M308 577L308 658L35 658L35 577Z"/>
<glyph unicode="&#x2d8;" horiz-adv-x="362" d="M181 545C278 545 326 616 327 687L254 687C252 657 232 622 181 622C130 622 110 656 108 687L35 687C36 616 87 545 181 545Z"/>
<glyph unicode="&#x2d9;" horiz-adv-x="174" d="M25 616C25 582 53 554 87 554C121 554 149 582 149 616C149 650 121 678 87 678C53 678 25 650 25 616Z"/>
<glyph unicode="&#x2da;" horiz-adv-x="293" d="M258 641C258 703 207 751 146 751C87 751 35 703 35 641C35 580 87 532 146 532C207 532 258 580 258 641ZM194 641C194 614 173 593 145 593C118 593 98 614 98 641C98 668 118 690 145 690C173 690 194 668 194 641Z"/>
<glyph unicode="&#x2db;" horiz-adv-x="233" d="M33 -115C33 -179 86 -216 148 -216C173 -216 185 -213 198 -208L198 -140C190 -142 182 -144 166 -144C139 -144 113 -131 113 -97C113 -48 160 -18 198 0L135 16C90 -4 33 -42 33 -115Z"/>
<glyph unicode="&#x2dc;" horiz-adv-x="377" d="M346 677L275 677C275 645 266 634 246 634C233 634 223 640 210 648L196 657C177 669 156 679 129 679C74 679 31 644 31 570L31 555L103 555C103 588 113 598 132 598C145 598 156 592 169 584L183 575C202 563 223 553 249 553C304 553 346 588 346 662Z"/>
<glyph unicode="&#x2dd;" horiz-adv-x="367" d="M191 689L86 689L35 543L101 543ZM332 689L227 689L166 543L232 543Z"/>
<glyph unicode="&#x394;" horiz-adv-x="698" d="M18 0L680 0L401 709L296 709ZM347 597L540 90L157 90Z"/>
<glyph unicode="&#x3a9;" horiz-adv-x="818" d="M409 636C532 636 662 550 662 388C662 243 551 153 452 132L452 0L757 0L757 88L554 88C657 125 762 233 762 387C762 599 593 724 409 724C225 724 56 599 56 387C56 233 161 125 263 88L61 88L61 0L366 0L366 132C267 153 156 243 156 388C156 550 286 636 409 636Z"/>
<glyph unicode="&#x3bc;" horiz-adv-x="564" d="M398 58C398 38 400 11 402 0L492 0C490 13 487 51 487 89L487 481L393 481L393 191C393 118 355 68 279 68C200 68 170 126 170 192L170 481L76 481L76 -190L170 -190L170 5C194 -7 220 -15 256 -15C312 -15 372 8 398 58Z"/>
<glyph unicode="&#x3c0;" horiz-adv-x="597" d="M551 5L551 77C541 74 530 73 520 73C490 73 466 86 466 122L466 399L549 399L549 481L31 481L31 399L113 399L113 0L207 0L207 399L372 399L372 112C372 51 408 -7 490 -7C520 -7 539 0 551 5Z"/>
<glyph unicode="&#x1e80;" horiz-adv-x="1020" d="M742 148L560 709L457 709L279 154L123 709L22 709L227 0L325 0L508 575L693 0L794 0L996 709L895 709ZM465 759L558 759L456 878L327 878Z"/>
</font>
</defs>
</svg>
